<svg id="Capa_1" data-name="Capa 1" xmlns="http://www.w3.org/2000/svg" viewBox="0 0 371.07 315.9"><defs><style>.cls-1{fill:#758d75;}</style></defs><path class="cls-1" d="M470.44,384.29a16.13,16.13,0,0,1-.93,1.86c-1.43,2-2.8,4.14-4.38,6.06s-1.51,3.76-.39,6A93,93,0,0,1,473,456.33c-8.91,51.81-60.27,86.85-111.64,76.08a94.49,94.49,0,0,1-74.12-109.12c10.72-61.9,79.1-96.2,135.18-67.83a100.25,100.25,0,0,1,25.69,18.81l7.35-9c-35.34-37.14-97.77-44-142.14-8-44.67,36.25-52.56,101.43-17.89,146.46,35.83,46.54,100.07,56.12,147.26,21.62C489.36,491.36,498.28,429,470.44,384.29Z" transform="translate(-273.85 -230.94)"/><path class="cls-1" d="M448.2,495.4a8.53,8.53,0,0,0,1.08-1c1.55-2.1,3-4.29,4.62-6.34,1.5-1.88,1.45-3.51.37-5.7a93.7,93.7,0,0,1-8.34-58.43c8.65-50.71,58.25-85.39,109.18-76.22,52.38,9.4,86.7,59.54,76.34,111.4-13.38,67-92,98-147.48,58.18-4.61-3.32-8.84-7.16-13.39-10.87l-7.08,8.69C497,551.05,559.41,560,605.15,523.55s53.14-103,16.4-149.31c-36.23-45.61-103-53.12-149-16.32S422.93,456.39,448.2,495.4Z" transform="translate(-273.85 -230.94)"/><path class="cls-1" d="M339.28,334.92c-10-11.78-19.7-23.29-29.53-34.69a4,4,0,0,0-3.39-1c-6.54,1.89-13,4-20,6.25l34.43,38.67Z" transform="translate(-273.85 -230.94)"/><path class="cls-1" d="M380,276.28a7.58,7.58,0,0,0-1.16.19c-4,1.25-8,2.92-12.1,3.68-6.36,1.16-9.54,3.74-9.73,11-.31,12.17-2,24.3-3.13,36.45a16.85,16.85,0,0,0,.16,2.75l19.92-3c1.07-8.65,2.14-17,3.13-25.43S379,284.92,380,276.28Z" transform="translate(-273.85 -230.94)"/><path class="cls-1" d="M351.57,284.93l-36.78,11.58,31.14,36.6,1.17-.51C348.54,316.89,350,301.11,351.57,284.93Z" transform="translate(-273.85 -230.94)"/><path class="cls-1" d="M331.79,263c8.08,4.84,15.5,9.31,23,13.7a3,3,0,0,0,2.11.09c6-1.81,11.91-3.7,18.82-5.86-9-4.69-17.11-8.95-25.28-13.06-.82-.41-2.16-.06-3.17.24C342.38,259.55,337.55,261.11,331.79,263Z" transform="translate(-273.85 -230.94)"/><path class="cls-1" d="M287.14,298.71c5.75-1.78,10.65-3.47,15.65-4.78a8.44,8.44,0,0,0,6.28-5.48c2.46-6.1,5.35-12,8-18.05a30.89,30.89,0,0,0,1-3.09c-5.79,1.79-11,3.34-16.17,5.06a4.18,4.18,0,0,0-2,2C295.71,282.11,291.67,290,287.14,298.71Z" transform="translate(-273.85 -230.94)"/><path class="cls-1" d="M347.65,279.73l-22-13.22-10.49,23.41Z" transform="translate(-273.85 -230.94)"/><path class="cls-1" d="M459.46,236.11c9.62-8.75,20-5,24.5,1s4.07,12.34,1.19,18.74c-3.43,7.64-9.31,13.23-16.15,17.74-10.87,7.18-8.48,7.05-19.11.06-6.95-4.56-12.88-10.28-16.3-18.08-3.72-8.51-1.92-16.71,4.55-21.57C444.37,229.35,451.93,230.05,459.46,236.11Zm-21.67,11.15c.08.43.2,1.29.38,2.14,1.45,7.18,6.05,12.28,11.61,16.4,11.39,8.44,7.94,8.28,18.91.26,6-4.37,11-9.8,12.19-17.68a9.79,9.79,0,0,0-5.95-10.55,9.49,9.49,0,0,0-11.72,3.89c-3.25,5-4.51,5-7.61,0A9.33,9.33,0,0,0,445,237.47a9.85,9.85,0,0,0-7.2,9.81Z" transform="translate(-273.85 -230.94)"/><path class="cls-1" d="M470.44,384.29C498.28,429,489.36,491.36,442.7,525.47c-47.19,34.5-111.43,24.92-147.26-21.62-34.67-45-26.78-110.21,17.89-146.46,44.37-36,106.8-29.18,142.14,8l-7.35,9a100.25,100.25,0,0,0-25.69-18.81c-56.08-28.47-124.5,5.85-135.18,67.75a94.49,94.49,0,0,0,74.12,109.12C412.74,543.22,464.1,508.18,473,456.37a93,93,0,0,0-8.27-58.12c-1.12-2.28-1.26-4.05.39-6s2.95-4,4.38-6.06A17.56,17.56,0,0,0,470.44,384.29Z" transform="translate(-273.85 -230.94)"/><path class="cls-1" d="M448.2,495.4c-25.29-39-21.65-100.82,24.32-137.53s112.8-29.29,149,16.32C658.26,420.45,651,487,605.12,523.5S497,551,463.5,515.11l7.08-8.61c4.55,3.71,8.78,7.55,13.39,10.87,55.43,39.79,134.1,8.74,147.48-58.26,10.36-51.89-24-102-76.33-111.43-50.93-9.17-100.53,25.51-109.18,76.22a93.71,93.71,0,0,0,8.33,58.48c1.08,2.19,1.13,3.82-.37,5.7-1.63,2.05-3.07,4.24-4.62,6.34A8.38,8.38,0,0,1,448.2,495.4Z" transform="translate(-273.85 -230.94)"/><path class="cls-1" d="M515.12,275.84c9.52.45,13,7.76,12.17,13.2s-4.29,8.5-9.09,10.32c-5.73,2.18-11.67,2-17.54.83-9.34-1.91-8-.74-9.93-9.86-1.23-6-1.34-12,.93-17.8,2.48-6.33,7.66-9.65,13.51-8.81C510.82,264.52,514.38,268.8,515.12,275.84Zm-17-5.44c-.18.26-.57.77-.92,1.3-3,4.47-3.22,9.49-2.47,14.5,1.53,10.26-.18,8.39,9.65,9.92,5.36.84,10.78.64,15.46-2.84a7.18,7.18,0,0,0,2.41-8.54,7,7,0,0,0-8.08-4c-4.26.9-4.92.25-4-3.92a6.83,6.83,0,0,0-3.24-7.71,7.18,7.18,0,0,0-8.79,1.29Z" transform="translate(-273.85 -230.94)"/></svg>