<svg id="Capa_1" data-name="Capa 1" xmlns="http://www.w3.org/2000/svg" viewBox="0 0 383.39 383.53"><defs><style>.cls-1{fill:#758d75;}.cls-2{fill:#fff;}</style></defs><path class="cls-1" d="M296.65,556c-5-2.3-7.18-6.07-6.8-11.65.32-4.85.06-9.73.06-14.59,0-9.09,4.94-14,14-14.18.62,0,1.24-.06,2.45-.11V406c0-3.44.77-6.29,4.52-7.13,3.94-.9,6.77,1.68,6.8,6.21.08,10.72,0,21.45,0,32.18v4.45h26.8V437.2c0-30.44-.12-60.88.05-91.32C345,282.93,390.2,227.34,451.78,214c72.65-15.78,144,27.92,162.45,100a135.94,135.94,0,0,1,4.09,31.36c.54,30.56.21,61.13.22,91.69v4.75H645.2c.07-1.32.18-2.64.18-4,0-29.44.06-58.88,0-88.32,0-22.4-3.89-44.08-12.61-64.81-.89-2.11-1.84-3-4.34-2.84a59.85,59.85,0,0,1-10.78-.61c-5.28-.68-7.82-3.5-8.76-8.69a45.75,45.75,0,0,1,1.69-21.76c.41-1.36-.4-3.11-.69-4.67,0-.22-.31-.38-.46-.58-4.26-5.68-8.14-11.2-17.11-7.95-3.76,1.36-8.61,0-12.91-.51-4-.49-6.74-3-7.16-7a81.36,81.36,0,0,1-.45-15.6c.24-2.68-.53-3.73-2.45-4.95a159.38,159.38,0,0,0-60.22-23.12c-35.35-5.77-69.21-.88-101.3,15.24-5.1,2.56-10,5.56-14.85,8.6-.9.57-1.46,2.27-1.52,3.48-.27,5.44,0,10.92-.53,16.34a7.34,7.34,0,0,1-7.14,7c-6.4.3-12.84-.2-19.26-.16a6.88,6.88,0,0,0-4.38,1.35c-5.52,5.19-10,10.3-6.22,19.22,1.87,4.41.63,10.3.2,15.47-.41,4.83-3.44,7.67-8.23,8.29a62.08,62.08,0,0,1-11.15.65c-2.5-.13-3.45.74-4.33,2.84-8.73,20.73-12.5,42.42-12.62,64.82-.05,9.6,0,19.21,0,28.81,0,4.82-1.94,7.14-5.71,7.09s-5.64-2.47-5.59-7.26c.15-14.59,0-29.19.65-43.76C308,315,313,296.58,320.57,278.69c-3-1.95-6.24-3.63-9-5.89-13.42-11-18.61-25.13-15.59-42.21.81-4.58,3.3-6.86,8-7.68,16.38-2.89,29.9,2.39,41.37,14.75l5.82-6.81c-9.56-6.85-16-15.62-17.94-26.93a66.44,66.44,0,0,1-.22-16.67c.42-5.05,3.51-7.68,8.59-8.41,18.44-2.63,33,3.79,43.62,19,.5.71,1,1.43,1.48,2.14.07.1.2.15-.05,0q95.12-54.94,189.42-.33c3.78-4,7.35-8.71,11.81-12.31,9.92-8,21.49-10.63,34.08-8.46,5.12.88,7.8,3.69,8.55,9q3.56,25.25-16.26,41.34l-2,1.67c1,1.19,1.88,2.31,2.81,3.42s1.77,2.06,2.78,3.23c2.49-2.24,4.73-4.53,7.25-6.46,10.39-8,22.09-10.55,34.89-8.07,4,.79,6.47,3.35,7.35,7.48,3.91,18.4-4.83,37.11-21.76,46.4-.87.48-1.74.94-2.51,1.35,2.67,8.34,5.56,16.5,7.91,24.82a156.07,156.07,0,0,1,5.79,42.44q.13,61.19,0,122.38a20.92,20.92,0,0,1,0,2.24,5.63,5.63,0,0,1-5.74,5.25,5.25,5.25,0,0,1-5.46-5V470c-.15-5.33,0-10.68,0-16.28H618.79v61.7h26.55V494.81c0-4,2-6.13,5.43-6.21s5.81,2.22,5.85,6.24c.07,6.72,0,13.45,0,20.73,8-.93,13.57,2.32,16.5,9.74V549.2l-6.74,6.74H596.81c-5-2.89-6.57-7.24-6.15-12.83.34-4.47,0-9,.08-13.47.07-9.12,5-14,14.1-14.12H607v-162H485.6a39.44,39.44,0,0,1-4.48-.14c-3.2-.41-5.53-2.85-5.29-5.71a5.78,5.78,0,0,1,5.15-5.56,21.23,21.23,0,0,1,3.74-.09H606.64c-.44-52.33-43.34-115.3-118.19-119.66C416.13,218.1,359,274.83,356.12,342H454a18.61,18.61,0,0,1,3.73.13c3,.64,5,2.54,4.93,5.69a5.27,5.27,0,0,1-5,5.51,35.25,35.25,0,0,1-4.48.17H356V515.14a2.61,2.61,0,0,0,.7.32c11.73.47,15.61,4.55,15.61,16.44,0,3.75-.26,7.51.06,11.23.47,5.58-1.19,9.94-6.14,12.83Zm47.81-102.4H318V515.2h26.5Zm16.57,91V529.45c0-2.22-1.21-2.71-3.1-2.71-17.93,0-35.86,0-53.8.12-1,0-2.82,1.49-2.87,2.36-.27,5-.13,10.12-.13,15.34Zm300.91,0c0-4.79-.13-9.38,0-14,.11-2.95-1-3.94-3.92-3.9-8.84.13-17.68,0-26.53,0H605.75c-1.75,0-3.7-.21-3.71,2.43v15.37ZM342.87,269.86c2.81-19.84-12.47-37.19-31.73-36.51-3.35.12-5.24,1.13-4.78,4.81.3,2.47.28,5,.77,7.41C310.44,262,327.13,273.35,342.87,269.86Zm277.4,0c18.76,3.82,36.62-11.85,36.5-31.57,0-3.5-1.14-4.84-4.67-5-19.38-.78-35.31,17.32-31.83,36.62ZM619,190.2A31.43,31.43,0,0,0,582.87,216a31.1,31.1,0,0,0-.35,7.4c.19,2.81,1.64,3.14,3.88,3.22C606.67,227.36,621.74,210.67,619,190.2Zm-275,0a31.44,31.44,0,0,0,32.69,36.42c2.26-.09,3.66-.47,3.85-3.26A31.37,31.37,0,0,0,344,190.2Z" transform="translate(-289.81 -172.43)"/><path class="cls-1" d="M447.85,556c-7.29-2.91-12.19-7.61-12-16.09a15.46,15.46,0,0,1,15.23-15.3c8.08-.11,16.16,0,24.47,0V475.48H471.2c-14.59,0-29.19.09-43.79,0-11.37-.1-18.46-7.78-16.91-18.33,1-7.09,5.69-11.06,12.71-13.09v-14c.07-6.4,3.85-10.18,10.29-10.21,12.23-.05,24.47-.3,36.67.15,3.86.14,7.64,2.25,12.36,3.75,3.93-4.29,10.31-4,16.72-4,10,.11,20,0,29.94,0,6.92,0,10.66,3.73,10.71,10.57v12.07c4.1,3.49,8,5.86,10.5,9.26,1.78,2.45,2.29,6.3,2.22,9.51a14.38,14.38,0,0,1-13.19,13.9c-7.58.52-15.2.34-22.81.39-9.58.05-19.17,0-29.27,0v49.06h23.58c8.2,0,15,5.34,16.21,12.7,1.36,8.07-2.68,14.9-10.62,18a9.89,9.89,0,0,0-1.27.72Zm33.7-92h52.37c5.51,0,7.6-1.23,7.52-4.4s-2-4.2-7.36-4.2H429c-1.24,0-2.79-.36-3.66.23-1.45,1-3.54,2.75-3.4,4,.17,1.56,2.11,3.12,3.61,4.26.72.55,2.18.14,3.3.14Zm0,71.88H452.4c-3,0-5.26,1.25-5.2,4.53,0,3,2.21,4.23,5,4.34H509a19,19,0,0,0,2.61,0c2.5-.36,4.25-1.67,4.3-4.32s-1.65-4-4.14-4.43a17.7,17.7,0,0,0-3-.08Zm-5.8-92.26v-4.43c-.19-5.65-2.67-8-8.38-8H434.75v12.47Zm52.63-12a5.26,5.26,0,0,0-1.28-.39c-11.1,0-22.2,0-33.3-.06-3.52,0-5.29,2.35-6,5.2-.57,2.28-.12,4.82-.12,7.23h40.69Z" transform="translate(-289.81 -172.43)"/><path class="cls-2" d="M666.42,556l6.78-6.76v6.74Z" transform="translate(-289.81 -172.43)"/><path class="cls-1" d="M438.25,298.84c-12.47-1.58-22.13-7.12-29.22-16.95-3.4-4.71-3.4-7.87.08-12.62,8.09-11.07,19.24-16.55,32.91-17.07a7.5,7.5,0,0,0,4.36-1.26c10.9-9.43,22.89-9.4,33.53.26.23.22.48.43.73.63,5.1-2.63,9.56-5.63,14.56-7.15,7.74-2.37,14.62.4,20.76,5.46a9.3,9.3,0,0,0,5.17,2c13.52.55,24.57,5.81,32.78,16.68,3.85,5.11,3.8,8.66-.15,13.85a40.17,40.17,0,0,1-28,16.08c1.11,4.51,2.64,8.86,3.13,13.33a57.71,57.71,0,0,1-.39,13c-.43,3.65-3.31,5.46-6.68,4.92s-5-3.13-4.43-7c1.17-8.19.32-16-4.9-22.7-1.62-2.06-4.5-3.2-7-4.44-.54-.27-2,.66-2.66,1.35-5.08,5-10.05,10.05-15.12,15-4.24,4.19-8,4.16-12.29-.06-4.62-4.56-9.18-9.17-13.77-13.75-3.33-3.32-7.09-3-10.09.85a28.38,28.38,0,0,0-5.63,22.52c.71,4.64-.68,7.52-4.22,8.15-3.82.68-6.39-1.5-7.1-6.28A42,42,0,0,1,438.25,298.84Zm43.48,3.46,16.81-17c3.34-3.36,6.8-6.61,10-10.11a11.69,11.69,0,0,0-.34-16.49c-4.6-4.46-11.61-4.45-16.52.09-1.64,1.52-3.13,3.21-4.79,4.72a7.46,7.46,0,0,1-10.55.17l-.17-.17c-1.74-1.6-3.3-3.4-5.07-5a11.87,11.87,0,0,0-16.26.24,11.49,11.49,0,0,0-.46,16.21C463.2,284.11,472.33,293,481.73,302.3ZM524.08,264c-1.06,4.61-1.42,8.79-3,12.44s-4.41,6.7-6.67,10c9.67,3.72,23.71-1.26,30.19-11-5.4-6.78-12.19-10.83-20.52-11.44ZM440,263.84c-9.15.89-16,4.78-21.24,11.63,6.57,9.73,20.82,14.73,30.57,10.73C442.69,280.33,439.2,273.2,440,263.84Z" transform="translate(-289.81 -172.43)"/></svg>