<svg id="OBJECTS" xmlns="http://www.w3.org/2000/svg" viewBox="0 0 111.83 101.18"><defs><style>.cls-1{fill:#fefcf3;}.cls-2{fill:#748d75;}.cls-3{fill:#fff0ec;}</style></defs><path class="cls-1" d="M72.67,224.92a4.52,4.52,0,1,1-4.89-4.11A4.52,4.52,0,0,1,72.67,224.92Z" transform="translate(-42.99 -197.24)"/><path class="cls-2" d="M72.67,224.92a4.79,4.79,0,0,1-4.09,5.15,4.78,4.78,0,1,1-.82-9.51,4.79,4.79,0,0,1,4.91,4.36Zm0,0a4.27,4.27,0,1,0-4.13,4.65,4.26,4.26,0,0,0,4.13-4.65Z" transform="translate(-42.99 -197.24)"/><path class="cls-1" d="M91.43,225.42a4.52,4.52,0,1,1-4.89-4.11A4.52,4.52,0,0,1,91.43,225.42Z" transform="translate(-42.99 -197.24)"/><path class="cls-2" d="M91.43,225.42a4.79,4.79,0,0,1-4.09,5.15,4.86,4.86,0,0,1-3.6-1,4.78,4.78,0,0,1,2.78-8.54,4.79,4.79,0,0,1,4.91,4.36Zm0,0a4.27,4.27,0,1,0-1.1,3.26A4.32,4.32,0,0,0,91.43,225.42Z" transform="translate(-42.99 -197.24)"/><path class="cls-1" d="M110.47,225.9a4.52,4.52,0,1,1-4.89-4.11A4.51,4.51,0,0,1,110.47,225.9Z" transform="translate(-42.99 -197.24)"/><path class="cls-2" d="M110.47,225.9a4.75,4.75,0,0,1-1,3.34,4.7,4.7,0,0,1-3.1,1.8,4.75,4.75,0,0,1-5.41-4.32,4.75,4.75,0,0,1,4.58-5.18,4.67,4.67,0,0,1,3.37,1.24A4.73,4.73,0,0,1,110.47,225.9Zm0,0A4.25,4.25,0,0,0,105.6,222a4.27,4.27,0,1,0,4.87,3.86Z" transform="translate(-42.99 -197.24)"/><path class="cls-1" d="M129.93,226.34a4.52,4.52,0,1,1-4.89-4.12A4.52,4.52,0,0,1,129.93,226.34Z" transform="translate(-42.99 -197.24)"/><path class="cls-2" d="M129.93,226.34a4.78,4.78,0,0,1-4.09,5.14,4.75,4.75,0,0,1-5.41-4.32,4.78,4.78,0,0,1,1.21-3.62A4.88,4.88,0,0,1,125,222a4.78,4.78,0,0,1,4.91,4.37Zm0,0a4.27,4.27,0,1,0-8.51.74,4.27,4.27,0,1,0,8.51-.74Z" transform="translate(-42.99 -197.24)"/><path class="cls-1" d="M59.75,214.53c1-.09,76.5-2,79.52-.34s3.57,9.77,3.7,30.48.66,40.59,1.13,46.16-15.54,7.76-40.91,5.42" transform="translate(-42.99 -197.24)"/><path class="cls-2" d="M59.75,215.53c2.4-.2,4.84-.14,7.24-.2q8.42-.21,16.84-.37,10.47-.19,21-.33c6.55-.08,13.11-.14,19.66-.1,4.25,0,8.54,0,12.78.33l.83.08.18,0h-.07l.3.05a3.89,3.89,0,0,0,.43.11c.06,0-.29-.18-.06,0l.18.11c.19.1-.18-.18,0,0l.32.31c.06.07.21.3,0,0l.16.23a4.25,4.25,0,0,1,.27.46c.05.09.09.17.13.26s.16.37.06.12a16.26,16.26,0,0,1,.84,3.13,74.54,74.54,0,0,1,.88,10.6c.22,6,.22,12,.27,18,.1,11.65.27,23.3.71,34.94.07,1.76.14,3.53.24,5.29,0,.62.07,1.23.12,1.85,0,.2,0,.41,0,.61a2.11,2.11,0,0,1,0,.26c0-.34,0,0,0,.09s-.06.17-.08.25c-.06.24.09-.16,0,0s-.19.33-.29.49.15-.18,0,0l-.07.09-.21.22a2.29,2.29,0,0,1-.23.21l-.15.13c-.17.15.18-.13,0,0a9.15,9.15,0,0,1-1.35.79l-.38.18c-.26.11.11-.05,0,0l-.21.08c-.32.13-.65.25-1,.35a42,42,0,0,1-10.51,1.7,137.41,137.41,0,0,1-16,0q-4.71-.24-9.39-.68a1,1,0,0,0-1,1,1,1,0,0,0,1,1c6.15.56,12.33.94,18.51.92a83.32,83.32,0,0,0,13.48-.94c2.68-.44,5.69-1.06,7.92-2.71a5,5,0,0,0,1.84-2.35,7.91,7.91,0,0,0,.05-2.95c-.61-10-.71-20-.86-29.91-.1-6.82-.12-13.63-.21-20.44-.06-4.83-.13-9.68-.51-14.5a28.82,28.82,0,0,0-1.43-8.14c-.5-1.28-1.33-2.75-2.77-3.11a18.9,18.9,0,0,0-3.68-.37c-2.09-.1-4.18-.15-6.27-.18-6.15-.09-12.3-.06-18.44,0q-10.72.09-21.45.29-9.36.16-18.73.38c-3.43.08-6.87.15-10.3.27a5.82,5.82,0,0,0-.59,0c-1.27.1-1.28,2.1,0,2Z" transform="translate(-42.99 -197.24)"/><path class="cls-1" d="M110.47,225.9a4.52,4.52,0,1,1-4.89-4.11A4.51,4.51,0,0,1,110.47,225.9Z" transform="translate(-42.99 -197.24)"/><path class="cls-2" d="M109.47,225.9a3.58,3.58,0,0,1-2,3.59,3.53,3.53,0,1,1-1.12-6.71,3.58,3.58,0,0,1,3.15,3.12,1,1,0,0,0,1,1,1,1,0,0,0,1-1,5.51,5.51,0,0,0-10-2.74,5.53,5.53,0,0,0,0,6.28,5.51,5.51,0,0,0,10-3.54,1,1,0,0,0-1-1A1,1,0,0,0,109.47,225.9Z" transform="translate(-42.99 -197.24)"/><path class="cls-1" d="M129.93,226.34a4.52,4.52,0,1,1-4.89-4.12A4.52,4.52,0,0,1,129.93,226.34Z" transform="translate(-42.99 -197.24)"/><path class="cls-2" d="M128.93,226.34a3.53,3.53,0,1,1-3.15-3.12,3.58,3.58,0,0,1,3.15,3.12,1,1,0,0,0,1,1,1,1,0,0,0,1-1,5.52,5.52,0,0,0-10-2.75,5.52,5.52,0,1,0,10,2.75,1,1,0,0,0-1-1A1,1,0,0,0,128.93,226.34Z" transform="translate(-42.99 -197.24)"/><path class="cls-1" d="M72.66,214.06s-.14-1.7-3-1.46c-5.69.47-8,12.59,2.63,11" transform="translate(-42.99 -197.24)"/><path class="cls-2" d="M73.66,214.06c-.2-2.12-2.63-2.66-4.39-2.42a6,6,0,0,0-4,2.61c-1.82,2.55-2.13,6.66.36,8.89,1.89,1.7,4.51,1.8,6.9,1.46a1,1,0,0,0,.69-1.23,1,1,0,0,0-1.23-.7,10.52,10.52,0,0,1-1.48.1,6.39,6.39,0,0,1-1.23-.08,4.39,4.39,0,0,1-2-.74l-.2-.14c.18.14,0,0,0-.05s-.24-.22-.35-.34l-.15-.18c.16.19,0,0,0-.05a3.73,3.73,0,0,1-.25-.39c0-.07-.22-.48-.13-.25l-.15-.43c0-.13-.07-.25-.1-.38s0-.15,0-.23c-.06-.28,0,.05,0-.12a7.53,7.53,0,0,1,0-.95c0-.13,0-.27,0-.4s0,.22,0,0l.06-.32a7.75,7.75,0,0,1,.27-.94c0-.06.18-.43.08-.21.07-.17.16-.34.25-.51a6.87,6.87,0,0,1,.51-.81s.11-.15,0,0l.16-.18a4.61,4.61,0,0,1,.37-.4c.11-.11.23-.21.35-.31s-.17.12,0,0l.13-.09a3.64,3.64,0,0,1,.39-.23l.2-.11c.25-.12,0,0,.11-.05s.33-.11.51-.15l.15,0c.28-.07-.06,0,.11,0a5.57,5.57,0,0,1,1.08,0l.26,0s.4.14.28.08l.24.13c.24.15-.14-.11.06.05l.15.15c-.22-.23,0,0,0,0s.12.43,0,0c0,0,0,.09,0,.15s0,0,0-.14a1,1,0,0,0,1,1,1,1,0,0,0,1-1Z" transform="translate(-42.99 -197.24)"/><path class="cls-1" d="M110.45,213.86s-.14-1.71-3-1.47c-5.69.47-8,13.44,2.61,11.88" transform="translate(-42.99 -197.24)"/><path class="cls-2" d="M111.45,213.86c-.21-2.2-2.77-2.7-4.57-2.4a6,6,0,0,0-3.86,2.77c-1.79,2.73-2.1,7,.39,9.41,1.84,1.78,4.48,1.94,6.88,1.6A1,1,0,0,0,111,224a1,1,0,0,0-1.23-.7,6.26,6.26,0,0,1-4.63-.82c-.24-.17.14.13-.08-.06l-.19-.17c-.11-.1-.2-.21-.3-.32s-.19-.24-.06-.06c0-.07-.1-.14-.14-.21a3.78,3.78,0,0,1-.26-.43A2.4,2.4,0,0,1,104,221c-.12-.25.07.19,0-.07s-.1-.27-.14-.41-.09-.33-.12-.5a1.87,1.87,0,0,1,0-.25c0-.22,0,.16,0-.08a7.7,7.7,0,0,1,0-1,4.55,4.55,0,0,1,0-.53c0-.29,0,.13,0-.05s0-.2,0-.3a7.92,7.92,0,0,1,.24-1l.18-.5c.1-.26,0,.11,0-.05l.13-.28c.14-.28.3-.56.47-.83,0-.07.32-.44.2-.28.1-.13.21-.26.32-.38l.36-.35c.05,0,.36-.29.17-.15a5.32,5.32,0,0,1,.83-.49c-.21.1.23-.08.31-.1a4.64,4.64,0,0,1,.51-.11c-.34.05.22,0,.17,0a4.87,4.87,0,0,1,.54,0,2.4,2.4,0,0,1,.83.16c-.09,0,.42.26.23.13a1.29,1.29,0,0,1,.17.16c-.19-.24,0,.06,0,.07s0,.08,0,.1c-.14-.25,0-.12,0,0s0,.06,0-.11a1,1,0,0,0,1,1,1,1,0,0,0,1-1Z" transform="translate(-42.99 -197.24)"/><path class="cls-1" d="M90.87,213.47s-.14-1.7-3-1.46c-5.69.47-8,13.43,2.61,11.88" transform="translate(-42.99 -197.24)"/><path class="cls-2" d="M91.87,213.47c-.21-2.2-2.77-2.69-4.57-2.39a5.92,5.92,0,0,0-3.85,2.77c-1.8,2.73-2.11,7,.38,9.41,1.84,1.78,4.49,1.93,6.88,1.59a1,1,0,0,0,.7-1.23,1,1,0,0,0-1.23-.69,6.31,6.31,0,0,1-4.63-.82c-.24-.17.14.13-.08-.06l-.19-.18c-.11-.1-.2-.2-.3-.31s-.19-.24-.06-.06c0-.07-.1-.14-.14-.21a3.91,3.91,0,0,1-.26-.44c0-.07-.07-.15-.11-.22-.12-.26.07.19,0-.08s-.09-.26-.13-.4-.09-.33-.13-.5,0-.17,0-.25,0,.16,0-.08a7.7,7.7,0,0,1,0-1,4.55,4.55,0,0,1,0-.53c0-.29,0,.13,0-.05s0-.2,0-.31a7.77,7.77,0,0,1,.24-.95l.18-.5c.1-.27,0,.11,0-.05s.08-.19.13-.28a7.42,7.42,0,0,1,.47-.83l.2-.28a4,4,0,0,1,.33-.39c.11-.12.23-.23.35-.34s.36-.29.18-.15a4.56,4.56,0,0,1,.82-.49c-.21.1.23-.08.32-.1a2.78,2.78,0,0,1,.5-.11c-.34.05.23,0,.17,0a4.86,4.86,0,0,1,.54,0,2.35,2.35,0,0,1,.83.16c-.09,0,.42.26.23.12a.91.91,0,0,1,.17.17c-.19-.24,0,.06,0,.07s0,.08.06.1c-.15-.25-.05-.12,0,0s0,.06,0-.12a1,1,0,0,0,1,1,1,1,0,0,0,1-1Z" transform="translate(-42.99 -197.24)"/><path class="cls-1" d="M129.37,213.62s-.14-1.71-3-1.47c-5.69.47-8,13.44,2.61,11.88" transform="translate(-42.99 -197.24)"/><path class="cls-2" d="M130.37,213.62c-.21-2.2-2.77-2.7-4.57-2.4A6,6,0,0,0,122,214c-1.8,2.73-2.11,7,.38,9.41,1.84,1.78,4.49,1.94,6.89,1.6a1,1,0,0,0-.54-1.93,6.26,6.26,0,0,1-4.63-.82c-.23-.17.14.13-.08-.06l-.19-.17-.3-.32s-.19-.24,0-.06c-.06-.07-.1-.14-.15-.21s-.18-.28-.26-.43l-.11-.23c-.12-.25.07.19,0-.07s-.09-.27-.13-.41-.09-.33-.13-.5,0-.16,0-.25,0,.16,0-.08a7.7,7.7,0,0,1,0-1c0-.18,0-.36,0-.53s0,.13,0-.05,0-.2,0-.3a7.92,7.92,0,0,1,.24-1l.18-.5c.1-.26,0,.11,0,0s.09-.18.13-.28c.14-.28.3-.56.47-.83l.2-.28a3.9,3.9,0,0,1,.33-.38c.11-.12.23-.24.35-.35s.37-.29.18-.15a5.23,5.23,0,0,1,.82-.49c-.21.1.23-.08.32-.1a4,4,0,0,1,.5-.11c-.34.05.23,0,.17,0a4.87,4.87,0,0,1,.54,0,2.35,2.35,0,0,1,.83.16c-.09,0,.42.26.23.13a.87.87,0,0,1,.17.16c-.19-.24,0,.06,0,.07s0,.08.06.1c-.15-.25-.05-.12,0,0s0,.06,0-.11a1,1,0,0,0,1,1,1,1,0,0,0,1-1Z" transform="translate(-42.99 -197.24)"/><path class="cls-2" d="M85.46,276.59a31.52,31.52,0,0,1-7.9-6.91,13.94,13.94,0,0,1-3.08-9.81c.4-3.5,2.8-6.85,6.19-7.77a7.5,7.5,0,0,1,9.19,9.3c2.68-2.07,5.54-4.18,8.9-4.63s7.27,1.44,7.84,4.78a6.71,6.71,0,0,1-1.87,5.42,18.89,18.89,0,0,1-4.77,3.47c-5.52,3.14-8.53,4.16-14.31,6.79" transform="translate(-42.99 -197.24)"/><path class="cls-2" d="M85.35,276.81a37.55,37.55,0,0,1-9.37-8.2A16.59,16.59,0,0,1,72.33,257c.48-4.14,3.32-8.12,7.34-9.21a8.9,8.9,0,0,1,10.9,11c3.18-2.45,6.58-4.95,10.56-5.48s8.63,1.71,9.3,5.66a7.94,7.94,0,0,1-2.22,6.43,22.05,22.05,0,0,1-5.66,4.12c-6.54,3.73-10.12,4.94-17,8.06" transform="translate(-42.99 -197.24)"/><path class="cls-2" d="M85.4,276.73c-6-4.42-12.78-10-12.83-18.18a11.34,11.34,0,0,1,3.93-8.76,8.53,8.53,0,0,1,13.69,8.89c-.09.3.29.66.58.45,3.1-2.33,6.31-4.84,10.25-5.43,3-.44,6.46.65,8.18,3.2,2.26,3.37,0,7.36-2.73,9.6a34.25,34.25,0,0,1-5.15,3.23c-1.6.89-3.22,1.73-4.88,2.53-3.64,1.74-7.38,3.28-11,5-.39.18,0,.73.33.56,3.6-1.55,7.25-3,10.78-4.71,1.8-.86,3.57-1.79,5.3-2.76a33.82,33.82,0,0,0,5.36-3.46c2.76-2.34,4.82-6.26,3-9.79-1.44-2.82-4.81-4.28-7.85-4.3-4.56,0-8.65,3-12.07,5.67l.66.39a9.47,9.47,0,0,0-3.15-9.72,9.34,9.34,0,0,0-9.86-1.1,11.31,11.31,0,0,0-5.81,8.1,16,16,0,0,0,2.74,11.38c2.59,3.95,6.44,6.91,10.44,9.33.1.06.17-.08.09-.15Z" transform="translate(-42.99 -197.24)"/><path class="cls-2" d="M50.87,223.06l88.52,12.51s1.52-12.75,1-15.12.79-6.45-5.53-7.38-31.09-4.21-31.09-4.21L80.7,206.35l-13.85-1.51s-9.27-1.16-9.95-.55-1.43-.35-2.39,4.13-2.86,11.33-2.86,11.33Z" transform="translate(-42.99 -197.24)"/><path class="cls-3" d="M71.07,216.12a4.52,4.52,0,1,1-4.33-4.71A4.52,4.52,0,0,1,71.07,216.12Z" transform="translate(-42.99 -197.24)"/><path class="cls-3" d="M89.6,219a4.52,4.52,0,1,1-4.32-4.7A4.52,4.52,0,0,1,89.6,219Z" transform="translate(-42.99 -197.24)"/><path class="cls-3" d="M108.42,221.94a4.52,4.52,0,1,1-4.32-4.7A4.52,4.52,0,0,1,108.42,221.94Z" transform="translate(-42.99 -197.24)"/><path class="cls-3" d="M127.67,224.88a4.52,4.52,0,1,1-4.33-4.71A4.53,4.53,0,0,1,127.67,224.88Z" transform="translate(-42.99 -197.24)"/><path class="cls-2" d="M59.59,205.14c1.62.08,3.24.32,4.85.49l11.72,1.24q7.89.85,15.76,1.74,8.52,1,17,2l8,1,3.75.48,1.77.24,1.58.21c3.6.49,7.2,1,10.76,1.63a24.13,24.13,0,0,1,2.8.63c.12,0,.24.1.37.12-.36-.08-.13,0,0,.05-.29-.15,0,0,.09.09s.33.43.13.13c.15.23.28.46.41.7s0,0,0,0a1.8,1.8,0,0,0,.08.21,4.42,4.42,0,0,1,.15.48,8.62,8.62,0,0,1,.25,1.12c0,.1,0,.2.05.3s0-.13,0,.12,0,.5.07.75c0,.51.07,1,.08,1.54a77.42,77.42,0,0,1-.39,8.75c-.86,9.88-2.26,19.71-3.39,29.56-1,8.65-2,17.32-2.72,26-.11,1.32-.22,2.65-.32,4,0,.5-.07,1-.09,1.5,0,.18,0,.37,0,.56s-.06.31,0,0c0,.09,0,.18,0,.27s-.2.54-.07.24a3.61,3.61,0,0,1-.22.44c-.05.07-.09.14-.14.2l0,.05a5,5,0,0,1-.37.42l-.41.38c-.06,0-.27.21-.09.08l-.31.23a11.85,11.85,0,0,1-1.24.73,16.12,16.12,0,0,1-3,1.15,32.21,32.21,0,0,1-4.23.92,58.08,58.08,0,0,1-10.87.51,96.18,96.18,0,0,1-14.06-1.57c-5.35-1-10.64-2.26-16-3.34-8.77-1.78-17.61-3.26-26.3-5.4-1.51-.37-3-.77-4.5-1.23a24.54,24.54,0,0,1-3.23-1.22,9.15,9.15,0,0,1-1.19-.65l-.24-.16-.15-.1s.18.14.05,0a4.4,4.4,0,0,1-.39-.35l-.15-.17c-.16-.17.1.18,0,0s-.19-.47-.12-.18a2.45,2.45,0,0,0-.08-.29c-.08-.29,0,.2,0,0a68.47,68.47,0,0,1,.43-9.81c.49-5.72,1.13-11.43,1.81-17.12q1.14-9.44,2.54-18.82c.77-5.09,1.57-10.18,2.65-15.21.46-2.14,1.1-4.22,1.66-6.34.46-1.71.84-3.44,1.21-5.18.12-.6.25-1.2.4-1.79.06-.22.12-.45.19-.67s.06-.2.1-.3.15-.36.05-.13a4,4,0,0,1,.24-.46,1.37,1.37,0,0,1,.13-.2c-.17.23,0,0,0,0l.16-.15c-.2.19,0,0,0,0l.2-.12c.1-.06-.19.05,0,0l.55-.15.15,0c.14,0-.19,0,0,0l.33,0c.56,0,1.11,0,1.67,0,1.29.06,1.28-1.94,0-2-1.9-.07-4.08,0-5.09,1.89a11.24,11.24,0,0,0-.92,2.95c-.36,1.62-.69,3.24-1.1,4.85-.59,2.35-1.33,4.65-1.85,7s-.91,4.52-1.3,6.79c-1,6-1.92,12-2.74,18q-1.29,9.6-2.33,19.21c-.5,4.76-1,9.53-1.21,14.31a22.52,22.52,0,0,0,0,3.58c.2,1.68,1.56,2.68,3,3.4a38.23,38.23,0,0,0,7.9,2.65c3.89,1,7.83,1.77,11.77,2.55,4.88,1,9.77,1.91,14.65,2.89,5.41,1.09,10.77,2.4,16.19,3.4,8.5,1.56,17.37,2.41,26,1.14a26.22,26.22,0,0,0,7.73-2.19,7.43,7.43,0,0,0,3.9-3.66,7.53,7.53,0,0,0,.33-2.36c.08-1.22.17-2.43.28-3.64.31-3.7.67-7.39,1.05-11.08,1.07-10.38,2.28-20.75,3.55-31.11.57-4.62,1.12-9.25,1.54-13.88a84.65,84.65,0,0,0,.47-9.14c0-2.47-.11-6.79-3-7.83a15.8,15.8,0,0,0-2.53-.61c-1.49-.29-3-.53-4.48-.76-4.49-.69-9-1.28-13.51-1.85-5.56-.71-11.13-1.37-16.7-2s-11.33-1.3-17-1.92Q77,205,69.75,204.19l-8.81-.92c-.45,0-.9-.1-1.35-.13C58.3,203.08,58.31,205.08,59.59,205.14Z" transform="translate(-42.99 -197.24)"/><path class="cls-1" d="M71.07,216.12a4.52,4.52,0,1,1-4.33-4.71A4.52,4.52,0,0,1,71.07,216.12Z" transform="translate(-42.99 -197.24)"/><path class="cls-2" d="M70.07,216.12a3.53,3.53,0,1,1-2.73-3.63,3.57,3.57,0,0,1,2.73,3.63c0,1.28,2,1.28,2,0a5.52,5.52,0,1,0-4.64,5.25,5.58,5.58,0,0,0,4.64-5.25,1,1,0,0,0-2,0Z" transform="translate(-42.99 -197.24)"/><path class="cls-1" d="M89.6,219a4.52,4.52,0,1,1-4.32-4.7A4.52,4.52,0,0,1,89.6,219Z" transform="translate(-42.99 -197.24)"/><path class="cls-2" d="M88.6,219a3.52,3.52,0,1,1-2.73-3.62A3.56,3.56,0,0,1,88.6,219a1,1,0,0,0,2,0A5.52,5.52,0,1,0,86,224.27,5.54,5.54,0,0,0,90.6,219a1,1,0,0,0-1-1A1,1,0,0,0,88.6,219Z" transform="translate(-42.99 -197.24)"/><path class="cls-1" d="M108.42,221.94a4.52,4.52,0,1,1-4.32-4.7A4.52,4.52,0,0,1,108.42,221.94Z" transform="translate(-42.99 -197.24)"/><path class="cls-2" d="M107.42,221.94a3.52,3.52,0,1,1-2.73-3.62,3.56,3.56,0,0,1,2.73,3.62,1,1,0,0,0,2,0,5.52,5.52,0,1,0-4.63,5.25,5.54,5.54,0,0,0,4.63-5.25,1,1,0,0,0-1-1A1,1,0,0,0,107.42,221.94Z" transform="translate(-42.99 -197.24)"/><path class="cls-1" d="M127.67,224.88a4.52,4.52,0,1,1-4.33-4.71A4.53,4.53,0,0,1,127.67,224.88Z" transform="translate(-42.99 -197.24)"/><path class="cls-2" d="M126.67,224.88a3.53,3.53,0,1,1-2.73-3.62,3.56,3.56,0,0,1,2.73,3.62c0,1.29,2,1.29,2,0a5.52,5.52,0,1,0-4.64,5.25,5.59,5.59,0,0,0,4.64-5.25,1,1,0,1,0-2,0Z" transform="translate(-42.99 -197.24)"/><path class="cls-2" d="M50.6,224l2.38.34,6.43.91,9.5,1.34,11.65,1.64,12.69,1.8,12.89,1.82,12,1.69L128.25,235l7.26,1,3.47.49.14,0a1,1,0,0,0,1.23-.7,1,1,0,0,0-.69-1.23l-2.38-.33-6.43-.91-9.5-1.34-11.65-1.65L97,228.58l-12.88-1.83-12-1.68L62,223.63l-7.27-1-3.46-.49-.15,0a1,1,0,0,0-1.23.7,1,1,0,0,0,.7,1.23Z" transform="translate(-42.99 -197.24)"/><path class="cls-1" d="M73.45,205.34c.07-2-2.38-2.85-4-2.84a5.89,5.89,0,0,0-4.23,2c-2.24,2.38-3.07,6.35-.85,9,1.55,1.85,4.18,2.32,6.47,2.3a1,1,0,0,0,0-2,9.38,9.38,0,0,1-2.94-.36,3.58,3.58,0,0,1-.9-.38,3.38,3.38,0,0,1-.41-.24,1.4,1.4,0,0,1-.36-.28c-.12-.1-.23-.22-.34-.33l-.13-.16c.15.18,0,0,0-.06s-.18-.27-.26-.41l-.07-.15s-.05-.09-.07-.14c0,.11,0,.12,0,0a6.28,6.28,0,0,1-.23-.85s0-.31,0,0l0-.24c0-.16,0-.32,0-.48s0-.33,0-.49,0,.21,0-.06a2,2,0,0,1,0-.24,6.17,6.17,0,0,1,.26-1c0-.05.17-.44.08-.23.07-.16.14-.31.22-.46a6.66,6.66,0,0,1,.52-.85s.19-.25,0-.07a1.83,1.83,0,0,1,.13-.16c.1-.11.19-.23.3-.34l.35-.34.12-.1.13-.1c-.1.07-.1.07,0,0a5.19,5.19,0,0,1,.75-.46l.21-.1c-.23.1,0,0,0,0l.45-.14.23-.05c.28-.06,0,0,.13,0a3.69,3.69,0,0,1,.47,0,3.2,3.2,0,0,1,1.51.35s.26.2.11.06c0,0,.27.3.12.1,0,.05.07.12.11.17s0,0,0,0c0,.17,0,.37,0,0,0,0,0,.08,0,.11,0,1.29,2,1.29,2,0Z" transform="translate(-42.99 -197.24)"/><path class="cls-1" d="M111,210c.07-2.07-2.45-2.9-4.1-2.85a6,6,0,0,0-4.24,2.19c-2.16,2.52-3.09,6.63-.91,9.43,1.53,2,4.11,2.53,6.49,2.5a1,1,0,0,0,0-2,8.7,8.7,0,0,1-2.91-.38,4.55,4.55,0,0,1-1.66-1,2.5,2.5,0,0,1-.53-.63,2.82,2.82,0,0,1-.21-.38l-.12-.24c.07.17,0,0,0-.08a5.09,5.09,0,0,1-.24-.93c0-.29,0,.2,0-.09,0-.06,0-.12,0-.18s0-.38,0-.58a5.59,5.59,0,0,1,.34-1.84c0-.14.1-.29.16-.43s-.09.17,0-.1l.09-.21a9.11,9.11,0,0,1,.52-.92c.08-.13.17-.25.26-.37l.24-.29a7.28,7.28,0,0,1,.69-.67c.22-.18-.16.11.07,0l.21-.15a3.13,3.13,0,0,1,.36-.22c.12-.06.24-.13.37-.18-.19.08.28-.1.38-.12a2.46,2.46,0,0,1,.47-.1c-.22,0,0,0,0,0H107a3.23,3.23,0,0,1,1.54.32.71.71,0,0,1,.36.3c-.15-.18.13.38,0,0,0,.1.1.46,0,.05a.57.57,0,0,1,0,.13c0,1.29,2,1.28,2,0Z" transform="translate(-42.99 -197.24)"/><path class="cls-1" d="M91.58,207.1c.08-2.06-2.44-2.89-4.1-2.85a6,6,0,0,0-4.24,2.19c-2.16,2.52-3.08,6.63-.91,9.43,1.54,2,4.12,2.53,6.5,2.51a1,1,0,0,0,0-2,9,9,0,0,1-2.92-.39,4.77,4.77,0,0,1-1.66-1,2.44,2.44,0,0,1-.52-.64c-.08-.12-.15-.25-.22-.38a2.4,2.4,0,0,1-.11-.23c.07.16,0,0,0-.09a7.47,7.47,0,0,1-.24-.93c0-.29,0,.2,0-.09,0-.06,0-.12,0-.17a3.88,3.88,0,0,1,0-.59,5.56,5.56,0,0,1,.33-1.84c0-.14.1-.29.16-.43s-.08.17,0-.1a2,2,0,0,1,.1-.21,7.46,7.46,0,0,1,.51-.92l.26-.37c-.09.13.19-.22.24-.29a8.7,8.7,0,0,1,.69-.67c.22-.18-.16.11.07-.05l.21-.15.36-.22.37-.18c-.19.08.28-.1.38-.12a4.1,4.1,0,0,1,.48-.1c-.23,0,0,0,0,0h.29a3.34,3.34,0,0,1,1.53.32.84.84,0,0,1,.37.3c-.16-.18.12.38,0,0,0,.1.1.46,0,.05v.13c0,1.29,2,1.29,2,0Z" transform="translate(-42.99 -197.24)"/><path class="cls-1" d="M129.75,212.19c.07-2.06-2.45-2.89-4.11-2.84a6,6,0,0,0-4.24,2.18c-2.15,2.52-3.08,6.63-.9,9.43,1.53,2,4.11,2.54,6.49,2.51a1,1,0,0,0,0-2,9,9,0,0,1-2.92-.38,4.59,4.59,0,0,1-1.65-1,2.28,2.28,0,0,1-.53-.63l-.22-.38a2.56,2.56,0,0,1-.11-.24c.07.16,0,0,0-.09a7,7,0,0,1-.24-.93c0-.29,0,.21,0-.08,0-.06,0-.12,0-.18a5.61,5.61,0,0,1,0-.58,5.52,5.52,0,0,1,.33-1.84c0-.15.11-.29.16-.44s-.08.18,0-.1l.1-.21a7,7,0,0,1,.52-.92l.26-.37c-.1.13.18-.22.24-.28a6.25,6.25,0,0,1,.69-.67c.21-.19-.16.11.06-.06l.21-.14.36-.22.37-.19c-.19.09.28-.09.38-.12a4.1,4.1,0,0,1,.48-.1c-.23,0,0,0,0,0h.29a3.22,3.22,0,0,1,1.53.32.78.78,0,0,1,.37.3c-.16-.19.13.38,0,0,0,.1.1.46,0,.06,0,0,0,.08,0,.12,0,1.29,1.95,1.29,2,0Z" transform="translate(-42.99 -197.24)"/><path class="cls-2" d="M123,249.81l-5.48,4.77" transform="translate(-42.99 -197.24)"/><path class="cls-2" d="M122.91,249.56a1,1,0,0,0-.37.14l.3,0a1.07,1.07,0,0,0-.82.2s-.33.22-.38.2l.12,0-.23,0a1.64,1.64,0,0,0-.3.14,6.79,6.79,0,0,0-.75.41c-.06.05-.11.1,0,0s-.12,0-.18.07a3.5,3.5,0,0,0-.61.31c-.24.15-.48.3-.73.44l-.18.11c-.08,0-.07,0,0,0s.11-.05-.1,0a3.48,3.48,0,0,0-.51.26c-.51.3-1,.63-1.48,1a2.05,2.05,0,0,0-.86,1.12,1.81,1.81,0,0,0,.34,1.63,1.86,1.86,0,0,0,2.79.19c.4-.44.81-.88,1.18-1.35a6.17,6.17,0,0,0,.44-.57c0-.06.16-.17,0-.07s0,0,.05-.07l.58-.71a5.84,5.84,0,0,0,.4-.5,1.62,1.62,0,0,0,.1-.18c0,.08,0,0,0,0,.21-.25.41-.52.6-.79l.13-.17c0-.08,0-.21.1-.29s.16-.2.23-.29a1,1,0,0,0,.28-.8l0,.29a1.15,1.15,0,0,0,.17-.33.27.27,0,0,0-.33-.33Z" transform="translate(-42.99 -197.24)"/><path class="cls-2" d="M117,258.12c3.13-.08,6.26-.1,9.39,0" transform="translate(-42.99 -197.24)"/><path class="cls-2" d="M117.1,258.38c.36.13.7.3,1.05.44a7.41,7.41,0,0,0,1.12.3,22.82,22.82,0,0,0,2.3.46c.8.11,1.61.16,2.41.24l1.11.11a2.79,2.79,0,0,0,1.8-.36,1.76,1.76,0,0,0,0-3,2.79,2.79,0,0,0-1.8-.38l-1.11.09c-.9.07-1.81.13-2.71.27s-1.5.38-2.26.51a9.2,9.2,0,0,0-2,.82c-.24.1-.12.43.07.5Z" transform="translate(-42.99 -197.24)"/><path class="cls-2" d="M117,262.94a2.34,2.34,0,0,0,1.1,1.18,15.29,15.29,0,0,0,5,2" transform="translate(-42.99 -197.24)"/><path class="cls-2" d="M116.39,263s0-.09,0,0a1.54,1.54,0,0,0-.14.52l0,.27,0-.4a1.16,1.16,0,0,0,0,.64,1.53,1.53,0,0,0,.16.37c.11.23,0-.16,0-.05a1,1,0,0,0,.18.41,2.35,2.35,0,0,0,.19.25,6.84,6.84,0,0,0,1.7,1.42,9.78,9.78,0,0,0,1.55.78,15.6,15.6,0,0,0,2.11.76,1.94,1.94,0,0,0,1.26-.09,2.12,2.12,0,0,0,.93-.8,1.91,1.91,0,0,0,.2-1.5,1.89,1.89,0,0,0-1.36-1.36,16.42,16.42,0,0,1-3-.88l-.71-.26a2.32,2.32,0,0,1-.35-.14l.1,0-.15-.07a4.14,4.14,0,0,0-1.09-.32.62.62,0,0,0-.27,0c.22,0,.26,0,.11,0a1.23,1.23,0,0,0-.76,0h.59l-.28-.06a.66.66,0,0,0-.28,0c-.22,0-.18,0,.12,0a.74.74,0,0,0-.88.5Z" transform="translate(-42.99 -197.24)"/><path class="cls-2" d="M70.43,238.6c-.28,1.05.49,2.05,1.2,2.85l1.7,1.9" transform="translate(-42.99 -197.24)"/><path class="cls-2" d="M70.22,238.39a1.14,1.14,0,0,0-.28.47l.11-.19a1.06,1.06,0,0,0-.22.29l.23-.23a1,1,0,0,0-.43.85,2.81,2.81,0,0,0,0,.29c0,.09,0,.38,0,.07a2.88,2.88,0,0,0,.43,1.86l-.14-.34a5.57,5.57,0,0,0,.72,1.52l.42.6.21.31a2.84,2.84,0,0,0,.82.8,1.91,1.91,0,0,0,2.28-.29,2.23,2.23,0,0,0,.48-.83,1.93,1.93,0,0,0-.19-1.45,4.73,4.73,0,0,0-1.29-1.31,5.85,5.85,0,0,0-1.65-1.05l.34.15a.57.57,0,0,1-.13-.08q.25.19.09.06l-.25-.21a2.61,2.61,0,0,0-.86-.52l.45.27-.21-.21s-.14-.2,0-.05a1.08,1.08,0,0,0-.59-.5l.38.29c0-.05-.07-.11-.12-.17a.32.32,0,0,0-.1-.1c-.07-.05-.07-.05,0,0l.11.19c0-.11,0-.22-.08-.34a.3.3,0,0,0-.5-.13Z" transform="translate(-42.99 -197.24)"/><path class="cls-2" d="M63.09,245.23l6.3,2.14" transform="translate(-42.99 -197.24)"/><path class="cls-2" d="M62.5,245.68a1.51,1.51,0,0,0,.35.44l.2.14q.16.12.09,0c.25.15.49.36.74.52a12.74,12.74,0,0,0,1.46.78c.58.28,1.17.53,1.76.77a4.85,4.85,0,0,0,1.93.54,1.66,1.66,0,0,0,1.52-1,1.61,1.61,0,0,0-.35-1.8,3.05,3.05,0,0,0-.73-.5,5.54,5.54,0,0,0-.57-.21l-.72-.2c-.55-.15-1.09-.29-1.65-.41l-.79-.17-.45-.05c-.1,0-.08,0,.07,0a3.5,3.5,0,0,1-.55-.09,4.39,4.39,0,0,0-.89-.06c-.13,0-.15,0-.08,0l-.27,0a1.27,1.27,0,0,0-.58.1.83.83,0,0,0-.49,1.21Z" transform="translate(-42.99 -197.24)"/><path class="cls-2" d="M60,251.94a35.56,35.56,0,0,1,7.46,1.31" transform="translate(-42.99 -197.24)"/><path class="cls-2" d="M59.65,252.13c.1.37.4.54.68.73.11.09.14.11.1,0s0,0,.23.17a5.22,5.22,0,0,0,.54.24c-.09-.06-.08,0,0,0l.47.19.41.14L63,254c.59.18,1.19.31,1.79.49A7.69,7.69,0,0,0,67,255a1.86,1.86,0,0,0,1.76-1.34,1.9,1.9,0,0,0-.84-2.06,6,6,0,0,0-2.25-.62,18.85,18.85,0,0,0-2.38-.28c-.33,0-.65,0-1,0a3,3,0,0,0-.73.08c-.15.05-.17.06-.05,0l-.31,0a3.07,3.07,0,0,0-1,.37.84.84,0,0,0-.57.92Z" transform="translate(-42.99 -197.24)"/><path class="cls-2" d="M56.13,199.62c-.1-.4-.72-.21-1,.07a24.2,24.2,0,0,0-4,4.07,8.59,8.59,0,0,0-1.75,5.31" transform="translate(-42.99 -197.24)"/><path class="cls-2" d="M56.26,199.66c.12-.31-.19-.53-.47-.57a2,2,0,0,0-1.34.47A29,29,0,0,0,51.39,202a10,10,0,0,0-2.29,3.19,4.59,4.59,0,0,0-.5,2.08,5.82,5.82,0,0,0,.41,1.88.39.39,0,0,0,.75,0c.27-1,.79-1.83,1.13-2.76a11.36,11.36,0,0,1,1.36-2.58c.56-.83,1.21-1.56,1.84-2.33.33-.41.7-.79,1-1.18s.52-.79.92-.59a.14.14,0,0,0,.2-.08Z" transform="translate(-42.99 -197.24)"/><path class="cls-2" d="M52.48,197.32l-2.54,1.18a6.44,6.44,0,0,0-2.16,1.38,2.2,2.2,0,0,0-.47,2.37" transform="translate(-42.99 -197.24)"/><path class="cls-2" d="M52.45,197.24c-.2.07-.41.1-.61.18l-.61.22c-.37.14-.74.28-1.11.4s-.71.19-1.06.33a7.77,7.77,0,0,0-1,.48,2.8,2.8,0,0,0-1.49,1.71,2,2,0,0,0,.61,1.94.28.28,0,0,0,.42-.25,2.67,2.67,0,0,1,.08-.74c.1-.23.23-.41.36-.67a3.47,3.47,0,0,1,1-1.25,6.11,6.11,0,0,1,.75-.5c.29-.18.56-.4.86-.58l1-.54.43-.25c.18-.1.32-.23.5-.34a.08.08,0,0,0-.07-.14Z" transform="translate(-42.99 -197.24)"/><path class="cls-2" d="M148.87,287.13a15,15,0,0,1,1,5.33,3.82,3.82,0,0,1-.39,2,1.59,1.59,0,0,1-1.76.8" transform="translate(-42.99 -197.24)"/><path class="cls-2" d="M148.8,287.07c-.19.21-.08.51-.05.77s.05.78.07,1.17a17.81,17.81,0,0,1,0,2.31,9.53,9.53,0,0,1-.23,2.05,3.51,3.51,0,0,1-.34.76,2.38,2.38,0,0,0-.38,1.05l.26-.63c-.12.1-.26.2-.38.31l.29-.18-.39.13a.49.49,0,0,0-.22.81A1.79,1.79,0,0,0,149,296l-.69-.09a1.61,1.61,0,0,0,1.59-.09,2.54,2.54,0,0,0,1.06-1.41,6.46,6.46,0,0,0,0-3.12,13.87,13.87,0,0,0-.93-2.72c-.09-.18-.91-1.87-1.2-1.54Z" transform="translate(-42.99 -197.24)"/><path class="cls-2" d="M151.87,284.41a6.78,6.78,0,0,1,2.28,7.34" transform="translate(-42.99 -197.24)"/><path class="cls-2" d="M151.79,284.49a6.7,6.7,0,0,1,2.08,3.31,9,9,0,0,1,.08,3.89c0,.22.27.4.38.17,1.27-2.63-.12-6-2.4-7.54-.1-.07-.23.09-.14.17Z" transform="translate(-42.99 -197.24)"/></svg>