<svg id="Objects" xmlns="http://www.w3.org/2000/svg" viewBox="0 0 406.64 45.75"><defs><style>.cls-1{fill:#748d75;}</style></defs><path class="cls-1" d="M452,317.91c0-.29-.08-.52-.12-.7s-.11-.32-.15-.47a3.1,3.1,0,0,0-.67-1c-.21-.2-.39-.33-.53-.45l-.41-.24a3.81,3.81,0,0,0-.41-.22l-.61-.3a11.06,11.06,0,0,0-2.09-.82,5.12,5.12,0,0,0-1.12-.16l-1.12-.07-.39,0h-.75a8.21,8.21,0,0,0-1.12.12,13.73,13.73,0,0,0-2.17.53,15.78,15.78,0,0,0-1.71.69,2.47,2.47,0,0,0-.55.44c-.07.08-.1.14-.09.19a.7.7,0,0,0-.18.13,2.6,2.6,0,0,0-.26.32c-.14.16-.18.13-.31.29s-.08.2-.19.38-.11.15-.15.21l-1.12,0a15.23,15.23,0,0,1-1.81,0l-1.29-.11c-.33,0-.65-.06-1.3-.16-1.29-.18-1.26-.34-2.53-.59s-1.28-.22-2.53-.59a9.39,9.39,0,0,1-1.22-.45c-.3-.14-.6-.24-1.2-.49-1.21-.48-1.25-.39-2.43-.93-.59-.28-.86-.45-1.14-.61l-1.13-.66c-1.13-.64-1.1-.68-2.2-1.37-.52-.38-.79-.56-1.06-.74,1.51.25,3.34.55,5.87.94,3.21.47,5.27.84,7,1.13l5,.82c1.8.18,3,.17,2.37-.25-1.1-.78-6.79-1.86-10.19-2.52-3.16-.58-6.36-1.06-9.54-1.58l-2.79-.38-2.59-.3c-1.4-.17-3-.36-5.22-.65l1.4-.17,2.5-.3c1.26-.13,1.26-.12,2.52-.22s1.26-.08,2.52-.14,1.26-.15,2.53-.19,1.26,0,2.53,0l2.52,0c1.27.05,1.26.14,2.52.22l1.44.06a.4.4,0,0,0,.07.2c.09.12.13.09.23.21s.06.14.17.25l.22.22.11.08c.05.06.09.12.14.17a1.75,1.75,0,0,0,.34.32,1.36,1.36,0,0,0,.24.13,1.42,1.42,0,0,0,.25.07c.35.06.51,0,1.08.15.78.13.78.12,1.56.2a14.06,14.06,0,0,0,1.59.18,3.85,3.85,0,0,0,.8-.1l.79-.16a6,6,0,0,0,1.59-.44,3,3,0,0,0,.69-.48c.16-.14.3-.3.6-.58l.49-.52.05-.06,0,0s0,0,0,0l-.08-.11-.16-.21a1.57,1.57,0,0,0-.17-.21l-.13-.15a3.25,3.25,0,0,0-.4-.32,6.23,6.23,0,0,0-.73-.42,7,7,0,0,0-.75-.31c-.63-.22-.74-.24-1.19-.38l.3-.31a7,7,0,0,0,.72-1c.16-.26.31-.52.6-1a1.31,1.31,0,0,0,.19-.9.87.87,0,0,0-.52-.58,2,2,0,0,0-.56-.13,7,7,0,0,0-.73,0,5.21,5.21,0,0,0-1.21.17c-.29.09-.59.16-1.16.36h-.05a2,2,0,0,0,.13-.31,5.31,5.31,0,0,0,.22-.83c0-.37,0-.54,0-1.14,0-.41,0-.61,0-.81l0-.45v-.15a.85.85,0,0,0-.17-.06l-.38-.13-.52-.09h-.37a2,2,0,0,0-.88.21,4.06,4.06,0,0,0-.44.27l-.27.23-.59.6a7.57,7.57,0,0,0-1.09,1.24,10.2,10.2,0,0,0-.67,1.51l-.1.27-.07.22-.1.31a4.15,4.15,0,0,0-.2.79,10,10,0,0,0-.14,1.64,10.13,10.13,0,0,0,.07,1.34,1.61,1.61,0,0,0,.17.4l-.4-.06c-.44-.06-.88-.09-1.33-.13s-.83,0-1.77,0c-1.28,0-1.28,0-2.55,0s-1.27-.13-2.55-.11-1.27.1-2.54.16-1.28,0-2.55.06-1.26.2-2.53.33-1.27.05-2.53.22-1.27.17-2.53.36c-.75.12-1,.17-1.44.25-4.19-.52-6.39-.72-8.57-1l-.46-.05.64-.19a8.11,8.11,0,0,0,1.11-.36,13.38,13.38,0,0,0,1.47-.73,2.33,2.33,0,0,0,.72-.61,1.5,1.5,0,0,0,.2-.38,1.23,1.23,0,0,0,.08-.65,1.07,1.07,0,0,0-.31-.63,1.13,1.13,0,0,0-.37-.28,1.54,1.54,0,0,0-1-.12,1.75,1.75,0,0,0-.84.44c-.16.14-.31.3-.61.56a11.14,11.14,0,0,1-1.24.93,7.81,7.81,0,0,1-2.78,1.3c-.48.16-.65.23-.92.31l-4.81-.43-9.16-.9-3.4-.33,2.09-.22c1.58-.17,1.58-.16,3.16-.36s1.58-.18,3.15-.41,1.56-.34,3.13-.59,1.57-.23,3.13-.52,1.56-.31,3.12-.62,1.57-.23,3.12-.58c1.1-.25,1.41-.36,2.05-.52.29-.14.46-.28.31-.41s-1.26,0-1.84.06-1.09.21-1.64.32-1,.28-2.14.53c-1.55.31-1.55.34-3.1.62s-1.58.16-3.14.43-1.55.33-3.11.56-1.59.12-3.15.33-1.56.29-3.14.47-1.58.09-3.15.22-1.58.12-3.16.24l-.85.06-.61,0c-6.86-.34-8.6-.38-12.88-.48l.91-.24c.17,0,1.51-.36,2.73-.69,1.92-.51,1.91-.52,3.83-1l3.82-1c1.92-.51,1.92-.49,3.83-1s1.89-.6,3.8-1.11,1.92-.47,3.84-1,1.91-.52,3.82-1,1.94-.42,3.85-.92c1.35-.36,1.74-.49,2.52-.71a.64.64,0,0,1,0,.09c.06.17.11.15.17.32s0,.18.12.34l.17.32.13.18.08.18a2.2,2.2,0,0,0,.27.46,1.67,1.67,0,0,0,.23.23,2,2,0,0,0,.25.16c.37.18.54.23,1.15.55.83.4.84.39,1.69.75a15.45,15.45,0,0,0,1.73.73,5,5,0,0,0,.93.17l.95.09a6.49,6.49,0,0,0,1.92,0,3.71,3.71,0,0,0,.94-.28c.22-.1.43-.23.87-.44l.68-.39.08-.05,0,0s0,0,0,0l-.06-.16-.11-.29a2.82,2.82,0,0,0-.2-.45,3.5,3.5,0,0,0-.33-.49,7.28,7.28,0,0,0-.67-.71c-.18-.16-.36-.32-.73-.61-.66-.48-.76-.53-1.26-.87l-.06,0c.16-.08.34-.17.56-.3a8.61,8.61,0,0,0,1.14-.84c.26-.23.53-.47,1-1a1.41,1.41,0,0,0,.5-.91.92.92,0,0,0-.37-.78,2.3,2.3,0,0,0-.57-.32c-.21-.07-.46-.19-.81-.28a6.29,6.29,0,0,0-1.41-.23c-.36,0-.71,0-1.42,0h-.18A2.62,2.62,0,0,0,395,289a7.64,7.64,0,0,0,.53-.86c.17-.42.21-.6.44-1.27a8.71,8.71,0,0,0,.26-.92l.1-.49,0-.17-.17-.13-.35-.25c-.22-.12-.4-.2-.55-.27l-.41-.14a2.51,2.51,0,0,0-1,0,3.84,3.84,0,0,0-.59.15l-.37.16-.36.18c-.13.07-.3.15-.51.28a9.53,9.53,0,0,0-1.63,1,4.38,4.38,0,0,0-.67.7l-.61.76-.21.26-.14.22-.22.32a5.39,5.39,0,0,0-.49.82,13.12,13.12,0,0,0-.72,1.79,14.77,14.77,0,0,0-.38,1.54,1.6,1.6,0,0,0,.06.59.27.27,0,0,0,.1.17.4.4,0,0,0,0,.2.2.2,0,0,0,0,.09,11.9,11.9,0,0,0-1.77.3c-.68.15-1.35.32-2,.49-.87.25-1.22.39-2.64.77-1.91.5-1.91.52-3.82,1s-1.95.38-3.86.89-1.89.58-3.8,1.08c-.73.2-1.18.3-1.57.38h0l0-.11-.06-.2a2.85,2.85,0,0,0-.17-.42,2.1,2.1,0,0,0-.23-.37,5.39,5.39,0,0,0-1-1c-.4-.32-.5-.38-.76-.56l.23-.12a5.1,5.1,0,0,0,.83-.59c.19-.17.38-.33.75-.68a1.48,1.48,0,0,0,.26-.3.93.93,0,0,0,.15-.41.78.78,0,0,0-.28-.63,1.54,1.54,0,0,0-.43-.26,4.42,4.42,0,0,0-.57-.23,4.53,4.53,0,0,0-1-.18c-.24,0-.49,0-.95,0l.11-.13a4.81,4.81,0,0,0,.4-.6c.13-.3.15-.44.33-.92.11-.32.16-.49.2-.65s.05-.24.09-.39l0-.13-.11-.09-.28-.21c-.19-.11-.31-.16-.42-.22l-.3-.12a1.52,1.52,0,0,0-.77-.07,2.46,2.46,0,0,0-.7.21l-.63.33a6.62,6.62,0,0,0-1.22.69,7.53,7.53,0,0,0-.92,1,2.79,2.79,0,0,0-.27.35l-.17.22a2.79,2.79,0,0,0-.37.58,8.34,8.34,0,0,0-.56,1.26,9.67,9.67,0,0,0-.29,1.1.91.91,0,0,0,.07.44.2.2,0,0,0,.1.12.21.21,0,0,0,0,.12l-.71.13c-.51.1-1,.23-1.52.35s-.91.31-2,.58l-2.86.76c-1.43.38-1.47.25-2.9.63s-1.42.44-2.67.77l.06,0c.18-.14.34-.3.69-.58l.55-.52.06-.06,0,0,0,0-.08-.12-.16-.25a1.4,1.4,0,0,0-.16-.22,1.83,1.83,0,0,0-.13-.16,3.19,3.19,0,0,0-.41-.38,6.15,6.15,0,0,0-.76-.5,7.24,7.24,0,0,0-.8-.4c-.7-.3-.79-.32-1.32-.53h0c.12-.1.25-.21.4-.36a7.42,7.42,0,0,0,.86-1c.19-.27.38-.54.73-1.1a1.3,1.3,0,0,0,.27-.94.91.91,0,0,0-.51-.65,2.26,2.26,0,0,0-.6-.17,5.81,5.81,0,0,0-.79-.09,6,6,0,0,0-1.33.1c-.33.07-.66.12-1.3.3l-.11,0a2.78,2.78,0,0,0,.19-.39,6.61,6.61,0,0,0,.29-.89c.07-.41.07-.59.13-1.25a8.49,8.49,0,0,0,0-.89V287l-.18-.08-.38-.15a5.74,5.74,0,0,0-.57-.14l-.4,0a2.25,2.25,0,0,0-1,.18c-.22.1-.37.19-.51.26l-.3.23c-.18.15-.36.3-.69.6a9.11,9.11,0,0,0-1.27,1.29,3.59,3.59,0,0,0-.46.78c-.09.21-.19.41-.39.82l-.13.28-.09.23-.13.34a4.05,4.05,0,0,0-.27.85,11.78,11.78,0,0,0-.28,1.78,14.65,14.65,0,0,0,0,1.47.29.29,0,0,1,0,.09c-.49.15-1.05.39-1.47.56l-2.07.84c-.88.41-1.25.57-2.72,1.15l-2,.73c-.5.18-1,.36-2,.68a19.8,19.8,0,0,1-2.05.56c-.52.12-1,.24-2.06.52-2.06.52-2,.61-4.11,1.06-1,.24-1.57.29-2.09.37s-1.05.17-2.1.32c-1.63.27-2,.38-3.05.55l-6.28.24-3.74.14-5.45.36-5.45.39c-1.2.09-2.19.18-3.16.27l1.09-.42c1.62-.65,1.62-.64,3.24-1.26s1.64-.6,3.28-1.18,1.65-.55,3.3-1.1,1.63-.63,3.29-1.14,1.68-.48,3.35-.95,1.68-.47,3.36-.92,1.71-.34,3.4-.75l1.68-.42a.16.16,0,0,1,0,.07c.09.16,0,.18.14.33l.2.3.13.17.09.17a2.08,2.08,0,0,0,.31.44.93.93,0,0,0,.23.21,1.76,1.76,0,0,0,.26.14c.38.16.56.19,1.18.46.85.34.85.33,1.72.63a15.15,15.15,0,0,0,1.76.59,5.28,5.28,0,0,0,.93.11c.23,0,.47,0,.94,0a6.79,6.79,0,0,0,1.9-.1,3.71,3.71,0,0,0,.9-.35c.21-.11.41-.26.83-.49l.64-.44.08-.05,0,0,0,0-.06-.15-.13-.28c-.1-.21-.15-.29-.23-.43a3.49,3.49,0,0,0-.36-.46,5.46,5.46,0,0,0-.72-.65A5.67,5.67,0,0,0,321,296c-.68-.43-.78-.47-1.3-.78l-.06,0,.53-.33a6.72,6.72,0,0,0,1.06-.91c.25-.25.49-.5.95-1a1.45,1.45,0,0,0,.44-.93,1,1,0,0,0-.42-.75,2.21,2.21,0,0,0-.59-.27,7.05,7.05,0,0,0-.82-.22,6,6,0,0,0-1.41-.13c-.35,0-.7,0-1.4.09l-.17,0a4.41,4.41,0,0,0,.29-.4,9.34,9.34,0,0,0,.46-.89c.13-.42.16-.6.34-1.28a6.87,6.87,0,0,0,.19-.93l.07-.49,0-.17-.18-.11-.36-.22c-.23-.11-.42-.18-.57-.24l-.41-.1a2.27,2.27,0,0,0-1,0,5.7,5.7,0,0,0-.57.18l-.36.19-.34.2c-.13.08-.29.17-.48.31a9.67,9.67,0,0,0-1.55,1.14,4.36,4.36,0,0,0-.6.74l-.55.78-.19.28-.13.22-.19.33a6,6,0,0,0-.42.85,12.75,12.75,0,0,0-.59,1.81,13.85,13.85,0,0,0-.26,1.55,1.72,1.72,0,0,0,.1.58.26.26,0,0,0,.11.16.43.43,0,0,0,0,.2,1.7,1.7,0,0,0,.12.3c-.32,0-.63.1-.89.14-.6.11-1.19.26-1.79.39-.78.2-1.09.34-2.35.66-1.68.45-1.68.45-3.36.93s-1.72.36-3.39.86-1.65.58-3.31,1.12-1.7.45-3.35,1-1.61.68-3.25,1.28-1.67.54-3.29,1.19-1.63.64-3.24,1.31l-.19.08c-1.68.15-3.67.33-6.66.62l.12-.06a12.16,12.16,0,0,0,1.53-.95,12.67,12.67,0,0,0,1.4-1.14,2.79,2.79,0,0,0,.62-.82,1.47,1.47,0,0,0,.13-.46,1.4,1.4,0,0,0-.14-.74,1.08,1.08,0,0,0-.62-.5,1.26,1.26,0,0,0-.5,0,1.94,1.94,0,0,0-1,.45c-.38.31-.51.47-.68.62s-.32.3-.62.63c-.6.65-.59.66-1.16,1.34s-.63.63-1.15,1.35l-.24.36c-.32.1-.48.14-.88.24l-.19.08-5.32.61c-2,.22-3.8.46-6.84.87-2,.33-4,.69-5.53,1.06-3.3.78-.32.81,2.5.6,3.7-.26,7.65-.78,11.67-1.19l6-.7c1.33-.16,2.65-.28,4-.39-.08.19.37.16.79,0,.17,0,.34-.1.52-.16l.63-.05c.59,0,4.43-.39,8.8-.71h.14c1.58-.05,3.38-.25,5-.14.16,0,1.52.12,2.76.29,1,.14,1.44.23,1.93.32s1,.18,1.91.4c1.91.47,1.9.48,3.79,1s1.87.6,3.74,1.23,1.9.55,3.77,1.17,1.87.66,3.77,1.22c1,.28,1.44.4,1.92.52s1,.24,1.93.45a34.44,34.44,0,0,0,3.93.73c.5.06.88.08,1.2.09v0c-.05.15-.1.14-.15.3s0,.17,0,.34a3,3,0,0,0-.09.32l0,.34v.18c0,.07,0,.14,0,.2a2.11,2.11,0,0,0,0,.51,1.07,1.07,0,0,0,.06.29,1.35,1.35,0,0,0,.11.26c.2.33.31.46.62,1,.44.74.45.74.93,1.45a12.75,12.75,0,0,0,1,1.46,4.06,4.06,0,0,0,.64.61l.69.56a6.48,6.48,0,0,0,1.48,1,2.86,2.86,0,0,0,.88.25c.22,0,.45.05.9.11l.75,0h.13s0,0,0,0l0-.15.07-.28a1.41,1.41,0,0,0,0-.27l0-.2a2.69,2.69,0,0,0,0-.56,5.18,5.18,0,0,0-.16-.9,7.75,7.75,0,0,0-.25-.85c-.27-.71-.32-.8-.53-1.33h0l.54.05a7.09,7.09,0,0,0,1.31-.07c.33-.05.66-.09,1.3-.22a1.39,1.39,0,0,0,.87-.45.88.88,0,0,0,.12-.82,1.8,1.8,0,0,0-.29-.55,5.26,5.26,0,0,0-.48-.64,5.76,5.76,0,0,0-1-.9c-.28-.18-.54-.39-1.11-.74l-.1-.06a2.19,2.19,0,0,0,.41-.13,5.88,5.88,0,0,0,.85-.39c.35-.24.47-.36,1-.77.35-.28.51-.43.67-.58l.34-.34.12-.11-.07-.18-.15-.39c-.11-.21-.21-.37-.29-.5l-.25-.32a2.12,2.12,0,0,0-.79-.58c-.22-.09-.39-.14-.53-.19l-.38-.06-.91-.09a9.13,9.13,0,0,0-1.81,0,4,4,0,0,0-.88.21l-.86.28-.3.09-.23.1-.33.13a5.74,5.74,0,0,0-.81.4,9.89,9.89,0,0,0-1.47,1,12.93,12.93,0,0,0-1.09,1,1.84,1.84,0,0,0-.24.46l-.5-.06c-.67-.09-1.36-.15-2-.27-.45,0-.77-.08-1.15-.14a15.06,15.06,0,0,1-1.55-.27c-1-.21-1.44-.32-1.91-.44s-1-.24-1.9-.51c-1.89-.57-1.85-.7-3.72-1.31s-1.89-.56-3.76-1.19-1.84-.74-3.74-1.32-1.93-.47-3.86-.94l-1.94-.46c-.42-.1-.85-.19-1.61-.31l1.28-.09,3.73-.2,3.72-.2,2.4-.12c.89-.06,1.9-.1,3-.13l8.14-.24a2.44,2.44,0,0,1,.06.26,10.73,10.73,0,0,1,.28,1.09,6.22,6.22,0,0,0,.29.8c.09.18.17.37.37.74a7.76,7.76,0,0,0,.83,1.45,3.69,3.69,0,0,0,.61.58l.27.22a1.24,1.24,0,0,0,.6.27.79.79,0,0,0,.71-.32,1.07,1.07,0,0,0,.21-.45,1.86,1.86,0,0,0-.1-1A3.24,3.24,0,0,0,324,307c-.11-.18-.22-.36-.42-.73a7.48,7.48,0,0,0-.9-1.41,5.16,5.16,0,0,0-.58-.61l-.21-.21c2.1,0,4.37,0,8.53-.08l3.05,0,2.4,0,3.18,0,.1.06a5.65,5.65,0,0,0,.52.4l.76.5.76.52c.38.25.36.27.74.52s.44.18.82.43.36.29.74.54l.76.51a2.2,2.2,0,0,1,.36.29l-.05.06c-.1.12-.14.08-.24.21s0,.15-.13.28-.11.11-.18.25a1.82,1.82,0,0,0-.13.28.55.55,0,0,0,0,.13,1.74,1.74,0,0,0-.11.18,1.55,1.55,0,0,0-.19.43.76.76,0,0,0-.05.27,1.93,1.93,0,0,0,0,.26c.07.35.13.49.21,1.07.13.77.14.77.32,1.54a12.44,12.44,0,0,0,.34,1.56,4.61,4.61,0,0,0,.35.73l.41.69a5.66,5.66,0,0,0,.93,1.36,2.81,2.81,0,0,0,.67.5c.18.11.38.19.74.38l.66.29.07,0,0,0,0,0,.08-.12.15-.21a1.76,1.76,0,0,0,.14-.23,1.62,1.62,0,0,0,.1-.18,2.84,2.84,0,0,0,.17-.48,5.84,5.84,0,0,0,.16-.82,6.13,6.13,0,0,0,.06-.81c0-.67,0-.78,0-1.25a2.92,2.92,0,0,0,.39.18,6.44,6.44,0,0,0,1.14.37c.3.07.59.13,1.18.23a1.3,1.3,0,0,0,.91-.11.82.82,0,0,0,.38-.68,1.52,1.52,0,0,0-.06-.57,5.77,5.77,0,0,0-.2-.7,5.3,5.3,0,0,0-.55-1.09c-.19-.25-.34-.51-.71-1l0,0,.33,0a6.33,6.33,0,0,0,.86-.06c.36-.09.51-.16,1.09-.33a7.54,7.54,0,0,0,.76-.29L355,310l.14-.06a1,1,0,0,0,0-.18c0-.11,0-.24,0-.39s-.06-.39-.08-.53l-.11-.35a2,2,0,0,0-.48-.76c-.16-.16-.3-.25-.4-.34l-.31-.17c-.18-.1-.37-.2-.75-.37a7.83,7.83,0,0,0-1.53-.63,9,9,0,0,0-1.64-.14l-.29,0h-.56a5,5,0,0,0-.81.07,10.85,10.85,0,0,0-1.59.39,9.63,9.63,0,0,0-1.25.51,1.64,1.64,0,0,0-.28.23,2.28,2.28,0,0,1-.46-.24c-.37-.26-.38-.25-.76-.5s-.31-.36-.69-.62-.42-.19-.8-.45-.32-.34-.7-.6-.44-.17-.82-.43a3.4,3.4,0,0,1-.43-.35c2.06,0,4.32,0,8.38.17l4.66.11a23.54,23.54,0,0,0,3.2,2.45c.11.08,1,.75,1.9,1.3,1.37.89,1.38.86,2.77,1.7s1.4.82,2.82,1.59,1.43.78,2.88,1.5,1.51.6,3,1.27,1.48.68,3,1.27,1.52.56,3,1.12,1.5.62,3,1.09c.86.27,1.25.35,1.69.46l0,.05c.07.17.12.15.19.31s.05.18.14.33a2,2,0,0,0,.2.31,1.58,1.58,0,0,0,.14.17l.08.17a3,3,0,0,0,.31.45,1.59,1.59,0,0,0,.24.2,2.71,2.71,0,0,0,.26.15c.38.15.56.19,1.19.46.86.35.86.35,1.74.65a15.35,15.35,0,0,0,1.77.6,5.56,5.56,0,0,0,.95.11l.94,0a6.89,6.89,0,0,0,1.92-.1,3.34,3.34,0,0,0,.92-.36c.22-.1.42-.25.84-.49l.65-.44.07-.05,0,0s0,0,0,0l-.07-.15-.12-.28c-.1-.22-.15-.29-.23-.44a3.71,3.71,0,0,0-.37-.46,6.55,6.55,0,0,0-.72-.66A8,8,0,0,0,391,318c-.69-.44-.79-.48-1.31-.79l-.07,0c.16-.09.33-.2.54-.34a9.36,9.36,0,0,0,1.08-.91c.25-.26.5-.51,1-1a1.43,1.43,0,0,0,.44-.94.8.8,0,0,0,0-.23l.25.11c1,.44,1,.44,2,.85s1,.42,2,.77,1.06.25,2.09.58,1,.35,2.07.62,1.05.26,2.1.5,1,.32,2.1.52l.13,0a.68.68,0,0,0,0,.14,1.93,1.93,0,0,0,0,.26c.06.34.12.48.21,1.06.13.78.14.78.32,1.55a10.88,10.88,0,0,0,.34,1.56,4,4,0,0,0,.35.72l.41.7a5.66,5.66,0,0,0,.93,1.36,2.62,2.62,0,0,0,.67.5c.18.11.38.18.74.38l.66.29.07,0,0,0,0,0,.07-.11.15-.22a1.3,1.3,0,0,0,.15-.23.91.91,0,0,0,.09-.17,2.12,2.12,0,0,0,.18-.48,5.84,5.84,0,0,0,.16-.82c0-.21,0-.41.06-.81,0-.67,0-.78,0-1.25l.39.18a6.75,6.75,0,0,0,1.15.37c.3.06.59.13,1.18.23a1.3,1.3,0,0,0,.91-.11.86.86,0,0,0,.38-.68,2,2,0,0,0-.06-.57,5.77,5.77,0,0,0-.2-.7,5.21,5.21,0,0,0-.56-1.09c-.18-.25-.33-.51-.71-1l0,0,.34,0a8.09,8.09,0,0,0,.85-.06c.37-.09.52-.16,1.1-.34a6,6,0,0,0,.76-.28l.41-.18.14-.06a1.08,1.08,0,0,0,0-.18v-.39c0-.22-.06-.39-.08-.53l-.11-.36a2,2,0,0,0-.48-.75,4.25,4.25,0,0,0-.41-.34l-.3-.17c-.19-.1-.38-.2-.75-.37a7.83,7.83,0,0,0-1.53-.63,9.1,9.1,0,0,0-1.64-.15h-.85a4.06,4.06,0,0,0-.81.07,10.11,10.11,0,0,0-2.85.9,1.25,1.25,0,0,0-.37.35.2.2,0,0,0,0,.16.44.44,0,0,0-.16.09c-.11.11-.09.14-.19.25s-.14.08-.23.2,0,.16-.13.29-.11.11-.18.25a2.24,2.24,0,0,0-.13.27l0,.13,0,0-.93-.21a13,13,0,0,1-1.47-.23c-1.05-.24-1.05-.22-2.09-.49s-1-.4-2-.7-1-.24-2.05-.59-1-.47-2-.85-1-.3-2-.73-.94-.51-1.89-1-.94-.49-1.88-1l-.67-.39.2-.75a9,9,0,0,0,.19-.94l.07-.49,0-.18-.18-.11-.36-.22c-.24-.11-.42-.18-.58-.24l-.41-.1a2.43,2.43,0,0,0-1,0,5.66,5.66,0,0,0-.58.19l-.36.19a3.35,3.35,0,0,0-.35.2c-.13.08-.29.17-.48.31a9.31,9.31,0,0,0-1.57,1.15,4.75,4.75,0,0,0-.62.74l-.55.8-.19.27-.13.23-.2.33a6.29,6.29,0,0,0-.42.86,11.86,11.86,0,0,0-.6,1.83,12.53,12.53,0,0,0-.27,1.56,1.89,1.89,0,0,0,.09.6.27.27,0,0,0,.11.15v.1l-.62-.22-1.6-.54c-.72-.19-1-.26-2.15-.64-1.51-.55-1.53-.51-3-1.1s-1.44-.72-2.92-1.35-1.5-.58-3-1.28-1.39-.81-2.81-1.56-1.46-.68-2.85-1.48-1.35-.88-2.7-1.75-1.33-.9-2.66-1.8c-.93-.67-1.21-.85-1.76-1.26,4.08.08,5.88.1,12.59.43,4.58.3,6.87.5,9.15.67,1.15.09,2.29.16,3.72.3l5.43.5,5.42.5,3.71.4c2.28.27,4.56.47,9.12,1l3.39.46s0,0,0,0c-.12.44.15.84.3,1.23a3.57,3.57,0,0,0,.3.63,5.49,5.49,0,0,0,.58.81,1.89,1.89,0,0,0,.41.38,1.24,1.24,0,0,0,.61.23,1.13,1.13,0,0,0,.7-.14.9.9,0,0,0,.43-.65.93.93,0,0,0-.11-.64l-.26-.46a5.68,5.68,0,0,0-.55-.83l-.28-.29,3.57.54,1.85.3a6.72,6.72,0,0,0,1.19,1.05c.47.34,1,.67,1.43,1,.1.06.85.6,1.6,1a11.82,11.82,0,0,0,1.17.63c.3.14.59.31,1.19.59,1.2.55,1.2.56,2.43,1.05.62.25.94.34,1.25.46s.62.24,1.26.42c1.27.38,1.3.26,2.58.58s1.29.32,2.6.5a11.45,11.45,0,0,0,1.32.16l1.32.12c1.31.07,1.32.17,2.61.17l0,.07a1.09,1.09,0,0,0-.08.15,2.46,2.46,0,0,0-.25.57,2,2,0,0,0-.06.35c0,.13,0,.26,0,.34.08.48.15.68.26,1.48.19,1.06.19,1.06.44,2.12a17.66,17.66,0,0,0,.51,2.12,6.7,6.7,0,0,0,.46,1c.14.24.27.48.56,1a7.55,7.55,0,0,0,1.29,1.82,4.77,4.77,0,0,0,1.3.91c.16.08.33.19.59.31l.79.36.1,0,.05,0s0,0,0,0l.11-.16.2-.31c.08-.11.09-.15.14-.22s.08-.14.12-.23a3.75,3.75,0,0,0,.23-.64,7.54,7.54,0,0,0,.21-1.11,10.16,10.16,0,0,0,.08-1.11c0-.95,0-1.07,0-1.78,0-.07,0-.14,0-.21.21.12.46.24.79.39a9.9,9.9,0,0,0,1.56.51c.4.09.8.19,1.61.33a1.66,1.66,0,0,0,1.17-.14,1,1,0,0,0,.45-.83,2.62,2.62,0,0,0-.09-.75c-.07-.25-.14-.56-.28-1a8.4,8.4,0,0,0-.74-1.49c-.24-.34-.44-.7-.95-1.35l-.2-.26a4.35,4.35,0,0,0,.7,0,7.7,7.7,0,0,0,1.17-.1c.51-.11.71-.19,1.51-.43.53-.17.79-.28,1-.38l.5-.22.2-.09a1.91,1.91,0,0,0,0-.24Zm-23.88-14a.38.38,0,0,1-.09.1h0Zm5.15.83a10.67,10.67,0,0,0,1.82.77,5.88,5.88,0,0,1,.9.51c.14.09.24.18.32.24l.1.09h0s0,0,0,0l-.11.13a4.14,4.14,0,0,1-1.16.82,5.39,5.39,0,0,1-1.37.46c-.36.07-.54.12-.72.16a3.15,3.15,0,0,1-.75.11,12.87,12.87,0,0,1-1.51-.09c-.55-.06-.7-.07-1-.12a.14.14,0,0,0,0-.06.22.22,0,0,0-.16-.22l-.16-.05a1.06,1.06,0,0,1-.23,0l-.32-.07c-.16-.05-.14-.11-.29-.16s-.17,0-.32-.07l-.13-.07.24,0c.19,0,.18.09.36.13s.2,0,.39,0,.18.06.36.08l.38,0h.31a.21.21,0,0,0,.12-.07.18.18,0,0,0,0-.24c-.15-.11-.32-.06-.47-.09l-.26,0-.36,0-.36-.06h0l.89-.28.65.05c.36,0,.36,0,.71,0s.36,0,.71.06l.7,0c.36,0,.35.07.71.09s.32,0,.47,0,.11-.07.09-.15-.26-.19-.39-.21l-.37,0c-.16,0-.23,0-.49,0l-.71,0c-.35,0-.35-.09-.7-.11s-.34,0-.51,0c.22-.09.38-.17.54-.25a9.36,9.36,0,0,0,1-.6l1-.69.06,0Zm-1.65-3.26a7.12,7.12,0,0,1,1.07-.27,8,8,0,0,1,1.09-.11,3.81,3.81,0,0,1,1,.08c.08,0,.06,0,.07,0a.82.82,0,0,1-.12.37l-.55,1a4.32,4.32,0,0,1-.66.91,5.93,5.93,0,0,1-.81.78,10,10,0,0,1-.89.68,8.91,8.91,0,0,1-2,1l-.28.09a0,0,0,0,0,0,0,.2.2,0,0,0-.22-.11h-.15a.43.43,0,0,1-.18.08,2.58,2.58,0,0,1-.29,0c-.14,0-.14-.06-.28-.06s-.15,0-.29,0h0l.08,0c.19-.05.2,0,.39-.05s.17-.11.35-.16.2,0,.38-.1l.37-.15.29-.15a.23.23,0,0,0,.06-.12c0-.11-.08-.17-.15-.18s-.31.1-.46.15l-.25.08-.35.13-.35.11c-.18.05-.19,0-.37.08s-.17.09-.35.14h0l.29-.16.61-.34.61-.34.62-.33c.3-.17.28-.21.58-.38s.31-.15.62-.32l.6-.35c.31-.17.33-.13.64-.29s.27-.17.39-.25a.12.12,0,0,0,0-.18c-.11-.11-.31,0-.44,0l-.33.16a3.63,3.63,0,0,1-.41.27l-.6.34c-.31.17-.34.12-.64.28s-.29.21-.59.38-.33.12-.64.29-.28.21-.56.37l.18-.14.17-.13a.2.2,0,0,0,0-.11.19.19,0,0,0-.17-.16c-.15,0-.21.09-.3.15l-.16.1-.2.16-.2.16-.21.15c-.11.08-.08.12-.18.2l-.08.06.12-.16c.09-.12.1-.11.2-.23s.06-.15.16-.26.11-.1.22-.21l.21-.22c.11-.11.14-.07.25-.17l.14-.15a.19.19,0,0,0-.08-.15.19.19,0,0,0-.25,0l-.1.07a3.61,3.61,0,0,1,.25-.3,9.51,9.51,0,0,1,1.21-1,6,6,0,0,1,.94-.58A5.21,5.21,0,0,1,431.58,301.46Zm-4.88.39q0-.14.06-.3a1.93,1.93,0,0,1,.14-.4,7.77,7.77,0,0,1,.7-1.34,7.59,7.59,0,0,1,.93-1.17l.51-.54a2.09,2.09,0,0,1,.58-.43,1.83,1.83,0,0,1,.66-.19h.27l.38,0,.09,0s0,0,0,0v.16c0,.2,0,.39,0,.77a7.42,7.42,0,0,1-.27,1.48l-.23,1s0,.05,0,.08a2.57,2.57,0,0,0-.37.16,4.76,4.76,0,0,0-1.06.6c-.37.28-.59.46-.78.62a2.09,2.09,0,0,1,.17-.34c.18-.31.2-.3.38-.6l.36-.61c.18-.3.22-.28.4-.58s.16-.29.23-.41,0-.15-.1-.16-.28.14-.36.25-.14.2-.21.3a2.72,2.72,0,0,1-.23.44c-.18.31-.17.31-.35.61s-.24.27-.42.58-.15.32-.33.62-.23.28-.41.58-.14.33-.32.64l-.1.15,0,.06a.51.51,0,0,1,0-.2c0-.14.08-.12.12-.26l.1-.27.07-.23a.14.14,0,0,0,0-.1.21.21,0,0,0-.24-.05c-.14.07-.13.22-.18.34a.84.84,0,0,0-.09.19l-.08.28-.07.23a.73.73,0,0,1,0-.25c0-.17.06-.17.1-.34l.08-.34c0-.17.09-.16.15-.33s0-.15.05-.23a.18.18,0,0,0-.14-.09.22.22,0,0,0-.24.14l-.08.18a1.49,1.49,0,0,1,0,.25l-.09.35a.64.64,0,0,1,0,.07c0-.2.06-.47.1-.73S426.65,302,426.7,301.85Zm-31.1-7.51a15.82,15.82,0,0,0,1.82,1.47,8.78,8.78,0,0,1,.85.89,3.83,3.83,0,0,1,.28.4l.12.21s0,0,0,0l-.23.14a4.65,4.65,0,0,1-.78.33,6,6,0,0,1-.83.2,6.25,6.25,0,0,1-1.73.05l-.87-.07a4.06,4.06,0,0,1-.88-.15,12.48,12.48,0,0,1-1.68-.61c-.74-.31-.83-.35-1.41-.63a.19.19,0,0,0,0-.09.22.22,0,0,0-.1-.25.72.72,0,0,0-.15-.11.84.84,0,0,1-.23-.1,3.14,3.14,0,0,1-.31-.18c-.15-.1-.11-.16-.25-.26s-.17-.08-.3-.19-.11-.16-.24-.28a.48.48,0,0,0-.11-.08l.11,0a.67.67,0,0,0,.17.13,3.62,3.62,0,0,0,.4.19c.19.11.17.16.37.26s.22,0,.42.15.18.13.39.21l.41.17.34.12a.22.22,0,0,0,.16,0c.1,0,.07-.17,0-.24s-.34-.17-.5-.25a2.91,2.91,0,0,0-.28-.13l-.39-.17-.39-.19-.19-.11c.38,0,.68,0,1.25,0l.78.29c.39.15.41.1.8.24s.38.16.78.3l.78.29c.39.14.38.18.77.33l.52.17c.09,0,.16,0,.16-.12s-.24-.27-.39-.34l-.4-.17c-.18-.05-.26-.06-.56-.16l-.78-.28c-.39-.15-.37-.2-.76-.35s-.41-.11-.76-.24a7.49,7.49,0,0,0,.88-.1,10.47,10.47,0,0,0,1.37-.33c.68-.21,1-.33,1.34-.44l.1,0Zm-.76-4.28a8.85,8.85,0,0,1,1.31.05,10.31,10.31,0,0,1,1.28.27,4.22,4.22,0,0,1,1.14.44c.08.07.08.09.08.13s-.06.21-.28.42c-.47.46-.71.69-1,.91a6.86,6.86,0,0,1-1.06.8,11.44,11.44,0,0,1-1.19.61c-.31.12-.62.26-1.24.46a9.57,9.57,0,0,1-1.29.29,10.85,10.85,0,0,1-1.32.13H391a.14.14,0,0,0,0-.09.24.24,0,0,0-.22-.17h-.19c-.08,0-.12,0-.25,0H390c-.18,0-.17-.07-.35-.09h-.14l-.39-.14h0c.23,0,.22,0,.45-.05s.22.05.44,0,.22-.07.44-.09.22,0,.44,0l.44-.06.36-.08a.23.23,0,0,0,.12-.1c.06-.1,0-.19-.11-.22s-.38,0-.56,0l-.3,0-.43.06-.43,0h-.43c-.21,0-.21.05-.43.06l-.43,0h-.43c-.22,0-.21-.07-.42-.09h0l.08-.05a.29.29,0,0,0,.15,0l.16,0,.07-.05.43-.09.58-.09.82-.17.82-.15.82-.15c.41-.08.4-.13.81-.21l.82-.15.82-.16c.41-.08.42,0,.83-.11l.54-.13c.07-.05.11-.11.07-.18s-.35-.1-.51-.09l-.43.06c-.19.05-.26.09-.56.15l-.82.16c-.41.08-.42,0-.83.1s-.4.12-.81.2-.42,0-.83.11l-.25.06,0,0a.2.2,0,0,0,.06-.11.19.19,0,0,0-.12-.2c-.15-.06-.26.05-.39.08l-.21.06-.28.12-.28.1-.29.1c-.14.06-.13.1-.27.16l-.29.09h0l.05,0,.29-.21.31-.19c.15-.1.12-.14.27-.24s.17-.08.33-.16l.31-.18c.16-.08.18,0,.34-.11l.21-.12a.18.18,0,0,0,0-.17.24.24,0,0,0-.27-.08l-.19.06a1,1,0,0,1-.21.15l-.32.18a.51.51,0,0,1-.15.06,6.83,6.83,0,0,1,1.08-.73,9.83,9.83,0,0,1,1.72-.75,8.89,8.89,0,0,1,1.27-.33A6.49,6.49,0,0,1,394.84,290.06Zm-6.13-.4c.21-.41.31-.61.43-.81l.18-.32a2.28,2.28,0,0,1,.29-.41,8,8,0,0,1,.6-.66c.16-.16.32-.32.66-.61a8.59,8.59,0,0,1,1.47-1,4.71,4.71,0,0,1,.45-.25l.31-.18.33-.15a3.65,3.65,0,0,1,.49-.13,2.77,2.77,0,0,1,.83,0l.32.09a4.66,4.66,0,0,1,.43.2l.1.08h0v.12l0,.15a8.48,8.48,0,0,1-.24.87,4.18,4.18,0,0,1-.37.82l-.45.78-.6,1.05a.41.41,0,0,0,0,.11l-.51.06a6.34,6.34,0,0,0-1.39.32,11.2,11.2,0,0,0-1.32.54l0,0c.25-.23.24-.28.53-.55s.32-.26.63-.54l.62-.57c.31-.28.34-.24.65-.52l.4-.38c0-.08,0-.16,0-.19s-.35.08-.47.18-.23.18-.34.27-.18.21-.41.42l-.61.56c-.31.28-.36.24-.66.52s-.29.3-.6.58-.34.24-.65.52-.28.32-.59.6l0,0,0,0,.19-.24c.08-.1.08-.12.15-.2a.17.17,0,0,0,0-.12.2.2,0,0,0-.21-.11c-.16,0-.2.18-.29.27a1.29,1.29,0,0,0-.15.16l-.18.24-.19.24-.19.24c-.1.12-.06.15-.15.27s-.11.11-.2.23h0l0-.06.15-.33a3.18,3.18,0,0,1,.16-.32c.08-.17,0-.19.12-.35s.09-.15.18-.31l.18-.31c.1-.15.14-.12.24-.27s.08-.15.12-.21a.17.17,0,0,0-.11-.13.21.21,0,0,0-.27.07.64.64,0,0,0-.13.15,1.13,1.13,0,0,1-.11.23l-.18.32v0C388.29,290.58,388.5,290.1,388.71,289.66Zm-69.63,5.9a15.33,15.33,0,0,0,1.89,1.33,6.83,6.83,0,0,1,.9.81c.14.15.23.27.31.37l.13.2s0,0,0,0l-.21.15a5.82,5.82,0,0,1-.75.38,5,5,0,0,1-.8.26,6,6,0,0,1-1.7.16H318a3.64,3.64,0,0,1-.87-.09,14.3,14.3,0,0,1-1.7-.48c-.76-.26-.84-.28-1.44-.52a.19.19,0,0,0,0-.09.23.23,0,0,0-.12-.25l-.16-.09a1.06,1.06,0,0,1-.23-.08,3.18,3.18,0,0,1-.32-.16c-.15-.09-.12-.15-.27-.24s-.16-.06-.31-.17-.11-.14-.24-.25l-.1-.07h.09a.5.5,0,0,0,.17.12c.2.1.21.07.41.16s.18.14.38.23.22,0,.43.11.19.12.4.19l.41.14.35.09a.28.28,0,0,0,.15,0c.1-.06.06-.18,0-.24s-.35-.15-.52-.21l-.28-.12-.4-.13-.39-.17-.18-.08c.37,0,.66,0,1.22-.09l.78.23c.4.12.41.07.81.18s.39.13.79.24l.79.23c.4.11.38.16.78.27s.37.09.53.13.15,0,.14-.13-.25-.25-.4-.3a2.83,2.83,0,0,0-.41-.14c-.18-.05-.26-.05-.56-.13l-.79-.22c-.4-.11-.38-.17-.78-.29s-.41-.08-.75-.17c.37-.06.61-.12.85-.17a10.59,10.59,0,0,0,1.33-.42c.65-.25,1-.39,1.29-.53l.09,0ZM318,291.39a7.4,7.4,0,0,1,1.29,0,9.31,9.31,0,0,1,1.29.17,4.38,4.38,0,0,1,1.15.35c.08.06.09.08.09.12a.79.79,0,0,1-.25.43c-.43.49-.66.73-.88,1a6.92,6.92,0,0,1-1,.86,8.26,8.26,0,0,1-1.12.68,12.37,12.37,0,0,1-1.2.54,8.31,8.31,0,0,1-1.24.38,8.4,8.4,0,0,1-1.3.22l-.33,0a.28.28,0,0,0,0-.09.22.22,0,0,0-.23-.15h-.19a1,1,0,0,1-.24.05l-.35,0c-.18,0-.18-.07-.35-.07H313l-.37-.11c.21,0,.21,0,.43-.08s.22,0,.44,0,.21-.08.43-.12.22,0,.43-.05l.43-.09.35-.1a.57.57,0,0,0,.11-.11.16.16,0,0,0-.12-.21c-.2-.06-.37.05-.55.08l-.3,0-.42.08-.42.07-.42,0c-.21,0-.21.07-.42.09h-.43l-.42,0c-.21,0-.22-.05-.42-.06l.06-.05a.21.21,0,0,0,.15,0l.15-.05.07-.05.42-.12a5.39,5.39,0,0,0,.57-.13l.79-.22.8-.22.8-.2c.4-.11.39-.16.78-.26s.41-.1.8-.2l.8-.22c.4-.11.41-.07.81-.17l.52-.16c.07-.06.1-.12.06-.19s-.35-.08-.51-.05l-.42.09c-.18.06-.25.1-.55.18s-.39.12-.79.22-.41.05-.81.16-.39.14-.79.25-.41.05-.81.16l-.21.07h0a.17.17,0,0,0,.06-.1.2.2,0,0,0-.14-.2c-.16-.05-.26.07-.38.11l-.2.07-.27.13-.28.13c-.13.06-.14.05-.27.12s-.12.11-.25.17l-.28.11h0l0,0,.28-.23.28-.21c.15-.11.12-.14.26-.25s.16-.09.31-.18l.29-.2c.16-.09.18-.05.34-.14l.19-.13a.17.17,0,0,0,0-.16.23.23,0,0,0-.27-.07,1,1,0,0,0-.18.08,1.58,1.58,0,0,1-.21.16l-.3.2a.3.3,0,0,1-.13.06,7.64,7.64,0,0,1,1-.79,10.89,10.89,0,0,1,1.64-.85,8.94,8.94,0,0,1,1.23-.42A7.82,7.82,0,0,1,318,291.39Zm-6.07,0,.36-.82.16-.33a2.86,2.86,0,0,1,.26-.42,8.27,8.27,0,0,1,.55-.7c.14-.17.29-.33.6-.65a8.37,8.37,0,0,1,1.37-1.1c.18-.13.32-.21.44-.29l.29-.19.31-.17a3,3,0,0,1,.48-.16,2.52,2.52,0,0,1,.81-.06l.32.06a4.67,4.67,0,0,1,.44.17l.1.07h0s0,0,0,.05V287l0,.14c0,.23-.07.45-.18.88a9.38,9.38,0,0,1-.69,1.63l-.52,1.08a.45.45,0,0,0,0,.11l-.5.09a6.48,6.48,0,0,0-1.34.42,12.78,12.78,0,0,0-1.27.62h0c.21-.23.21-.28.47-.55s.29-.29.58-.59l.56-.6c.29-.29.33-.26.61-.56s.25-.28.37-.41,0-.15,0-.18-.34.11-.46.21-.21.2-.32.3-.16.21-.37.43-.28.31-.56.6-.33.26-.62.56-.26.32-.54.62-.33.26-.61.55-.25.34-.54.64l0,0c.08-.12.09-.12.17-.25a1.91,1.91,0,0,0,.14-.21.3.3,0,0,0,0-.12.18.18,0,0,0-.21-.09c-.16,0-.19.19-.27.28l-.14.17L312,293c-.08.13-.09.13-.17.25l-.18.25c-.08.12,0,.15-.12.28a2.15,2.15,0,0,0-.18.24h0V294l.12-.34c.06-.16.07-.16.13-.33s0-.18.1-.34a3.18,3.18,0,0,1,.16-.32l.16-.32c.08-.16.12-.13.21-.29a1.78,1.78,0,0,0,.1-.21s0-.09-.12-.12a.21.21,0,0,0-.26.08.91.91,0,0,0-.11.16,1.8,1.8,0,0,1-.1.24,2.73,2.73,0,0,0-.14.31C311.63,292.31,311.79,291.85,312,291.42Zm15.13,20.47.14-.08a.36.36,0,0,1-.13.08Zm-1.25,3.65.07.12c0,.13,0,.17.08.24l-.08-.2Zm5.83,2.13a12.22,12.22,0,0,0,.64,2.08,7.38,7.38,0,0,1,.2,1.12,2.49,2.49,0,0,1,0,.45v.2s0,0,0,0h-.22a5.73,5.73,0,0,1-.78-.14,6.18,6.18,0,0,1-.74-.27,5.53,5.53,0,0,1-1.36-.85c-.32-.24-.48-.37-.64-.5a3,3,0,0,1-.61-.56,11.76,11.76,0,0,1-1-1.33c-.34-.52-.44-.65-.63-1a.12.12,0,0,0,.09,0,.22.22,0,0,0,.06-.27c0-.07-.05-.12-.07-.18a1.7,1.7,0,0,1-.15-.21c-.07-.16-.08-.16-.16-.32s0-.19-.08-.36-.1-.15-.16-.32a.78.78,0,0,1,0-.24c.07.12.1.14.19.3s0,.2.15.38.15.16.25.33.08.2.19.37.12.18.23.35l.21.27a.24.24,0,0,0,.14,0c.11,0,.16-.11.15-.18s-.17-.31-.25-.46l-.15-.25-.22-.33-.2-.35s0-.08-.06-.11c.27.19.5.34.93.61.21.28.22.3.44.61s.27.28.5.59.22.32.45.63.24.31.47.62.19.35.42.66l.32.4c.08,0,.15.05.19,0s0-.34-.11-.46-.15-.23-.23-.35-.17-.18-.35-.41l-.47-.62c-.23-.31-.18-.35-.41-.66s-.25-.29-.43-.52c.28.15.49.25.69.34a9.68,9.68,0,0,0,1.23.45l1.27.35.09,0Zm2.59-3a9.86,9.86,0,0,1,.85.86,4,4,0,0,1,.66.92c0,.09,0,.1,0,.12a.79.79,0,0,1-.42.17l-1.21.22a5.6,5.6,0,0,1-1.23.07,8.07,8.07,0,0,1-1.24-.13c-.3-.06-.61-.12-1.19-.28a9.26,9.26,0,0,1-1.15-.43,9.68,9.68,0,0,1-1.1-.58l-.26-.17s0,0,0-.05a.23.23,0,0,0-.06-.26l-.12-.11a.48.48,0,0,1-.19-.11,2.4,2.4,0,0,1-.23-.21c-.11-.12-.06-.17-.16-.29s-.12-.1-.21-.24a.25.25,0,0,1,0-.08l.12.08c.17.12.14.17.32.29s.2.07.38.19.16.15.35.25l.38.2.33.14a.26.26,0,0,0,.15,0,.16.16,0,0,0,0-.24c-.11-.16-.3-.18-.45-.27l-.25-.16a3.12,3.12,0,0,1-.35-.2l-.34-.23-.33-.24c-.16-.13-.19-.09-.36-.22l-.06-.05.4.17.72.27.71.28.72.28c.35.13.37.09.73.22l.71.29.71.27c.36.14.34.19.7.33l.47.17c.09,0,.15,0,.15-.11s-.2-.27-.33-.34l-.37-.17a5.23,5.23,0,0,1-.51-.16l-.72-.27c-.35-.14-.33-.2-.69-.34s-.37-.1-.73-.23-.34-.19-.7-.32-.37-.09-.73-.23a2.47,2.47,0,0,1-.34-.15h.08c.14,0,.13.07.27.1l.28.07.23,0a.18.18,0,0,0,.1-.06.18.18,0,0,0,0-.23c-.09-.13-.23-.1-.34-.14l-.19-.06-.28-.06-.28-.06-.27-.07c-.14,0-.15,0-.29,0a1.42,1.42,0,0,1-.21-.06h.65c.17,0,.17-.05.34,0l.33,0,.33,0c.17,0,.16.06.33.09h.22a.17.17,0,0,0,.07-.15.2.2,0,0,0-.16-.21.61.61,0,0,0-.18-.05,1,1,0,0,1-.24,0l-.35,0h0a5.77,5.77,0,0,1,1.1,0,9.59,9.59,0,0,1,1.71.3,9.37,9.37,0,0,1,1.16.39,6.27,6.27,0,0,1,1.08.56A7.29,7.29,0,0,1,334.26,314.68Zm-5.52-4.16c.37-.21.55-.32.74-.41l.31-.16a1.7,1.7,0,0,1,.43-.16,8.92,8.92,0,0,1,1.63-.35,7.61,7.61,0,0,1,1.65,0l.82.06.32,0a4.27,4.27,0,0,1,.45.16,2.17,2.17,0,0,1,.64.42l.2.23a2.56,2.56,0,0,1,.22.37c.05.11.05.1.05.11s0,0,0,0l0,0-.1.1a6.77,6.77,0,0,1-.64.55,8,8,0,0,1-1.45.82l-1,.51a.24.24,0,0,0-.06.08c-.15-.09-.29-.15-.42-.22a5.48,5.48,0,0,0-1.24-.46c-.59-.13-.91-.21-1.21-.25.19,0,.25-.08.55-.13s.39,0,.77-.1l.77-.12c.38-.06.39,0,.77-.07s.35-.07.51-.1.11-.1.07-.17-.32-.12-.46-.12l-.41,0c-.18,0-.25.07-.53.12l-.77.12c-.38.06-.39,0-.77.06s-.38.09-.77.15-.39,0-.77.07-.38.11-.76.17l-.36,0c.12,0,.11-.1.25-.16s.16,0,.31-.08l.29-.11.24-.1a.18.18,0,0,0,.07-.1.19.19,0,0,0-.12-.21c-.16-.06-.28.05-.41.08s-.13,0-.22.07l-.3.13-.29.12-.2.08.13-.07c.17-.09.15-.14.32-.23l.36-.15.35-.17c.18-.08.19,0,.37-.11l.23-.12a.15.15,0,0,0,0-.17.25.25,0,0,0-.28-.09l-.2.06a1.46,1.46,0,0,1-.24.15l-.36.17a.75.75,0,0,1-.22.07C328.12,310.89,328.44,310.69,328.74,310.52Zm18.76-1.79-.08,0h0Zm.92,5.16a10.21,10.21,0,0,0-.14,2,6.56,6.56,0,0,1-.19,1,4,4,0,0,1-.13.38l0,.12v0a0,0,0,0,1,0,0l-.15-.07a4.12,4.12,0,0,1-1.15-.83,5.24,5.24,0,0,1-.88-1.15c-.19-.32-.28-.48-.39-.63a4.39,4.39,0,0,1-.34-.67,15,15,0,0,1-.4-1.46c-.13-.54-.16-.69-.22-1h.06a.21.21,0,0,0,.15-.22,1,1,0,0,0,0-.17,1.29,1.29,0,0,1-.06-.22c0-.17,0-.16,0-.33s.06-.16,0-.33,0-.16,0-.32a.31.31,0,0,1,0-.15,2.17,2.17,0,0,1,.05.25c0,.18,0,.19,0,.38s.08.17.11.36,0,.19,0,.38,0,.18.09.36l.09.3a.2.2,0,0,0,.11.09c.1,0,.18,0,.21-.11s0-.32-.07-.48,0-.14,0-.25-.05-.18-.08-.36l-.06-.36h0l.55.75c.09.29.08.31.17.63s.15.33.24.67.08.35.18.69.1.33.2.67.05.36.14.7a4.21,4.21,0,0,0,.15.44c0,.06.11.09.18,0s.09-.3.07-.43-.06-.25-.08-.37a3.11,3.11,0,0,1-.17-.46l-.2-.68c-.09-.34,0-.36-.13-.7a4.13,4.13,0,0,0-.17-.48l.41.44a9.69,9.69,0,0,0,.91.78l1,.71.05,0A.14.14,0,0,0,348.42,313.89Zm3.16-1.69a10.68,10.68,0,0,1,.45,1,4,4,0,0,1,.25,1c0,.08,0,.06,0,.07a.68.68,0,0,1-.39,0l-1.09-.2a4.46,4.46,0,0,1-1.08-.33,8.69,8.69,0,0,1-1-.51c-.23-.15-.48-.3-.92-.63a7.72,7.72,0,0,1-.84-.73,10.44,10.44,0,0,1-.74-.84,2.29,2.29,0,0,0-.17-.23l0,0a.19.19,0,0,0,0-.24l-.06-.14a.4.4,0,0,1-.13-.15c-.06-.13-.07-.12-.13-.26s0-.15,0-.29-.08-.13-.11-.27v0s0,0,0,.06.06.19.17.35.16.13.27.29.09.18.22.33a3.47,3.47,0,0,0,.25.29l.24.23a.22.22,0,0,0,.14,0c.11,0,.13-.14.12-.2s-.2-.26-.29-.39l-.16-.21-.24-.29a3.21,3.21,0,0,1-.21-.3,3.45,3.45,0,0,1-.2-.32c-.1-.15-.14-.13-.24-.29h0l.25.23c.25.24.26.23.52.47l.51.47.51.47c.26.23.29.2.55.43s.25.25.51.48l.52.46c.26.24.23.27.49.51s.24.2.35.29.14,0,.18-.06-.09-.3-.18-.4a3.07,3.07,0,0,0-.25-.26,4.32,4.32,0,0,1-.38-.3l-.53-.47c-.26-.23-.21-.28-.47-.51s-.29-.21-.55-.44-.22-.27-.48-.51-.29-.2-.53-.41l.19.13.18.11a.19.19,0,0,0,.21-.23c0-.15-.16-.17-.25-.24l-.14-.12-.22-.13-.21-.15-.21-.15c-.11-.07-.14,0-.25-.1l-.08-.06.18.06.29.12c.14.05.15,0,.3.07l.27.14.27.13c.14.07.12.11.25.18l.18.08a.18.18,0,0,0,.12-.12.22.22,0,0,0-.06-.25l-.1-.07a3.88,3.88,0,0,1,.36.15,8.2,8.2,0,0,1,1.35.81,7.66,7.66,0,0,1,.85.7,6.13,6.13,0,0,1,.74.82A8.21,8.21,0,0,1,351.58,312.2Zm-3.31-5.31.76-.11.31,0a1.39,1.39,0,0,1,.41,0,7.67,7.67,0,0,1,1.5.23,6.74,6.74,0,0,1,1.41.5l.67.31a2.06,2.06,0,0,1,1,1l.1.25c0,.1.05.22.07.39v.09s0,0,0,0l0,0-.12,0a7,7,0,0,1-.72.26,7.55,7.55,0,0,1-1.49.22l-1,.11-.07,0-.26-.3a5.39,5.39,0,0,0-.91-.81l-.85-.54a1.88,1.88,0,0,1,.38.06c.35.07.35.09.69.16l.69.14c.35.08.34.12.69.2l.46.08c.07,0,.13-.06.12-.14s-.23-.22-.36-.27l-.35-.1a2.85,2.85,0,0,1-.49-.07l-.7-.14c-.34-.07-.33-.13-.67-.21s-.36,0-.7-.11-.34-.13-.68-.2-.36,0-.7-.1l-.18,0-.07,0a.43.43,0,0,1,.19-.05c.14,0,.14,0,.29,0h.52a.18.18,0,0,0,.09-.07.2.2,0,0,0,0-.24c-.12-.11-.26-.05-.38-.07h-.75a.62.62,0,0,1,.24-.07l.36,0,.35,0c.18,0,.18,0,.36,0l.23,0a.18.18,0,0,0,0-.16.22.22,0,0,0-.21-.18l-.19,0a1.09,1.09,0,0,1-.25.05l-.36,0h-.08Zm61.16,9.81-.08,0h0Zm.92,5.16a10.16,10.16,0,0,0-.14,2,7.55,7.55,0,0,1-.19,1c0,.17-.1.29-.13.39l-.06.12h0s0,0,0,0l-.15-.07a4.32,4.32,0,0,1-1.16-.83,5.33,5.33,0,0,1-.87-1.16l-.39-.63a3,3,0,0,1-.34-.66,10.9,10.9,0,0,1-.4-1.46c-.13-.54-.16-.69-.23-1h.07a.22.22,0,0,0,.15-.22,1,1,0,0,0,0-.17.75.75,0,0,1-.06-.22c0-.17,0-.17,0-.33s.06-.17.05-.33,0-.16,0-.32a.22.22,0,0,1,0-.09h0a1.27,1.27,0,0,1,0,.18c0,.19,0,.2,0,.38s.08.18.11.37,0,.19,0,.37,0,.19.09.37l.09.3a.22.22,0,0,0,.1.09.17.17,0,0,0,.21-.12c.06-.17,0-.32-.06-.47s0-.14,0-.25-.05-.18-.08-.36l-.06-.36h0l.55.75c.08.29.08.31.17.63s.14.33.24.67.08.34.18.68.1.34.19.68,0,.36.15.7.1.3.14.44.12.09.18,0,.09-.3.07-.43,0-.25-.08-.37-.09-.21-.16-.46-.11-.34-.2-.68,0-.36-.13-.7-.11-.32-.17-.48c.16.18.29.31.41.43a9.42,9.42,0,0,0,.91.79l1,.71.06,0A.14.14,0,0,0,410.35,321.86Zm3.15-1.69a9.05,9.05,0,0,1,.45,1,4,4,0,0,1,.26,1,.19.19,0,0,1,0,.08.68.68,0,0,1-.39,0l-1.1-.2a4.55,4.55,0,0,1-1.07-.33,7.25,7.25,0,0,1-1-.51c-.24-.15-.48-.3-.92-.63a9,9,0,0,1-.84-.73,8.75,8.75,0,0,1-.74-.84l-.17-.23,0,0a.21.21,0,0,0,0-.25l-.06-.13a.5.5,0,0,1-.13-.15,1.58,1.58,0,0,1-.13-.26c-.05-.13,0-.16,0-.29s-.08-.13-.11-.27a.06.06,0,0,0,0,0l.05.07c.1.16.06.19.17.35s.15.13.27.28.09.18.21.33l.26.3.23.23a.23.23,0,0,0,.14,0c.11,0,.14-.14.13-.21s-.2-.25-.3-.38a1.38,1.38,0,0,0-.16-.21c-.11-.14-.12-.14-.23-.29l-.22-.3-.19-.32c-.1-.16-.15-.13-.24-.29h0l.24.23.52.46.52.47.51.48c.26.23.29.2.55.43s.25.25.51.48l.52.46c.26.24.23.27.48.51l.36.29a.13.13,0,0,0,.17-.06c.07-.14-.08-.3-.17-.4s-.17-.18-.25-.27a3.8,3.8,0,0,1-.39-.3l-.52-.46c-.26-.23-.22-.28-.48-.51s-.28-.21-.54-.44-.22-.28-.48-.51-.29-.2-.53-.41l.18.13.19.11a.2.2,0,0,0,.1,0,.22.22,0,0,0,.1-.22c0-.14-.16-.16-.24-.23l-.14-.12-.22-.14-.22-.14-.21-.15c-.1-.07-.13,0-.24-.1l-.08-.06.18.06.28.12c.14.05.16,0,.3.06l.27.14.28.13c.14.07.11.12.25.19l.18.08a.2.2,0,0,0,.12-.12.21.21,0,0,0-.07-.25l-.1-.07c.13.05.25.09.37.15a8.66,8.66,0,0,1,1.35.81,7.49,7.49,0,0,1,.85.7,5.58,5.58,0,0,1,.74.82A6.11,6.11,0,0,1,413.5,320.17Zm-3.3-5.31.75-.11.31,0a1.84,1.84,0,0,1,.42,0,8.41,8.41,0,0,1,1.49.24,7,7,0,0,1,1.42.5l.67.31a2,2,0,0,1,.59.41,1.91,1.91,0,0,1,.4.56l.1.25c0,.1,0,.22.07.38s0,.07,0,.1,0,0,0,0l0,0-.11.05-.72.26A6.86,6.86,0,0,1,414,318l-1,.12-.07,0q-.13-.17-.27-.3a4.68,4.68,0,0,0-.91-.81l-.84-.54a2.63,2.63,0,0,1,.38,0l.69.17.69.14c.35.08.34.12.68.2l.47.08A.14.14,0,0,0,414,317c0-.16-.23-.23-.36-.27l-.36-.1a3.13,3.13,0,0,1-.49-.07l-.69-.14c-.34-.07-.33-.14-.68-.21s-.35,0-.7-.11-.33-.13-.68-.2-.35,0-.7-.1l-.17,0-.08,0a.44.44,0,0,1,.2,0c.14,0,.14,0,.29,0h.52a.22.22,0,0,0,.09-.08.21.21,0,0,0,0-.23c-.12-.11-.26-.06-.38-.07a1,1,0,0,0-.21,0H409a1.46,1.46,0,0,1,.24-.07h.36l.35,0c.17,0,.18,0,.35,0l.24,0a.18.18,0,0,0,0-.16.21.21,0,0,0-.21-.18l-.19,0a1.09,1.09,0,0,1-.25,0l-.36,0h-.08Zm-21.08,2.73a15.39,15.39,0,0,0,1.91,1.35,8.28,8.28,0,0,1,.91.83,2.16,2.16,0,0,1,.31.38l.14.2s0,0,0,0l-.22.15a5,5,0,0,1-.76.39,8,8,0,0,1-.81.26,6.57,6.57,0,0,1-1.72.16H388a3.71,3.71,0,0,1-.88-.09,13.09,13.09,0,0,1-1.73-.49c-.75-.26-.84-.29-1.45-.54a.13.13,0,0,0,0-.09.21.21,0,0,0-.12-.24l-.16-.1a1.06,1.06,0,0,1-.23-.08c-.16-.09-.17-.08-.32-.17s-.12-.14-.27-.24a2.48,2.48,0,0,1-.32-.17c-.14-.1-.11-.14-.25-.25a.25.25,0,0,0-.12-.08h.12a.67.67,0,0,0,.17.13c.2.1.22.06.42.16s.18.14.38.23.23,0,.43.12.19.11.4.19l.43.14.35.09a.28.28,0,0,0,.15,0c.1-.06.06-.18,0-.24s-.34-.15-.51-.22l-.29-.11-.4-.14-.4-.17-.2-.09c.39,0,.68,0,1.25-.08l.8.24c.4.11.41.06.81.18s.4.13.8.25l.8.22c.4.12.39.16.79.28l.53.14c.09,0,.16-.05.15-.13s-.26-.25-.41-.31a2.83,2.83,0,0,0-.41-.14c-.19-.05-.27-.05-.57-.13l-.8-.23c-.4-.11-.38-.17-.78-.29s-.42-.08-.78-.18c.38-.06.63-.12.88-.17a11.14,11.14,0,0,0,1.34-.42l1.31-.53.09-.05Zm2.56-3.15c-.44.5-.67.74-.89,1a7,7,0,0,1-1,.87,8.8,8.8,0,0,1-1.14.68,12.3,12.3,0,0,1-1.21.55,9.81,9.81,0,0,1-1.27.38,8.36,8.36,0,0,1-1.31.22l-.33,0a.38.38,0,0,0,0-.1.23.23,0,0,0-.24-.15h-.18a1.09,1.09,0,0,1-.25.05l-.36,0c-.17,0-.17-.07-.35-.07H383l-.39-.12h0c.22,0,.22-.05.44-.08s.23,0,.45,0,.21-.08.43-.12.22,0,.44,0l.43-.1.36-.1a.27.27,0,0,0,.1-.11c.06-.11,0-.19-.12-.21s-.37,0-.55.08l-.3.05-.43.09-.42.06c-.21,0-.22,0-.43,0s-.21.07-.42.09h-.87c-.21,0-.21-.05-.43-.06h0a.18.18,0,0,0,.07-.05.2.2,0,0,0,.15,0l.16,0,.07-.06.42-.11.58-.14.8-.22.81-.21.81-.21c.4-.11.39-.16.79-.26s.41-.1.81-.2l.8-.22c.41-.11.42-.06.82-.17l.53-.16c.07-.06.11-.12.06-.19s-.35-.08-.51-.05l-.43.09c-.18.06-.25.1-.55.18l-.8.22c-.4.11-.42.05-.82.16s-.4.14-.8.25-.41.06-.82.16l-.25.08,0,0a.23.23,0,0,0,.05-.11.18.18,0,0,0-.13-.19c-.16-.05-.26.06-.39.1l-.2.08-.27.13-.28.13-.28.12c-.14.06-.12.11-.26.17l-.28.12h0l0,0,.28-.23.29-.21c.15-.11.12-.15.26-.25s.16-.09.31-.19l.3-.2c.16-.09.18-.05.34-.14a1.76,1.76,0,0,0,.2-.13.15.15,0,0,0,0-.16.22.22,0,0,0-.27-.07l-.18.08a2.3,2.3,0,0,1-.2.16l-.31.2-.14.07a7.11,7.11,0,0,1,1-.81,11.9,11.9,0,0,1,1.67-.85,9.2,9.2,0,0,1,2.53-.66,8.84,8.84,0,0,1,1.31,0,12.6,12.6,0,0,1,1.3.18,4.64,4.64,0,0,1,1.16.36c.09.06.09.08.09.13A.79.79,0,0,1,391.68,314.44Zm-2.1-2.25c.05,0,.37.23.77.45a5.61,5.61,0,0,0-.94-.05c-.36,0-.71,0-1.42.09l-.18,0a4.23,4.23,0,0,0,.3-.42,5.83,5.83,0,0,0,.37-.7Zm-7.65,1.2c.17-.41.27-.62.36-.83l.17-.33a2.42,2.42,0,0,1,.26-.42,7.31,7.31,0,0,1,.55-.71c.15-.17.3-.34.62-.66a8.68,8.68,0,0,1,1.39-1.11c.18-.13.32-.21.44-.29s.2-.14.3-.19l.31-.17a3.2,3.2,0,0,1,.48-.17,2.57,2.57,0,0,1,.83-.05l.32.06a4.67,4.67,0,0,1,.44.17l.11.07h0l0,0v.11l0,.16c0,.22-.08.44-.19.88a3.37,3.37,0,0,1-.18.56l-.26-.16a3,3,0,0,0-.64-.22c-.42-.06-.25.3,0,.55a4.3,4.3,0,0,0,.6.5q-.09.16-.21.42l-.53,1.09a.45.45,0,0,0,0,.11l-.5.1a6,6,0,0,0-1.37.41,12.31,12.31,0,0,0-1.27.63l0,0c.23-.25.22-.31.49-.59s.3-.28.59-.59l.58-.6c.29-.3.32-.27.61-.57a4.78,4.78,0,0,0,.37-.41c0-.08,0-.15,0-.19s-.35.12-.47.22-.21.2-.32.3a4.69,4.69,0,0,1-.38.44c-.28.3-.28.31-.57.61s-.33.25-.62.55-.27.33-.55.63-.33.26-.62.56-.25.34-.54.64l-.05,0,0,0c.09-.13.09-.12.17-.25s.08-.13.14-.21a.17.17,0,0,0,0-.12.21.21,0,0,0-.22-.1c-.16,0-.19.19-.27.29l-.14.17-.16.26-.18.25-.17.24c-.09.13-.05.16-.13.28s-.1.12-.19.25h0l0-.06.12-.34c.07-.17.08-.17.14-.33s0-.19.1-.35a3.18,3.18,0,0,1,.16-.32l.16-.33c.09-.16.13-.13.22-.29s.07-.15.1-.21a.17.17,0,0,0-.12-.13.23.23,0,0,0-.26.09,1,1,0,0,0-.12.16.92.92,0,0,1-.09.24l-.16.33v0C381.57,314.34,381.74,313.85,381.93,313.39Zm-17.27-17.13c.3.49.86.74,1.23,1.11a5.43,5.43,0,0,1,.57.63l.18.28,0,.05s0,0-.09.08l-.29.12a1.11,1.11,0,0,1-.22.07,3.47,3.47,0,0,1-.58.13,4.32,4.32,0,0,1-1.19,0l-.61-.05a2.26,2.26,0,0,1-.62-.1,11.9,11.9,0,0,1-1.17-.47c-.42-.19-.54-.24-.79-.37a.19.19,0,0,0-.05-.23l-.11-.09a.6.6,0,0,1-.18-.07,1.88,1.88,0,0,1-.24-.14.26.26,0,0,1-.09-.1c.14.07.16,0,.3.09s.12.11.27.18l.29.13.24.09a.19.19,0,0,0,.12,0,.2.2,0,0,0,0-.24c-.07-.14-.22-.14-.34-.2l-.19-.1-.27-.13-.13-.07h.64l.47.2c.28.11.29.06.57.17l.54.23.56.21c.27.11.25.16.53.26a3.45,3.45,0,0,0,.37.13.13.13,0,0,0,.13-.12c0-.15-.15-.24-.25-.3l-.28-.13a3.08,3.08,0,0,1-.39-.12l-.56-.21c-.27-.11-.25-.17-.52-.28l-.22-.07.3,0a6.86,6.86,0,0,0,1-.21l1-.28h0Zm-4.47.63.05,0a.51.51,0,0,1-.13-.08h0Zm-.36-3.29,0,0Zm6.2-.06a2.71,2.71,0,0,1,.76.32s0,0,0,0l0,0-.14.16-.68.63a3.65,3.65,0,0,1-.76.55,4.82,4.82,0,0,1-.84.4,8.43,8.43,0,0,1-.88.3,8.29,8.29,0,0,1-.9.19,6.15,6.15,0,0,1-.93.06h-.25a.23.23,0,0,0-.14-.15l-.12,0a.39.39,0,0,1-.16,0l-.24,0a.31.31,0,0,1-.12-.09h0c.17,0,.17,0,.33,0s.16,0,.33,0l.33,0,.27,0a.22.22,0,0,0,.09-.1.18.18,0,0,0-.09-.22c-.14-.08-.27,0-.4,0h-.84l-.23,0,.45-.09.57-.1.58-.1c.28-.05.27-.1.56-.16s.29,0,.58-.09l.57-.11c.29-.06.3,0,.58-.06l.38-.09a.14.14,0,0,0,0-.18c-.06-.13-.25-.12-.36-.12l-.3,0c-.13,0-.19.07-.4.11l-.57.11c-.29.06-.3,0-.59.05s-.28.09-.56.14-.3,0-.59.06l-.16,0s0,0,0-.05a.25.25,0,0,0-.11-.21c-.11-.07-.19,0-.28,0l-.15,0-.2.08-.21.06-.08,0c.09-.06.08-.1.18-.16l.23-.11.22-.11c.12-.06.14,0,.25-.07a.4.4,0,0,0,.15-.08.2.2,0,0,0,0-.16.22.22,0,0,0-.11-.11l.12-.07a7.36,7.36,0,0,1,1.22-.48,5.49,5.49,0,0,1,.89-.21,5.27,5.27,0,0,1,.91-.08A5.71,5.71,0,0,1,366,293.54Zm-5.72-1.28.13-.22a1.67,1.67,0,0,1,.2-.27,6.82,6.82,0,0,1,.91-.87,5.81,5.81,0,0,1,1-.68l.53-.29a1.47,1.47,0,0,1,.56-.2,1.81,1.81,0,0,1,.56,0l.21.07.26.12s.08,0,.06.07a.65.65,0,0,0,0,.1,5.23,5.23,0,0,1-.19.61,6.52,6.52,0,0,1-.62,1.09l-.43.73s0,0,0,0l-.3,0a4.14,4.14,0,0,0-1,.2l-.6.21.08-.07.45-.37.45-.39c.22-.2.26-.16.48-.35l.29-.27a.13.13,0,0,0-.06-.17c-.12-.09-.28,0-.37.08a2.27,2.27,0,0,0-.25.18,3.9,3.9,0,0,1-.29.29l-.45.4c-.22.19-.26.14-.49.33s-.2.22-.42.42-.26.15-.48.34a2.08,2.08,0,0,0-.27.29l-.19.13c.05-.07.09-.06.15-.15l.15-.19.11-.16a.12.12,0,0,0,0-.1.21.21,0,0,0-.2-.12c-.15,0-.18.13-.25.21a.49.49,0,0,0-.09.1h0l.16-.25c.08-.12.12-.1.21-.22a.82.82,0,0,0,.1-.17.25.25,0,0,0-.11-.12.17.17,0,0,0-.23,0C360.17,292.5,360.24,292.38,360.31,292.26ZM343,295.36a13,13,0,0,0,1.95,1,9.09,9.09,0,0,1,1,.63,4.09,4.09,0,0,1,.34.29l.11.12,0,0s0,0,0,0l-.16.15a4.63,4.63,0,0,1-.64.47,4.19,4.19,0,0,1-.71.35,5.39,5.39,0,0,1-1.54.41l-.81.12a3.35,3.35,0,0,1-.82.06,13.42,13.42,0,0,1-1.66-.2c-.73-.13-.82-.14-1.41-.27a.14.14,0,0,0,0-.07.22.22,0,0,0-.14-.22l-.17-.07a.53.53,0,0,1-.23,0c-.15-.05-.16,0-.31-.1s-.13-.12-.28-.19-.17,0-.32-.11-.12-.12-.27-.2l0,0h0a.59.59,0,0,0,.16.08c.19.06.21,0,.4.08s.19.11.39.16.21,0,.41,0,.2.08.4.12l.41.07.34,0a.35.35,0,0,0,.14-.06c.08-.08,0-.19,0-.24s-.35-.09-.51-.13l-.28-.06-.39-.07-.39-.09-.12,0c.31-.06.58-.13,1.07-.26.36.05.37.06.75.1s.39,0,.77,0,.39.06.77.11l.78.08c.38,0,.37.1.76.14s.35,0,.51.05.14-.07.12-.15-.27-.21-.42-.24l-.4-.07c-.18,0-.25,0-.54,0l-.77-.09c-.39,0-.38-.11-.77-.15s-.38,0-.66-.05l.71-.26a9.64,9.64,0,0,0,1.18-.59l1.12-.68.07-.05Zm-1.59-3.71a8.57,8.57,0,0,1,1.2-.22,8.17,8.17,0,0,1,1.21,0,4.54,4.54,0,0,1,1.12.15c.08.05.08.06.09.09a.86.86,0,0,1-.17.42l-.67,1a5.35,5.35,0,0,1-.79.94,8,8,0,0,1-.95.8,10.72,10.72,0,0,1-1,.68,7.48,7.48,0,0,1-1.1.54,8.74,8.74,0,0,1-1.17.4l-.3.07s0,0,0-.06a.22.22,0,0,0-.24-.12l-.17,0a1,1,0,0,1-.22.09l-.32.08c-.16,0-.17,0-.34,0l-.13,0-.31,0c.14,0,.16-.07.34-.12s.21,0,.41-.06.18-.12.38-.18.2,0,.4-.11l.38-.15.31-.15a.2.2,0,0,0,.08-.12.16.16,0,0,0-.15-.19c-.19,0-.33.1-.5.15l-.27.09-.37.15-.38.12-.39.1c-.19,0-.18.1-.38.15s-.19,0-.39.06l-.39.08c-.19,0-.21,0-.37,0l0,0h0a.17.17,0,0,0,.14,0,.52.52,0,0,0,.13-.06l.06-.06.37-.17.51-.21.7-.32.71-.32.72-.31c.35-.16.33-.2.68-.36l.72-.31.71-.32c.35-.16.37-.12.72-.28l.47-.22c0-.07.07-.13,0-.19s-.34,0-.48,0-.26.1-.38.15-.22.13-.48.25l-.71.33c-.35.16-.38.1-.73.26s-.34.19-.69.35-.38.11-.73.27l-.17.08a.19.19,0,0,0,0-.08.18.18,0,0,0-.16-.17c-.16,0-.23.09-.34.15a.69.69,0,0,0-.18.1l-.23.16-.24.16c-.11.08-.12.07-.24.15s-.08.12-.2.2l-.19.11.21-.24.23-.24c.12-.12.08-.15.2-.27l.26-.22.25-.22c.13-.11.16-.07.29-.18a1.23,1.23,0,0,0,.16-.15.17.17,0,0,0-.06-.15.2.2,0,0,0-.27,0,.83.83,0,0,0-.16.09.79.79,0,0,1-.16.18l-.26.24h0a6.83,6.83,0,0,1,.73-.79,10.08,10.08,0,0,1,1.4-1,7.41,7.41,0,0,1,1.08-.57A7,7,0,0,1,341.41,291.65Zm-5.62.92c.1-.41.15-.61.21-.81l.1-.33a1.59,1.59,0,0,1,.18-.43,8,8,0,0,1,.87-1.42,6.86,6.86,0,0,1,1.11-1.23l.6-.55.25-.21a3.14,3.14,0,0,1,.42-.22,2,2,0,0,1,.75-.17h.3a4.22,4.22,0,0,1,.43.09c.11.05.1,0,.11,0s0,0,0,.05v.2a7.59,7.59,0,0,1,0,.84,8.34,8.34,0,0,1-.4,1.62l-.32,1.08a.28.28,0,0,0,0,.09l-.44.16a6.09,6.09,0,0,0-1.19.58c-.5.34-.78.53-1,.72.11-.17.12-.25.29-.5s.24-.31.46-.63l.44-.64c.22-.32.26-.29.48-.61s.19-.3.28-.43,0-.16-.08-.18-.31.15-.41.26a3.92,3.92,0,0,1-.25.32,3.52,3.52,0,0,1-.28.47l-.43.64c-.22.32-.27.28-.5.6s-.19.34-.41.66-.26.29-.48.61-.2.35-.33.56l.05-.11.09-.21a.14.14,0,0,0,0-.11.2.2,0,0,0-.23-.07c-.14.06-.15.2-.21.31a1.24,1.24,0,0,0-.1.17l-.12.26c-.05.13-.06.13-.12.26s-.07.12-.12.25,0,.15-.08.28-.07.12-.1.19l.06-.31c0-.16,0-.16.07-.32s0-.18,0-.34.06-.16.11-.32l.1-.32c.05-.16.1-.14.15-.3s.05-.15.07-.21a.17.17,0,0,0-.14-.1.21.21,0,0,0-.24.11,1.29,1.29,0,0,0-.09.16.85.85,0,0,1,0,.24v0C335.67,293.12,335.73,292.84,335.79,292.57Zm-12.86,14.08a6.31,6.31,0,0,1,.33.68,5.76,5.76,0,0,1,.26.72,1.38,1.38,0,0,1,.12.62c0,.09-.09.16-.09.14a.7.7,0,0,1-.21-.11l-.24-.18a2.67,2.67,0,0,1-.56-.52,6.8,6.8,0,0,1-.84-1.29c-.18-.34-.26-.51-.34-.69a4.28,4.28,0,0,1-.25-.7,3.41,3.41,0,0,1-.1-.78c0-.06,0-.12,0-.18a1.94,1.94,0,0,1,.31.26,9.39,9.39,0,0,1,.75.79A6.79,6.79,0,0,1,322.93,306.65Zm7.39-4.29c-4.6.05-6.9.11-9.2.21-1.74.1-3.48.19-6.21.29.39-.07.84-.15,1.52-.31,2.09-.45,2.06-.57,4.13-1.1s2.08-.52,4.12-1.18c1-.32,1.52-.49,2-.68s1-.35,2-.73c2-.77,2-.67,4-1.52,1.21-.51,1.66-.76,2.28-1.06l.05,0a.37.37,0,0,0,0,.19,2.19,2.19,0,0,0,.17.29c.07.15,0,.17.11.32s.13.11.23.25.06.16.17.29a2.73,2.73,0,0,0,.23.25l.13.12.12.17a2.36,2.36,0,0,0,.35.36,1.13,1.13,0,0,0,.26.16c.09.05.2.07.26.1.38.08.55.08,1.17.24a16.27,16.27,0,0,0,1.69.33,14.21,14.21,0,0,0,1.73.3h.21c-.58.18-.87.31-1.87.57-1.44.38-1.45.3-2.89.67s-1.43.37-2.87.74l-2.36.62-.16.07Zm5.46,0-1.16,0,.69-.18c.12,0,1.13-.26,2.05-.49l2.86-.76c1.44-.37,1.44-.36,2.87-.74s1.44-.35,2.87-.72,1.41-.47,2.85-.85,1.44-.34,2.87-.71,1.43-.38,2.87-.76,1.45-.27,2.89-.65l1.28-.35a.36.36,0,0,1,.09.13c.05.12,0,.13.06.25l.12.23,0,.06c0,.08.05.15.07.22a2.45,2.45,0,0,0,.19.35,1.15,1.15,0,0,0,.36.31c.26.13.39.15.82.39a13,13,0,0,0,1.19.57,10.35,10.35,0,0,0,1.21.58,3.12,3.12,0,0,0,.67.13l.68.08h0c-1,.29-1.28.44-2.77.83-1.92.51-1.94.43-3.85.94s-1.91.5-3.83,1l-2.29.62-2.13-.06.13-.09a4.4,4.4,0,0,0,.56-.58l.24-.32s.05-.09.09-.14l.05-.09a1.05,1.05,0,0,0,.08-.18.69.69,0,0,0,0-.47.51.51,0,0,0-.17-.24.51.51,0,0,0-.24-.1.73.73,0,0,0-.64.27c-.27.26-.2.33-.46.6s-.27.26-.51.55-.23.29-.45.59a.1.1,0,0,1,0,.05l0,0a.24.24,0,0,0-.08.09c-4.07-.14-6.24-.16-8.4-.25Zm57.11,2.82a11.71,11.71,0,0,0,1.4-.83,12.31,12.31,0,0,0,1.36-.9l.56-.51a1.25,1.25,0,0,1,.57-.31.67.67,0,0,1,.55.11.56.56,0,0,1,.21.33,1,1,0,0,1-.1.47,1,1,0,0,1-.46.45,12.1,12.1,0,0,1-1.42.6,12.51,12.51,0,0,1-1.46.49,11.42,11.42,0,0,1-1.24.3,1.53,1.53,0,0,0-.44.23l-.06.07-.34,0C392.27,305.53,392.43,305.43,392.89,305.2Zm14.89,3.57a2.08,2.08,0,0,1,.54.29,4.55,4.55,0,0,1,.64.6c.28.34.18.42.4.78l.2.34a.5.5,0,0,1,.07.29c0,.11-.09.12-.13.12l-.21,0a.92.92,0,0,1-.26-.05.54.54,0,0,1-.31-.21,6.28,6.28,0,0,1-.44-.76,5.62,5.62,0,0,1-.38-.78c-.13-.32-.16-.4-.23-.61h.11ZM439,319.23a1.55,1.55,0,0,0,0-.15l.12.23.08.18Zm-.86-2.91h0Zm.16.28a.61.61,0,0,0-.07-.14,1.07,1.07,0,0,1,.12.19l0,.07s0,.09,0,.14v.07h0C438.34,316.83,438.31,316.74,438.27,316.6Zm-.15.84c0,.1.06.21.08.31h0l-.06-.13a1.89,1.89,0,0,1-.06-.18Zm4.81,6.74a25.27,25.27,0,0,0-.14,2.74,8.71,8.71,0,0,1-.26,1.42,5.39,5.39,0,0,1-.18.56c-.06.12-.1.22-.15.31s0,0,0,0l-.35-.15c-.23-.11-.38-.22-.52-.29a2.5,2.5,0,0,1-.34-.23,5.85,5.85,0,0,1-.77-.65A7.22,7.22,0,0,1,439,326.3c-.27-.44-.4-.67-.53-.89a5.85,5.85,0,0,1-.46-.94,17.26,17.26,0,0,1-.57-2c-.24-1-.24-1-.42-2.07a10.23,10.23,0,0,1-.1-1.07v-.44a.72.72,0,0,1,0-.2,1.73,1.73,0,0,1,.05-.24c0-.13.09-.24.13-.35,0,.06,0,.12,0,.24s0,.23,0,.47,0,.23,0,.46,0,.24,0,.47l0,.47c0,.23,0,.23,0,.47a1.94,1.94,0,0,0,.07.3.14.14,0,0,0,.17,0c.14-.06.13-.2.14-.29s0-.16,0-.24a1.31,1.31,0,0,1-.07-.31c0-.22,0-.22,0-.45s0-.23,0-.45,0-.23,0-.46.06-.22.08-.44,0-.23,0-.46v0a2.44,2.44,0,0,0,.1.24.85.85,0,0,0,0,.3c0,.26.06.26.09.51s0,.27,0,.52.1.25.14.51,0,.26.07.51l.12.51.12.41a.49.49,0,0,0,.12.13c.11.06.19-.05.2-.14a1.57,1.57,0,0,0-.11-.64l-.06-.36c-.06-.24-.06-.24-.11-.49s-.05-.25-.09-.5,0-.26-.05-.44c.3.45.49.73.93,1.32v0c.14.47.13.47.26.94s.18.46.31.93.12.47.25.94.14.47.27.94.09.48.22.95.13.43.19.62.13.13.19.07.06-.4,0-.58-.08-.34-.12-.5-.12-.3-.22-.65-.14-.47-.27-.94-.07-.48-.2-.95-.17-.46-.3-.93c0-.05,0-.09,0-.13.35.42.59.66.82.9a11.27,11.27,0,0,0,1.24,1.08c.66.49,1,.71,1.33.95l.12.08A.75.75,0,0,0,442.93,324.18Zm4.4-2.4a10.55,10.55,0,0,1,.63,1.41,5.36,5.36,0,0,1,.37,1.4c0,.14,0,.19-.1.23a1,1,0,0,1-.64,0c-.76-.13-1.15-.22-1.53-.3a7.73,7.73,0,0,1-1.49-.48,11.17,11.17,0,0,1-1.39-.71,14,14,0,0,1-1.29-.86,10.6,10.6,0,0,1-1.17-1,11.54,11.54,0,0,1-1-1.17l-.3-.4,0,0a.16.16,0,0,0,.16-.07.27.27,0,0,0,0-.3l-.1-.18a1.21,1.21,0,0,1-.17-.22,2.37,2.37,0,0,1-.17-.36c-.08-.19,0-.21-.07-.4s-.09-.19-.14-.39a.79.79,0,0,1,0-.25,2.58,2.58,0,0,1,.19.25c.14.23.1.25.25.47s.19.19.35.41.13.23.3.44l.36.4a3,3,0,0,0,.32.31.35.35,0,0,0,.17.06c.13,0,.14-.14.11-.22s-.29-.35-.43-.52l-.22-.29a4.39,4.39,0,0,1-.33-.4c-.15-.2-.15-.21-.3-.42s-.14-.22-.28-.44-.18-.19-.31-.41-.12-.22-.18-.33l.09.08s.27.27.5.48l.72.64.72.64.71.65c.36.32.39.28.75.6l.71.65.72.64c.35.32.32.36.67.69s.33.29.48.42.18,0,.2,0-.15-.37-.27-.51l-.36-.36c-.17-.14-.25-.19-.52-.43l-.72-.64c-.36-.32-.32-.37-.68-.69s-.38-.29-.74-.61-.33-.36-.69-.67-.39-.29-.75-.61-.32-.31-.48-.47c.12.07.16,0,.29.13s.13.13.28.23l.29.2.25.15a.22.22,0,0,0,.14,0,.18.18,0,0,0,.09-.22c-.07-.17-.24-.21-.35-.31a1.74,1.74,0,0,0-.21-.15,3,3,0,0,0-.3-.19l-.29-.2-.3-.2c-.14-.1-.17-.06-.32-.16l-.29-.21-.19-.12.28.08.39.14.4.15c.19.08.21,0,.41.11l.37.19.39.18c.18.1.16.14.35.24a2.07,2.07,0,0,0,.25.13.17.17,0,0,0,.13-.12.25.25,0,0,0-.12-.28l-.19-.13c-.09,0-.14,0-.29-.11s-.19-.09-.39-.18-.17-.15-.37-.24l-.06,0a8.63,8.63,0,0,1,1.75.61,12,12,0,0,1,1.89,1.12,11.21,11.21,0,0,1,1.19,1,8.9,8.9,0,0,1,1,1.15,8.2,8.2,0,0,1,.52.75C447.13,321.45,447.24,321.61,447.33,321.78Zm4-3.55-.3.13a9.22,9.22,0,0,1-1,.37,5.39,5.39,0,0,1-1,.22l-1.05.12-1.41.14a.59.59,0,0,0-.14.06c-.15-.18-.29-.33-.43-.47a8.13,8.13,0,0,0-1.24-1.09,15.61,15.61,0,0,0-1.41-.87l-.45-.21.35.07c.48.11.49.06,1,.16s.47.12.95.22l.95.2c.48.1.47.15.95.25l.63.12c.11,0,.18,0,.16-.14s-.33-.24-.51-.29l-.49-.13c-.22,0-.32,0-.68-.11l-.95-.2c-.48-.1-.46-.16-.94-.26s-.49-.07-1-.17-.47-.16-1-.26-.48,0-1-.15-.47-.14-.94-.24h.07c.2,0,.2.05.4,0s.2-.06.4-.07.2,0,.4,0h.73a.37.37,0,0,0,.12-.07.16.16,0,0,0-.05-.24c-.16-.11-.35-.06-.52-.07a1.88,1.88,0,0,0-.29,0h-1.2c-.21,0-.2.06-.4.06h-.49l.23-.05.48-.08.49-.06c.24,0,.23-.08.48-.11l.49,0,.49,0c.24,0,.24,0,.49,0l.32,0a.15.15,0,0,0,.06-.17c0-.14-.19-.16-.29-.17a1.1,1.1,0,0,0-.26,0,1.92,1.92,0,0,1-.34,0l-.5.05c-.25,0-.25,0-.5,0s-.25.07-.49.1h-.2c.19-.06.38-.13.57-.17s.81-.19,1.48-.3.79-.12,1.06-.15l.43-.05.26,0,.34,0a7.12,7.12,0,0,1,1,.12c.27,0,.53.08,1,.2a9.79,9.79,0,0,1,2,.7c.24.1.41.19.55.26a3.35,3.35,0,0,1,.38.19,3.65,3.65,0,0,1,.36.21,5.24,5.24,0,0,1,.47.38,3.22,3.22,0,0,1,.58.81c0,.11.08.22.14.36a4.15,4.15,0,0,1,.1.56v.22S451.35,318.23,451.33,318.23Z" transform="translate(-45.32 -284.39)"/><path class="cls-1" d="M45.33,318.38a1.91,1.91,0,0,0,0,.24l.2.09.5.22c.25.1.51.21,1,.38.8.24,1,.32,1.5.43a7.81,7.81,0,0,0,1.17.1,4.41,4.41,0,0,0,.71,0l-.2.26c-.51.65-.71,1-1,1.35a7.76,7.76,0,0,0-.74,1.49,8.68,8.68,0,0,0-.28,1,2.06,2.06,0,0,0-.09.75,1,1,0,0,0,.45.83,1.64,1.64,0,0,0,1.16.14c.81-.14,1.21-.24,1.62-.33a10.24,10.24,0,0,0,1.56-.51c.33-.15.58-.27.79-.39a1.55,1.55,0,0,0,0,.21c0,.71,0,.83,0,1.78a10.16,10.16,0,0,0,.08,1.11,7.54,7.54,0,0,0,.21,1.11,3.75,3.75,0,0,0,.23.64,2.42,2.42,0,0,0,.12.23c0,.07.06.11.13.22l.21.31.11.16s0,0,0,0l0,0,.1,0,.79-.36c.25-.12.43-.23.59-.31a2.87,2.87,0,0,0,.4-.22,3.82,3.82,0,0,0,.9-.69,8.14,8.14,0,0,0,1.29-1.82c.29-.48.42-.72.55-1a6.51,6.51,0,0,0,.47-1,17.66,17.66,0,0,0,.51-2.12c.24-1.06.25-1.06.43-2.12.12-.8.19-1,.26-1.48a1.67,1.67,0,0,0,0-.34,1.34,1.34,0,0,0,0-.35,3,3,0,0,0-.25-.57l-.08-.15,0-.07c1.3,0,1.31-.1,2.62-.17l1.32-.12a11.1,11.1,0,0,0,1.31-.16c1.32-.18,1.3-.25,2.6-.5s1.32-.2,2.59-.58c.64-.18,1-.31,1.26-.42s.63-.21,1.24-.46c1.24-.49,1.23-.5,2.44-1.05.6-.28.89-.45,1.19-.59a11.82,11.82,0,0,0,1.17-.63c.74-.41,1.5-.95,1.59-1,.47-.3,1-.63,1.44-1a6.72,6.72,0,0,0,1.19-1.05l1.85-.3,3.57-.54a2.68,2.68,0,0,0-.28.29,5,5,0,0,0-.55.83l-.27.46a1.06,1.06,0,0,0-.11.64.94.94,0,0,0,.44.65,1.1,1.1,0,0,0,.69.14,1.16,1.16,0,0,0,.61-.23,1.89,1.89,0,0,0,.42-.38,5.49,5.49,0,0,0,.58-.81,3.57,3.57,0,0,0,.3-.63,2.07,2.07,0,0,0,.3-1.23s0,0,0,0l3.39-.46c4.55-.57,6.84-.77,9.12-1l3.7-.4,5.43-.5,5.43-.5c1.42-.14,2.57-.21,3.71-.3,2.29-.17,4.58-.37,9.16-.67,6.71-.33,8.51-.35,12.59-.43-.55.41-.83.59-1.76,1.26-1.33.9-1.31.93-2.67,1.8s-1.32.91-2.69,1.75-1.44.72-2.85,1.48-1.37.85-2.81,1.56-1.49.62-3,1.28-1.42.77-2.92,1.35-1.51.55-3,1.1c-1.13.38-1.44.45-2.15.64l-1.6.54-.62.22a.31.31,0,0,0,0-.1.32.32,0,0,0,.12-.15,1.89,1.89,0,0,0,.09-.6,14.72,14.72,0,0,0-.27-1.56,11.86,11.86,0,0,0-.6-1.83,6.29,6.29,0,0,0-.42-.86l-.2-.33-.13-.23-.19-.27-.56-.8a4.06,4.06,0,0,0-.61-.74,9.31,9.31,0,0,0-1.57-1.15c-.2-.14-.36-.23-.49-.31a3.29,3.29,0,0,0-.34-.2l-.36-.19a5.66,5.66,0,0,0-.58-.19,2.43,2.43,0,0,0-1,0l-.42.1-.57.24-.36.22-.18.11,0,.18c0,.19.05.34.07.49a6.94,6.94,0,0,0,.19.94l.2.75c-.17.09-.38.21-.67.39-.94.51-.93.52-1.88,1s-.92.55-1.89,1-1,.33-2,.73-1,.5-2,.85-1,.26-2.05.59-1,.43-2,.7-1,.25-2.08.49a13,13,0,0,1-1.47.23l-.93.21,0,0,0-.13a2.24,2.24,0,0,0-.13-.27c-.07-.14-.11-.12-.18-.25s0-.16-.13-.29-.14-.09-.24-.2-.07-.14-.18-.25a.44.44,0,0,0-.16-.09.24.24,0,0,0,0-.16,1.43,1.43,0,0,0-.38-.35,9.63,9.63,0,0,0-1.25-.51,10.85,10.85,0,0,0-1.59-.39,4.06,4.06,0,0,0-.81-.07h-.85a9,9,0,0,0-1.64.15,7.83,7.83,0,0,0-1.53.63c-.38.17-.57.27-.75.37l-.31.17c-.1.09-.24.18-.4.34a2,2,0,0,0-.48.75c0,.12-.07.23-.11.36s-.06.31-.08.53,0,.28,0,.39a1,1,0,0,0,0,.18l.14.06.41.18a6,6,0,0,0,.76.28c.58.18.73.25,1.09.34a8.48,8.48,0,0,0,.86.06l.33,0,0,0c-.37.48-.52.74-.71,1a5.3,5.3,0,0,0-.55,1.09,5.77,5.77,0,0,0-.2.7,1.49,1.49,0,0,0-.06.57.83.83,0,0,0,.38.68,1.3,1.3,0,0,0,.91.11c.59-.1.88-.17,1.18-.23a6.44,6.44,0,0,0,1.14-.37,2.92,2.92,0,0,0,.39-.18c0,.47,0,.58,0,1.25,0,.4,0,.6.06.81a5.84,5.84,0,0,0,.16.82,2.84,2.84,0,0,0,.17.48,1,1,0,0,0,.1.17,1.28,1.28,0,0,0,.14.23l.15.22.08.11s0,0,0,0l0,0,.07,0,.66-.29c.36-.2.56-.27.74-.38a2.81,2.81,0,0,0,.67-.5,5.66,5.66,0,0,0,.93-1.36l.41-.7a4,4,0,0,0,.35-.72,10.88,10.88,0,0,0,.34-1.56c.18-.77.19-.77.32-1.55.09-.58.14-.72.21-1.06a1.93,1.93,0,0,0,0-.26.68.68,0,0,0,0-.14l.13,0c1.06-.2,1-.29,2.1-.52s1.05-.23,2.1-.5,1-.31,2.07-.62,1.07-.21,2.09-.58,1-.38,2-.77,1-.41,2-.85l.25-.11a.79.79,0,0,0,0,.23,1.53,1.53,0,0,0,.44.94c.47.52.72.77,1,1a8.54,8.54,0,0,0,1.08.91c.21.14.38.25.54.34l-.07,0c-.52.31-.62.35-1.31.79a6.86,6.86,0,0,0-.77.56,5.74,5.74,0,0,0-.72.66,3.71,3.71,0,0,0-.37.46c-.08.15-.13.22-.23.44l-.13.28-.06.15s0,0,0,0l0,0,.08.05.65.44c.42.24.62.39.84.49a3.24,3.24,0,0,0,.91.36,6.93,6.93,0,0,0,1.92.1l.95,0a5.37,5.37,0,0,0,.94-.11,15.51,15.51,0,0,0,1.78-.6c.88-.3.88-.3,1.74-.65.63-.27.8-.31,1.19-.46a2.71,2.71,0,0,0,.26-.15,1.59,1.59,0,0,0,.24-.2,2.35,2.35,0,0,0,.3-.45l.09-.17.14-.17.2-.31c.09-.15,0-.17.14-.33s.12-.14.19-.31a.09.09,0,0,0,0-.05c.44-.11.84-.19,1.7-.46,1.55-.47,1.52-.57,3-1.09s1.54-.52,3-1.12,1.49-.64,3-1.27,1.53-.57,3-1.27,1.45-.74,2.88-1.5,1.42-.78,2.83-1.59,1.4-.81,2.76-1.7c.88-.55,1.8-1.22,1.91-1.3a23.54,23.54,0,0,0,3.2-2.45c1.27,0,2.77-.06,4.65-.11,4.07-.15,6.33-.14,8.39-.17a3.4,3.4,0,0,1-.43.35c-.38.26-.44.17-.82.43s-.32.34-.7.6-.42.19-.8.45-.31.36-.69.62-.39.24-.77.5a1.85,1.85,0,0,1-.46.24A2,2,0,0,0,152,307a11,11,0,0,0-1.25-.51,10.85,10.85,0,0,0-1.59-.39,5.1,5.1,0,0,0-.82-.07h-.55l-.29,0a9,9,0,0,0-1.64.14,7.83,7.83,0,0,0-1.53.63c-.38.17-.57.27-.76.37l-.3.17a4.33,4.33,0,0,0-.4.34,2.13,2.13,0,0,0-.49.76l-.1.35c0,.14-.06.31-.09.53v.57l.14.06.41.18c.19.08.38.16.77.29.58.17.72.24,1.09.33a6.33,6.33,0,0,0,.86.06l.33,0,0,0c-.37.47-.53.73-.71,1a4.83,4.83,0,0,0-.55,1.09,5.77,5.77,0,0,0-.2.7,1.75,1.75,0,0,0-.07.57.85.85,0,0,0,.38.68,1.31,1.31,0,0,0,.91.11c.6-.1.89-.16,1.18-.23a6.48,6.48,0,0,0,1.15-.37l.39-.18c0,.47,0,.58,0,1.25a6.13,6.13,0,0,0,.06.81,5.45,5.45,0,0,0,.15.82,3.88,3.88,0,0,0,.18.48,1.62,1.62,0,0,0,.1.18,1.76,1.76,0,0,0,.14.23l.15.21.08.12,0,0,0,0,.07,0,.65-.29c.37-.19.56-.27.74-.38a2.81,2.81,0,0,0,.68-.5,5.66,5.66,0,0,0,.93-1.36c.2-.34.3-.52.41-.69a4.61,4.61,0,0,0,.35-.73,14.51,14.51,0,0,0,.34-1.56c.18-.77.19-.77.32-1.54.08-.58.14-.72.21-1.07a1.93,1.93,0,0,0,0-.26,1.08,1.08,0,0,0,0-.27,1.91,1.91,0,0,0-.19-.43,1.74,1.74,0,0,0-.11-.18s0-.07-.05-.13a1.82,1.82,0,0,0-.13-.28c-.07-.14-.11-.12-.19-.25s0-.16-.13-.28-.13-.09-.23-.21l-.05-.06a1.7,1.7,0,0,1,.35-.29l.77-.51c.38-.25.36-.28.74-.54s.43-.17.81-.43.37-.27.75-.52l.76-.52.76-.5c.24-.17.49-.37.52-.4l.1-.06,3.18,0,2.4,0,3,0c4.16,0,6.43.05,8.53.08l-.22.21a7.62,7.62,0,0,0-.58.61,7.43,7.43,0,0,0-.89,1.41c-.2.37-.31.55-.42.73a3.24,3.24,0,0,0-.34.77,1.76,1.76,0,0,0-.1,1,1,1,0,0,0,.2.45.81.81,0,0,0,.71.32,1.24,1.24,0,0,0,.61-.27l.27-.22a3.73,3.73,0,0,0,.6-.58,7.81,7.81,0,0,0,.84-1.45c.2-.37.28-.56.37-.74a5.21,5.21,0,0,0,.28-.8,10.16,10.16,0,0,1,.29-1.09,2.44,2.44,0,0,1,.06-.26l8.14.24c1.14,0,2.14.07,3,.13l2.4.12,3.72.2,3.72.2,1.28.09c-.76.12-1.18.21-1.61.31l-1.93.46c-1.93.47-2,.38-3.86.94s-1.87.69-3.74,1.32-1.89.57-3.76,1.19-1.83.74-3.72,1.31c-1,.27-1.42.39-1.9.51s-1,.23-1.91.44a15.53,15.53,0,0,1-1.55.27c-.39.06-.7.1-1.15.14-.67.12-1.36.18-2,.27l-.5.06a1.6,1.6,0,0,0-.25-.46,11.27,11.27,0,0,0-1.08-1,10.53,10.53,0,0,0-1.48-1,5.25,5.25,0,0,0-.8-.4l-.34-.13-.22-.1-.3-.09-.86-.28a4,4,0,0,0-.88-.21,9.13,9.13,0,0,0-1.81,0l-.91.09-.38.06-.54.19a2.31,2.31,0,0,0-.79.58l-.24.32c-.08.13-.18.29-.29.5l-.15.39a.67.67,0,0,0-.07.18l.12.11.34.34c.16.15.32.3.67.58.53.41.65.53,1,.77a6,6,0,0,0,.86.39,2,2,0,0,0,.41.13l-.11.06c-.56.35-.82.56-1.1.74a6.12,6.12,0,0,0-1,.9c-.22.25-.35.47-.48.64a2,2,0,0,0-.28.55.9.9,0,0,0,.11.82,1.44,1.44,0,0,0,.87.45c.65.13,1,.17,1.3.22a7.28,7.28,0,0,0,1.32.07l.54-.05h0c-.21.53-.27.62-.53,1.33a7.75,7.75,0,0,0-.25.85,5.18,5.18,0,0,0-.16.9,2.69,2.69,0,0,0,0,.56,1.2,1.2,0,0,0,0,.2,1.41,1.41,0,0,0,.05.27l.07.28,0,.15s0,0,0,0h.13l.75,0c.44-.06.68-.07.9-.11a3,3,0,0,0,.88-.25,6.48,6.48,0,0,0,1.48-1l.69-.56a4.06,4.06,0,0,0,.64-.61,12.75,12.75,0,0,0,1-1.46c.48-.71.49-.71.93-1.45.31-.56.42-.69.62-1a2.54,2.54,0,0,0,.11-.26,1.07,1.07,0,0,0,.06-.29,2.11,2.11,0,0,0,0-.51,1.18,1.18,0,0,1,0-.2v-.18c0-.17,0-.17,0-.34s-.06-.16-.08-.32,0-.18,0-.34-.1-.15-.15-.3v0c.32,0,.69,0,1.2-.09a34.27,34.27,0,0,0,3.92-.73c1-.21,1.46-.32,1.94-.45s1-.24,1.92-.52c1.9-.56,1.88-.6,3.77-1.22s1.9-.54,3.77-1.17,1.86-.65,3.74-1.23,1.88-.57,3.79-1c.95-.22,1.43-.32,1.91-.4s1-.18,1.93-.32c1.24-.17,2.6-.29,2.76-.29,1.65-.11,3.45.09,5,.14h.14c4.37.32,8.21.67,8.8.71l.63.05c.18.06.35.12.52.16.42.12.87.15.78,0,1.31.11,2.64.23,4,.39l6,.7c4,.41,8,.93,11.67,1.19,2.82.21,5.8.18,2.5-.6-1.55-.37-3.52-.73-5.53-1.06-3-.41-4.83-.65-6.85-.87l-5.31-.61-.19-.08c-.4-.1-.56-.14-.88-.24l-.24-.36c-.53-.72-.6-.66-1.16-1.35s-.55-.69-1.15-1.34c-.3-.33-.46-.48-.62-.63s-.31-.31-.68-.62a2,2,0,0,0-1-.45,1.21,1.21,0,0,0-.49,0,1.08,1.08,0,0,0-.62.5,1.31,1.31,0,0,0-.14.74,1.47,1.47,0,0,0,.13.46,2.62,2.62,0,0,0,.62.82,11.81,11.81,0,0,0,1.4,1.14,11.48,11.48,0,0,0,1.53.95l.12.06c-3-.29-5-.47-6.67-.62l-.18-.08c-1.62-.67-1.62-.67-3.24-1.31s-1.66-.57-3.29-1.19-1.6-.7-3.25-1.28-1.69-.48-3.35-1-1.64-.6-3.31-1.12-1.71-.39-3.39-.86-1.68-.48-3.37-.93c-1.25-.32-1.57-.46-2.34-.66-.6-.13-1.2-.28-1.8-.39l-.88-.14a1.7,1.7,0,0,0,.12-.3.43.43,0,0,0,0-.2.26.26,0,0,0,.11-.16,1.72,1.72,0,0,0,.1-.58,14.17,14.17,0,0,0-.27-1.55,11.56,11.56,0,0,0-.58-1.81,6,6,0,0,0-.42-.85l-.2-.33c0-.07-.08-.14-.12-.22l-.19-.28-.55-.78a4.06,4.06,0,0,0-.61-.74,9.16,9.16,0,0,0-1.54-1.14c-.2-.14-.35-.23-.48-.31l-.34-.2-.36-.19a5.7,5.7,0,0,0-.57-.18,2.27,2.27,0,0,0-1,0l-.41.1c-.15.06-.34.13-.57.24l-.36.22-.18.11,0,.17.07.49a8.28,8.28,0,0,0,.18.93c.18.68.22.86.35,1.28a7.49,7.49,0,0,0,.46.89,4.21,4.21,0,0,0,.28.4l-.16,0c-.7-.07-1.05-.07-1.41-.09a6,6,0,0,0-1.41.13,6.81,6.81,0,0,0-.81.22,2.08,2.08,0,0,0-.59.27,1,1,0,0,0-.42.75,1.44,1.44,0,0,0,.43.93c.47.52.71.77,1,1a7.45,7.45,0,0,0,1.07.91l.53.33-.06,0c-.52.31-.62.35-1.3.78a6.75,6.75,0,0,0-.77.55,6.33,6.33,0,0,0-.71.65,2.8,2.8,0,0,0-.36.46,3.16,3.16,0,0,0-.24.43l-.12.28-.07.15v0l0,0,.08.05.64.44c.41.23.61.38.83.49a3.54,3.54,0,0,0,.9.35,6.77,6.77,0,0,0,1.9.1l.94,0a5.38,5.38,0,0,0,.93-.11,14.38,14.38,0,0,0,1.75-.59c.87-.3.88-.29,1.73-.63.62-.27.79-.3,1.18-.46a1.76,1.76,0,0,0,.26-.14,1.15,1.15,0,0,0,.23-.21,2.52,2.52,0,0,0,.31-.44,1,1,0,0,1,.09-.17A2,2,0,0,1,186,297l.19-.3c.1-.15.06-.17.14-.33l0-.07,1.69.42c1.69.41,1.71.32,3.4.75s1.68.45,3.35.92,1.69.45,3.36.95,1.63.6,3.29,1.14,1.65.53,3.3,1.1,1.64.57,3.28,1.18,1.62.61,3.24,1.26l1.08.42c-1-.09-2-.18-3.15-.27l-5.45-.39-5.45-.36-3.74-.14-6.28-.24c-1.07-.17-1.43-.28-3.05-.55-1.05-.15-1.57-.25-2.1-.32a20.63,20.63,0,0,1-2.09-.37c-2.08-.45-2.05-.54-4.11-1.06-1-.28-1.54-.4-2.06-.52a19.8,19.8,0,0,1-2.05-.56c-1-.32-1.52-.5-2-.68l-2-.73c-1.47-.58-1.84-.74-2.73-1.15L164,296.3c-.42-.17-1-.41-1.48-.56l0-.09a12.42,12.42,0,0,0,0-1.47,10.63,10.63,0,0,0-.27-1.78,5.79,5.79,0,0,0-.27-.85l-.13-.34-.09-.23-.14-.28c-.2-.41-.29-.61-.38-.82a4.69,4.69,0,0,0-.46-.78,9.11,9.11,0,0,0-1.27-1.29l-.69-.6-.31-.23c-.13-.07-.28-.16-.5-.26a2.27,2.27,0,0,0-1-.18l-.4,0a5.74,5.74,0,0,0-.57.14l-.38.15-.18.08v.64c0,.22,0,.45,0,.89.07.66.07.84.13,1.25a8.45,8.45,0,0,0,.3.89,2.78,2.78,0,0,0,.19.39l-.12,0c-.64-.18-1-.23-1.29-.3a6,6,0,0,0-1.33-.1,5.81,5.81,0,0,0-.79.09,2.26,2.26,0,0,0-.6.17.88.88,0,0,0-.51.65,1.34,1.34,0,0,0,.26.94c.36.56.55.83.74,1.1a7.16,7.16,0,0,0,.85,1l.41.36h0c-.53.21-.63.23-1.32.53a7.24,7.24,0,0,0-.8.4,6.15,6.15,0,0,0-.76.5,3.19,3.19,0,0,0-.41.38,1.83,1.83,0,0,0-.13.16,1.4,1.4,0,0,0-.16.22l-.16.25-.08.12a.08.08,0,0,0,0,0l0,0,.07.06.54.52c.36.28.52.44.7.58l.06,0c-1.26-.33-1.3-.42-2.67-.77s-1.47-.25-2.9-.63-1.43-.38-2.86-.76c-1.07-.27-1.33-.39-2-.58-.5-.12-1-.25-1.51-.35l-.71-.13a.21.21,0,0,0,0-.12.25.25,0,0,0,.1-.12,1,1,0,0,0,.07-.44,8.17,8.17,0,0,0-.3-1.1,7.4,7.4,0,0,0-.55-1.26,2.79,2.79,0,0,0-.37-.58l-.17-.22a2.79,2.79,0,0,0-.27-.35,9.12,9.12,0,0,0-.92-1,7.35,7.35,0,0,0-1.22-.69l-.63-.33a2.44,2.44,0,0,0-.71-.21,1.55,1.55,0,0,0-.77.07l-.29.12c-.12.06-.23.11-.42.22l-.28.21-.11.09,0,.13c0,.15.06.27.09.39a5,5,0,0,0,.2.65c.18.48.2.62.32.92a4.89,4.89,0,0,0,.41.6l.11.13c-.46,0-.71,0-1,0a4.53,4.53,0,0,0-1,.18,3.89,3.89,0,0,0-.57.23,1.3,1.3,0,0,0-.43.26.75.75,0,0,0-.28.63,1.05,1.05,0,0,0,.14.41,1.93,1.93,0,0,0,.27.3c.37.35.56.51.75.68a4.68,4.68,0,0,0,.83.59l.23.12c-.26.18-.36.24-.76.56a5.39,5.39,0,0,0-1,1,3.18,3.18,0,0,0-.24.37,4.45,4.45,0,0,0-.16.42l-.07.2,0,.11h0c-.39-.08-.84-.18-1.57-.38-1.91-.5-1.89-.57-3.8-1.08s-2-.39-3.86-.89-1.91-.53-3.82-1c-1.42-.38-1.77-.52-2.65-.77-.67-.17-1.34-.34-2-.49a11.9,11.9,0,0,0-1.77-.3.64.64,0,0,0,0-.09.58.58,0,0,0,0-.2.33.33,0,0,0,.1-.17,1.86,1.86,0,0,0,0-.59,12.35,12.35,0,0,0-.37-1.54,13.12,13.12,0,0,0-.72-1.79,5.39,5.39,0,0,0-.49-.82l-.22-.32-.14-.22-.22-.26-.6-.76a4.38,4.38,0,0,0-.67-.7,9.24,9.24,0,0,0-1.64-1,4.71,4.71,0,0,0-.51-.28l-.35-.18-.38-.16a3.4,3.4,0,0,0-.58-.15,2.57,2.57,0,0,0-1,0l-.4.14-.56.27-.35.25-.16.13,0,.17.11.49c0,.23.11.46.25.92.24.67.28.85.45,1.27a9.35,9.35,0,0,0,.52.86,5,5,0,0,0,.32.39h-.17c-.71,0-1.07,0-1.43,0a6.46,6.46,0,0,0-1.41.23c-.34.09-.59.21-.8.28a2.56,2.56,0,0,0-.58.32,1,1,0,0,0-.37.78,1.47,1.47,0,0,0,.51.91c.5.49.76.73,1,1a8.61,8.61,0,0,0,1.14.84c.22.13.4.22.56.3l-.06,0c-.51.34-.6.39-1.26.87-.37.29-.55.45-.73.61a6.22,6.22,0,0,0-.67.71,3.71,3.71,0,0,0-.34.49c-.07.15-.11.23-.2.45l-.1.29-.06.16s0,0,0,0l0,0,.08.05.68.39c.44.21.65.34.87.44a3.71,3.71,0,0,0,.94.28,6.5,6.5,0,0,0,1.92,0l.94-.09a4.77,4.77,0,0,0,.93-.17,14,14,0,0,0,1.73-.73c.86-.36.86-.35,1.69-.75.62-.32.79-.37,1.16-.55.06,0,.16-.09.25-.16a1.19,1.19,0,0,0,.22-.23,2.27,2.27,0,0,0,.28-.46,1.42,1.42,0,0,1,.08-.18s.06-.09.12-.18a2.58,2.58,0,0,0,.18-.32c.08-.16,0-.18.11-.34s.12-.15.18-.32a.64.64,0,0,1,0-.09c.78.22,1.17.35,2.52.71,1.91.5,1.94.41,3.85.92s1.91.52,3.82,1,1.92.48,3.83,1,1.89.61,3.8,1.11,1.92.49,3.83,1l3.83,1c1.91.5,1.91.51,3.82,1,1.23.33,2.57.65,2.74.69s.6.15.9.24c-4.27.1-6,.14-12.88.48l-.6,0-.85-.06c-1.58-.12-1.58-.1-3.16-.24s-1.58-.07-3.16-.22-1.56-.28-3.13-.47-1.58-.1-3.15-.33-1.55-.31-3.11-.56-1.58-.13-3.14-.43-1.55-.31-3.1-.62c-1.15-.25-1.44-.35-2.15-.53-.54-.11-1.08-.23-1.63-.32s-1.57-.29-1.84-.06,0,.27.31.41c.63.16,1,.27,2,.52,1.56.35,1.58.25,3.13.58s1.55.33,3.12.62,1.57.25,3.13.52,1.55.36,3.13.59,1.57.21,3.15.41,1.58.19,3.16.36l2.08.22-3.39.33-9.16.9-4.82.43c-.27-.08-.43-.15-.91-.31a11.85,11.85,0,0,1-1.45-.51,12.59,12.59,0,0,1-1.33-.79,11.25,11.25,0,0,1-1.25-.93c-.29-.26-.44-.42-.61-.56a1.65,1.65,0,0,0-.84-.44,1.52,1.52,0,0,0-1,.12,1.16,1.16,0,0,0-.38.28,1.13,1.13,0,0,0-.3.63,1.35,1.35,0,0,0,.07.65,1.51,1.51,0,0,0,.21.38,2.39,2.39,0,0,0,.71.61,13.52,13.52,0,0,0,1.48.73,8.16,8.16,0,0,0,1.1.36l.65.19-.46.05c-2.19.25-4.38.45-8.57,1-.39-.08-.69-.13-1.44-.25-1.26-.19-1.26-.19-2.53-.36s-1.27-.08-2.54-.22-1.25-.23-2.52-.33-1.28,0-2.55-.06-1.27-.13-2.55-.16-1.27.1-2.54.11-1.28,0-2.55,0c-.94,0-1.19,0-1.77,0s-.89.07-1.34.13l-.39.06a1.59,1.59,0,0,0,.16-.4,9.93,9.93,0,0,0,.08-1.34,11.22,11.22,0,0,0-.14-1.64,4.15,4.15,0,0,0-.2-.79l-.1-.31-.07-.22-.11-.27a9.21,9.21,0,0,0-.66-1.51,7.57,7.57,0,0,0-1.09-1.24l-.59-.6-.27-.23c-.11-.07-.25-.17-.44-.27a2,2,0,0,0-.88-.21h-.37l-.53.09-.37.13a.85.85,0,0,0-.17.06v.15l0,.45c0,.2,0,.4,0,.81,0,.6,0,.77,0,1.14a5.31,5.31,0,0,0,.22.83,2,2,0,0,0,.12.31h0c-.57-.2-.87-.27-1.16-.36a5.21,5.21,0,0,0-1.21-.17,7,7,0,0,0-.73,0,2,2,0,0,0-.56.13.85.85,0,0,0-.52.58,1.31,1.31,0,0,0,.19.9c.29.52.44.78.6,1a7,7,0,0,0,.72,1l.29.31c-.44.14-.55.16-1.18.38a7,7,0,0,0-.75.31,6.23,6.23,0,0,0-.73.42,3.25,3.25,0,0,0-.4.32l-.13.15a1.57,1.57,0,0,0-.17.21l-.16.21-.08.11,0,0,0,0,.05.06.49.52c.3.28.44.44.6.58a3,3,0,0,0,.69.48,6,6,0,0,0,1.58.44l.8.16a3.66,3.66,0,0,0,.8.1,13.63,13.63,0,0,0,1.58-.18c.79-.08.79-.07,1.57-.2.57-.11.72-.09,1.07-.15a1.07,1.07,0,0,0,.25-.07,1.17,1.17,0,0,0,.25-.13,1.75,1.75,0,0,0,.34-.32l.14-.17.1-.08.23-.22c.1-.11.07-.14.17-.25s.14-.09.23-.21a.53.53,0,0,0,.07-.2l1.43-.06c1.26-.08,1.26-.17,2.52-.22l2.53,0c1.27,0,1.27,0,2.53,0s1.26.13,2.52.19,1.27.05,2.53.14,1.26.09,2.51.22,1.26.14,2.51.3l1.4.17c-2.22.29-3.82.48-5.22.65l-2.59.3-2.8.38c-3.18.52-6.37,1-9.53,1.58-3.4.66-9.09,1.74-10.19,2.52-.59.42.57.43,2.36.25l5-.82c1.74-.29,3.8-.66,7-1.13,2.53-.39,4.35-.69,5.87-.94-.27.18-.54.36-1.07.74-1.09.69-1.07.73-2.2,1.37l-1.12.66c-.28.16-.55.33-1.14.61-1.19.54-1.22.45-2.43.93-.6.25-.91.35-1.2.49a10,10,0,0,1-1.22.45c-1.25.37-1.27.28-2.53.59s-1.25.41-2.54.59c-.64.1-1,.13-1.29.16l-1.29.11a15.42,15.42,0,0,1-1.82,0l-1.11,0a1,1,0,0,1-.15-.21c-.12-.18-.07-.21-.2-.38s-.16-.13-.3-.29-.11-.18-.26-.32a.7.7,0,0,0-.18-.13.27.27,0,0,0-.1-.19,2.2,2.2,0,0,0-.54-.44,15.78,15.78,0,0,0-1.71-.69,13.59,13.59,0,0,0-2.18-.53,8,8,0,0,0-1.11-.12H53l-.39,0-1.12.07a5,5,0,0,0-1.12.16,11.43,11.43,0,0,0-2.1.82l-.6.3a3.81,3.81,0,0,0-.41.22l-.41.24c-.14.12-.32.25-.53.45a2.94,2.94,0,0,0-.67,1l-.15.47a5.84,5.84,0,0,0-.12.7ZM69.3,304h0l-.08-.1Zm-5.19.69,0,0,1,.69a10.53,10.53,0,0,0,1,.6c.16.08.33.16.55.25-.18,0-.24,0-.51,0s-.35.09-.7.11l-.71,0c-.26,0-.33,0-.49,0l-.37,0c-.14,0-.36.06-.4.21s0,.12.1.15.22,0,.47,0,.35-.07.7-.09l.71,0c.35,0,.35,0,.7-.06s.36,0,.71,0l.66-.05.89.28h0l-.36.06-.36,0-.25,0c-.16,0-.33,0-.47.09a.17.17,0,0,0,0,.24.19.19,0,0,0,.12.07h.31l.37,0c.19,0,.19-.06.37-.08s.2,0,.38,0,.18-.09.36-.13l.25,0-.13.07c-.15.06-.16,0-.32.07s-.13.11-.29.16l-.32.07a1.06,1.06,0,0,1-.23,0l-.16.05a.22.22,0,0,0-.16.22s0,0,0,.06c-.33.05-.48.06-1,.12A12.62,12.62,0,0,1,65,308a3.14,3.14,0,0,1-.74-.11l-.72-.16a5.26,5.26,0,0,1-1.37-.46,4.14,4.14,0,0,1-1.16-.82l-.12-.13s0,0,0,0h0l.09-.09c.09-.06.18-.15.33-.24a6.55,6.55,0,0,1,.89-.51,10.77,10.77,0,0,0,1.83-.77Zm2.61-2.78a6,6,0,0,1,.94.58,8.45,8.45,0,0,1,1.2,1,2.43,2.43,0,0,1,.26.3l-.1-.07a.2.2,0,0,0-.26,0,.21.21,0,0,0-.07.15l.13.15c.12.1.15.06.26.17l.21.22c.11.11.12.1.22.21s.06.15.16.26.11.11.2.23l.12.16-.09-.06c-.1-.08-.07-.12-.17-.2l-.21-.15-.2-.16-.2-.16-.16-.1c-.09-.06-.15-.18-.3-.15a.19.19,0,0,0-.17.16.2.2,0,0,0,0,.11l.17.13.18.14c-.28-.16-.27-.21-.56-.37s-.33-.12-.64-.29-.29-.21-.59-.38-.34-.11-.64-.28-.3-.18-.61-.34a4.41,4.41,0,0,1-.4-.27l-.34-.16c-.12-.05-.32-.14-.43,0a.13.13,0,0,0,0,.18c.13.08.18.13.4.25s.33.12.63.29l.61.35c.3.17.31.15.62.32s.28.21.58.38l.62.33.61.34.6.34.3.16h0c-.18-.05-.17-.09-.35-.14s-.19,0-.37-.08l-.35-.11-.35-.13-.25-.08c-.15-.05-.28-.18-.46-.15s-.18.07-.16.18a.24.24,0,0,0,.07.12l.29.15.36.15c.19.07.2,0,.38.1s.17.1.36.16.2,0,.39.05l.07,0h0c-.14,0-.15,0-.29,0s-.14.07-.29.06a2.66,2.66,0,0,1-.28,0,.57.57,0,0,1-.19-.08H68a.21.21,0,0,0-.23.11v0l-.28-.09a7.64,7.64,0,0,1-1-.43,8.33,8.33,0,0,1-1-.55c-.45-.32-.67-.5-.89-.68a7.4,7.4,0,0,1-.81-.78,4.58,4.58,0,0,1-.65-.91l-.55-1a.69.69,0,0,1-.12-.37s0,0,.06,0a3.92,3.92,0,0,1,1-.08,8,8,0,0,1,1.1.11,7.12,7.12,0,0,1,1.07.27A5.21,5.21,0,0,1,66.72,301.9Zm4,.7c0,.26.08.53.11.73a.14.14,0,0,1,0-.07l-.09-.35a1.49,1.49,0,0,1,0-.25l-.08-.18a.23.23,0,0,0-.24-.14.17.17,0,0,0-.14.09,1.64,1.64,0,0,0,.05.23c0,.17.1.16.15.33l.08.34c0,.17.06.17.1.34a.73.73,0,0,1,0,.25l-.08-.23-.08-.28a1,1,0,0,0-.08-.19c0-.12,0-.27-.19-.34a.19.19,0,0,0-.23.05.14.14,0,0,0,0,.1l.07.23.1.27c0,.14.08.12.12.26a.83.83,0,0,1,0,.2l0-.06-.09-.15c-.19-.31-.14-.33-.32-.64s-.23-.27-.41-.58-.15-.32-.33-.62-.24-.27-.42-.58l-.36-.61a3.54,3.54,0,0,1-.22-.44l-.21-.3c-.08-.11-.22-.29-.37-.25s-.1.08-.09.16.1.19.22.41.23.28.41.58l.36.61c.18.3.19.29.37.6a1.64,1.64,0,0,1,.18.34c-.19-.16-.42-.34-.79-.62a4.75,4.75,0,0,0-1.05-.6l-.37-.16s0-.05,0-.08c-.06-.31-.1-.47-.22-1a7.44,7.44,0,0,1-.28-1.48c0-.38,0-.57,0-.77v-.16s0,0,0,0l.09,0,.38,0H67a1.83,1.83,0,0,1,.66.19,2.09,2.09,0,0,1,.58.43l.51.54a7.59,7.59,0,0,1,.93,1.17,7.77,7.77,0,0,1,.7,1.34,1.82,1.82,0,0,1,.13.4c0,.11,0,.21.07.3S70.67,302.23,70.73,302.6Zm31-8.36.1,0c.33.11.66.23,1.33.44a11.29,11.29,0,0,0,1.37.33,7.69,7.69,0,0,0,.89.1c-.35.13-.38.1-.76.24s-.37.2-.76.35l-.79.28c-.29.1-.37.11-.55.16l-.41.17c-.14.07-.38.18-.38.34s.06.11.15.12.25-.07.53-.17.37-.19.77-.33L104,296l.78-.3c.39-.14.41-.09.8-.24l.77-.29c.58,0,.87,0,1.26,0l-.19.11-.39.19-.39.17a2.91,2.91,0,0,0-.28.13c-.16.08-.37.1-.5.25s-.08.19,0,.24a.21.21,0,0,0,.15,0l.35-.12.41-.17c.2-.08.19-.12.39-.21s.22-.05.42-.15.17-.15.37-.26a3.62,3.62,0,0,0,.4-.19.46.46,0,0,0,.16-.13l.12,0-.12.08c-.13.12-.09.16-.23.28s-.16.08-.3.19-.1.16-.25.26-.16.09-.31.18a.84.84,0,0,1-.23.1.53.53,0,0,0-.15.11.21.21,0,0,0-.11.25.36.36,0,0,0,0,.09c-.59.28-.67.32-1.41.63a13.56,13.56,0,0,1-1.68.61,4.16,4.16,0,0,1-.88.15l-.88.07a6.19,6.19,0,0,1-1.72-.05,5.61,5.61,0,0,1-.83-.2,4.33,4.33,0,0,1-.78-.33l-.23-.14s0,0,0,0l.11-.21c.08-.11.16-.24.29-.4a7.75,7.75,0,0,1,.85-.89,15.82,15.82,0,0,0,1.82-1.47Zm2-4a9.62,9.62,0,0,1,1.27.33,10.22,10.22,0,0,1,1.72.75,7.32,7.32,0,0,1,1.08.73.51.51,0,0,1-.15-.06l-.32-.18a1.64,1.64,0,0,1-.22-.15l-.18-.06a.24.24,0,0,0-.27.08.18.18,0,0,0,0,.17l.2.12a3.58,3.58,0,0,1,.35.11l.31.18a3.18,3.18,0,0,1,.32.16c.16.1.13.14.28.24a3,3,0,0,1,.3.19l.3.21,0,0h0l-.29-.09c-.15-.06-.13-.1-.27-.16s-.15,0-.29-.1l-.28-.1-.29-.12-.2-.06c-.13,0-.24-.14-.39-.08a.2.2,0,0,0-.13.2.29.29,0,0,0,.06.11l0,0-.25-.06c-.41-.08-.42,0-.83-.11s-.4-.12-.81-.2-.42,0-.83-.1l-.82-.16a5.12,5.12,0,0,1-.56-.15c-.15,0-.29-.05-.44-.06s-.42,0-.5.09,0,.13.07.18l.54.13c.41.08.42,0,.83.11l.82.16.82.15c.41.08.4.13.81.21l.82.15.82.15.81.17c.26.05.55.09.59.09l.43.09.07.05.16,0a.31.31,0,0,0,.15,0l.08.05h0c-.21,0-.21.07-.42.09h-.43l-.43,0c-.22,0-.22-.05-.43-.06h-.43l-.43,0c-.22,0-.22,0-.43-.06l-.3,0c-.19,0-.37-.11-.56,0s-.17.12-.11.22a.23.23,0,0,0,.12.1l.35.08.44.06c.22,0,.23,0,.45,0s.21.08.44.09.22,0,.44,0,.22.05.44.05h0l-.39.14h-.14c-.18,0-.18.09-.35.09H107a2.19,2.19,0,0,1-.25,0h-.19a.23.23,0,0,0-.22.17.14.14,0,0,0,0,.09H106a10.63,10.63,0,0,1-1.32-.13,9.24,9.24,0,0,1-1.29-.29c-.63-.2-.94-.34-1.24-.46a10.51,10.51,0,0,1-1.19-.61,6,6,0,0,1-1.06-.8c-.25-.22-.49-.45-1-.91a.85.85,0,0,1-.29-.42s0-.06.09-.13a4.22,4.22,0,0,1,1.14-.44,10.31,10.31,0,0,1,1.28-.27,8.78,8.78,0,0,1,1.31-.05A6.49,6.49,0,0,1,103.75,290.2Zm5.33.56v0l-.18-.32a.76.76,0,0,1-.11-.23,1,1,0,0,0-.13-.15.21.21,0,0,0-.27-.07.17.17,0,0,0-.11.13c0,.06,0,.1.12.21s.14.12.23.27l.18.31c.09.16.11.15.19.31s0,.18.12.35a3.18,3.18,0,0,1,.16.32l.15.33,0,.06h0c-.09-.12-.11-.11-.2-.23s0-.15-.15-.27l-.19-.24-.19-.24-.19-.24a1.62,1.62,0,0,0-.14-.16c-.09-.09-.14-.24-.3-.27a.19.19,0,0,0-.2.11.17.17,0,0,0,0,.12l.15.2.19.24,0,0,0,0c-.31-.28-.27-.32-.58-.6s-.35-.24-.65-.52-.29-.3-.6-.58-.35-.24-.66-.52l-.61-.56a5,5,0,0,1-.41-.42c-.11-.09-.22-.19-.34-.27s-.34-.26-.48-.18-.07.11,0,.19l.4.38c.31.28.34.24.65.52l.62.57c.3.28.32.27.62.54s.29.32.54.55l0,0a11.2,11.2,0,0,0-1.32-.54,6.34,6.34,0,0,0-1.39-.32l-.51-.06s0-.07,0-.11l-.61-1.05-.44-.78a3.25,3.25,0,0,1-.37-.82c-.14-.43-.19-.65-.25-.87l0-.15v-.12h0l.1-.08a4.66,4.66,0,0,1,.43-.2l.32-.09a2.76,2.76,0,0,1,.83,0,4.13,4.13,0,0,1,.49.13l.32.15.32.18a4.71,4.71,0,0,1,.45.25,8.59,8.59,0,0,1,1.47,1c.33.29.5.45.66.61s.31.32.6.66a2.93,2.93,0,0,1,.29.41l.18.32c.11.2.22.4.42.81S109,290.58,109.08,290.76Zm69.2,4.71.09,0c.32.14.64.28,1.29.53a10.59,10.59,0,0,0,1.33.42c.24.05.48.11.85.17-.35.09-.38.07-.75.17s-.38.18-.78.29l-.79.22c-.3.08-.38.08-.57.13a4,4,0,0,0-.41.14c-.14.05-.38.15-.4.3s.06.12.15.13.25-.05.53-.13.38-.16.78-.27l.79-.23c.4-.11.39-.12.79-.24s.41-.06.81-.18l.78-.23c.56,0,.85.08,1.22.09l-.18.08-.39.17-.4.13-.29.12c-.16.06-.37.06-.51.21s-.09.18,0,.24a.24.24,0,0,0,.15,0l.35-.09.41-.14c.21-.07.2-.11.4-.19s.22,0,.43-.11.18-.14.38-.23.21-.06.41-.16a.5.5,0,0,0,.17-.12H185l-.1.07c-.14.11-.1.15-.25.25s-.16.07-.31.17-.11.15-.26.24l-.32.16a1.28,1.28,0,0,1-.23.08l-.16.09a.23.23,0,0,0-.12.25.19.19,0,0,0,0,.09c-.6.24-.69.26-1.44.52a14.3,14.3,0,0,1-1.7.48,3.75,3.75,0,0,1-.88.09h-.86a6,6,0,0,1-1.7-.16,5,5,0,0,1-.8-.26,5.82,5.82,0,0,1-.75-.38l-.21-.15s0,0,0,0l.13-.2a2.61,2.61,0,0,1,.31-.37,7.8,7.8,0,0,1,.89-.81,16.23,16.23,0,0,0,1.9-1.33Zm2.25-3.85a8.94,8.94,0,0,1,1.23.42,11.46,11.46,0,0,1,1.64.85,7,7,0,0,1,1,.79.33.33,0,0,1-.12-.06l-.31-.2a2.3,2.3,0,0,1-.2-.16l-.18-.08a.23.23,0,0,0-.27.07.18.18,0,0,0,0,.16,1.4,1.4,0,0,0,.2.13c.16.09.18,0,.33.14l.3.2c.15.09.16.08.31.18s.11.14.25.25l.29.21.27.23,0,0h0l-.28-.11c-.14-.06-.11-.11-.25-.17l-.28-.12-.27-.13-.27-.13-.2-.07c-.12,0-.23-.16-.38-.11a.2.2,0,0,0-.14.2.23.23,0,0,0,.05.1h0l-.22-.07c-.39-.11-.41-.05-.81-.16s-.38-.15-.78-.25-.42,0-.81-.16l-.8-.22c-.29-.08-.36-.12-.54-.18s-.28-.07-.43-.09-.41-.07-.5.05,0,.13.06.19l.52.16c.4.1.41.06.81.17s.4.11.79.22.41.09.8.2.39.15.79.26l.8.2.79.22c.4.1.4.11.8.22a4.87,4.87,0,0,0,.57.13l.41.12a.18.18,0,0,1,.07.05l.16.05a.21.21,0,0,0,.15,0l.06.05c-.21,0-.21.06-.42.06l-.42,0h-.43c-.21,0-.21-.07-.42-.09l-.42,0-.42-.07-.42-.08-.3,0c-.18,0-.35-.14-.55-.08a.16.16,0,0,0-.12.21.38.38,0,0,0,.11.11l.35.1.42.09c.22.05.23,0,.44.05s.21.09.43.12.22,0,.44,0,.21.06.43.08l-.38.11h-.14c-.18,0-.17.07-.35.07l-.35,0a1.09,1.09,0,0,1-.25-.05H183a.22.22,0,0,0-.23.15.28.28,0,0,0,0,.09l-.33,0a8.4,8.4,0,0,1-1.3-.22,8,8,0,0,1-1.25-.38,11.93,11.93,0,0,1-1.19-.54,8.21,8.21,0,0,1-1.13-.68,7.29,7.29,0,0,1-1-.86c-.23-.24-.45-.48-.88-1a.79.79,0,0,1-.25-.43s0-.06.09-.12a4.38,4.38,0,0,1,1.15-.35,9.4,9.4,0,0,1,1.28-.17,7.51,7.51,0,0,1,1.3,0A7.82,7.82,0,0,1,180.53,291.62Zm5.2.89c-.07-.14-.07-.16-.15-.31a1.53,1.53,0,0,1-.09-.24.91.91,0,0,0-.11-.16.22.22,0,0,0-.27-.08.16.16,0,0,0-.11.12,1.78,1.78,0,0,0,.1.21c.09.16.13.13.21.29l.16.32c.07.16.09.15.16.32s0,.18.09.34.08.17.14.33l.12.34V294h0c-.08-.13-.1-.12-.18-.24s0-.16-.13-.28-.09-.12-.17-.25-.09-.12-.17-.25a2.13,2.13,0,0,1-.16-.25l-.14-.17c-.08-.09-.11-.24-.27-.28a.19.19,0,0,0-.22.09.26.26,0,0,0,0,.12,1.91,1.91,0,0,0,.14.21l.16.25,0,0c-.28-.3-.24-.34-.53-.64s-.32-.26-.61-.55-.26-.33-.54-.62-.33-.26-.62-.56L182,290c-.22-.22-.25-.29-.38-.43s-.2-.21-.31-.3-.32-.27-.46-.21-.08.1-.05.18.17.2.37.41.32.27.6.56.28.31.57.6.3.29.58.59.26.32.47.55h0a12.34,12.34,0,0,0-1.26-.62,6.34,6.34,0,0,0-1.35-.42l-.49-.09a.45.45,0,0,0,0-.11l-.52-1.08A8.67,8.67,0,0,1,179,288a6.81,6.81,0,0,1-.18-.88l0-.14v-.08s0-.05,0-.05h0l.11-.07a4.67,4.67,0,0,1,.44-.17l.31-.06a2.58,2.58,0,0,1,.82.06,3,3,0,0,1,.48.16l.31.17.29.19.43.29a8,8,0,0,1,1.38,1.1c.31.32.46.48.6.65a8.27,8.27,0,0,1,.55.7,2.86,2.86,0,0,1,.26.42l.15.33c.1.21.19.41.36.82S185.66,292.31,185.73,292.51Zm-15.55,19.38-.12-.08.14.08Zm1.2,3.81a1.67,1.67,0,0,0-.08.2,2.16,2.16,0,0,1,.08-.24.44.44,0,0,1,.06-.12Zm-5.76,1.88.09,0,1.27-.35a9.68,9.68,0,0,0,1.23-.45l.68-.34c-.17.23-.22.24-.43.52s-.18.35-.41.66l-.47.62a3.52,3.52,0,0,1-.35.41L167,319c-.07.12-.2.33-.12.46s.12.06.19,0,.16-.18.33-.4.19-.34.42-.66.24-.3.47-.62.21-.32.45-.63.27-.28.5-.59.23-.33.44-.61c.43-.27.66-.42.93-.61l-.06.11-.2.35-.22.33-.15.25c-.08.15-.24.26-.25.46s0,.19.15.18a.24.24,0,0,0,.14,0l.2-.27.24-.35c.11-.17.08-.19.19-.37s.15-.15.25-.33.06-.2.15-.38a3.23,3.23,0,0,1,.19-.3.85.85,0,0,1,0,.24,3.18,3.18,0,0,1-.16.32c-.06.17,0,.19-.08.36s-.08.16-.16.32a1.08,1.08,0,0,1-.14.21,1,1,0,0,0-.07.18.23.23,0,0,0,.05.27.16.16,0,0,0,.1,0c-.19.33-.29.46-.63,1a13.11,13.11,0,0,1-1,1.33,3,3,0,0,1-.61.56l-.64.5a5.53,5.53,0,0,1-1.36.85,5.62,5.62,0,0,1-.75.27,5.23,5.23,0,0,1-.77.14h-.22s0,0,0,0v0l0-.16c0-.12,0-.26,0-.45a9,9,0,0,1,.2-1.12,13.22,13.22,0,0,0,.65-2.08ZM164,314a6.27,6.27,0,0,1,1.08-.56,9.63,9.63,0,0,1,2.86-.69,5.88,5.88,0,0,1,1.11,0h0l-.35,0a.94.94,0,0,1-.24,0,.61.61,0,0,0-.18.05.2.2,0,0,0-.16.21.17.17,0,0,0,.07.15h.22c.16,0,.16-.07.32-.09l.34,0,.33,0c.17,0,.17,0,.34,0h.65a1.91,1.91,0,0,1-.21.06c-.14,0-.15,0-.29,0l-.27.07-.28.06-.28.06-.19.06c-.12,0-.26,0-.35.14a.2.2,0,0,0,0,.23.18.18,0,0,0,.1.06l.23,0,.28-.07c.13,0,.13-.07.26-.1h.09a3.2,3.2,0,0,1-.34.15c-.36.14-.38.09-.74.23s-.34.18-.69.32-.38.1-.73.23-.34.2-.7.34l-.72.27a5.23,5.23,0,0,1-.5.16l-.37.17c-.13.07-.34.18-.34.34s.07.11.15.11.23-.07.48-.17.34-.19.69-.33l.72-.27.71-.29c.36-.13.37-.09.73-.22l.72-.28.71-.28.72-.27.4-.17-.06.05c-.17.13-.2.09-.36.22l-.33.24-.34.23-.36.2-.24.16c-.15.09-.34.11-.46.27a.17.17,0,0,0,0,.24.26.26,0,0,0,.15,0l.33-.14.38-.2c.18-.1.16-.14.34-.25s.21-.07.39-.19.14-.17.31-.29l.13-.08-.05.08c-.09.14-.12.12-.21.24s-.05.17-.16.29a2.4,2.4,0,0,1-.23.21.48.48,0,0,1-.19.11l-.12.11a.25.25,0,0,0-.07.26l0,.05-.27.17a9.76,9.76,0,0,1-1.09.58,9.26,9.26,0,0,1-1.15.43c-.59.16-.89.22-1.2.28a7.75,7.75,0,0,1-1.23.13,5.55,5.55,0,0,1-1.23-.07l-1.21-.22c-.28-.05-.41-.14-.42-.17s0,0,0-.12a4.17,4.17,0,0,1,.65-.92,9.62,9.62,0,0,1,.86-.86A6.69,6.69,0,0,1,164,314Zm5.34-3a.79.79,0,0,1-.23-.07l-.35-.17a1.12,1.12,0,0,1-.24-.15l-.2-.06a.25.25,0,0,0-.28.09.18.18,0,0,0,0,.17l.24.12c.17.07.19,0,.37.11l.35.17.36.15c.17.09.15.14.32.23l.13.07-.2-.08-.3-.12-.29-.13-.22-.07c-.13,0-.26-.14-.42-.08a.18.18,0,0,0-.11.21.24.24,0,0,0,.06.1l.24.1.3.11c.15.06.16,0,.31.08s.13.11.25.16l-.36,0c-.38-.06-.38-.11-.76-.17s-.39,0-.78-.07-.37-.09-.76-.15-.39,0-.78-.06l-.76-.12c-.29-.05-.36-.08-.53-.12l-.41,0c-.14,0-.39,0-.46.12s0,.13.07.17.23.06.5.1.4,0,.78.07l.77.12c.38.06.38,0,.77.1s.36.09.55.13c-.3,0-.62.12-1.21.25a5.81,5.81,0,0,0-1.25.46l-.41.22-.06-.08-1-.51a8.39,8.39,0,0,1-1.46-.82,6.34,6.34,0,0,1-.63-.55l-.1-.1-.05,0s0,0,0,0a.7.7,0,0,1,0-.11,3.7,3.7,0,0,1,.23-.37l.2-.23a2.17,2.17,0,0,1,.64-.42,4.27,4.27,0,0,1,.45-.16l.32,0,.81-.06a7.7,7.7,0,0,1,1.66,0,9.1,9.1,0,0,1,1.63.35,1.7,1.7,0,0,1,.43.16l.31.16c.19.09.37.2.74.41S169.16,310.89,169.36,311Zm-19.49-2.32h0l-.08,0Zm-1,5.13.05,0,1-.71a9.69,9.69,0,0,0,.91-.78l.41-.44a4.13,4.13,0,0,0-.17.48c-.1.34,0,.36-.13.7s-.11.34-.2.68a3.11,3.11,0,0,1-.17.46c0,.12-.06.24-.08.37s-.06.35.07.43.13,0,.18,0a4.21,4.21,0,0,0,.15-.44c.09-.34,0-.36.14-.7l.2-.67c.09-.34.08-.35.17-.69s.15-.33.24-.67.09-.34.17-.63l.56-.75h0l-.06.36-.08.36a1.4,1.4,0,0,0,0,.25c0,.16-.13.3-.07.48s.11.15.21.11a.24.24,0,0,0,.11-.09l.09-.3.08-.36a2.58,2.58,0,0,0,0-.38c0-.19.09-.18.12-.36s0-.2,0-.38a1.09,1.09,0,0,1,.05-.25.49.49,0,0,1,0,.15c0,.16,0,.16,0,.32s.07.17.06.33,0,.16,0,.33a.53.53,0,0,1-.06.22v.17a.23.23,0,0,0,.16.22h.06c-.06.33-.1.48-.22,1a12.69,12.69,0,0,1-.41,1.46,3.08,3.08,0,0,1-.34.67c-.1.15-.2.31-.39.63a4.91,4.91,0,0,1-.87,1.15,4.27,4.27,0,0,1-1.15.83l-.16.07s0,0,0,0v0l0-.12a2.34,2.34,0,0,1-.13-.38,6.56,6.56,0,0,1-.19-1,10.21,10.21,0,0,0-.14-2A.14.14,0,0,1,148.85,313.83Zm-2.54-2.55a7.94,7.94,0,0,1,.74-.82,8,8,0,0,1,.86-.7,8.2,8.2,0,0,1,1.35-.81,3.88,3.88,0,0,1,.36-.15l-.1.07a.21.21,0,0,0-.06.25.18.18,0,0,0,.12.12l.18-.08c.13-.07.11-.11.25-.18l.27-.13c.14-.07.13-.08.27-.14s.16,0,.3-.07l.28-.12.19-.06-.09.06c-.1.07-.13,0-.24.1l-.21.15-.21.15-.22.13-.15.12c-.08.07-.21.09-.24.24a.21.21,0,0,0,.1.21.23.23,0,0,0,.11,0l.18-.11.19-.13c-.24.21-.29.19-.54.41s-.22.28-.48.51-.28.21-.54.44-.22.28-.47.51l-.53.47a4.32,4.32,0,0,1-.38.3,3.19,3.19,0,0,0-.26.26c-.08.1-.23.26-.17.4s.1.08.18.06.17-.13.35-.29.23-.27.49-.51l.52-.46c.26-.23.25-.24.5-.48s.3-.2.55-.43l.52-.47.51-.47.52-.47a2.71,2.71,0,0,0,.24-.23h0c-.1.16-.14.14-.24.29a3.45,3.45,0,0,1-.2.32c-.11.15-.1.16-.21.3l-.24.29-.16.21c-.09.13-.25.21-.29.39s0,.19.12.2a.22.22,0,0,0,.14,0l.24-.23a3.47,3.47,0,0,0,.25-.29c.13-.15.1-.18.22-.33s.15-.13.26-.29.07-.19.17-.35l0-.06v0c0,.14-.07.13-.11.27s0,.16,0,.29a2.06,2.06,0,0,1-.12.26.4.4,0,0,1-.13.15.84.84,0,0,0-.06.14.2.2,0,0,0,0,.24s0,0,0,0l-.16.23a10.44,10.44,0,0,1-.74.84,7.72,7.72,0,0,1-.84.73,11.06,11.06,0,0,1-.93.63,7.25,7.25,0,0,1-1,.51,4.42,4.42,0,0,1-1.07.33l-1.1.2a.65.65,0,0,1-.38,0s0,0,0-.07a3.76,3.76,0,0,1,.26-1,8.57,8.57,0,0,1,.45-1A6.67,6.67,0,0,1,146.31,311.28Zm3.43-4.26h-.07l-.36,0a1,1,0,0,1-.25-.05l-.19,0a.22.22,0,0,0-.21.18.16.16,0,0,0,0,.16l.23,0c.18,0,.18,0,.36,0l.35,0c.18,0,.18,0,.35,0a.57.57,0,0,1,.24.07h-.74c-.13,0-.27,0-.38.07a.19.19,0,0,0,0,.24.15.15,0,0,0,.09.07h.52c.14,0,.14,0,.29,0a.43.43,0,0,1,.19.05l-.07,0-.18,0c-.34.08-.35,0-.7.1s-.33.13-.68.2-.35,0-.7.11-.33.14-.68.21-.34.07-.69.14a3.13,3.13,0,0,1-.49.07l-.36.1c-.12.05-.34.12-.35.27s0,.12.12.14l.46-.08c.35-.08.34-.12.68-.2l.7-.14c.34-.07.34-.09.68-.16a2,2,0,0,1,.38-.06l-.84.54a5,5,0,0,0-.91.81l-.27.3-.07,0-1-.11a7.65,7.65,0,0,1-1.5-.22,6.62,6.62,0,0,1-.71-.26l-.12,0,0,0s0,0,0,0v-.09c0-.17,0-.29.07-.39l.09-.25a2.13,2.13,0,0,1,.4-.56,1.92,1.92,0,0,1,.6-.41l.67-.31A6.74,6.74,0,0,1,146,307a7.67,7.67,0,0,1,1.5-.23,1.39,1.39,0,0,1,.41,0l.31,0,.76.11Zm-61.8,9.65h0l-.08,0Zm-1,5.13,0,0,1-.71a9.42,9.42,0,0,0,.91-.79c.12-.12.25-.25.41-.43a3.54,3.54,0,0,0-.17.48c-.1.34,0,.36-.13.7l-.2.68a3.11,3.11,0,0,1-.17.46c0,.12-.06.24-.08.37s-.05.35.07.43.13,0,.18,0,.08-.2.15-.44,0-.36.14-.7.11-.34.2-.68.08-.34.18-.68.14-.33.24-.67.09-.34.17-.63l.55-.75h0l-.06.36c0,.18,0,.18-.08.36s0,.24,0,.25-.13.3-.07.47.11.16.21.12a.2.2,0,0,0,.11-.09c0-.12,0-.14.09-.3l.09-.37c0-.18,0-.19,0-.37s.08-.18.11-.37,0-.19,0-.38a.6.6,0,0,1,0-.18h0a.22.22,0,0,1,0,.09c0,.16,0,.16,0,.32s.06.17,0,.33,0,.16,0,.33a1.29,1.29,0,0,1-.06.22,1,1,0,0,0,0,.17.21.21,0,0,0,.15.22H91c-.06.33-.09.48-.22,1a15,15,0,0,1-.4,1.46,4.16,4.16,0,0,1-.34.66c-.11.16-.2.32-.39.63a5.07,5.07,0,0,1-.88,1.16,4.12,4.12,0,0,1-1.15.83l-.15.07s0,0,0,0h0l-.06-.12c0-.1-.08-.22-.13-.39a6.15,6.15,0,0,1-.19-1,10.16,10.16,0,0,0-.14-2A.14.14,0,0,0,86.92,321.8Zm-2.53-2.55a5.06,5.06,0,0,1,.74-.82,6.67,6.67,0,0,1,.85-.7,8.2,8.2,0,0,1,1.35-.81,3.88,3.88,0,0,1,.36-.15l-.1.07a.22.22,0,0,0-.06.25.18.18,0,0,0,.12.12l.18-.08c.13-.07.11-.12.25-.19l.27-.13a2.29,2.29,0,0,0,.27-.14c.15-.05.16,0,.31-.06a2.36,2.36,0,0,1,.28-.12l.18-.06-.08.06c-.11.07-.14,0-.25.1l-.21.15-.21.14-.22.14-.14.12c-.09.07-.22.09-.25.23a.24.24,0,0,0,.1.22.23.23,0,0,0,.11,0l.18-.11.19-.13c-.24.21-.28.18-.53.41s-.23.27-.48.51-.29.2-.55.44-.21.28-.47.51-.27.23-.53.46a3,3,0,0,1-.38.3c-.08.09-.17.17-.25.27s-.24.26-.18.4a.14.14,0,0,0,.18.06c.11-.09.17-.13.35-.29s.23-.27.49-.51l.52-.46c.26-.23.25-.25.51-.48s.29-.2.55-.43l.51-.48.51-.47.52-.46.25-.23h0c-.1.16-.14.13-.24.29s-.09.16-.2.32l-.21.3-.24.29-.16.21c-.09.13-.25.2-.29.38s0,.2.12.21a.22.22,0,0,0,.14,0l.24-.23.26-.3c.12-.15.09-.17.21-.33s.16-.12.27-.28.06-.19.17-.35a.43.43,0,0,1,0-.07v0c0,.14-.07.13-.11.27s0,.16,0,.29l-.13.26a.5.5,0,0,1-.13.15l-.06.13a.21.21,0,0,0,0,.25l0,0a2.29,2.29,0,0,0-.17.23,10.44,10.44,0,0,1-.74.84,9,9,0,0,1-.84.73c-.44.33-.69.48-.92.63a8.69,8.69,0,0,1-1,.51,4.46,4.46,0,0,1-1.08.33l-1.09.2a.68.68,0,0,1-.39,0,.19.19,0,0,1,0-.08,4.26,4.26,0,0,1,.25-1c.2-.51.33-.75.45-1A7.38,7.38,0,0,1,84.39,319.25ZM87.82,315h-.08l-.36,0a1.09,1.09,0,0,1-.25,0l-.19,0a.21.21,0,0,0-.21.18.18.18,0,0,0,0,.16l.23,0c.18,0,.18,0,.36,0l.35,0h.36a1.46,1.46,0,0,1,.24.07h-.54a1,1,0,0,0-.21,0c-.12,0-.26,0-.38.07a.19.19,0,0,0,0,.23.22.22,0,0,0,.09.08h.52c.15,0,.15,0,.29,0a.43.43,0,0,1,.19,0l-.07,0-.17,0c-.35.07-.36,0-.71.1s-.33.12-.68.2-.35,0-.7.11-.33.14-.67.21l-.7.14a2.85,2.85,0,0,1-.49.07l-.35.1c-.13,0-.34.11-.36.27s0,.12.12.14l.46-.08c.35-.08.34-.12.69-.2l.69-.14.69-.17a2.63,2.63,0,0,1,.38,0l-.85.54a5.39,5.39,0,0,0-.91.81l-.26.3-.07,0-1-.12a6.86,6.86,0,0,1-1.49-.21c-.37-.12-.54-.19-.72-.26l-.12-.05,0,0s0,0,0,0v-.1c0-.16,0-.28.07-.38l.1-.25a2.06,2.06,0,0,1,1-1l.67-.31a6.74,6.74,0,0,1,1.41-.5,8.52,8.52,0,0,1,1.5-.24,1.75,1.75,0,0,1,.41,0l.31,0,.76.11Zm20.42,2.51.09.05,1.31.53a11.14,11.14,0,0,0,1.34.42c.25.05.5.11.88.17-.36.1-.39.07-.78.18s-.38.18-.78.29l-.8.23c-.3.08-.38.08-.57.13a3.45,3.45,0,0,0-.42.14c-.14.06-.39.15-.4.31s.06.12.14.13l.54-.14c.4-.12.39-.16.79-.28l.8-.22c.4-.12.4-.14.8-.25s.41-.07.81-.18l.79-.24c.58.05.87.07,1.25.08a.85.85,0,0,1-.19.09l-.4.17-.4.14-.29.11c-.17.07-.38.07-.52.22s-.09.18,0,.24a.26.26,0,0,0,.15,0l.35-.09.42-.14c.21-.08.2-.12.41-.19s.22,0,.43-.12.18-.14.38-.23.22-.06.42-.16a.67.67,0,0,0,.17-.13h.12a.32.32,0,0,0-.13.08c-.14.11-.1.15-.25.25a1.87,1.87,0,0,1-.31.17c-.15.1-.12.16-.27.24s-.16.08-.32.17a1.33,1.33,0,0,1-.24.08l-.16.1a.22.22,0,0,0-.12.24.39.39,0,0,0,0,.09c-.6.25-.69.28-1.45.54a13,13,0,0,1-1.72.49,3.75,3.75,0,0,1-.88.09h-.88a6.57,6.57,0,0,1-1.72-.16,8,8,0,0,1-.81-.26,5,5,0,0,1-.76-.39l-.22-.15s0,0,0,0l.13-.2a2.93,2.93,0,0,1,.32-.38,8.55,8.55,0,0,1,.9-.83,14.77,14.77,0,0,0,1.92-1.35ZM105.35,314c0-.05,0-.07.1-.13a4.64,4.64,0,0,1,1.16-.36,11.91,11.91,0,0,1,1.3-.18,8.84,8.84,0,0,1,1.31,0,7.91,7.91,0,0,1,1.29.24,8.12,8.12,0,0,1,1.24.42,11,11,0,0,1,1.66.85,6.68,6.68,0,0,1,1,.81.45.45,0,0,1-.14-.07l-.31-.2a1.37,1.37,0,0,1-.2-.16l-.18-.08a.23.23,0,0,0-.28.07.17.17,0,0,0,0,.16,1.76,1.76,0,0,0,.2.13c.15.09.18,0,.33.14l.3.2a3.21,3.21,0,0,1,.31.19c.15.1.12.14.26.25l.29.21.28.23,0,0h0c-.14-.07-.15-.05-.28-.12s-.12-.11-.26-.17l-.28-.12-.28-.13-.27-.13-.2-.08c-.13,0-.23-.15-.39-.1a.18.18,0,0,0-.13.19.13.13,0,0,0,0,.11l0,0-.25-.08c-.41-.1-.42-.05-.82-.16s-.4-.14-.8-.25-.42,0-.82-.16l-.8-.22c-.3-.08-.37-.12-.56-.18s-.28-.07-.43-.09-.41-.07-.5.05,0,.13.06.19l.53.16c.4.11.41.06.81.17s.4.11.81.22l.81.2c.4.1.39.15.79.26l.81.21.8.21.81.22.58.14.42.11.07.06.15,0a.2.2,0,0,0,.15,0l.08.05h0c-.21,0-.21.06-.43.06h-.86c-.21,0-.21-.06-.42-.09s-.22,0-.43,0l-.43-.06-.42-.09-.3-.05c-.18,0-.36-.14-.56-.08a.16.16,0,0,0-.12.21.38.38,0,0,0,.11.11l.35.1.44.1c.22,0,.22,0,.44,0s.21.09.43.12.23,0,.45,0,.21.06.44.08h0l-.4.12h-.14c-.18,0-.18.07-.36.07l-.35,0a1,1,0,0,1-.25-.05H113a.22.22,0,0,0-.23.15.38.38,0,0,0,0,.1l-.33,0a8.77,8.77,0,0,1-1.32-.22,9.78,9.78,0,0,1-1.26-.38,12.3,12.3,0,0,1-1.21-.55,8.8,8.8,0,0,1-1.14-.68,6.46,6.46,0,0,1-1-.87c-.23-.24-.45-.48-.89-1A.84.84,0,0,1,105.35,314Zm3.46-2.43a5.83,5.83,0,0,0,.37.7c.08.12.18.28.29.42l-.17,0c-.71-.08-1.07-.07-1.42-.09a5.57,5.57,0,0,0-.94.05c.4-.22.72-.41.77-.45Zm7,2.95v0l-.16-.33a1.8,1.8,0,0,1-.1-.24.91.91,0,0,0-.11-.16.24.24,0,0,0-.27-.09.17.17,0,0,0-.11.13c0,.06,0,.1.1.21s.13.13.22.29l.15.33a3.24,3.24,0,0,1,.17.32c.07.16,0,.18.1.35s.07.16.13.33l.12.34,0,.06h0c-.09-.13-.1-.12-.19-.25s0-.15-.13-.28-.09-.12-.18-.24a2.2,2.2,0,0,0-.17-.25l-.16-.26-.14-.17c-.08-.1-.12-.25-.27-.29a.21.21,0,0,0-.22.1.17.17,0,0,0,0,.12l.13.21.18.25v0l0,0c-.29-.3-.25-.34-.54-.64s-.33-.26-.62-.56-.26-.33-.55-.63-.33-.25-.62-.55l-.58-.61c-.21-.22-.25-.3-.38-.44a3.06,3.06,0,0,0-.32-.3c-.12-.1-.32-.28-.46-.22a.13.13,0,0,0,0,.19,4.78,4.78,0,0,0,.37.41c.29.3.32.27.61.57l.57.6c.29.31.31.29.6.59s.26.34.49.59l0,0a12.74,12.74,0,0,0-1.28-.63,5.84,5.84,0,0,0-1.36-.41l-.51-.1v-.11l-.53-1.09-.21-.42a5,5,0,0,0,.6-.5c.24-.25.41-.61,0-.55a3,3,0,0,0-.64.22l-.26.16a4.43,4.43,0,0,1-.19-.56c-.11-.44-.14-.66-.18-.88l0-.16v-.11l0,0h0l.11-.07c.18-.08.33-.13.44-.17l.33-.06a2.57,2.57,0,0,1,.83.05,3.67,3.67,0,0,1,.48.17l.31.17c.1,0,.19.12.3.19s.26.16.44.29a8.68,8.68,0,0,1,1.39,1.11,8.54,8.54,0,0,1,.61.66,7,7,0,0,1,.56.71,2.42,2.42,0,0,1,.26.42l.16.33c.1.21.19.42.37.83S115.72,314.34,115.79,314.53Zm16.85-18.28h0l1,.28a6.86,6.86,0,0,0,1,.21l.3,0-.22.07c-.27.11-.25.17-.53.28l-.55.21a3.08,3.08,0,0,1-.39.12l-.29.13c-.09.06-.26.15-.24.3a.13.13,0,0,0,.13.12l.37-.13c.27-.1.26-.15.53-.26l.55-.21.55-.23c.27-.11.29-.06.57-.17l.46-.2h.64l-.12.07-.27.13-.2.1c-.11.06-.26.06-.34.2a.19.19,0,0,0,0,.24.19.19,0,0,0,.11,0l.25-.09.29-.13c.14-.07.13-.11.27-.18s.16,0,.3-.09a.38.38,0,0,1-.09.1l-.24.14a.6.6,0,0,1-.18.07.48.48,0,0,0-.11.09.19.19,0,0,0,0,.23l-.8.37c-.58.24-.57.27-1.16.47a2.31,2.31,0,0,1-.62.1l-.61.05a4.32,4.32,0,0,1-1.19,0,3.24,3.24,0,0,1-.58-.13,1.44,1.44,0,0,1-.23-.07l-.29-.12c-.08-.05-.11-.07-.09-.08l0-.05c.05-.07.1-.16.19-.28a5.43,5.43,0,0,1,.57-.63c.37-.37.93-.62,1.23-1.11Zm4.54.6h0a.51.51,0,0,1-.13.08l0,0Zm.3-3.23,0,0Zm-4.43-.35a5.27,5.27,0,0,1,.91.08,5.49,5.49,0,0,1,.89.21,7.36,7.36,0,0,1,1.22.48l.12.07a.17.17,0,0,0-.11.11.2.2,0,0,0,0,.16.43.43,0,0,0,.14.08c.12.05.14,0,.25.07l.23.11.23.11c.1.06.09.1.17.16l-.08,0-.2-.06-.2-.08-.15,0c-.09,0-.17-.1-.29,0a.26.26,0,0,0-.1.21s0,0,0,.05l-.17,0c-.28-.05-.29,0-.58-.06s-.28-.09-.57-.14-.3,0-.58-.05l-.57-.11a3.93,3.93,0,0,1-.4-.11l-.3,0c-.11,0-.3,0-.36.12a.14.14,0,0,0,0,.18l.37.09c.29.05.3,0,.59.06l.57.11c.29.06.29,0,.58.09s.27.11.56.16l.58.1.57.1.45.09-.23,0h-.84c-.13,0-.26-.07-.4,0a.18.18,0,0,0-.09.22.18.18,0,0,0,.09.1l.27,0c.16,0,.16,0,.33,0s.16,0,.33,0,.16.05.32,0h0a.29.29,0,0,1-.13.09,1.57,1.57,0,0,1-.23,0,.44.44,0,0,1-.17,0l-.12,0a.25.25,0,0,0-.13.15h-.25a6.15,6.15,0,0,1-.93-.06,7.82,7.82,0,0,1-.9-.19,8.43,8.43,0,0,1-.88-.3,5.19,5.19,0,0,1-.85-.4,3.52,3.52,0,0,1-.75-.55l-.68-.63-.14-.16,0,0s0,0,0,0a2.74,2.74,0,0,1,.75-.32A5.78,5.78,0,0,1,133.05,293.27Zm4.17-.58a.17.17,0,0,0-.23,0,.18.18,0,0,0-.11.12.82.82,0,0,0,.1.17c.09.12.12.1.21.22l.15.25h0l-.09-.1c-.08-.08-.1-.2-.25-.21a.2.2,0,0,0-.2.12.2.2,0,0,0,0,.1l.12.16.15.19c.06.09.09.08.15.15l-.19-.13a2.08,2.08,0,0,0-.27-.29c-.22-.19-.26-.15-.48-.34s-.2-.22-.43-.42-.26-.14-.49-.33l-.44-.4a1.94,1.94,0,0,1-.29-.29,2.27,2.27,0,0,0-.25-.18c-.1-.06-.25-.17-.38-.08a.14.14,0,0,0-.05.17l.29.27c.22.19.25.15.48.35l.44.39c.23.19.24.18.46.37l.08.07-.6-.21a4.14,4.14,0,0,0-1-.2l-.3,0v0l-.43-.73a6.52,6.52,0,0,1-.62-1.09,5.23,5.23,0,0,1-.19-.61c0-.1,0-.07,0-.1s0,0,.06-.07l.25-.12.21-.07a1.83,1.83,0,0,1,.56,0,1.41,1.41,0,0,1,.56.2l.54.29a6.19,6.19,0,0,1,1,.68,7.4,7.4,0,0,1,.9.87,1.33,1.33,0,0,1,.21.27l.13.22C137.05,292.38,137.12,292.5,137.22,292.69Zm17.14,2.61.07.05c.28.17.55.35,1.12.68a9.64,9.64,0,0,0,1.18.59l.71.26c-.28,0-.32,0-.67.05s-.37.11-.76.15l-.77.09c-.29,0-.36,0-.54,0l-.4.07c-.15,0-.39.09-.42.24s0,.12.11.15.24,0,.52-.05.38-.09.76-.14l.77-.08c.39-.05.39-.07.77-.11s.39,0,.78,0,.39-.05.74-.1c.5.13.76.2,1.08.26l-.12,0-.39.09-.39.07-.28.06c-.17,0-.36,0-.51.13s-.11.16,0,.24a.35.35,0,0,0,.14.06l.34,0,.4-.07c.21,0,.2-.08.4-.12s.22,0,.42,0,.19-.1.38-.16.21,0,.41-.08l.16-.08h0l0,0c-.14.08-.12.13-.26.2s-.17,0-.32.11-.12.13-.28.19a3,3,0,0,1-.32.1.5.5,0,0,1-.23,0l-.16.07a.21.21,0,0,0-.14.22.14.14,0,0,0,0,.07c-.6.13-.68.14-1.42.27a13,13,0,0,1-1.65.2,3.35,3.35,0,0,1-.82-.06l-.81-.12a5.55,5.55,0,0,1-1.55-.41,4.4,4.4,0,0,1-.7-.35,4.63,4.63,0,0,1-.64-.47l-.16-.15s0,0,0,0,0,0,0,0l.11-.12a4.09,4.09,0,0,1,.34-.29,9.38,9.38,0,0,1,1-.63,12.69,12.69,0,0,0,2-1Zm2.66-3.24a7.41,7.41,0,0,1,1.08.57,10.08,10.08,0,0,1,1.4,1,7.85,7.85,0,0,1,.73.79h0l-.25-.24a.79.79,0,0,1-.16-.18,1.29,1.29,0,0,0-.16-.09.2.2,0,0,0-.27,0,.17.17,0,0,0-.06.15,1.23,1.23,0,0,0,.16.15c.13.11.16.07.29.18l.25.22c.12.11.13.1.25.22s.09.15.2.27l.24.24.21.24-.19-.11c-.12-.08-.09-.12-.21-.2s-.12-.07-.24-.15l-.23-.16-.23-.16a.69.69,0,0,0-.18-.1c-.11-.06-.19-.18-.34-.15a.18.18,0,0,0-.16.17.19.19,0,0,0,0,.08l-.17-.08c-.35-.16-.37-.11-.73-.27s-.34-.19-.69-.35-.38-.1-.73-.26l-.71-.33c-.26-.12-.32-.17-.48-.25s-.25-.11-.38-.15-.37-.12-.48,0,0,.12,0,.19l.46.22c.36.16.38.12.73.28l.71.32.71.31c.36.16.34.2.69.36l.71.31.71.32.71.32.51.21.37.17.06.06a.52.52,0,0,0,.13.06.17.17,0,0,0,.14,0h0l0,0c-.16,0-.18,0-.37,0l-.39-.08-.4-.06c-.19-.05-.18-.1-.37-.15l-.39-.1-.38-.12-.37-.15-.28-.09c-.16-.05-.3-.18-.5-.15s-.18.08-.14.19a.2.2,0,0,0,.08.12l.31.15.38.15c.19.07.21,0,.4.11s.18.11.38.18.21,0,.41.06.2.08.34.12l-.32,0-.13,0c-.16,0-.17.05-.33,0s-.16,0-.33-.08a.87.87,0,0,1-.21-.09l-.17,0a.22.22,0,0,0-.24.12.14.14,0,0,0,0,.06l-.31-.07a9.92,9.92,0,0,1-1.17-.4,8,8,0,0,1-1.1-.54,11.65,11.65,0,0,1-1-.68,8,8,0,0,1-1-.8,5.35,5.35,0,0,1-.79-.94l-.68-1a.78.78,0,0,1-.16-.42s0,0,.09-.09a4.43,4.43,0,0,1,1.11-.15,8.32,8.32,0,0,1,1.22,0,8.57,8.57,0,0,1,1.2.22A7,7,0,0,1,157,292.06Zm4.64,1.29v0a1.73,1.73,0,0,1-.05-.24.6.6,0,0,0-.08-.16.21.21,0,0,0-.24-.11.17.17,0,0,0-.14.1c0,.06,0,.1.06.21s.11.14.16.3l.1.32c0,.16.06.16.1.32s0,.17,0,.34,0,.16.08.32l.06.31a1.09,1.09,0,0,1-.1-.19c-.06-.13,0-.15-.08-.28s-.07-.12-.12-.25l-.13-.26c-.06-.13-.05-.13-.11-.26a1.24,1.24,0,0,0-.1-.17c-.06-.11-.07-.25-.21-.31a.2.2,0,0,0-.23.07.15.15,0,0,0,0,.11l.1.21a.58.58,0,0,0,0,.11c-.14-.21-.14-.29-.33-.56s-.26-.29-.49-.61-.19-.34-.41-.66-.27-.28-.49-.6l-.44-.64c-.16-.24-.18-.31-.28-.47l-.25-.32c-.09-.11-.25-.3-.4-.26s-.09.09-.08.18.12.2.28.43.26.29.48.61l.44.64c.22.32.23.31.45.63a5.36,5.36,0,0,1,.29.5c-.24-.19-.51-.38-1-.72a6.09,6.09,0,0,0-1.19-.58l-.44-.16s0-.06,0-.09l-.32-1.08a8.37,8.37,0,0,1-.41-1.62c0-.42,0-.63,0-.84v-.2s0-.05,0-.05,0,0,.12,0a3.73,3.73,0,0,1,.43-.09h.3a2,2,0,0,1,.75.17,2.46,2.46,0,0,1,.41.22l.26.21.6.55a7.26,7.26,0,0,1,1.11,1.23A8.57,8.57,0,0,1,161,291a2.68,2.68,0,0,1,.18.43l.09.33c.06.2.12.4.22.81S161.62,293.12,161.66,293.35Zm13.58,12.06c.32-.37.69-.75.74-.79a2.6,2.6,0,0,1,.32-.26,1.1,1.1,0,0,0,0,.18,5.14,5.14,0,0,1-.1.78,4.28,4.28,0,0,1-.25.7c-.08.18-.16.35-.34.69a7.32,7.32,0,0,1-.84,1.29,3,3,0,0,1-.56.52l-.24.18a.7.7,0,0,1-.21.11s-.08-.05-.09-.14a1.24,1.24,0,0,1,.12-.62c.11-.36.18-.54.25-.72a6.93,6.93,0,0,1,.34-.68A6.79,6.79,0,0,1,175.24,305.41Zm-9.71-3.06-.16-.07-2.36-.62c-1.44-.37-1.44-.36-2.87-.74s-1.46-.29-2.89-.67c-1-.26-1.3-.39-1.87-.57h.21a13.72,13.72,0,0,0,1.72-.3,16,16,0,0,0,1.7-.33c.62-.16.79-.16,1.17-.24.06,0,.16-.05.26-.1a.89.89,0,0,0,.25-.16,1.69,1.69,0,0,0,.35-.36l.12-.17.14-.12a2.73,2.73,0,0,0,.23-.25c.11-.13.07-.16.17-.29s.14-.11.23-.25,0-.17.11-.32.11-.14.17-.29a.52.52,0,0,0,0-.19l0,0c.62.3,1.07.55,2.28,1.06,2,.85,2,.75,4,1.52,1,.38,1.51.54,2,.73s1,.36,2,.68c2,.66,2.06.59,4.11,1.18s2.05.65,4.14,1.1c.67.16,1.13.24,1.51.31-2.73-.1-4.47-.19-6.2-.29-2.3-.1-4.6-.16-9.2-.21Zm-7.76.14c-2.17.09-4.33.11-8.4.25a.24.24,0,0,0-.08-.09l0,0,0-.05c-.22-.3-.21-.3-.45-.59s-.26-.27-.51-.55-.19-.34-.46-.6a.74.74,0,0,0-.65-.27.52.52,0,0,0-.23.1.61.61,0,0,0-.18.24.68.68,0,0,0,0,.47,1.05,1.05,0,0,0,.08.18l.05.09.09.14c.06.08.11.16.24.32a3.41,3.41,0,0,0,.56.58l.12.09-2.13.06-2.29-.62-3.82-1c-1.92-.51-1.94-.43-3.85-.94-1.49-.39-1.8-.54-2.77-.83h0l.67-.08a2.92,2.92,0,0,0,.67-.13,9.63,9.63,0,0,0,1.21-.58,13.17,13.17,0,0,0,1.2-.57c.43-.24.56-.26.82-.39a1.12,1.12,0,0,0,.35-.31,1.35,1.35,0,0,0,.19-.35,1.43,1.43,0,0,0,.08-.22l0-.06a1,1,0,0,0,.12-.23c.06-.12,0-.13.07-.25a.6.6,0,0,1,.08-.13l1.29.35c1.43.38,1.46.28,2.89.65s1.43.39,2.87.76,1.44.34,2.87.71,1.41.47,2.84.85,1.44.35,2.88.72l2.86.74c1.44.37,1.44.38,2.87.76.91.23,1.93.47,2,.49l.69.18-1.17,0Zm-52.5,3.17-.34,0-.06-.07a1.47,1.47,0,0,0-.45-.23,16.59,16.59,0,0,1-2.69-.79,12.1,12.1,0,0,1-1.42-.6,1.11,1.11,0,0,1-.47-.45,1,1,0,0,1-.09-.47.51.51,0,0,1,.2-.33.69.69,0,0,1,.56-.11,1.25,1.25,0,0,1,.57.31l.56.51a12.31,12.31,0,0,0,1.36.9,10.32,10.32,0,0,0,1.4.83C104.86,305.43,105,305.53,105.27,305.66Zm-15.76,3.11h.11c-.07.21-.1.29-.23.61a5.68,5.68,0,0,1-.39.78,6.22,6.22,0,0,1-.43.76.61.61,0,0,1-.31.21.92.92,0,0,1-.26.05l-.21,0s-.1,0-.13-.12a.43.43,0,0,1,.07-.29l.2-.34c.22-.36.12-.44.4-.78a4.55,4.55,0,0,1,.64-.6,2.08,2.08,0,0,1,.54-.29ZM58.16,319.49a.83.83,0,0,1,.08-.18,2.17,2.17,0,0,1,.12-.23,1.55,1.55,0,0,0,0,.15Zm1-3.17h0Zm-.26.6h0v-.07c0-.05,0-.1,0-.14l0-.07a.69.69,0,0,1,.12-.19.61.61,0,0,0-.07.14C59,316.74,59,316.83,58.92,316.92Zm.29.52-.06.18a.54.54,0,0,1-.07.13h0c0-.1,0-.21.08-.31ZM54.31,324l.11-.08c.34-.24.68-.46,1.34-.95A13.61,13.61,0,0,0,57,321.91c.23-.24.47-.48.81-.9l0,.13c-.13.47-.17.46-.3.93s-.07.48-.2.95L57,324c-.1.35-.14.43-.21.65s-.09.33-.12.5-.1.48,0,.58.13,0,.19-.07.1-.29.19-.62.09-.48.22-.95.14-.47.27-.94.11-.47.25-.94.18-.46.31-.93.12-.47.25-.94l0,0c.43-.59.63-.87.92-1.32a4.24,4.24,0,0,1,0,.44c0,.25,0,.25-.08.5s0,.25-.11.49l-.06.36a1.77,1.77,0,0,0-.12.64c0,.09.1.2.21.14a.49.49,0,0,0,.12-.13l.12-.41.12-.51c.06-.25,0-.26.07-.51s.09-.25.13-.51,0-.26,0-.52.07-.25.09-.51a.85.85,0,0,0,0-.3,2.34,2.34,0,0,0,.09-.24v0c0,.23,0,.23,0,.46s.07.22.08.44,0,.23,0,.46.06.23,0,.45,0,.23,0,.45a2.13,2.13,0,0,1-.07.31c0,.08,0,.16,0,.24A.27.27,0,0,0,60,321a.15.15,0,0,0,.17,0,1.94,1.94,0,0,0,.07-.3c0-.24,0-.24,0-.47s0-.24,0-.47a3.68,3.68,0,0,0,0-.47c0-.23.06-.23,0-.46s0-.24,0-.47,0-.18,0-.24a2.83,2.83,0,0,1,.14.35,1.73,1.73,0,0,1,.05.24,1.56,1.56,0,0,1,0,.2c0,.17,0,.31,0,.44a7.64,7.64,0,0,1-.09,1.07c-.18,1-.18,1-.42,2.07a15.55,15.55,0,0,1-.58,2,5.22,5.22,0,0,1-.45.94l-.53.89a7.22,7.22,0,0,1-1.23,1.62,7.56,7.56,0,0,1-.77.65,2.5,2.5,0,0,1-.34.23c-.14.07-.3.18-.52.29l-.35.15s0,0,0,0-.09-.19-.15-.31-.12-.31-.19-.56a10.06,10.06,0,0,1-.26-1.42,23,23,0,0,0-.13-2.74C54.34,324.12,54.33,324.07,54.31,324Zm-4-2.78a8.2,8.2,0,0,1,.52-.75,8.9,8.9,0,0,1,1-1.15,10.24,10.24,0,0,1,1.19-1,12,12,0,0,1,1.89-1.12,8.42,8.42,0,0,1,1.75-.61l-.07,0c-.19.09-.17.14-.36.24l-.4.18c-.14.07-.19.07-.28.11l-.19.13a.25.25,0,0,0-.12.28.17.17,0,0,0,.13.12,2.07,2.07,0,0,0,.25-.13c.19-.1.16-.14.35-.24l.38-.18.38-.19c.2-.08.22,0,.41-.11l.39-.15.4-.14.28-.08-.19.12-.29.21c-.15.1-.18.06-.33.16s-.14.1-.29.2l-.3.2-.3.19-.2.15c-.12.1-.29.14-.35.31a.18.18,0,0,0,.09.22.19.19,0,0,0,.13,0l.25-.15.3-.2c.15-.1.13-.13.28-.23s.17-.06.29-.13c-.16.16-.21.23-.48.47s-.4.29-.76.61-.32.35-.68.67-.39.29-.75.61-.31.37-.67.69l-.72.64c-.27.24-.35.29-.52.43s-.25.23-.36.36-.33.36-.28.51.11.07.2,0,.23-.19.48-.42.32-.37.68-.69l.72-.64.7-.65c.36-.32.4-.28.76-.6l.71-.65.72-.64.72-.64c.23-.21.47-.45.5-.48l.09-.08c-.06.11-.08.16-.18.33s-.18.2-.32.41-.13.23-.27.44-.15.22-.3.42a4.39,4.39,0,0,1-.33.4l-.23.29c-.13.17-.34.3-.42.52s0,.22.11.22a.35.35,0,0,0,.17-.06,4.36,4.36,0,0,0,.32-.31l.35-.4c.18-.21.14-.23.31-.44s.2-.19.35-.41.11-.24.25-.47l.18-.25a.54.54,0,0,1,0,.25c-.05.2-.08.19-.14.39s0,.21-.07.4a4,4,0,0,1-.17.36,1.21,1.21,0,0,1-.17.22,1.62,1.62,0,0,0-.1.18.27.27,0,0,0,0,.3.15.15,0,0,0,.15.07l0,0-.29.4a13,13,0,0,1-1,1.17,11.66,11.66,0,0,1-1.17,1,14,14,0,0,1-1.29.86,10.77,10.77,0,0,1-1.4.71,7.32,7.32,0,0,1-1.49.48c-.38.08-.76.17-1.52.3a1,1,0,0,1-.64,0c-.07,0-.09-.09-.1-.23a5.63,5.63,0,0,1,.36-1.4,14,14,0,0,1,.63-1.41C50,321.61,50.15,321.45,50.28,321.24Zm-4.35-3.05V318a4.15,4.15,0,0,1,.1-.56c.05-.14.1-.25.14-.36a3.22,3.22,0,0,1,.58-.81c.18-.17.34-.28.46-.38s.26-.15.37-.21a3.35,3.35,0,0,1,.38-.19c.14-.07.31-.16.55-.26a9.7,9.7,0,0,1,2-.7c.52-.12.78-.16,1-.2a7.3,7.3,0,0,1,1.05-.12l.34,0,.26,0,.43.05c.26,0,.53.06,1.05.15s1.4.27,1.49.3.38.11.57.17h-.2c-.25,0-.24-.07-.49-.1s-.25,0-.5,0l-.5-.05a1.92,1.92,0,0,1-.34,0,1.23,1.23,0,0,0-.27,0c-.09,0-.25,0-.28.17a.15.15,0,0,0,.06.17l.32,0c.25,0,.25,0,.49,0l.49,0,.49,0c.24,0,.24.08.48.11l.49.06.48.08.23.05h-.49c-.2,0-.2-.05-.4-.06H55.58a1.72,1.72,0,0,0-.28,0c-.17,0-.37,0-.53.07a.16.16,0,0,0,0,.24.29.29,0,0,0,.12.07h.73c.19,0,.2,0,.4,0s.19.06.39.07.21-.05.41,0h.06c-.46.1-.46.14-.93.24s-.49.05-1,.15-.46.16-.94.26-.48.06-1,.17-.46.16-.94.26l-1,.2c-.35.08-.45.07-.67.11l-.49.13c-.18,0-.48.14-.51.29s.05.13.15.14l.64-.12c.48-.1.47-.15.94-.25l1-.2c.48-.1.47-.12,1-.22s.49-.05,1-.16l.35-.07-.44.21a15.61,15.61,0,0,0-1.41.87,8.33,8.33,0,0,0-1.25,1.09c-.13.14-.27.29-.42.47a.59.59,0,0,0-.14-.06l-1.42-.14-1-.12a5.39,5.39,0,0,1-1-.22,9.22,9.22,0,0,1-1-.37l-.3-.13S45.93,318.22,45.93,318.19Z" transform="translate(-45.32 -284.39)"/></svg>