<svg id="Objects" xmlns="http://www.w3.org/2000/svg" viewBox="0 0 406.64 45.75"><defs><style>.cls-1{fill:#748d75;}</style></defs><path class="cls-1" d="M45.33,296.63a5.84,5.84,0,0,0,.12.7l.15.47a2.94,2.94,0,0,0,.67,1,6.82,6.82,0,0,0,.53.45l.41.24a3.81,3.81,0,0,0,.41.22c.16.08.34.19.6.3a11.43,11.43,0,0,0,2.1.82,5,5,0,0,0,1.12.16l1.12.07.39,0h.75a8,8,0,0,0,1.11-.12,13.59,13.59,0,0,0,2.18-.53,15.78,15.78,0,0,0,1.71-.69,2.2,2.2,0,0,0,.54-.44.27.27,0,0,0,.1-.19.92.92,0,0,0,.18-.12c.15-.15.12-.18.26-.33s.18-.13.3-.29.08-.2.2-.38a1,1,0,0,1,.15-.21l1.11,0a15.42,15.42,0,0,1,1.82,0l1.29.11c.33,0,.65.06,1.29.16,1.29.18,1.27.34,2.54.59s1.28.22,2.53.59a10,10,0,0,1,1.22.45c.29.14.6.25,1.2.49,1.21.48,1.24.39,2.43.93a10.53,10.53,0,0,1,1.14.62l1.12.65c1.13.64,1.11.68,2.2,1.37.53.38.8.56,1.07.74-1.52-.25-3.34-.55-5.87-.94-3.21-.47-5.27-.84-7-1.13l-5-.82c-1.79-.18-3-.17-2.36.25,1.1.78,6.79,1.86,10.19,2.52,3.16.58,6.35,1.06,9.53,1.58l2.8.38,2.59.3c1.4.17,3,.36,5.22.65l-1.4.17-2.51.31c-1.25.12-1.25.11-2.51.21s-1.27.08-2.53.14-1.26.15-2.52.19-1.26,0-2.53,0l-2.53,0c-1.26-.05-1.26-.14-2.52-.21-.74-.05-1-.06-1.43-.07a.45.45,0,0,0-.07-.19c-.09-.13-.13-.1-.23-.22s-.07-.14-.18-.25a2.28,2.28,0,0,0-.22-.22l-.1-.08-.14-.17a1.75,1.75,0,0,0-.34-.32,1.17,1.17,0,0,0-.25-.13,1.07,1.07,0,0,0-.25-.07c-.35-.06-.5,0-1.07-.15-.78-.13-.78-.12-1.57-.2A13.63,13.63,0,0,0,65,305.8a3.66,3.66,0,0,0-.8.1l-.8.16a6,6,0,0,0-1.58.44,3,3,0,0,0-.69.48c-.16.14-.3.3-.6.58l-.49.52-.05.06,0,0,0,0,.08.11.16.21a1.57,1.57,0,0,0,.17.21l.13.15a3.25,3.25,0,0,0,.4.32,6.23,6.23,0,0,0,.73.42,7,7,0,0,0,.75.31c.63.23.74.24,1.18.39-.09.08-.18.18-.29.3a7,7,0,0,0-.72,1c-.16.26-.31.52-.6,1.05a1.28,1.28,0,0,0-.19.89.83.83,0,0,0,.52.58,2,2,0,0,0,.56.13,7,7,0,0,0,.73,0,5.21,5.21,0,0,0,1.21-.17c.29-.09.59-.16,1.16-.36h0a2.45,2.45,0,0,0-.12.31,5.31,5.31,0,0,0-.22.83c0,.38,0,.54,0,1.14,0,.41,0,.61,0,.82l0,.44v.15a.85.85,0,0,0,.17.06l.37.13.53.09h.37a2,2,0,0,0,.88-.21c.19-.1.33-.2.44-.27l.27-.23.59-.6a7.57,7.57,0,0,0,1.09-1.24,9.21,9.21,0,0,0,.66-1.51l.11-.27.07-.21.1-.32a4.15,4.15,0,0,0,.2-.79,11.22,11.22,0,0,0,.14-1.64,9.93,9.93,0,0,0-.08-1.34,1.59,1.59,0,0,0-.16-.4l.39.06c.45.06.89.09,1.34.13s.83,0,1.77,0c1.27,0,1.27,0,2.55,0s1.27.12,2.54.1,1.27-.1,2.55-.16,1.27,0,2.55-.06,1.26-.2,2.52-.33,1.28,0,2.54-.22,1.27-.17,2.53-.36c.75-.12,1-.17,1.44-.25,4.19.52,6.38.72,8.57,1l.46,0-.65.19a10.09,10.09,0,0,0-1.1.36,13.52,13.52,0,0,0-1.48.73,2.39,2.39,0,0,0-.71.61,1.51,1.51,0,0,0-.21.38,1.35,1.35,0,0,0-.07.65,1.13,1.13,0,0,0,.3.63,1.16,1.16,0,0,0,.38.28,1.58,1.58,0,0,0,1,.13,1.73,1.73,0,0,0,.84-.45c.17-.14.32-.3.61-.56a11.25,11.25,0,0,1,1.25-.93,12.59,12.59,0,0,1,1.33-.79,11.85,11.85,0,0,1,1.45-.51c.48-.16.64-.23.91-.31l4.82.44,9.16.89,3.39.33-2.08.22c-1.58.17-1.58.16-3.16.36s-1.58.18-3.15.41-1.56.34-3.13.59-1.57.23-3.13.52-1.56.31-3.12.62-1.57.23-3.13.58c-1.09.25-1.41.36-2,.52-.29.14-.46.29-.31.41s1.25.05,1.84-.06,1.09-.21,1.63-.32c.71-.18,1-.28,2.15-.53,1.55-.31,1.54-.34,3.1-.62s1.58-.16,3.14-.43,1.55-.33,3.11-.56,1.58-.12,3.15-.32,1.56-.3,3.13-.48,1.58-.09,3.16-.22,1.58-.12,3.15-.24l.86-.06.6,0c6.87.34,8.61.38,12.88.49l-.91.23-2.73.69-3.82,1-3.83,1c-1.91.51-1.91.49-3.83,1s-1.88.6-3.8,1.11-1.92.47-3.83,1l-3.82,1c-1.91.51-1.94.42-3.85.92-1.35.36-1.74.49-2.52.71a.64.64,0,0,1,0-.09c-.06-.17-.11-.15-.18-.32s0-.18-.11-.34a2.58,2.58,0,0,0-.18-.32l-.12-.18a1.42,1.42,0,0,1-.08-.18,2.27,2.27,0,0,0-.28-.46,1.19,1.19,0,0,0-.22-.23c-.09-.07-.19-.12-.25-.16-.37-.18-.54-.23-1.16-.54-.83-.41-.83-.4-1.69-.76a14,14,0,0,0-1.73-.73,5.69,5.69,0,0,0-.93-.17l-.94-.09a6.5,6.5,0,0,0-1.92,0,3.71,3.71,0,0,0-.94.28c-.22.1-.43.23-.87.44l-.68.39-.08.05,0,0s0,0,0,0l.06.16.1.29c.09.22.13.3.2.45a3.15,3.15,0,0,0,.34.49,6.22,6.22,0,0,0,.67.71c.18.17.36.32.73.61.66.48.75.53,1.26.87l.06,0a5.78,5.78,0,0,0-.56.31,7.91,7.91,0,0,0-1.14.83c-.27.23-.53.47-1,1a1.47,1.47,0,0,0-.51.91,1,1,0,0,0,.37.78,2.56,2.56,0,0,0,.58.32c.21.07.46.19.8.28a6.46,6.46,0,0,0,1.41.23c.36,0,.72,0,1.43,0h.17a5,5,0,0,0-.32.39,9.35,9.35,0,0,0-.52.86c-.17.42-.21.6-.45,1.27-.14.46-.2.69-.25.92l-.11.5,0,.16.16.13.35.25.56.27.4.14a2.57,2.57,0,0,0,1,0,3.4,3.4,0,0,0,.58-.15l.38-.16.35-.18a4.71,4.71,0,0,0,.51-.28,9.24,9.24,0,0,0,1.64-1,4.38,4.38,0,0,0,.67-.7l.6-.76.22-.26.14-.22.22-.32a5.39,5.39,0,0,0,.49-.82,13.12,13.12,0,0,0,.72-1.79,12.35,12.35,0,0,0,.37-1.54,1.86,1.86,0,0,0,0-.59.33.33,0,0,0-.1-.17.58.58,0,0,0,0-.2.64.64,0,0,0,0-.09,10.73,10.73,0,0,0,1.77-.3c.68-.14,1.35-.32,2-.49.88-.25,1.23-.39,2.65-.77,1.91-.5,1.91-.52,3.82-1s1.94-.38,3.86-.89,1.89-.58,3.8-1.08c.73-.2,1.18-.3,1.57-.38h0l0,.11.07.2a4.45,4.45,0,0,0,.16.42,3.18,3.18,0,0,0,.24.37,5.39,5.39,0,0,0,1,1c.4.32.5.38.76.56l-.23.12a4.68,4.68,0,0,0-.83.59c-.19.17-.38.33-.75.68a1.93,1.93,0,0,0-.27.3,1.05,1.05,0,0,0-.14.41.75.75,0,0,0,.28.63,1.3,1.3,0,0,0,.43.26,3.89,3.89,0,0,0,.57.23,4.53,4.53,0,0,0,1,.18c.24,0,.49,0,1,0l-.11.13a5,5,0,0,0-.41.61c-.12.29-.14.43-.32.91a5,5,0,0,0-.2.65c0,.12-.06.24-.09.39l0,.13.11.09.28.21c.19.11.3.16.42.22l.29.12a1.55,1.55,0,0,0,.77.07,2.44,2.44,0,0,0,.71-.21L135,325a7.35,7.35,0,0,0,1.22-.69,9.12,9.12,0,0,0,.92-1,2.79,2.79,0,0,0,.27-.35l.17-.22a2.79,2.79,0,0,0,.37-.58,7.4,7.4,0,0,0,.55-1.26,8.17,8.17,0,0,0,.3-1.1,1.07,1.07,0,0,0-.07-.44.31.31,0,0,0-.1-.12.21.21,0,0,0,0-.12l.71-.13c.5-.1,1-.23,1.51-.35.66-.19.92-.31,2-.58,1.44-.38,1.43-.39,2.87-.76s1.46-.25,2.9-.63,1.41-.43,2.67-.77l-.06,0c-.18.14-.34.3-.7.59L150,317,150,317l0,0a.08.08,0,0,0,0,0l.08.12.16.25a1.4,1.4,0,0,0,.16.22,1.83,1.83,0,0,0,.13.16,3.19,3.19,0,0,0,.41.38,6.15,6.15,0,0,0,.76.5,7.24,7.24,0,0,0,.8.4c.69.3.79.32,1.32.53h0l-.41.36a7.16,7.16,0,0,0-.85,1c-.19.27-.38.54-.74,1.1a1.34,1.34,0,0,0-.26.94.88.88,0,0,0,.51.65,1.94,1.94,0,0,0,.6.17,5.81,5.81,0,0,0,.79.09,6,6,0,0,0,1.33-.1c.32-.07.65-.12,1.29-.3l.12,0a2.78,2.78,0,0,0-.19.39,8.45,8.45,0,0,0-.3.89c-.06.41-.06.59-.13,1.25,0,.44,0,.67,0,.89v.64l.18.08.38.15c.23.07.42.11.56.14l.41,0a2.27,2.27,0,0,0,1-.18,4.39,4.39,0,0,0,.5-.26l.31-.23.69-.6a9.11,9.11,0,0,0,1.27-1.29,4.69,4.69,0,0,0,.46-.78c.09-.21.18-.41.38-.81l.14-.29.09-.23L162,323a5.79,5.79,0,0,0,.27-.85,10.67,10.67,0,0,0,.27-1.77,12.61,12.61,0,0,0,0-1.48l0-.09c.49-.15,1.06-.39,1.48-.56l2.06-.84c.89-.41,1.26-.57,2.73-1.15l2-.73c.49-.18,1-.36,2-.68a19.8,19.8,0,0,1,2.05-.56c.52-.11,1-.24,2.06-.52,2.05-.52,2-.61,4.11-1.06a20.63,20.63,0,0,1,2.09-.37c.53-.07,1-.17,2.1-.32,1.62-.27,2-.38,3.05-.54l6.28-.25,3.74-.14,5.45-.36,5.45-.39c1.2-.08,2.19-.18,3.15-.27l-1.08.42c-1.62.65-1.62.64-3.24,1.27s-1.64.59-3.28,1.17-1.65.55-3.3,1.1-1.63.63-3.29,1.14-1.68.48-3.36.95-1.67.47-3.35.92-1.71.34-3.4.75l-1.69.42,0-.07c-.08-.16,0-.18-.14-.33l-.19-.3a2,2,0,0,1-.13-.17,1,1,0,0,1-.09-.17,2.52,2.52,0,0,0-.31-.44,1.15,1.15,0,0,0-.23-.21,1.76,1.76,0,0,0-.26-.14c-.39-.15-.56-.19-1.18-.46-.85-.34-.86-.33-1.73-.63a14.38,14.38,0,0,0-1.75-.59,5.38,5.38,0,0,0-.93-.11l-.94,0a6.75,6.75,0,0,0-1.9.1,3.54,3.54,0,0,0-.9.35c-.22.11-.42.26-.83.49l-.64.44-.08.06,0,0v0l.07.15.12.28a3.16,3.16,0,0,0,.24.43,2.8,2.8,0,0,0,.36.46,8,8,0,0,0,.71.66,8.67,8.67,0,0,0,.77.54c.68.44.78.47,1.3.78l.06,0-.53.33a7.45,7.45,0,0,0-1.07.91c-.24.25-.48.5-1,1a1.44,1.44,0,0,0-.43.93,1,1,0,0,0,.42.75,2.08,2.08,0,0,0,.59.27,6.81,6.81,0,0,0,.81.22,6,6,0,0,0,1.41.13c.36,0,.71,0,1.41-.09l.16,0a3.32,3.32,0,0,0-.28.41,6.67,6.67,0,0,0-.46.88c-.13.42-.17.6-.35,1.28a8.28,8.28,0,0,0-.18.93l-.07.49,0,.17.18.11.36.23.57.23.41.1a2.38,2.38,0,0,0,1,0c.25-.07.42-.14.57-.19l.36-.19a3.29,3.29,0,0,0,.34-.2c.13-.08.28-.17.48-.31a9.16,9.16,0,0,0,1.54-1.14,4.06,4.06,0,0,0,.61-.74l.55-.78.19-.28.12-.22.2-.33a6,6,0,0,0,.42-.85,11.56,11.56,0,0,0,.58-1.81,14.17,14.17,0,0,0,.27-1.55,1.72,1.72,0,0,0-.1-.58.26.26,0,0,0-.11-.16.43.43,0,0,0,0-.2,1.7,1.7,0,0,0-.12-.3l.88-.14c.6-.11,1.2-.25,1.8-.39.77-.2,1.09-.34,2.34-.66,1.69-.45,1.69-.45,3.37-.93s1.71-.36,3.39-.86,1.65-.58,3.31-1.12,1.69-.45,3.35-1,1.61-.69,3.25-1.29,1.66-.54,3.29-1.19,1.62-.64,3.24-1.31l.18-.08c1.68-.15,3.67-.33,6.67-.62l-.12.06a11.48,11.48,0,0,0-1.53.95,11.81,11.81,0,0,0-1.4,1.14,2.62,2.62,0,0,0-.62.82,1.47,1.47,0,0,0-.13.46,1.31,1.31,0,0,0,.14.74,1.08,1.08,0,0,0,.62.5,1.21,1.21,0,0,0,.49,0,2,2,0,0,0,1-.45c.37-.31.51-.47.68-.62s.32-.3.62-.62c.6-.66.59-.67,1.15-1.35s.63-.63,1.16-1.35c.1-.15.18-.26.24-.36.32-.1.48-.14.88-.24l.19-.08,5.31-.61c2-.21,3.81-.46,6.85-.87,2-.33,4-.69,5.53-1.06,3.3-.78.32-.81-2.5-.6-3.7.27-7.66.78-11.67,1.2l-6,.69c-1.33.16-2.66.28-4,.39.09-.19-.36-.15-.78,0-.17,0-.34.1-.52.16l-.63.05c-.59,0-4.43.39-8.8.71h-.14c-1.58.05-3.38.25-5,.14-.16,0-1.52-.12-2.76-.29-1-.14-1.45-.23-1.93-.32s-1-.18-1.91-.4c-1.91-.47-1.9-.48-3.79-1s-1.87-.6-3.74-1.23-1.9-.55-3.77-1.17-1.87-.66-3.77-1.22c-1-.28-1.44-.4-1.92-.52s-1-.24-1.94-.45a34.27,34.27,0,0,0-3.92-.73c-.51-.06-.88-.08-1.2-.09v0c0-.15.1-.14.15-.3s0-.17,0-.34.07-.15.08-.32,0-.17,0-.34V300a1.18,1.18,0,0,1,0-.2,2.11,2.11,0,0,0,0-.51,1.07,1.07,0,0,0-.06-.29,2.54,2.54,0,0,0-.11-.26c-.2-.33-.31-.45-.62-1-.44-.74-.45-.73-.93-1.45a12.75,12.75,0,0,0-1-1.46,4.06,4.06,0,0,0-.64-.61l-.69-.56a6.48,6.48,0,0,0-1.48-1,3.38,3.38,0,0,0-.88-.25c-.22,0-.46-.05-.9-.11l-.75,0h-.13s0,0,0,0l0,.15-.07.28a1.76,1.76,0,0,0-.05.27,1.18,1.18,0,0,0,0,.21,2.6,2.6,0,0,0,0,.55,5.18,5.18,0,0,0,.16.9,7.75,7.75,0,0,0,.25.85c.26.72.32.8.53,1.33h0l-.54,0a7.28,7.28,0,0,0-1.32.07c-.32.05-.65.09-1.3.22a1.41,1.41,0,0,0-.87.46.88.88,0,0,0-.11.81,2,2,0,0,0,.28.55c.13.17.26.39.48.64a6.12,6.12,0,0,0,1,.9c.28.18.54.39,1.1.74l.11.06a2,2,0,0,0-.41.13,7.34,7.34,0,0,0-.86.39c-.34.24-.46.36-1,.77-.35.28-.51.43-.67.58l-.34.34-.12.11a.89.89,0,0,0,.07.19l.15.38a5.72,5.72,0,0,0,.29.5l.24.32a2.31,2.31,0,0,0,.79.58l.54.19.38.06.91.09a9.13,9.13,0,0,0,1.81,0,4,4,0,0,0,.88-.21l.86-.28.3-.09.22-.1.34-.13a5.25,5.25,0,0,0,.8-.4,10.53,10.53,0,0,0,1.48-1,11.27,11.27,0,0,0,1.08-1,1.6,1.6,0,0,0,.25-.46l.5.06c.67.09,1.35.15,2,.27.45,0,.76.08,1.15.14A15.53,15.53,0,0,1,177,303c1,.21,1.43.32,1.91.44s.95.24,1.9.51c1.89.57,1.84.7,3.72,1.31s1.89.56,3.76,1.19,1.84.74,3.74,1.32,1.93.47,3.86.95l1.93.45c.43.1.85.19,1.61.31l-1.28.09-3.72.2-3.72.2-2.4.13c-.9.05-1.9.09-3,.12l-8.14.24a2,2,0,0,1-.06-.26,10.16,10.16,0,0,1-.29-1.09,4.63,4.63,0,0,0-.28-.79c-.09-.19-.17-.38-.37-.75a7.73,7.73,0,0,0-.84-1.44,3.48,3.48,0,0,0-.6-.59l-.27-.22a1.24,1.24,0,0,0-.61-.27.81.81,0,0,0-.71.32,1,1,0,0,0-.2.45,1.76,1.76,0,0,0,.1,1,3.24,3.24,0,0,0,.34.77c.11.18.22.36.42.73a7.43,7.43,0,0,0,.89,1.41,7.62,7.62,0,0,0,.58.61l.22.21-8.53.09-3,0-2.4,0-3.18,0-.1-.07a5.89,5.89,0,0,0-.52-.39l-.76-.51-.76-.52c-.38-.25-.37-.27-.75-.52s-.43-.18-.81-.43-.36-.29-.74-.54l-.77-.51a1.7,1.7,0,0,1-.35-.29l.05-.06c.1-.12.14-.08.23-.21s.05-.15.13-.28.12-.11.19-.25a1.82,1.82,0,0,0,.13-.28c0-.06,0-.09.05-.13a1.74,1.74,0,0,0,.11-.18,2,2,0,0,0,.19-.42,2.33,2.33,0,0,0,0-.28,1.93,1.93,0,0,0,0-.26c-.07-.35-.13-.49-.21-1.07-.13-.77-.14-.77-.32-1.54a14.51,14.51,0,0,0-.34-1.56,4.61,4.61,0,0,0-.35-.73c-.11-.17-.21-.35-.41-.69a5.66,5.66,0,0,0-.93-1.36,2.81,2.81,0,0,0-.68-.5c-.18-.11-.37-.19-.74-.38l-.65-.29-.07,0,0,0,0,0-.08.12-.15.21a1.76,1.76,0,0,0-.14.23,1.62,1.62,0,0,0-.1.18,3.88,3.88,0,0,0-.18.48,5.45,5.45,0,0,0-.15.82,6.28,6.28,0,0,0-.06.81c0,.67,0,.78,0,1.25l-.39-.18a6.48,6.48,0,0,0-1.15-.37c-.29-.06-.58-.13-1.18-.23a1.31,1.31,0,0,0-.91.11.85.85,0,0,0-.38.68,1.75,1.75,0,0,0,.07.57,5.77,5.77,0,0,0,.2.7,4.83,4.83,0,0,0,.55,1.09c.18.25.34.51.71,1l0,0-.33,0a8.48,8.48,0,0,0-.86.06c-.37.09-.51.16-1.09.33-.39.13-.58.21-.77.29l-.41.18-.14.06v.57c0,.22.06.39.09.53l.1.35a2.13,2.13,0,0,0,.49.76,4.33,4.33,0,0,0,.4.34l.3.17c.19.1.38.2.76.37a7.83,7.83,0,0,0,1.53.63,9,9,0,0,0,1.64.14l.29,0h.55a5.1,5.1,0,0,0,.82-.07,10.85,10.85,0,0,0,1.59-.39,11,11,0,0,0,1.25-.51,2,2,0,0,0,.27-.23,2.46,2.46,0,0,1,.46.25l.77.49c.38.26.31.36.69.62s.42.19.8.45.32.34.7.6.44.17.82.43a3.4,3.4,0,0,1,.43.35c-2.06,0-4.32,0-8.39-.17-1.88-.05-3.38-.09-4.65-.11a23.54,23.54,0,0,0-3.2-2.45c-.11-.08-1-.75-1.91-1.3-1.36-.89-1.38-.86-2.76-1.7s-1.4-.82-2.83-1.59-1.42-.78-2.88-1.49-1.5-.61-3-1.28-1.47-.68-3-1.27-1.52-.56-3-1.12-1.5-.61-3-1.09c-.86-.27-1.26-.35-1.7-.46a.09.09,0,0,0,0,0c-.07-.17-.12-.15-.19-.31s-.05-.18-.14-.33l-.2-.3-.14-.18-.09-.17a2.35,2.35,0,0,0-.3-.45,1.59,1.59,0,0,0-.24-.2,2.71,2.71,0,0,0-.26-.15c-.39-.15-.56-.19-1.19-.46-.86-.35-.86-.35-1.74-.65a15.51,15.51,0,0,0-1.78-.6,5.37,5.37,0,0,0-.94-.11l-.95,0a6.94,6.94,0,0,0-1.92.11,3,3,0,0,0-.91.35c-.22.11-.42.25-.84.49l-.65.44-.08.05,0,0s0,0,0,0l.06.15.13.28c.1.22.15.29.23.44a3.71,3.71,0,0,0,.37.46,7,7,0,0,0,.72.67,8.86,8.86,0,0,0,.77.55c.69.44.79.48,1.31.79l.07,0c-.16.09-.33.2-.54.34a8.54,8.54,0,0,0-1.08.91c-.25.26-.5.51-1,1a1.53,1.53,0,0,0-.44.94.79.79,0,0,0,0,.23l-.25-.11c-1-.44-1-.44-2-.85s-1-.42-2-.77-1.06-.25-2.09-.58-1-.35-2.07-.62-1-.26-2.1-.5-1-.32-2.1-.52l-.13,0a.68.68,0,0,0,0-.14,1.93,1.93,0,0,0,0-.26c-.07-.34-.12-.48-.21-1.06-.13-.78-.14-.78-.32-1.55a10.88,10.88,0,0,0-.34-1.56,4,4,0,0,0-.35-.72l-.41-.7a5.86,5.86,0,0,0-.93-1.36,2.81,2.81,0,0,0-.67-.5c-.18-.11-.38-.18-.74-.38l-.66-.29-.07,0,0,0s0,0,0,0l-.08.11-.15.22a1.28,1.28,0,0,0-.14.23,1,1,0,0,0-.1.17,3.2,3.2,0,0,0-.17.48,5.84,5.84,0,0,0-.16.82,6.28,6.28,0,0,0-.06.81c0,.67,0,.78,0,1.25l-.39-.18a6.44,6.44,0,0,0-1.14-.37c-.3-.06-.59-.13-1.18-.23a1.3,1.3,0,0,0-.91.11.83.83,0,0,0-.38.68,1.49,1.49,0,0,0,.06.57,5.16,5.16,0,0,0,.75,1.79c.19.25.34.51.71,1l0,0-.33,0a8.48,8.48,0,0,0-.86.06c-.36.1-.51.16-1.09.34a6,6,0,0,0-.76.28l-.41.18-.14.06a1,1,0,0,0,0,.18v.39c0,.22.06.39.08.53l.11.36a2,2,0,0,0,.48.75c.16.16.3.25.4.34l.31.17a6.5,6.5,0,0,0,.75.37,7.83,7.83,0,0,0,1.53.63,8.21,8.21,0,0,0,1.64.15h.85a4.06,4.06,0,0,0,.81-.07,10.85,10.85,0,0,0,1.59-.39,8.4,8.4,0,0,0,1.25-.51,1.43,1.43,0,0,0,.38-.35.24.24,0,0,0,0-.16.44.44,0,0,0,.16-.09c.11-.11.08-.14.18-.25s.14-.08.24-.2,0-.16.13-.29.11-.11.18-.25a2.24,2.24,0,0,0,.13-.27l0-.13,0-.05.93.21A13,13,0,0,1,94,298c1,.24,1,.22,2.08.49s1,.4,2,.7,1.05.24,2.05.59,1,.47,2,.85,1,.3,2,.73.94.51,1.89,1,.94.5,1.88,1c.29.18.5.3.67.39l-.2.75a6.94,6.94,0,0,0-.19.94l-.07.5,0,.17.18.11.36.22.57.24.42.1a2.43,2.43,0,0,0,1,0,5.66,5.66,0,0,0,.58-.19l.36-.19a3.29,3.29,0,0,0,.34-.2c.13-.08.29-.17.49-.31a9.31,9.31,0,0,0,1.57-1.15,4.06,4.06,0,0,0,.61-.74l.56-.8.19-.27.13-.23.2-.33a6.29,6.29,0,0,0,.42-.86,11.86,11.86,0,0,0,.6-1.83,14.72,14.72,0,0,0,.27-1.56,1.83,1.83,0,0,0-.09-.59.31.31,0,0,0-.12-.16.31.31,0,0,0,0-.1l.62.22,1.6.54c.71.19,1,.26,2.15.64,1.51.55,1.52.51,3,1.1s1.44.72,2.92,1.35,1.5.58,3,1.28,1.39.81,2.81,1.56,1.46.68,2.85,1.48,1.35.88,2.69,1.76,1.34.89,2.67,1.79c.93.68,1.21.85,1.76,1.26-4.08-.08-5.88-.1-12.59-.43-4.58-.29-6.87-.5-9.16-.67-1.14-.09-2.29-.16-3.71-.3l-5.43-.5-5.43-.5-3.7-.4c-2.28-.27-4.57-.47-9.12-1l-3.39-.46s0,0,0,0a2,2,0,0,0-.3-1.22,3.23,3.23,0,0,0-.3-.64,5.49,5.49,0,0,0-.58-.81,1.89,1.89,0,0,0-.42-.38,1.16,1.16,0,0,0-.61-.23,1.1,1.1,0,0,0-.69.14.94.94,0,0,0-.44.65,1.06,1.06,0,0,0,.11.64l.27.46a5,5,0,0,0,.55.83,2.68,2.68,0,0,0,.28.29L84.58,305l-1.85-.31a6.72,6.72,0,0,0-1.19-1.05c-.48-.34-1-.67-1.44-1-.09-.06-.85-.6-1.59-1-.58-.33-.87-.49-1.17-.63s-.59-.31-1.19-.59c-1.21-.55-1.2-.56-2.44-1.05-.61-.25-.93-.34-1.24-.46s-.62-.24-1.26-.42c-1.27-.38-1.3-.26-2.59-.58s-1.28-.32-2.6-.5a11.1,11.1,0,0,0-1.31-.16l-1.32-.12c-1.31-.07-1.32-.17-2.62-.17l0-.07.08-.15a3,3,0,0,0,.25-.57,1.34,1.34,0,0,0,0-.35,1.67,1.67,0,0,0,0-.34c-.07-.48-.14-.68-.26-1.47-.18-1.07-.19-1.07-.43-2.13a17.66,17.66,0,0,0-.51-2.12,6.51,6.51,0,0,0-.47-1c-.13-.24-.26-.48-.55-1A8.14,8.14,0,0,0,57.65,286a4.12,4.12,0,0,0-.9-.69,2.87,2.87,0,0,0-.4-.22c-.16-.08-.34-.19-.59-.31l-.79-.36-.1,0,0,0s0,0,0,0l-.11.16-.21.31c-.07.11-.08.15-.13.22a2.42,2.42,0,0,0-.12.23A4.1,4.1,0,0,0,54,286a7.54,7.54,0,0,0-.21,1.11,10.16,10.16,0,0,0-.08,1.11c0,1,0,1.07,0,1.79a1.77,1.77,0,0,0,0,.2,7.47,7.47,0,0,0-.79-.38,9.49,9.49,0,0,0-1.56-.52c-.41-.09-.81-.19-1.62-.33a1.64,1.64,0,0,0-1.16.14,1,1,0,0,0-.45.84,2,2,0,0,0,.09.74,8.68,8.68,0,0,0,.28.95,7.76,7.76,0,0,0,.74,1.49c.24.34.44.7,1,1.35l.2.26a4.41,4.41,0,0,0-.71,0,7.81,7.81,0,0,0-1.17.1c-.5.11-.7.19-1.5.43-.53.17-.79.28-1,.38l-.5.22-.2.09a1.92,1.92,0,0,0,0,.24Zm23.88,14a.58.58,0,0,1,.08-.1h0Zm-5.15-.83a10.77,10.77,0,0,0-1.83-.77,7.29,7.29,0,0,1-.89-.5c-.15-.1-.24-.19-.33-.25l-.09-.09h0s0,0,0,0l.12-.13a4.14,4.14,0,0,1,1.16-.82,5.26,5.26,0,0,1,1.37-.46l.72-.16a3.14,3.14,0,0,1,.74-.11,12.62,12.62,0,0,1,1.51.09c.56.06.71.07,1,.12,0,0,0,0,0,.06a.22.22,0,0,0,.16.22l.16.05a1.06,1.06,0,0,1,.23,0l.32.07c.16.05.14.11.29.16s.17,0,.32.07l.13.07-.25,0c-.18,0-.17-.09-.36-.13s-.19,0-.38,0-.18-.06-.37-.08l-.37,0h-.31a.19.19,0,0,0-.12.07.17.17,0,0,0,0,.24c.14.11.31.06.47.09l.25,0,.36,0,.36.06h0l-.89.28-.66-.05c-.35,0-.35,0-.71,0s-.35,0-.7-.06l-.71,0c-.35,0-.35-.07-.7-.09h-.47c-.07,0-.12.08-.1.15s.26.19.4.21l.37,0a3.91,3.91,0,0,1,.49,0l.71,0c.35,0,.34.08.7.1s.33,0,.51,0l-.55.25a10.53,10.53,0,0,0-1,.6l-1,.69,0,0Zm1.65,3.26a6.05,6.05,0,0,1-1.07.27,8,8,0,0,1-1.1.11,3.92,3.92,0,0,1-1-.08c-.07,0-.05,0-.06,0a.69.69,0,0,1,.12-.37l.55-1a4.89,4.89,0,0,1,.65-.91,7.4,7.4,0,0,1,.81-.78c.22-.18.44-.36.89-.68a8.33,8.33,0,0,1,1-.55,7.64,7.64,0,0,1,1-.43l.28-.09v0a.2.2,0,0,0,.23.11h.14a.57.57,0,0,1,.19-.08,2.66,2.66,0,0,1,.28,0c.15,0,.15.06.29.06s.15,0,.29,0h0l-.07,0c-.19.05-.2,0-.39.05s-.17.11-.36.17-.19,0-.38.09l-.36.15-.29.15a.24.24,0,0,0-.07.12c0,.11.09.17.16.18s.31-.1.46-.15l.25-.08.35-.13.35-.11c.18,0,.18,0,.37-.08s.17-.09.35-.13h0l-.3.16-.6.34-.61.34-.62.33c-.3.17-.28.21-.58.38l-.62.32-.61.35c-.3.17-.33.13-.63.3s-.27.16-.4.24a.13.13,0,0,0,0,.18c.11.11.31,0,.43,0l.34-.16a3.11,3.11,0,0,1,.4-.26l.61-.35c.3-.17.34-.11.64-.28s.29-.21.59-.38.33-.12.64-.29.28-.21.56-.37l-.18.14-.17.13a.2.2,0,0,0,0,.11.19.19,0,0,0,.17.16c.15,0,.21-.09.3-.15l.16-.1.2-.16.2-.16.21-.15c.1-.08.07-.12.17-.2l.09-.06-.12.16c-.09.12-.1.11-.2.23s-.06.15-.16.26-.11.1-.22.21l-.21.22c-.11.11-.14.07-.26.17l-.13.15a.21.21,0,0,0,.07.15.2.2,0,0,0,.26,0l.1-.07a2.43,2.43,0,0,1-.26.3,8.25,8.25,0,0,1-1.2,1,6.64,6.64,0,0,1-.94.57A5.21,5.21,0,0,1,65.71,313.08Zm4.88-.39c0,.09,0,.19-.07.3a1.82,1.82,0,0,1-.13.4,7.77,7.77,0,0,1-.7,1.34,7.14,7.14,0,0,1-.93,1.17l-.51.54a2.09,2.09,0,0,1-.58.43,1.83,1.83,0,0,1-.66.19h-.27l-.38-.05-.09,0s0,0,0,0v-.17c0-.2,0-.39,0-.77a7.44,7.44,0,0,1,.28-1.48c.12-.53.16-.69.22-1,0,0,0-.05,0-.08l.37-.16a4.75,4.75,0,0,0,1.05-.6c.37-.28.6-.46.79-.62a1.64,1.64,0,0,1-.18.34c-.18.31-.19.3-.37.6l-.36.61c-.18.3-.22.28-.41.58s-.15.29-.22.41,0,.15.09.16.29-.14.37-.25l.21-.3a3.54,3.54,0,0,1,.22-.44l.36-.61c.18-.31.24-.27.42-.58s.15-.32.33-.62.23-.28.41-.58.13-.33.32-.63c0-.07.07-.12.09-.16l0-.06a.83.83,0,0,1,0,.2c0,.14-.08.12-.12.26l-.1.27-.07.23a.19.19,0,0,0,0,.11.2.2,0,0,0,.23,0c.15-.07.14-.22.19-.34a1,1,0,0,0,.08-.19l.08-.28.08-.23a.73.73,0,0,1,0,.25c0,.17-.06.17-.1.34l-.08.34c0,.17-.1.16-.15.33a1.64,1.64,0,0,0-.05.23.17.17,0,0,0,.14.09.23.23,0,0,0,.24-.14l.08-.18a1.49,1.49,0,0,1,0-.25l.09-.35a.14.14,0,0,1,0-.07c0,.21-.06.47-.11.73S70.63,312.5,70.59,312.69Zm31.1,7.51a15.82,15.82,0,0,0-1.82-1.47,7.75,7.75,0,0,1-.85-.89c-.13-.16-.21-.29-.29-.4l-.11-.21s0,0,0,0l.23-.14a5.23,5.23,0,0,1,.78-.33,5.61,5.61,0,0,1,.83-.2,6.19,6.19,0,0,1,1.72,0l.88.07a4.16,4.16,0,0,1,.88.15,15.4,15.4,0,0,1,1.68.61c.74.31.82.35,1.41.63a.36.36,0,0,0,0,.09.23.23,0,0,0,.11.26.78.78,0,0,0,.15.1.84.84,0,0,1,.23.1c.15.09.16.08.31.18s.11.16.25.26.17.08.3.19.1.16.23.28l.12.08-.12,0a.46.46,0,0,0-.16-.13,3.62,3.62,0,0,0-.4-.19c-.2-.11-.17-.16-.37-.26s-.22-.05-.42-.15-.19-.13-.39-.21l-.41-.17-.35-.12a.21.21,0,0,0-.15,0c-.1.05-.07.18,0,.24s.34.17.5.25a2.91,2.91,0,0,0,.28.13l.39.17.39.19.19.11c-.39,0-.68,0-1.26,0l-.77-.29c-.39-.15-.41-.1-.8-.24l-.78-.3-.78-.28c-.4-.15-.38-.19-.77-.34s-.36-.11-.53-.17-.15,0-.15.12.24.27.38.34l.41.17c.18.05.26.06.55.16l.79.28c.39.15.37.21.76.35s.41.11.76.24c-.38,0-.64.06-.89.1a11.29,11.29,0,0,0-1.37.33c-.67.21-1,.33-1.33.44l-.1,0Zm.76,4.28a8.78,8.78,0,0,1-1.31-.05,10.31,10.31,0,0,1-1.28-.27,4.22,4.22,0,0,1-1.14-.44c-.08-.07-.09-.09-.09-.13a.85.85,0,0,1,.29-.42c.47-.46.71-.69,1-.91a6,6,0,0,1,1.06-.8,10.51,10.51,0,0,1,1.19-.61,12,12,0,0,1,1.24-.45,8.27,8.27,0,0,1,1.29-.3A10.63,10.63,0,0,1,106,320h.34a.14.14,0,0,0,0,.09.22.22,0,0,0,.22.17h.19a2.19,2.19,0,0,1,.25,0h.36c.17,0,.17.07.35.09h.14l.39.14h0c-.22,0-.22,0-.44.05s-.22-.05-.44,0-.22.07-.44.09-.23,0-.45,0l-.44.06-.35.08a.29.29,0,0,0-.12.1c-.06.1,0,.19.11.22s.37,0,.56,0l.3,0c.21,0,.21,0,.43-.06l.43,0h.43c.21,0,.21-.05.43-.06l.43,0,.43,0c.21,0,.21.06.42.08h0l-.08.05a.31.31,0,0,0-.15,0l-.16,0-.07,0-.43.09s-.33,0-.59.09l-.81.17-.82.15-.82.16c-.41.07-.4.12-.81.2l-.82.15-.82.16c-.41.08-.42,0-.83.12s-.37.08-.54.12-.11.11-.07.18.35.1.5.09.29,0,.44-.06a5.12,5.12,0,0,1,.56-.15l.82-.16c.41-.08.42,0,.83-.1s.4-.12.81-.2.42,0,.83-.11l.25-.06,0,0a.29.29,0,0,0-.06.11.19.19,0,0,0,.13.2c.15.06.26-.05.39-.08l.2-.06.29-.12.28-.1c.14-.06.15,0,.29-.1s.12-.1.27-.16l.29-.09h0l0,0-.3.21a3,3,0,0,1-.3.19c-.15.1-.12.14-.28.24a3.18,3.18,0,0,1-.32.16l-.31.18a3.58,3.58,0,0,1-.35.11l-.2.12a.18.18,0,0,0,0,.17.24.24,0,0,0,.27.08l.18-.06a1.64,1.64,0,0,1,.22-.15l.32-.18a.51.51,0,0,1,.15-.06,7.32,7.32,0,0,1-1.08.73A10.22,10.22,0,0,1,105,324a9.62,9.62,0,0,1-1.27.33A6.49,6.49,0,0,1,102.45,324.48Zm6.12.4c-.2.41-.31.61-.42.81L108,326a2.93,2.93,0,0,1-.29.41c-.29.34-.44.5-.6.66s-.33.32-.66.61a8.59,8.59,0,0,1-1.47,1c-.19.12-.33.19-.45.26l-.32.17c-.09,0-.19.1-.32.15a4.13,4.13,0,0,1-.49.13,2.76,2.76,0,0,1-.83,0l-.32-.09a4.66,4.66,0,0,1-.43-.2l-.1-.07,0,0h0v-.12l0-.15c.06-.22.11-.44.25-.87a3.25,3.25,0,0,1,.37-.82l.44-.78.61-1.05s0-.07,0-.11l.51-.06a6.34,6.34,0,0,0,1.39-.32,11.2,11.2,0,0,0,1.32-.54l0,0c-.25.23-.25.28-.54.55s-.32.26-.62.54l-.62.57c-.31.28-.34.24-.65.52l-.4.38c0,.09,0,.16,0,.2s.35-.09.48-.19.23-.18.34-.27a5,5,0,0,1,.41-.42l.61-.56c.31-.28.35-.24.66-.52s.29-.3.6-.58.34-.24.65-.52.27-.32.58-.6l0,0,0,0-.19.24-.15.2a.17.17,0,0,0,0,.12.19.19,0,0,0,.2.11c.16,0,.21-.18.3-.27a1.62,1.62,0,0,0,.14-.16l.19-.24.19-.24c.09-.12.1-.11.19-.24s.06-.15.15-.27.11-.11.2-.23h0l0,.06-.15.33c-.07.17-.08.16-.16.33s0,.18-.12.34-.1.15-.19.31l-.18.31c-.09.15-.13.13-.23.27s-.08.15-.12.21a.17.17,0,0,0,.11.13.22.22,0,0,0,.27-.06l.13-.15a.79.79,0,0,1,.11-.24l.18-.32v0C109,324,108.79,324.45,108.57,324.88Zm69.64-5.9a16.23,16.23,0,0,0-1.9-1.33,7.8,7.8,0,0,1-.89-.81,2.61,2.61,0,0,1-.31-.37l-.13-.2s0,0,0,0l.21-.15a5.82,5.82,0,0,1,.75-.38,5,5,0,0,1,.8-.26,6,6,0,0,1,1.7-.16h.86a4.4,4.4,0,0,1,.88.09,14.3,14.3,0,0,1,1.7.48c.75.26.84.28,1.44.52a.25.25,0,0,0,0,.09.23.23,0,0,0,.12.25.83.83,0,0,0,.16.09,1.28,1.28,0,0,1,.23.08c.16.08.16.07.32.16s.12.15.26.24.17.06.31.17.11.14.25.25l.1.07h-.09a.5.5,0,0,0-.17-.12c-.2-.1-.21-.07-.41-.16s-.18-.14-.38-.23-.22,0-.43-.11-.19-.12-.4-.19l-.41-.14-.35-.09a.24.24,0,0,0-.15,0c-.1.06-.06.18,0,.24s.35.15.51.21l.29.12.4.13.39.17.18.08-1.22.09-.78-.23c-.4-.12-.41-.07-.81-.18s-.39-.13-.79-.24l-.79-.23c-.4-.11-.39-.16-.78-.27s-.37-.09-.53-.13-.15.05-.15.13.26.25.4.3l.41.15c.19,0,.27,0,.57.12l.79.22c.4.11.38.17.78.29s.4.08.75.17c-.37.06-.61.12-.85.17a10.59,10.59,0,0,0-1.33.42c-.65.25-1,.39-1.29.53l-.09,0Zm1,4.17a7.51,7.51,0,0,1-1.3,0,9.4,9.4,0,0,1-1.28-.17,4.38,4.38,0,0,1-1.15-.35c-.09-.06-.09-.08-.09-.12a.79.79,0,0,1,.25-.43c.43-.49.65-.73.88-1a7.29,7.29,0,0,1,1-.86,8.21,8.21,0,0,1,1.13-.68,11.93,11.93,0,0,1,1.19-.54,8,8,0,0,1,1.25-.38,8.4,8.4,0,0,1,1.3-.22l.33,0a.28.28,0,0,0,0,.09.22.22,0,0,0,.23.15h.18a1,1,0,0,1,.25-.05l.35,0c.18,0,.17.07.35.07h.14l.38.11c-.22,0-.21.05-.43.08s-.23,0-.44,0-.21.08-.43.12-.22,0-.44.05l-.42.09-.35.1a.32.32,0,0,0-.11.12c-.05.1.05.18.12.2s.37,0,.55-.07l.3-.06.42-.08.42-.07.42,0c.21,0,.21-.07.42-.09h.43c.21,0,.21,0,.42,0s.21.05.42.06l-.06.05a.28.28,0,0,0-.15,0l-.16.05a.18.18,0,0,1-.07,0l-.41.12-.57.13-.8.22-.79.22c-.4.1-.4.09-.8.2s-.39.16-.79.27l-.8.19-.79.23c-.4.1-.41.06-.81.16a5.31,5.31,0,0,0-.52.17c-.07.05-.11.11-.06.18s.35.08.5.05a3,3,0,0,0,.43-.09c.18-.06.25-.1.54-.18l.8-.22c.39-.11.41-.05.81-.16s.39-.14.78-.25.42,0,.81-.16l.22-.07h0a.23.23,0,0,0-.05.11.2.2,0,0,0,.14.19c.15,0,.26-.06.38-.1l.2-.08.27-.13.27-.13.28-.12c.14-.06.11-.11.25-.17l.28-.11h0l0,0L185,320l-.29.21c-.14.11-.11.14-.25.25l-.31.19-.3.19c-.15.09-.17.05-.33.14a1.4,1.4,0,0,0-.2.13.18.18,0,0,0,0,.16.23.23,0,0,0,.27.07l.18-.08a2.3,2.3,0,0,1,.2-.16l.31-.2a.33.33,0,0,1,.12-.06,7,7,0,0,1-1,.79,11.46,11.46,0,0,1-1.64.85,8.94,8.94,0,0,1-1.23.42A7.82,7.82,0,0,1,179.26,323.15Zm6.06,0c-.17.41-.26.61-.36.82s-.09.2-.15.33a2.42,2.42,0,0,1-.26.42,8.27,8.27,0,0,1-.55.7c-.14.17-.29.33-.6.65a8,8,0,0,1-1.38,1.1l-.43.29-.29.19-.31.17a3,3,0,0,1-.48.16,2.58,2.58,0,0,1-.82.06l-.31-.06a4.67,4.67,0,0,1-.44-.17l-.11-.07h0s0,0,0-.05v-.07l0-.15a6.81,6.81,0,0,1,.18-.88,8.67,8.67,0,0,1,.69-1.63c.28-.57.36-.74.52-1.08a.45.45,0,0,0,0-.11l.49-.09a6.8,6.8,0,0,0,1.35-.41c.65-.28,1-.47,1.26-.63h0c-.21.23-.21.28-.47.55s-.3.29-.58.59l-.57.6c-.28.29-.32.26-.6.56s-.26.28-.37.41,0,.15.05.18.34-.11.46-.21.21-.2.31-.3.16-.21.38-.43l.56-.6c.29-.3.33-.26.62-.55s.26-.33.54-.63.32-.26.61-.55.25-.34.53-.63l0,0-.17.25-.13.21a.26.26,0,0,0,0,.12.19.19,0,0,0,.22.09c.16,0,.19-.19.27-.28l.14-.17a2.13,2.13,0,0,1,.16-.25c.08-.13.09-.13.17-.25s.09-.12.17-.25,0-.15.13-.27.1-.12.18-.25h0v.05l-.12.34c-.06.16-.07.16-.14.33s0,.18-.09.34-.09.16-.16.32l-.16.32c-.08.16-.12.13-.21.29a1.78,1.78,0,0,0-.1.21.15.15,0,0,0,.11.12.22.22,0,0,0,.27-.08.91.91,0,0,0,.11-.16,1.53,1.53,0,0,1,.09-.24c.08-.15.08-.17.15-.31C185.66,322.24,185.5,322.69,185.32,323.12ZM170.2,302.65l-.14.08a.41.41,0,0,1,.12-.08Zm1.24-3.65a.44.44,0,0,1-.06-.12,2.16,2.16,0,0,1-.08-.24,1.67,1.67,0,0,0,.08.2Zm-5.82-2.13a13.22,13.22,0,0,0-.65-2.08,8.28,8.28,0,0,1-.2-1.12c0-.19,0-.33,0-.45l0-.16v0s0,0,0,0H165a5.23,5.23,0,0,1,.77.14,5.62,5.62,0,0,1,.75.27,5.53,5.53,0,0,1,1.36.85l.64.5a3,3,0,0,1,.61.56,12.21,12.21,0,0,1,1,1.34c.34.51.44.64.63,1a.16.16,0,0,0-.1,0,.24.24,0,0,0-.05.28,1.22,1.22,0,0,0,.07.17,1.08,1.08,0,0,1,.14.21c.08.16.09.16.16.32s0,.19.08.36a3.18,3.18,0,0,1,.16.32.9.9,0,0,1,0,.24,3.23,3.23,0,0,1-.19-.3c-.09-.18-.05-.2-.15-.38s-.15-.16-.25-.33-.08-.2-.19-.37l-.24-.35-.2-.27a.24.24,0,0,0-.14-.05c-.11,0-.16.11-.15.19s.17.3.25.45l.15.25.22.33.2.35.06.11c-.27-.19-.5-.34-.93-.61-.21-.28-.22-.3-.44-.61s-.27-.28-.5-.59-.22-.32-.45-.63l-.47-.62c-.23-.32-.19-.34-.42-.66s-.23-.27-.33-.4-.14-.05-.19,0,.05.34.12.47.15.22.22.34a3.52,3.52,0,0,1,.35.41l.47.62c.23.31.18.35.41.66s.26.29.43.52l-.68-.34a9.68,9.68,0,0,0-1.23-.45l-1.27-.35-.09,0Zm-2.59,3a9.62,9.62,0,0,1-.86-.86,4.17,4.17,0,0,1-.65-.92c0-.09,0-.1,0-.12s.14-.12.42-.17l1.21-.22a5.55,5.55,0,0,1,1.23-.07,7.75,7.75,0,0,1,1.23.13c.31.06.61.12,1.2.28a9.26,9.26,0,0,1,1.15.43,9.76,9.76,0,0,1,1.09.58l.27.17,0,.05a.25.25,0,0,0,.07.26l.12.11a.48.48,0,0,1,.19.11,2.4,2.4,0,0,1,.23.21c.11.12.06.17.16.29s.12.1.21.24l.05.08-.13-.08c-.17-.12-.14-.17-.31-.29s-.21-.07-.39-.19-.16-.14-.34-.25l-.38-.2-.33-.14a.26.26,0,0,0-.15,0,.17.17,0,0,0,0,.24c.12.16.31.18.46.28l.24.15c.18.1.18.09.36.2l.34.23.33.25c.16.12.19.08.36.21l.06.05-.4-.17-.72-.27-.71-.28-.72-.28c-.36-.13-.37-.09-.73-.22l-.71-.29-.72-.27c-.35-.14-.33-.19-.69-.33s-.33-.12-.48-.17-.14,0-.15.11.21.27.34.34l.37.17a5.23,5.23,0,0,1,.5.16l.72.27c.36.14.34.2.7.34s.37.1.73.23.34.19.69.32.38.09.74.23a3.2,3.2,0,0,1,.34.15h-.09c-.13,0-.13-.07-.26-.1l-.28-.07-.23,0a.18.18,0,0,0-.1.06.2.2,0,0,0,0,.23c.09.13.23.1.35.14a.51.51,0,0,0,.19.06l.28.06.28.06.27.07c.14,0,.15,0,.29,0a1.91,1.91,0,0,1,.21.06h-.65c-.17,0-.17.05-.34,0l-.33,0-.34,0c-.16,0-.16-.06-.32-.09h-.22a.17.17,0,0,0-.07.15.2.2,0,0,0,.16.21.61.61,0,0,0,.18.05.94.94,0,0,1,.24,0l.35,0h0a5.88,5.88,0,0,1-1.11,0,9.74,9.74,0,0,1-1.71-.3,8.14,8.14,0,0,1-1.15-.39,6.27,6.27,0,0,1-1.08-.56A6.69,6.69,0,0,1,163,299.86Zm5.52,4.16c-.37.22-.55.32-.74.41l-.31.16a1.7,1.7,0,0,1-.43.16,9.1,9.1,0,0,1-1.63.35,7.7,7.7,0,0,1-1.66,0l-.81-.06-.32,0-.45-.15a2.36,2.36,0,0,1-.64-.43l-.2-.22c-.06-.1-.14-.21-.23-.38l0-.11s0,0,0-.05l.05,0,.1-.1a6.34,6.34,0,0,1,.63-.55,8.39,8.39,0,0,1,1.46-.82l1-.51.06-.07.41.21a5.81,5.81,0,0,0,1.25.46c.59.13.91.21,1.21.25-.19,0-.26.08-.55.13s-.39,0-.77.1l-.77.12c-.38.06-.39,0-.78.07s-.34.07-.5.1-.11.1-.07.17.32.13.46.12l.41,0c.17,0,.24-.07.53-.12l.76-.12c.39-.06.4,0,.78-.06s.38-.09.76-.15.4,0,.78-.07.38-.11.76-.17l.36,0c-.12.05-.11.1-.25.16s-.16,0-.31.08l-.3.11-.24.1a.24.24,0,0,0-.06.1.18.18,0,0,0,.11.21c.16.06.29,0,.42-.08l.22-.07.29-.13.3-.12.2-.08-.13.07c-.17.09-.15.14-.32.23l-.36.16-.35.16c-.18.08-.2,0-.37.12l-.24.11a.18.18,0,0,0,0,.17c.08.13.2.1.28.09l.2-.06a1.12,1.12,0,0,1,.24-.15l.35-.17a.79.79,0,0,1,.23-.07C169.16,303.65,168.85,303.85,168.55,304Zm-18.76,1.79.08,0h0Zm-.92-5.16a10.21,10.21,0,0,0,.14-2,6.56,6.56,0,0,1,.19-1,2.34,2.34,0,0,1,.13-.38l0-.12v0s0,0,0,0l.16.07a4.27,4.27,0,0,1,1.15.83,4.91,4.91,0,0,1,.87,1.15c.19.32.29.48.39.63a3.08,3.08,0,0,1,.34.67,12.69,12.69,0,0,1,.41,1.46c.12.54.16.69.22,1h-.06a.23.23,0,0,0-.16.22v.17a.53.53,0,0,1,.06.22c0,.17,0,.17,0,.33s-.06.16-.06.33,0,.16,0,.32a.49.49,0,0,1,0,.15,1.09,1.09,0,0,1-.05-.25c0-.18,0-.19,0-.38s-.08-.17-.12-.36a2.58,2.58,0,0,0,0-.38l-.08-.36-.09-.3a.24.24,0,0,0-.11-.09c-.1,0-.18.05-.21.12s0,.31.07.47a1.4,1.4,0,0,0,0,.25l.08.36.06.36h0l-.56-.75c-.08-.29-.08-.31-.17-.63s-.14-.33-.24-.67-.08-.34-.17-.69l-.2-.67c-.09-.34,0-.36-.14-.7a4.21,4.21,0,0,0-.15-.44c-.05-.06-.11-.09-.18,0s-.09.3-.07.43.05.25.08.37a3.11,3.11,0,0,1,.17.46c.09.34.1.34.2.68s0,.36.13.7a4.13,4.13,0,0,0,.17.48l-.41-.44a9.69,9.69,0,0,0-.91-.78l-1-.71-.05,0A.14.14,0,0,1,148.87,300.65Zm-3.16,1.69a8.57,8.57,0,0,1-.45-1,3.76,3.76,0,0,1-.26-1c0-.08,0-.06,0-.07a.65.65,0,0,1,.38,0l1.1.2a4.42,4.42,0,0,1,1.07.33,7.25,7.25,0,0,1,1,.51,11.06,11.06,0,0,1,.93.63,7.72,7.72,0,0,1,.84.73,10.44,10.44,0,0,1,.74.84l.16.23,0,0a.2.2,0,0,0,0,.24.59.59,0,0,0,.06.14.4.4,0,0,1,.13.15,2.06,2.06,0,0,1,.12.26c.06.13,0,.16,0,.29s.07.13.11.27v0l0-.06c-.1-.16-.06-.19-.17-.35s-.15-.13-.26-.29-.09-.18-.22-.33a3.47,3.47,0,0,0-.25-.29l-.24-.23a.22.22,0,0,0-.14,0c-.11,0-.13.14-.12.2s.2.26.29.39l.16.21.24.29.21.3a3.45,3.45,0,0,1,.2.32c.1.15.14.13.24.29h0a2.71,2.71,0,0,0-.24-.23l-.52-.46-.51-.48-.52-.47c-.25-.23-.29-.2-.55-.43s-.24-.25-.5-.48l-.52-.46c-.26-.24-.23-.27-.49-.51s-.24-.2-.35-.29-.15,0-.18.06.09.3.17.4a3.31,3.31,0,0,0,.26.27,2.28,2.28,0,0,1,.38.3c.26.23.27.22.53.46s.21.28.47.51.28.21.54.44.23.27.48.51.3.2.54.41l-.19-.13-.18-.11a.23.23,0,0,0-.11,0,.22.22,0,0,0-.1.22c0,.14.16.16.24.23l.15.12.22.13.21.15.21.15c.11.07.14,0,.24.1l.09.06-.19-.06c-.14,0-.14-.06-.28-.12s-.16,0-.3-.07-.13-.07-.27-.14l-.28-.12c-.13-.08-.11-.12-.24-.19l-.18-.08a.18.18,0,0,0-.12.12.21.21,0,0,0,.06.25l.1.07a3.88,3.88,0,0,1-.36-.15,8.2,8.2,0,0,1-1.35-.81,8,8,0,0,1-.86-.7,7.94,7.94,0,0,1-.74-.82A6.67,6.67,0,0,1,145.71,302.34Zm3.31,5.31-.76.11-.31,0a1.39,1.39,0,0,1-.41,0,7.67,7.67,0,0,1-1.5-.23,6.74,6.74,0,0,1-1.41-.5l-.67-.31a1.92,1.92,0,0,1-.6-.41,2.13,2.13,0,0,1-.4-.56l-.09-.25c0-.1-.05-.22-.07-.39v-.09s0,0,0,0l0,0L143,305c.17-.07.35-.14.71-.26a7.65,7.65,0,0,1,1.5-.22l1-.11.07,0,.27.3a5,5,0,0,0,.91.81l.84.54a2,2,0,0,1-.38-.06c-.34-.07-.34-.09-.68-.16l-.7-.14c-.34-.08-.33-.12-.68-.2l-.46-.08c-.08,0-.13.06-.12.14s.23.22.35.27l.36.1a3.13,3.13,0,0,1,.49.07c.35.07.35.06.69.14s.34.13.68.21.35,0,.7.11.33.13.68.2.36,0,.7.1l.18,0,.07,0a.43.43,0,0,1-.19,0c-.15,0-.15,0-.29,0h-.52a.15.15,0,0,0-.09.07.19.19,0,0,0,0,.24c.11.11.25.05.38.07h.74a.57.57,0,0,1-.24.07c-.17,0-.17,0-.35,0l-.35,0c-.18,0-.18,0-.36,0l-.23,0a.16.16,0,0,0,0,.16.22.22,0,0,0,.21.18l.19,0a1,1,0,0,1,.25-.05l.36,0h.07Zm-61.16-9.81.08,0h0Zm-.92-5.16a10.16,10.16,0,0,0,.14-2,6.15,6.15,0,0,1,.19-1c0-.17.09-.29.13-.39l.06-.12h0s0,0,0,0l.15.07a4.12,4.12,0,0,1,1.15.83,5.54,5.54,0,0,1,.88,1.16c.19.31.28.47.39.63a3.94,3.94,0,0,1,.34.67,14.1,14.1,0,0,1,.4,1.45c.13.54.16.69.22,1H91a.21.21,0,0,0-.15.22,1,1,0,0,0,0,.17,1.62,1.62,0,0,1,.06.22c0,.17,0,.17,0,.33s-.06.17,0,.33,0,.16,0,.33a.19.19,0,0,1,0,.08h0a.6.6,0,0,1,0-.18c0-.19,0-.2,0-.38s-.08-.18-.11-.37,0-.19,0-.37,0-.19-.09-.37l-.09-.3a.2.2,0,0,0-.11-.09c-.1,0-.18.05-.21.12s0,.32.07.47l0,.26a3.59,3.59,0,0,1,.08.35l.06.36h0l-.55-.75c-.09-.29-.08-.31-.17-.63s-.15-.33-.24-.67-.08-.34-.18-.68-.1-.34-.2-.68,0-.35-.14-.7-.1-.3-.15-.44-.11-.09-.18,0-.09.3-.07.44.06.24.08.36a3.11,3.11,0,0,1,.17.46l.2.68c.09.34,0,.36.13.7a3.54,3.54,0,0,0,.17.48c-.16-.18-.29-.31-.41-.43a9.42,9.42,0,0,0-.91-.79l-1-.71,0,0A.14.14,0,0,0,86.94,292.68Zm-3.16,1.69c-.12-.25-.25-.49-.45-1a4.26,4.26,0,0,1-.25-1c0-.08,0-.07,0-.08a.68.68,0,0,1,.39,0l1.09.2a5,5,0,0,1,1.08.33,8.69,8.69,0,0,1,1,.51c.23.15.48.3.92.63a9,9,0,0,1,.84.73,10.44,10.44,0,0,1,.74.84,2.29,2.29,0,0,0,.17.23l0,0a.21.21,0,0,0,0,.25l.06.13a.5.5,0,0,1,.13.15l.13.26c0,.13,0,.16,0,.29s.08.13.11.27v0a.43.43,0,0,1,0-.07c-.11-.16-.06-.19-.17-.35s-.16-.13-.27-.28-.09-.18-.21-.33l-.26-.3-.24-.23a.32.32,0,0,0-.14,0c-.11,0-.13.14-.12.21s.2.26.29.38l.16.21.24.29.21.3c.11.16.1.16.2.32s.14.13.24.29h0l-.25-.23-.52-.46-.51-.47-.51-.48c-.26-.23-.29-.19-.55-.43s-.25-.24-.51-.48l-.52-.46c-.26-.24-.23-.27-.49-.5a4.53,4.53,0,0,0-.35-.3.14.14,0,0,0-.18.06c-.06.14.09.3.18.4s.17.18.25.27a3,3,0,0,1,.38.3l.53.46c.26.23.21.28.47.51s.29.21.55.44.22.28.48.51.29.2.53.41l-.19-.13-.18-.11a.23.23,0,0,0-.11,0,.24.24,0,0,0-.1.22c0,.15.16.16.25.24a.8.8,0,0,0,.14.11l.22.14.21.14.21.15c.11.07.14,0,.25.1l.08.06-.18-.06a2.36,2.36,0,0,1-.28-.12c-.15-.05-.16,0-.31-.06a2.29,2.29,0,0,0-.27-.14l-.27-.13c-.14-.07-.12-.11-.25-.19l-.18-.08a.18.18,0,0,0-.12.12.21.21,0,0,0,.06.25l.1.07-.36-.14a9.48,9.48,0,0,1-1.35-.82,6.67,6.67,0,0,1-.85-.7,5.06,5.06,0,0,1-.74-.82A7.38,7.38,0,0,1,83.78,294.37Zm3.31,5.31-.76.11-.31,0a1.75,1.75,0,0,1-.41,0,8.52,8.52,0,0,1-1.5-.24,6.74,6.74,0,0,1-1.41-.5l-.67-.31a2.06,2.06,0,0,1-1-1l-.1-.25c0-.1,0-.22-.07-.38v-.09s0,0,0,0l0,0,.12,0a6.51,6.51,0,0,1,.72-.27,6.86,6.86,0,0,1,1.49-.21l1-.11.07,0,.26.3a5.39,5.39,0,0,0,.91.81c.39.26.63.41.85.54A2.63,2.63,0,0,1,86,298l-.69-.17-.69-.14c-.35-.07-.34-.12-.69-.2l-.46-.08c-.07,0-.13.06-.12.15s.23.22.36.26l.35.1a2.85,2.85,0,0,1,.49.07l.7.14c.34.07.33.14.67.21s.36,0,.7.11.34.13.68.2.36,0,.71.1l.17,0,.07,0a.43.43,0,0,1-.19.05c-.14,0-.14,0-.29,0h-.52a.22.22,0,0,0-.09.08.19.19,0,0,0,0,.23c.12.11.26.06.38.07l.21,0,.29,0h.25a1.46,1.46,0,0,1-.24.07h-.36l-.35,0c-.18,0-.18,0-.36,0l-.23,0a.19.19,0,0,0,0,.16.21.21,0,0,0,.21.18.62.62,0,0,0,.19,0,1.09,1.09,0,0,1,.25-.05l.36,0h.08ZM108.17,297a14.77,14.77,0,0,0-1.92-1.35,8.55,8.55,0,0,1-.9-.83,2.93,2.93,0,0,1-.32-.38l-.13-.2s0,0,0,0l.22-.15a5,5,0,0,1,.76-.39,8,8,0,0,1,.81-.26,6.57,6.57,0,0,1,1.72-.16h.88a3.75,3.75,0,0,1,.88.09,14.7,14.7,0,0,1,1.72.5,14.4,14.4,0,0,1,1.45.53.39.39,0,0,0,0,.09c0,.14.07.2.12.25l.16.09a1.33,1.33,0,0,1,.24.08c.16.09.17.08.32.17s.12.14.27.24a1.87,1.87,0,0,1,.31.17c.15.1.11.14.25.25a.32.32,0,0,0,.13.08H115a.59.59,0,0,0-.18-.13c-.19-.1-.21-.06-.41-.16s-.18-.14-.38-.23-.23,0-.43-.12-.2-.11-.41-.18l-.42-.15-.35-.09a.26.26,0,0,0-.15,0c-.1.06-.06.18,0,.24s.35.15.52.22l.29.11.4.14.4.17a.85.85,0,0,1,.19.09c-.38,0-.67,0-1.25.08l-.79-.23c-.4-.12-.41-.07-.81-.19s-.4-.13-.8-.25l-.8-.22c-.4-.12-.39-.16-.79-.28s-.37-.09-.54-.13-.15,0-.14.12.26.25.4.31l.42.15c.19,0,.27,0,.57.12l.8.23c.4.11.38.17.78.29s.42.08.78.19c-.38.05-.63.11-.88.16a11.14,11.14,0,0,0-1.34.42l-1.31.53-.09.05Zm-2.56,3.15c.44-.5.66-.74.89-1a6.46,6.46,0,0,1,1-.87,8.8,8.8,0,0,1,1.14-.68,12.3,12.3,0,0,1,1.21-.55,9.78,9.78,0,0,1,1.26-.38,10.31,10.31,0,0,1,1.32-.22l.33,0a.38.38,0,0,0,0,.1.22.22,0,0,0,.23.15h.19a1,1,0,0,1,.25-.05l.35,0c.18,0,.18.07.36.07h.14l.4.12h0c-.23,0-.22.05-.44.08s-.23,0-.45,0-.21.08-.43.12-.22,0-.44.05l-.44.09-.35.1a.38.38,0,0,0-.11.11.16.16,0,0,0,.12.21c.2.06.38-.05.56-.08l.3-.05.42-.09.43-.06c.21,0,.21,0,.43,0s.21-.07.42-.09h.43l.43,0c.22,0,.22.05.43.06h0l-.08.05a.2.2,0,0,0-.15,0l-.15,0-.07.06-.42.11-.58.14-.81.22-.8.21-.81.21c-.4.11-.39.16-.79.26l-.81.2c-.41.11-.4.12-.81.22s-.41.07-.81.17l-.53.16c-.07.06-.11.12-.06.19s.35.08.5.05.29-.06.43-.09.26-.1.56-.18l.8-.22c.4-.11.42-.05.82-.16s.39-.14.8-.25.41-.06.82-.16l.25-.08,0,0a.14.14,0,0,0,0,.11.18.18,0,0,0,.13.19c.16.05.26-.06.39-.1l.2-.08.27-.13.28-.13c.14-.06.14,0,.28-.12s.12-.11.26-.17a2.33,2.33,0,0,1,.28-.11h0l0,0L115,298l-.29.21c-.14.11-.11.15-.26.26a3.14,3.14,0,0,1-.31.18l-.3.2c-.15.09-.18.05-.33.14a1.76,1.76,0,0,0-.2.13.16.16,0,0,0,0,.16.23.23,0,0,0,.28.07l.18-.08a1.37,1.37,0,0,1,.2-.16l.31-.2a.45.45,0,0,1,.14-.07,6.68,6.68,0,0,1-1,.81,11,11,0,0,1-1.66.85,8.12,8.12,0,0,1-1.24.42,7.91,7.91,0,0,1-1.29.24,8.84,8.84,0,0,1-1.31,0,9.82,9.82,0,0,1-1.3-.18,4.64,4.64,0,0,1-1.16-.36c-.09-.06-.09-.08-.1-.13A.84.84,0,0,1,105.61,300.1Zm2.1,2.25s-.37-.23-.77-.45a7.13,7.13,0,0,0,.94.06c.35,0,.71,0,1.42-.1l.17,0c-.11.14-.21.3-.29.42a5.83,5.83,0,0,0-.37.7Zm7.65-1.2c-.18.41-.27.62-.37.83l-.16.33a2.42,2.42,0,0,1-.26.42,7,7,0,0,1-.56.71,8.54,8.54,0,0,1-.61.66,8.68,8.68,0,0,1-1.39,1.11c-.18.13-.33.21-.44.29s-.2.14-.3.19l-.31.17a3.67,3.67,0,0,1-.48.17,2.57,2.57,0,0,1-.83.05l-.33-.06c-.11,0-.26-.09-.44-.17l-.11-.07h0l0,0v-.11l0-.15c0-.23.07-.45.18-.89a4.43,4.43,0,0,1,.19-.56l.26.16a2.56,2.56,0,0,0,.64.22c.42.06.25-.3,0-.55a5,5,0,0,0-.6-.5l.21-.42.53-1.09v-.11l.51-.1a5.84,5.84,0,0,0,1.36-.41,12.74,12.74,0,0,0,1.28-.63l0,0c-.23.25-.22.3-.49.58s-.31.29-.6.59l-.57.6c-.29.3-.32.27-.61.57a4.78,4.78,0,0,0-.37.41.13.13,0,0,0,0,.19c.14.06.34-.12.46-.22a3.06,3.06,0,0,0,.32-.3c.13-.14.17-.22.38-.44l.58-.61c.29-.3.33-.25.62-.55s.26-.33.55-.63.33-.26.62-.56.25-.34.54-.64l0,0v0l-.18.25-.13.21a.17.17,0,0,0,0,.12.21.21,0,0,0,.22.1c.15,0,.19-.19.27-.29l.14-.17.16-.26a2.2,2.2,0,0,0,.17-.25c.09-.12.1-.12.18-.24s0-.16.13-.28.1-.12.19-.25h0l0,.06-.12.34c-.06.17-.07.17-.13.33s0,.19-.1.36-.09.15-.17.31l-.15.33c-.09.16-.13.13-.22.29s-.07.15-.1.21a.17.17,0,0,0,.11.13.24.24,0,0,0,.27-.09.91.91,0,0,0,.11-.16,1.8,1.8,0,0,1,.1-.24l.16-.33v0C115.72,300.2,115.54,300.69,115.36,301.15Zm17.27,17.13c-.3-.49-.86-.74-1.23-1.11a5.43,5.43,0,0,1-.57-.63c-.09-.12-.14-.2-.19-.28l0-.05s0,0,.09-.08A2.35,2.35,0,0,0,131,316a1.44,1.44,0,0,1,.23-.07,3.24,3.24,0,0,1,.58-.13,4.32,4.32,0,0,1,1.19,0l.61.05a2.31,2.31,0,0,1,.62.1c.59.2.58.23,1.16.47l.8.37a.19.19,0,0,0,0,.23.48.48,0,0,0,.11.09.6.6,0,0,1,.18.07l.24.14a.29.29,0,0,1,.09.11c-.14-.08-.16,0-.3-.1s-.13-.11-.27-.17L136,317l-.25-.09a.19.19,0,0,0-.11,0,.19.19,0,0,0,0,.24c.08.14.23.14.34.2l.2.11.27.12.12.07h-.64l-.46-.2c-.28-.11-.3-.06-.57-.17l-.55-.23-.55-.21c-.27-.11-.26-.15-.53-.26l-.37-.13a.14.14,0,0,0-.13.13c0,.14.15.23.24.29l.29.14a1.84,1.84,0,0,1,.39.11l.55.21c.28.11.26.17.53.28l.22.07-.3,0a6.86,6.86,0,0,0-1,.21l-1,.28h0Zm4.47-.63,0,0a.51.51,0,0,1,.13.08h0Zm.36,3.29,0,0Zm-6.21.06a3.29,3.29,0,0,1-.75-.31,0,0,0,0,1,0,0l0,0a.8.8,0,0,1,.14-.17l.68-.63a3.52,3.52,0,0,1,.75-.55,5.19,5.19,0,0,1,.85-.4c.22-.08.44-.17.88-.3a5.78,5.78,0,0,1,.9-.18,5.84,5.84,0,0,1,.93-.07h.25a.25.25,0,0,0,.13.15l.12,0a.44.44,0,0,1,.17,0,1.57,1.57,0,0,1,.23,0,.29.29,0,0,1,.13.09h0c-.16,0-.16,0-.32,0s-.17,0-.33,0l-.33,0-.27,0a.18.18,0,0,0-.09.1.18.18,0,0,0,.09.22c.14.08.27,0,.4,0a1.46,1.46,0,0,0,.22,0h.62l.23,0-.45.09-.57.1-.58.1c-.29,0-.28.1-.56.16s-.29,0-.58.09l-.57.11c-.29.06-.3,0-.59.06l-.37.09a.14.14,0,0,0,0,.18c.06.13.25.12.36.12l.3,0a3.93,3.93,0,0,1,.4-.11l.57-.11c.28-.06.3,0,.58,0s.28-.09.57-.14.3,0,.58-.06l.17,0s0,0,0,.05a.26.26,0,0,0,.1.21c.12.07.2,0,.29,0a.54.54,0,0,0,.15,0l.2-.08.2-.06.08,0c-.08.06-.07.1-.17.16l-.23.11-.23.12c-.11.05-.13,0-.25.06a.43.43,0,0,0-.14.08.2.2,0,0,0,0,.16.17.17,0,0,0,.11.11l-.12.07a7.36,7.36,0,0,1-1.22.48,5.49,5.49,0,0,1-.89.21,5.27,5.27,0,0,1-.91.08A5.5,5.5,0,0,1,131.25,321Zm5.73,1.28-.13.22a1.33,1.33,0,0,1-.21.27,6.72,6.72,0,0,1-.9.87,5.63,5.63,0,0,1-1,.68l-.54.29a1.41,1.41,0,0,1-.56.2,1.83,1.83,0,0,1-.56,0l-.21-.07-.25-.12s-.08,0-.06-.07,0,0,0-.1a5.23,5.23,0,0,1,.19-.61,5.89,5.89,0,0,1,.62-1.09l.43-.73V322l.3,0a4.14,4.14,0,0,0,1-.2l.6-.21-.08.07c-.22.19-.23.18-.46.37l-.44.39c-.23.2-.26.16-.48.35l-.29.27a.16.16,0,0,0,.05.18c.13.08.28,0,.38-.09a2.27,2.27,0,0,0,.25-.18,1.94,1.94,0,0,1,.29-.29l.44-.4c.23-.19.27-.14.49-.33s.2-.22.43-.42.26-.15.48-.34a3.05,3.05,0,0,0,.27-.28l.19-.14c-.06.07-.09.06-.15.15l-.15.19-.12.16a.2.2,0,0,0,0,.1.2.2,0,0,0,.2.12c.15,0,.17-.13.25-.21l.09-.1h0l-.15.25c-.09.12-.12.1-.21.22a.82.82,0,0,0-.1.17.18.18,0,0,0,.11.12.17.17,0,0,0,.23,0C137.12,322.05,137.05,322.16,137,322.28Zm17.31-3.1a12.69,12.69,0,0,0-2-1,9.38,9.38,0,0,1-1-.63,4.09,4.09,0,0,1-.34-.29l-.11-.12s0,0,0,0,0,0,0,0l.16-.15a5.68,5.68,0,0,1,.64-.47,4.4,4.4,0,0,1,.7-.35,5.55,5.55,0,0,1,1.55-.41l.81-.12a4,4,0,0,1,.82-.06,13,13,0,0,1,1.65.2c.74.13.82.14,1.42.27a.14.14,0,0,0,0,.07.21.21,0,0,0,.14.22l.16.07a1.11,1.11,0,0,1,.23,0c.16.06.17,0,.32.1s.13.12.28.19.17,0,.32.11.12.12.26.2l0,0h0a.59.59,0,0,0-.16-.08c-.2-.06-.21,0-.41-.08s-.18-.11-.38-.16-.22,0-.42,0-.19-.08-.4-.12l-.4-.07-.34,0a.35.35,0,0,0-.14.06c-.08.08,0,.19,0,.24s.34.09.51.13l.28.06.39.07.39.1.12,0c-.32.06-.58.13-1.08.26-.35-.05-.36-.06-.74-.1s-.39,0-.78-.05-.38-.06-.77-.1l-.77-.09c-.38-.05-.38-.1-.76-.14s-.36,0-.52-.05-.13.07-.11.16.27.2.42.23l.4.07c.18,0,.25,0,.54,0l.77.09c.39,0,.38.11.76.15s.39,0,.67.05l-.71.26a9.64,9.64,0,0,0-1.18.59c-.57.33-.84.51-1.12.68l-.07.05Zm1.59,3.71a7.29,7.29,0,0,1-1.2.22,8.32,8.32,0,0,1-1.22,0,4,4,0,0,1-1.11-.15c-.08,0-.08-.06-.09-.09a.78.78,0,0,1,.16-.42l.68-1a5.35,5.35,0,0,1,.79-.94,8,8,0,0,1,1-.8,11.65,11.65,0,0,1,1-.68,8,8,0,0,1,1.1-.54,9.92,9.92,0,0,1,1.17-.4l.31-.07a.14.14,0,0,0,0,.06.22.22,0,0,0,.24.12l.17,0a.87.87,0,0,1,.21-.09c.17,0,.16-.05.33-.07s.17,0,.33,0l.13,0,.32,0c-.14,0-.16.07-.34.12s-.21,0-.41.07-.18.11-.38.17-.21,0-.4.11l-.38.15-.31.15a.2.2,0,0,0-.08.12c0,.11.07.18.14.19s.34-.1.5-.15l.28-.09.37-.15.38-.12.39-.1c.19-.05.18-.1.37-.15l.4-.06.39-.08c.19,0,.21,0,.37,0l0,0h0a.21.21,0,0,0-.14,0,.52.52,0,0,0-.13.06.34.34,0,0,0-.06.06l-.37.17-.51.21c-.36.16-.35.17-.71.32l-.71.32-.71.31c-.35.16-.33.2-.69.36l-.71.31-.71.32c-.35.16-.37.12-.73.28l-.46.22c-.05.07-.08.13,0,.19s.34,0,.48,0,.25-.1.38-.15.22-.13.48-.25l.71-.33c.35-.16.38-.1.73-.26s.34-.19.69-.35.38-.11.73-.27l.17-.08a.19.19,0,0,0,0,.08.2.2,0,0,0,.16.18c.15,0,.23-.1.34-.16a.91.91,0,0,0,.18-.09l.23-.17.23-.16a1.94,1.94,0,0,0,.24-.15c.12-.08.09-.12.21-.2l.19-.11-.21.24-.24.24c-.11.12-.08.15-.2.27s-.13.11-.25.22l-.25.22c-.13.11-.16.07-.29.18a1.23,1.23,0,0,0-.16.15.17.17,0,0,0,.06.15.2.2,0,0,0,.27,0,1.29,1.29,0,0,0,.16-.09.79.79,0,0,1,.16-.18l.25-.24h0a6.9,6.9,0,0,1-.73.79,10.08,10.08,0,0,1-1.4,1,7.41,7.41,0,0,1-1.08.57A7,7,0,0,1,155.88,322.89Zm5.62-.92c-.1.41-.16.61-.22.82l-.09.32a2.68,2.68,0,0,1-.18.43,9.1,9.1,0,0,1-.87,1.43A8.12,8.12,0,0,1,159,326.2l-.6.54-.26.21a2.46,2.46,0,0,1-.41.22,2,2,0,0,1-.75.17h-.3l-.43-.1-.12,0s0,0,0-.05V327c0-.21,0-.42,0-.84a8.37,8.37,0,0,1,.41-1.62l.32-1.07s0-.07,0-.1l.44-.16a6.09,6.09,0,0,0,1.19-.58c.5-.34.77-.52,1-.71-.1.16-.12.24-.29.49s-.23.31-.45.63l-.44.64c-.22.32-.26.29-.48.61s-.19.3-.28.43,0,.16.08.18.31-.15.4-.26.17-.22.25-.32.12-.23.28-.47l.44-.64c.22-.32.27-.28.49-.6s.19-.34.41-.66.27-.29.49-.61.19-.34.33-.55a.3.3,0,0,0,0,.1l-.1.21a.15.15,0,0,0,0,.11.2.2,0,0,0,.23.07c.14-.06.15-.2.21-.31a1.24,1.24,0,0,0,.1-.17c.06-.13.05-.13.11-.26l.13-.26c0-.13.06-.12.12-.25s0-.15.08-.28a1.09,1.09,0,0,1,.1-.19l-.06.31c0,.16,0,.16-.08.33s0,.17,0,.33-.05.16-.1.32l-.1.32c-.05.16-.1.14-.16.3s0,.15-.06.21a.16.16,0,0,0,.14.1.21.21,0,0,0,.24-.11.6.6,0,0,0,.08-.16,1.73,1.73,0,0,1,.05-.24v0C161.62,321.42,161.56,321.7,161.5,322Zm12.86-14.08a6.93,6.93,0,0,1-.34-.68c-.07-.18-.14-.36-.25-.72a1.24,1.24,0,0,1-.12-.62c0-.09.09-.16.09-.14a.7.7,0,0,1,.21.11l.24.18a3,3,0,0,1,.56.52,7.71,7.71,0,0,1,.84,1.29c.18.34.26.51.34.69a4.28,4.28,0,0,1,.25.7,5.14,5.14,0,0,1,.1.78,1.1,1.1,0,0,0,0,.18,3.92,3.92,0,0,1-.32-.25c0-.05-.42-.43-.74-.8A6.79,6.79,0,0,1,174.36,307.89ZM167,312.18c4.6-.05,6.9-.11,9.2-.21,1.73-.1,3.47-.19,6.2-.29-.38.07-.84.16-1.51.31-2.09.45-2.06.57-4.14,1.1s-2.07.52-4.11,1.18c-1,.32-1.53.49-2,.68s-1,.35-2,.73c-2,.77-2,.67-4,1.52-1.21.51-1.66.76-2.28,1.06l0,0a.52.52,0,0,0,0-.19c-.06-.15-.1-.14-.17-.29s0-.17-.11-.32-.13-.11-.23-.25-.06-.16-.17-.29l-.23-.25-.14-.12-.12-.17a1.69,1.69,0,0,0-.35-.36.89.89,0,0,0-.25-.16c-.1-.05-.2-.07-.26-.1-.38-.08-.55-.08-1.17-.24a16,16,0,0,0-1.7-.33,13.72,13.72,0,0,0-1.72-.3h-.21c.57-.18.86-.31,1.87-.57,1.43-.38,1.45-.3,2.89-.67s1.43-.37,2.87-.74l2.36-.62.16-.07Zm-5.47,0,1.17,0-.69.18c-.12,0-1.14.26-2,.49-1.43.38-1.43.39-2.87.76l-2.86.74c-1.44.37-1.44.35-2.88.72s-1.41.47-2.84.85-1.44.34-2.87.71-1.44.38-2.87.76-1.46.28-2.89.65l-1.29.35a.6.6,0,0,1-.08-.13c0-.12,0-.13-.07-.25a1,1,0,0,0-.12-.23l0-.06a1,1,0,0,0-.08-.21,1.26,1.26,0,0,0-.19-.36,1.12,1.12,0,0,0-.35-.31c-.26-.13-.39-.15-.82-.39a13.17,13.17,0,0,0-1.2-.57,11.26,11.26,0,0,0-1.21-.58,2.92,2.92,0,0,0-.67-.13l-.67-.08h0c1-.29,1.28-.44,2.77-.83,1.91-.51,1.93-.43,3.85-.94l3.82-1,2.29-.62,2.13.06-.12.09a3.82,3.82,0,0,0-.56.58c-.13.16-.18.24-.24.32l-.09.14-.05.09a1.05,1.05,0,0,0-.08.18.68.68,0,0,0,0,.47.61.61,0,0,0,.18.24.52.52,0,0,0,.23.1.74.74,0,0,0,.65-.27c.27-.26.2-.33.46-.6s.27-.26.51-.54.23-.3.45-.6l0,0,0,0a.24.24,0,0,0,.08-.09c4.07.14,6.23.16,8.4.25Zm-57.1-2.82a10.32,10.32,0,0,0-1.4.83,12.31,12.31,0,0,0-1.36.9l-.56.51a1.25,1.25,0,0,1-.57.31.69.69,0,0,1-.56-.11.48.48,0,0,1-.2-.33,1,1,0,0,1,.09-.47,1.11,1.11,0,0,1,.47-.45,12.1,12.1,0,0,1,1.42-.6,16.59,16.59,0,0,1,2.69-.79,1.47,1.47,0,0,0,.45-.23.19.19,0,0,0,.06-.07l.34,0C105,309,104.86,309.11,104.4,309.34Zm-14.89-3.57a2.08,2.08,0,0,1-.54-.29,4.55,4.55,0,0,1-.64-.6c-.28-.34-.18-.42-.4-.78l-.2-.34a.43.43,0,0,1-.07-.29c0-.11.09-.12.13-.12l.21,0a.92.92,0,0,1,.26.05.61.61,0,0,1,.31.21,6.22,6.22,0,0,1,.43.76,5.68,5.68,0,0,1,.39.78c.13.32.16.4.23.62l-.11,0ZM58.32,295.31a1.55,1.55,0,0,0,0,.15,2.17,2.17,0,0,1-.12-.23.83.83,0,0,1-.08-.18Zm.86,2.91h0Zm-.16-.28a.61.61,0,0,0,.07.14.69.69,0,0,1-.12-.19l0-.07s0-.09,0-.14v-.07h0C59,297.71,59,297.8,59,297.94Zm.15-.84a2.81,2.81,0,0,1-.08-.31h0a.54.54,0,0,1,.07.13l.06.18Zm-4.81-6.74a22.85,22.85,0,0,0,.13-2.74,10.06,10.06,0,0,1,.26-1.42c.07-.24.14-.41.19-.56s.1-.22.15-.31,0,0,0,0l.35.15c.22.11.38.22.52.29a2.5,2.5,0,0,1,.34.23,6.76,6.76,0,0,1,.77.66,6.94,6.94,0,0,1,1.23,1.61l.53.89a5.22,5.22,0,0,1,.45.94,15.55,15.55,0,0,1,.58,2c.24,1,.24,1,.42,2.08a7.41,7.41,0,0,1,.09,1.06l0,.44a1.56,1.56,0,0,1,0,.2,1.73,1.73,0,0,1-.05.24,2.83,2.83,0,0,1-.14.35c0-.06,0-.12,0-.24s0-.23,0-.46,0-.24,0-.47a3.68,3.68,0,0,0,0-.47c0-.23,0-.23,0-.46s0-.24,0-.48a1.94,1.94,0,0,0-.07-.3.15.15,0,0,0-.17,0,.27.27,0,0,0-.14.29c0,.08,0,.16,0,.24a2.13,2.13,0,0,1,.07.31c0,.22,0,.22,0,.45s0,.23,0,.45,0,.23,0,.46-.07.22-.08.44,0,.23,0,.46v0a2.34,2.34,0,0,0-.09-.24.85.85,0,0,0,0-.3c0-.26-.06-.26-.09-.51s0-.27,0-.52-.09-.25-.13-.51,0-.26-.07-.51l-.12-.51-.12-.41a.34.34,0,0,0-.12-.12c-.11-.07-.19,0-.21.13a1.87,1.87,0,0,0,.12.65l.06.35c.06.24.06.24.11.49s0,.25.08.5a4.24,4.24,0,0,1,0,.44c-.29-.45-.49-.73-.92-1.32l0,0c-.13-.47-.12-.47-.25-.94s-.18-.46-.31-.93-.12-.47-.25-.94-.14-.47-.27-.94-.09-.48-.22-.95-.13-.43-.19-.62-.13-.12-.19-.07-.07.4,0,.59.08.33.12.49.11.3.21.65l.28.94c.13.47.07.48.2,1s.17.46.3.93l0,.13c-.34-.42-.58-.66-.81-.9a13.61,13.61,0,0,0-1.24-1.08c-.66-.49-1-.71-1.34-.95l-.11-.08S54.34,290.42,54.36,290.36ZM50,292.76a14,14,0,0,1-.63-1.41A5.63,5.63,0,0,1,49,290c0-.14,0-.18.1-.23a1,1,0,0,1,.64,0c.76.13,1.14.22,1.52.3a8,8,0,0,1,1.49.48,10.77,10.77,0,0,1,1.4.71,14,14,0,0,1,1.29.86,11.66,11.66,0,0,1,1.17,1,13,13,0,0,1,1,1.17c.11.15.21.28.29.41l0,0a.15.15,0,0,0-.15.07.27.27,0,0,0,0,.3,1.62,1.62,0,0,0,.1.18,1.21,1.21,0,0,1,.17.22,4,4,0,0,1,.17.36c.08.19,0,.21.07.4s.09.19.14.39a.54.54,0,0,1,0,.25l-.18-.25c-.14-.22-.1-.25-.25-.47s-.2-.19-.35-.41-.13-.23-.31-.44l-.35-.4-.32-.31a.35.35,0,0,0-.17-.06c-.13,0-.14.14-.11.22s.29.35.42.52l.23.29a4.39,4.39,0,0,1,.33.4l.3.42c.14.21.13.22.27.44s.18.19.32.41.12.22.18.33l-.09-.08s-.27-.27-.5-.48l-.72-.64-.72-.64-.71-.65c-.36-.32-.4-.28-.76-.6l-.7-.65-.72-.64c-.36-.32-.32-.36-.68-.69s-.33-.29-.48-.42-.17,0-.2,0,.16.38.28.51.24.24.36.36.25.19.52.43L54,294c.36.32.31.37.67.69s.39.29.75.61.32.36.68.68.4.28.76.6.32.31.48.47c-.12-.07-.16,0-.29-.13s-.13-.13-.28-.23l-.3-.2-.25-.15a.28.28,0,0,0-.13,0,.18.18,0,0,0-.09.22c.06.17.23.21.35.31l.2.15.3.19.3.2c.15.1.14.11.29.2s.18.06.33.16l.29.21.19.12-.28-.08-.4-.14-.39-.15c-.19-.08-.21,0-.41-.11l-.38-.19L56,297.2c-.19-.1-.16-.14-.35-.24a2.07,2.07,0,0,0-.25-.13.17.17,0,0,0-.13.12.25.25,0,0,0,.12.28l.19.13c.09,0,.14,0,.28.11l.4.18c.19.1.17.15.36.24l.07,0a8.42,8.42,0,0,1-1.75-.61A11.21,11.21,0,0,1,53,296.18a9.29,9.29,0,0,1-1.19-1,8.26,8.26,0,0,1-1-1.15,6.57,6.57,0,0,1-.52-.75C50.15,293.09,50,292.93,50,292.76Zm-4,3.55.3-.13c.25-.1.49-.21,1-.37a5.39,5.39,0,0,1,1-.22l1-.12,1.42-.14a.84.84,0,0,0,.14-.06c.15.18.29.33.42.47a8.33,8.33,0,0,0,1.25,1.09,15.61,15.61,0,0,0,1.41.87l.44.21-.35-.07c-.47-.11-.48-.06-1-.16s-.47-.12-1-.22l-1-.2c-.47-.1-.46-.15-.94-.25l-.64-.12c-.1,0-.17.05-.15.14s.33.24.51.29l.49.13c.22,0,.32,0,.67.11l1,.2c.48.1.46.16.94.26s.48.07,1,.17.47.16.94.26.49.05,1,.15.47.14.93.24h-.06c-.2,0-.21-.05-.41,0s-.19.06-.39.07-.21,0-.4,0h-.73a.23.23,0,0,0-.12.08.15.15,0,0,0,0,.23c.16.11.36.06.53.07a1.72,1.72,0,0,0,.28,0h1.21c.2,0,.2,0,.4-.06s.2,0,.4,0h.09l-.23.05-.48.08-.49.06c-.24,0-.24.08-.48.11l-.49,0-.49,0c-.24,0-.24,0-.49,0a2.33,2.33,0,0,0-.32,0,.15.15,0,0,0-.06.17c0,.14.19.16.28.17a1.23,1.23,0,0,0,.27,0,1.92,1.92,0,0,1,.34-.05l.5-.05c.25,0,.25,0,.5,0s.24-.07.49-.1h.2a4.11,4.11,0,0,1-.57.17c-.09,0-.82.19-1.49.31s-.79.12-1.05.14l-.43.05-.26,0-.34,0a7.3,7.3,0,0,1-1.05-.12,9.17,9.17,0,0,1-1-.2,9.7,9.7,0,0,1-2-.7c-.24-.1-.41-.19-.55-.26a3.35,3.35,0,0,1-.38-.19c-.11-.06-.23-.12-.37-.21s-.28-.21-.46-.38a3.22,3.22,0,0,1-.58-.81c0-.11-.09-.22-.14-.36a4.15,4.15,0,0,1-.1-.56v-.22S45.94,296.31,46,296.31Z" transform="translate(-45.32 -284.39)"/><path class="cls-1" d="M452,296.16a1.92,1.92,0,0,0,0-.24l-.2-.09-.5-.22c-.25-.1-.51-.21-1-.38-.8-.24-1-.32-1.51-.43a7.7,7.7,0,0,0-1.17-.1,4.35,4.35,0,0,0-.7,0l.2-.26c.51-.65.71-1,.95-1.35a8.4,8.4,0,0,0,.74-1.49c.14-.39.21-.7.28-.95a2.59,2.59,0,0,0,.09-.74,1,1,0,0,0-.45-.84,1.66,1.66,0,0,0-1.17-.14c-.81.14-1.21.24-1.61.33a9.19,9.19,0,0,0-1.56.52,7.47,7.47,0,0,0-.79.38c0-.07,0-.14,0-.2,0-.72,0-.84,0-1.79a10.16,10.16,0,0,0-.08-1.11,7.54,7.54,0,0,0-.21-1.11,4.1,4.1,0,0,0-.23-.64c0-.09-.09-.16-.12-.23s-.06-.11-.14-.22l-.2-.31-.11-.16s0,0,0,0l-.05,0-.1,0-.79.36c-.26.12-.43.23-.59.31a3.81,3.81,0,0,0-.41.22,4.12,4.12,0,0,0-.89.69,7.55,7.55,0,0,0-1.29,1.82c-.29.48-.42.72-.56,1a6.7,6.7,0,0,0-.46,1,17.66,17.66,0,0,0-.51,2.12c-.25,1.06-.25,1.06-.44,2.13-.11.79-.18,1-.26,1.47,0,.08,0,.21,0,.34a2,2,0,0,0,.06.35,2.46,2.46,0,0,0,.25.57,1.09,1.09,0,0,0,.08.15l0,.07c-1.29,0-1.3.1-2.61.17l-1.32.12a11.45,11.45,0,0,0-1.32.16c-1.31.18-1.3.25-2.6.5s-1.31.2-2.58.58c-.64.18-.95.31-1.26.42s-.63.21-1.25.46c-1.23.49-1.23.5-2.43,1.05-.6.28-.89.45-1.19.59s-.6.3-1.17.63c-.75.41-1.5.95-1.6,1-.47.3-1,.63-1.43,1a6.72,6.72,0,0,0-1.19,1.05l-1.85.31-3.57.53.28-.29a5.68,5.68,0,0,0,.55-.83l.26-.46a.93.93,0,0,0,.11-.64.9.9,0,0,0-.43-.65,1.13,1.13,0,0,0-.7-.14,1.24,1.24,0,0,0-.61.23,1.89,1.89,0,0,0-.41.38,5.49,5.49,0,0,0-.58.81,3.23,3.23,0,0,0-.3.64,2,2,0,0,0-.31,1.22.05.05,0,0,1,0,0l-3.39.46c-4.56.57-6.84.77-9.12,1l-3.71.4-5.42.5-5.43.5c-1.43.14-2.57.21-3.72.3-2.28.17-4.57.38-9.15.67-6.71.33-8.51.35-12.59.43.55-.41.83-.58,1.76-1.26,1.33-.9,1.31-.93,2.66-1.79s1.32-.92,2.7-1.76,1.44-.72,2.85-1.48,1.37-.85,2.81-1.56,1.49-.62,3-1.28,1.42-.76,2.92-1.35,1.51-.55,3-1.1c1.13-.38,1.43-.45,2.15-.64l1.6-.54.62-.22v.1a.26.26,0,0,0-.11.16,1.83,1.83,0,0,0-.09.59,12.53,12.53,0,0,0,.27,1.56,11.86,11.86,0,0,0,.6,1.83,6.29,6.29,0,0,0,.42.86l.2.33.13.23.19.27.55.8a4.75,4.75,0,0,0,.62.74,9.31,9.31,0,0,0,1.57,1.15c.19.14.35.23.48.31a3.35,3.35,0,0,0,.35.2l.36.19a5.66,5.66,0,0,0,.58.19,2.43,2.43,0,0,0,1,0l.41-.1c.16-.06.34-.13.58-.24l.36-.22.18-.11,0-.17c0-.2-.05-.35-.07-.5a9,9,0,0,0-.19-.94l-.2-.75.67-.39c.94-.5.93-.52,1.88-1s.92-.55,1.89-1,1-.33,2-.73,1-.5,2-.85,1-.26,2.05-.59,1-.43,2-.7,1-.25,2.09-.49a13,13,0,0,1,1.47-.23l.93-.21,0,.05,0,.13a2.24,2.24,0,0,0,.13.27c.07.14.1.12.18.25s0,.16.13.29.13.09.23.2.08.14.19.25a.52.52,0,0,0,.15.09.26.26,0,0,0,.06.16,1.25,1.25,0,0,0,.37.35,9.4,9.4,0,0,0,1.25.51,11,11,0,0,0,1.6.39,4.06,4.06,0,0,0,.81.07h.85a8.27,8.27,0,0,0,1.64-.15,7.83,7.83,0,0,0,1.53-.63c.37-.17.56-.26.75-.37l.3-.17a3.32,3.32,0,0,0,.4-.34,1.93,1.93,0,0,0,.49-.75c0-.12.07-.23.11-.36s.06-.31.08-.53v-.39a1.08,1.08,0,0,0,0-.18l-.14-.06-.41-.18a6,6,0,0,0-.76-.28c-.58-.18-.73-.24-1.1-.34a8.09,8.09,0,0,0-.85-.06l-.34,0,0,0c.38-.48.53-.74.71-1a5.21,5.21,0,0,0,.56-1.09,5.3,5.3,0,0,0,.2-.7,2,2,0,0,0,.06-.57.86.86,0,0,0-.38-.68,1.3,1.3,0,0,0-.91-.11c-.59.1-.88.17-1.18.23a6.75,6.75,0,0,0-1.15.37l-.39.18c0-.47,0-.58,0-1.25,0-.4,0-.6-.06-.81a5.84,5.84,0,0,0-.16-.82,2.32,2.32,0,0,0-.18-.48.91.91,0,0,0-.09-.17,1.3,1.3,0,0,0-.15-.23l-.15-.22-.07-.11,0,0,0,0-.07,0-.66.29c-.36.2-.56.27-.74.38a2.62,2.62,0,0,0-.67.5,5.86,5.86,0,0,0-.93,1.36l-.41.7a4,4,0,0,0-.35.72,10.88,10.88,0,0,0-.34,1.56c-.18.77-.19.77-.32,1.55-.09.58-.15.72-.21,1.06a1.93,1.93,0,0,0,0,.26.68.68,0,0,0,0,.14l-.13,0c-1.06.2-1,.29-2.1.52s-1.06.23-2.1.5-1,.31-2.07.62-1.07.22-2.09.58-1,.38-2,.77-1,.41-2,.85l-.25.11a.8.8,0,0,0,0-.23,1.43,1.43,0,0,0-.44-.94c-.46-.52-.71-.77-1-1a9.36,9.36,0,0,0-1.08-.91c-.21-.14-.38-.25-.54-.34l.07,0c.52-.31.62-.35,1.31-.79.39-.26.58-.4.77-.55a8.3,8.3,0,0,0,.72-.67,3.71,3.71,0,0,0,.37-.46c.08-.15.13-.22.23-.44l.12-.28.07-.15s0,0,0,0l0,0-.07-.05-.65-.44c-.42-.24-.63-.38-.84-.49a3.09,3.09,0,0,0-.92-.35,6.89,6.89,0,0,0-1.92-.11l-.94,0a5.56,5.56,0,0,0-.95.11,15.35,15.35,0,0,0-1.77.6c-.88.3-.88.3-1.74.65-.63.27-.81.31-1.19.46a2.71,2.71,0,0,0-.26.15,1.59,1.59,0,0,0-.24.2,3,3,0,0,0-.31.45l-.08.17a1.13,1.13,0,0,0-.14.18,1.57,1.57,0,0,0-.2.3c-.09.15-.05.17-.14.33s-.12.14-.19.31l0,0c-.44.11-.83.19-1.69.46-1.55.48-1.52.57-3,1.09s-1.54.52-3,1.12-1.49.64-3,1.27-1.52.57-3,1.28-1.44.73-2.88,1.49-1.42.78-2.82,1.59-1.4.81-2.77,1.7c-.87.55-1.79,1.22-1.9,1.3a23.54,23.54,0,0,0-3.2,2.45l-4.66.11c-4.06.15-6.32.15-8.38.17a3.4,3.4,0,0,1,.43-.35c.38-.26.44-.17.82-.43s.32-.34.7-.6.42-.19.8-.45.31-.36.69-.62.39-.24.76-.49a3.31,3.31,0,0,1,.46-.25,1.64,1.64,0,0,0,.28.23,9.63,9.63,0,0,0,1.25.51,10.85,10.85,0,0,0,1.59.39,5,5,0,0,0,.81.07h.56l.29,0a9,9,0,0,0,1.64-.14,7.83,7.83,0,0,0,1.53-.63c.38-.17.57-.27.75-.37l.31-.17c.1-.09.24-.18.4-.34a2,2,0,0,0,.48-.76c0-.11.07-.22.11-.35s.06-.31.08-.53v-.39a1,1,0,0,0,0-.18l-.14-.06-.41-.18a7.54,7.54,0,0,0-.76-.29c-.58-.17-.73-.24-1.09-.33a8.48,8.48,0,0,0-.86-.06l-.33,0,0,0c.37-.47.52-.73.71-1a5.3,5.3,0,0,0,.55-1.09,5.77,5.77,0,0,0,.2-.7,1.52,1.52,0,0,0,.06-.57.82.82,0,0,0-.38-.68,1.3,1.3,0,0,0-.91-.11c-.59.1-.88.17-1.18.23a6.44,6.44,0,0,0-1.14.37,2.92,2.92,0,0,0-.39.18c0-.47,0-.58,0-1.25a6.28,6.28,0,0,0-.06-.81,5.84,5.84,0,0,0-.16-.82,2.84,2.84,0,0,0-.17-.48,1.62,1.62,0,0,0-.1-.18,1.76,1.76,0,0,0-.14-.23l-.15-.21-.08-.12,0,0,0,0-.07,0-.66.29c-.36.19-.56.27-.74.38a2.81,2.81,0,0,0-.67.5,5.66,5.66,0,0,0-.93,1.36l-.41.69a4.61,4.61,0,0,0-.35.73,12.44,12.44,0,0,0-.34,1.56c-.18.77-.19.77-.32,1.54-.08.58-.14.72-.21,1.07a1.93,1.93,0,0,0,0,.26.87.87,0,0,0,.05.28,1.62,1.62,0,0,0,.19.42,1.74,1.74,0,0,0,.11.18.55.55,0,0,0,0,.13,1.82,1.82,0,0,0,.13.28c.07.14.11.12.18.25s0,.16.13.28.14.09.24.21l.05.06a2.2,2.2,0,0,1-.36.29l-.76.51c-.38.25-.36.28-.74.54s-.44.17-.82.43-.36.27-.74.52-.38.27-.76.52l-.76.51a4.6,4.6,0,0,0-.52.39l-.1.07-3.18,0-2.4,0-3.05,0-8.53-.09.21-.21a5.16,5.16,0,0,0,.58-.61,7.48,7.48,0,0,0,.9-1.41c.2-.37.31-.55.42-.73a3.24,3.24,0,0,0,.34-.77,1.86,1.86,0,0,0,.1-1,1.07,1.07,0,0,0-.21-.45.79.79,0,0,0-.71-.32,1.24,1.24,0,0,0-.6.27l-.27.22a3.45,3.45,0,0,0-.61.59,7.68,7.68,0,0,0-.83,1.44c-.2.37-.28.56-.37.75a5.43,5.43,0,0,0-.29.79,10.73,10.73,0,0,1-.28,1.09,2,2,0,0,1-.06.26l-8.14-.24c-1.14,0-2.15-.07-3-.12l-2.4-.13-3.72-.2-3.73-.2-1.28-.09c.76-.12,1.19-.21,1.61-.31l1.94-.45c1.93-.48,2-.39,3.86-.95s1.86-.69,3.74-1.32,1.89-.57,3.76-1.19,1.83-.74,3.72-1.31c.94-.27,1.42-.39,1.9-.51s.95-.23,1.91-.44a15.06,15.06,0,0,1,1.55-.27c.38-.06.7-.1,1.15-.14.67-.12,1.36-.18,2-.27l.5-.06a1.84,1.84,0,0,0,.24.46,12.93,12.93,0,0,0,1.09,1,9.89,9.89,0,0,0,1.47,1,5.74,5.74,0,0,0,.81.4l.33.13.23.1.3.09.86.28a4,4,0,0,0,.88.21,9.13,9.13,0,0,0,1.81,0l.91-.09.38-.06c.14-.05.31-.1.53-.19a2.12,2.12,0,0,0,.79-.58l.25-.32a5.72,5.72,0,0,0,.29-.5l.15-.38c0-.07,0-.13.07-.19l-.12-.11-.34-.34c-.16-.15-.32-.3-.67-.58-.53-.41-.65-.53-1-.77a7.2,7.2,0,0,0-.85-.39,2.19,2.19,0,0,0-.41-.13l.1-.06c.57-.35.83-.56,1.11-.74a5.76,5.76,0,0,0,1-.9,5.26,5.26,0,0,0,.48-.64,1.8,1.8,0,0,0,.29-.55.86.86,0,0,0-.12-.81,1.36,1.36,0,0,0-.87-.46c-.64-.13-1-.17-1.3-.22a7.09,7.09,0,0,0-1.31-.07l-.54,0h0c.21-.53.26-.61.53-1.33a7.75,7.75,0,0,0,.25-.85,5.18,5.18,0,0,0,.16-.9,2.6,2.6,0,0,0,0-.55q0-.12,0-.21a1.76,1.76,0,0,0,0-.27l-.07-.28,0-.15s0,0,0,0H333l-.75,0c-.45.06-.68.07-.9.11a3.18,3.18,0,0,0-.88.25,6.48,6.48,0,0,0-1.48,1l-.69.56a4.06,4.06,0,0,0-.64.61,12.75,12.75,0,0,0-1,1.46c-.48.72-.49.71-.93,1.45-.31.57-.42.69-.62,1a1.35,1.35,0,0,0-.11.26,1.07,1.07,0,0,0-.06.29,2.11,2.11,0,0,0,0,.51c0,.06,0,.13,0,.2v.18c0,.17,0,.17,0,.34a3,3,0,0,0,.09.32c0,.17,0,.18,0,.34s.1.15.15.3v0c-.32,0-.7,0-1.2.09a34.44,34.44,0,0,0-3.93.73c-1,.21-1.45.32-1.93.45s-1,.24-1.92.52c-1.9.56-1.89.6-3.77,1.22s-1.9.54-3.77,1.17-1.86.65-3.74,1.23-1.88.57-3.79,1c-.95.22-1.43.32-1.92.4s-1,.18-1.92.32c-1.24.17-2.6.29-2.76.29-1.65.11-3.45-.09-5-.14h-.14c-4.37-.32-8.21-.67-8.8-.71l-.63-.05c-.18-.06-.35-.12-.52-.16-.42-.11-.87-.15-.79,0-1.31-.11-2.63-.23-4-.39l-6-.69c-4-.42-8-.93-11.67-1.2-2.82-.21-5.8-.18-2.5.6,1.55.37,3.52.73,5.53,1.06,3,.41,4.82.66,6.84.87l5.32.61.19.08c.4.1.56.14.88.24l.24.36c.52.72.6.66,1.15,1.35s.56.69,1.16,1.35c.3.32.46.47.62.62s.3.31.68.62a1.94,1.94,0,0,0,1,.45,1.26,1.26,0,0,0,.5,0,1.08,1.08,0,0,0,.62-.5,1.4,1.4,0,0,0,.14-.74,1.47,1.47,0,0,0-.13-.46,2.79,2.79,0,0,0-.62-.82,12.67,12.67,0,0,0-1.4-1.14,12.16,12.16,0,0,0-1.53-.95l-.12-.06c3,.29,5,.47,6.66.62l.19.08c1.61.67,1.61.67,3.24,1.31s1.66.57,3.29,1.19,1.6.7,3.25,1.29,1.69.47,3.35,1,1.64.6,3.31,1.12,1.7.39,3.39.86,1.68.48,3.36.93c1.26.32,1.57.46,2.35.66.6.14,1.19.28,1.79.39.26,0,.57.1.89.14a1.7,1.7,0,0,0-.12.3.43.43,0,0,0,0,.2.26.26,0,0,0-.11.16,1.72,1.72,0,0,0-.1.58,13.85,13.85,0,0,0,.26,1.55,12.75,12.75,0,0,0,.59,1.81,6,6,0,0,0,.42.85l.19.33.13.22.19.28.55.78a4.36,4.36,0,0,0,.6.74,9.67,9.67,0,0,0,1.55,1.14c.19.14.35.23.48.31a3.29,3.29,0,0,0,.34.2l.36.19c.15.05.32.12.57.19a2.38,2.38,0,0,0,1,0l.41-.1.57-.23.36-.23.18-.11,0-.17-.07-.49a6.87,6.87,0,0,0-.19-.93c-.18-.68-.21-.86-.34-1.28a8.13,8.13,0,0,0-.46-.88,3.43,3.43,0,0,0-.29-.41l.17,0c.7.07,1.05.07,1.4.09a6,6,0,0,0,1.41-.13,7.05,7.05,0,0,0,.82-.22,2.21,2.21,0,0,0,.59-.27,1,1,0,0,0,.42-.75,1.45,1.45,0,0,0-.44-.93c-.46-.52-.7-.77-.95-1a6.72,6.72,0,0,0-1.06-.91l-.53-.33.06,0c.52-.31.62-.34,1.3-.78a7,7,0,0,0,.76-.54,6.67,6.67,0,0,0,.72-.66,3.49,3.49,0,0,0,.36-.46c.08-.14.13-.22.23-.43l.13-.28.06-.15a.08.08,0,0,0,0,0l0,0-.08-.06-.64-.44c-.42-.23-.62-.38-.83-.49a3.71,3.71,0,0,0-.9-.35,6.79,6.79,0,0,0-1.9-.1l-.94,0a5.28,5.28,0,0,0-.93.11,15.15,15.15,0,0,0-1.76.59c-.87.3-.87.29-1.72.63-.62.27-.8.31-1.18.46a1.76,1.76,0,0,0-.26.14.93.93,0,0,0-.23.21,2.08,2.08,0,0,0-.31.44l-.09.17-.13.17-.2.3c-.09.15-.05.17-.14.33a.16.16,0,0,1,0,.07l-1.68-.42c-1.69-.41-1.71-.32-3.4-.75s-1.68-.44-3.36-.92-1.68-.45-3.35-.95-1.63-.6-3.29-1.14-1.66-.53-3.3-1.1-1.64-.57-3.28-1.17-1.62-.62-3.24-1.27l-1.09-.42c1,.09,2,.19,3.16.27l5.45.39,5.45.36,3.74.14,6.28.25c1.06.16,1.42.27,3.05.54,1.05.15,1.57.25,2.1.32s1.05.13,2.09.37c2.08.45,2.05.54,4.11,1.06,1,.28,1.54.41,2.06.52a19.8,19.8,0,0,1,2.05.56c1,.32,1.51.5,2,.68l2,.73c1.47.58,1.84.74,2.72,1.15l2.07.84c.42.17,1,.41,1.47.56a.29.29,0,0,1,0,.09c0,.59,0,.7,0,1.48a11.85,11.85,0,0,0,.28,1.77,4.05,4.05,0,0,0,.27.85l.13.34.09.23.13.29c.2.4.29.6.39.81a3.59,3.59,0,0,0,.46.78,9.11,9.11,0,0,0,1.27,1.29c.33.3.51.45.69.6l.3.23c.14.07.29.17.51.26a2.25,2.25,0,0,0,1,.18l.4,0c.15,0,.33-.07.57-.14l.38-.15.18-.08V327a8.49,8.49,0,0,0,0-.89c-.06-.66-.06-.84-.13-1.25a6.61,6.61,0,0,0-.29-.89,2.78,2.78,0,0,0-.19-.39l.11,0c.64.18,1,.23,1.3.3a5.66,5.66,0,0,0,2.12,0,1.94,1.94,0,0,0,.6-.17.91.91,0,0,0,.51-.65,1.3,1.3,0,0,0-.27-.94c-.35-.56-.54-.83-.73-1.1a7.42,7.42,0,0,0-.86-1c-.15-.15-.28-.26-.4-.36h0c.53-.21.62-.23,1.32-.53a7.24,7.24,0,0,0,.8-.4,6.15,6.15,0,0,0,.76-.5,3.19,3.19,0,0,0,.41-.38,1.83,1.83,0,0,0,.13-.16,1.4,1.4,0,0,0,.16-.22l.16-.25.08-.12s0,0,0,0l0,0-.06-.06-.55-.51c-.35-.29-.51-.45-.69-.59l-.06,0c1.25.34,1.3.42,2.67.77s1.47.25,2.9.63,1.43.38,2.86.76c1.07.27,1.33.39,2,.58s1,.25,1.52.35l.71.13a.21.21,0,0,0,0,.12.24.24,0,0,0-.1.12.93.93,0,0,0-.07.44,9.67,9.67,0,0,0,.29,1.1,8.34,8.34,0,0,0,.56,1.26,2.79,2.79,0,0,0,.37.58l.17.22a2.79,2.79,0,0,0,.27.35,7.53,7.53,0,0,0,.92,1,6.62,6.62,0,0,0,1.22.69l.63.33a2.46,2.46,0,0,0,.7.21,1.52,1.52,0,0,0,.77-.07l.3-.12c.11-.06.23-.11.42-.22l.28-.21.11-.09,0-.13c0-.15-.06-.27-.09-.39s-.09-.33-.2-.65c-.18-.48-.2-.62-.33-.91a4.93,4.93,0,0,0-.4-.61l-.11-.13c.46,0,.71,0,.95,0a4.53,4.53,0,0,0,1-.18,4.42,4.42,0,0,0,.57-.23,1.54,1.54,0,0,0,.43-.26.78.78,0,0,0,.28-.63.93.93,0,0,0-.15-.41,1.48,1.48,0,0,0-.26-.3c-.37-.35-.56-.51-.75-.68a5.1,5.1,0,0,0-.83-.59l-.23-.12c.26-.18.36-.24.76-.56a5.39,5.39,0,0,0,1-1,2.1,2.1,0,0,0,.23-.37,2.85,2.85,0,0,0,.17-.42l.06-.2,0-.11h0c.39.08.84.18,1.57.38,1.91.5,1.89.57,3.8,1.08s1.95.39,3.86.89,1.91.53,3.82,1c1.42.38,1.77.52,2.64.77.68.17,1.35.35,2,.49a11,11,0,0,0,1.78.3.2.2,0,0,0,0,.09.4.4,0,0,0,0,.2.27.27,0,0,0-.1.17,1.6,1.6,0,0,0-.06.59,14.77,14.77,0,0,0,.38,1.54,13.12,13.12,0,0,0,.72,1.79,5.39,5.39,0,0,0,.49.82l.22.32.14.22.21.26.61.76a4.38,4.38,0,0,0,.67.7,9.53,9.53,0,0,0,1.63,1c.21.13.38.21.51.28l.36.18.37.16a3.84,3.84,0,0,0,.59.15,2.51,2.51,0,0,0,1,0l.41-.14c.15-.07.33-.15.55-.27l.35-.25.17-.13,0-.16-.1-.5a8.71,8.71,0,0,0-.26-.92c-.23-.67-.27-.85-.44-1.27a7.64,7.64,0,0,0-.53-.86,2.62,2.62,0,0,0-.32-.39h.18c.71,0,1.06,0,1.42,0a6.29,6.29,0,0,0,1.41-.23c.35-.09.6-.21.81-.28a2.3,2.3,0,0,0,.57-.32.92.92,0,0,0,.37-.78,1.41,1.41,0,0,0-.5-.91c-.5-.49-.77-.73-1-1a7.91,7.91,0,0,0-1.14-.83,5.78,5.78,0,0,0-.56-.31l.06,0c.5-.34.6-.39,1.26-.87.37-.29.55-.44.73-.61a7.28,7.28,0,0,0,.67-.71,3,3,0,0,0,.33-.49,2.82,2.82,0,0,0,.2-.45l.11-.29.06-.16v0l0,0-.08-.05-.68-.39c-.44-.21-.65-.34-.87-.44a3.71,3.71,0,0,0-.94-.28,6.49,6.49,0,0,0-1.92,0l-.95.09a6.09,6.09,0,0,0-.93.17,15.45,15.45,0,0,0-1.73.73c-.85.36-.86.35-1.69.76-.61.31-.78.36-1.15.54a2,2,0,0,0-.25.16,1.67,1.67,0,0,0-.23.23,2.2,2.2,0,0,0-.27.46l-.08.18-.13.18-.17.32c-.08.16,0,.18-.12.34s-.11.15-.17.32a.64.64,0,0,1,0,.09c-.78-.22-1.17-.35-2.52-.71-1.91-.5-1.94-.41-3.85-.92l-3.82-1c-1.92-.51-1.92-.48-3.84-1s-1.88-.61-3.8-1.11-1.91-.49-3.83-1l-3.82-1c-1.92-.5-1.91-.51-3.83-1-1.22-.32-2.56-.65-2.73-.69l-.91-.23c4.28-.11,6-.15,12.88-.49l.61,0,.85.06c1.58.12,1.58.1,3.16.24s1.58.07,3.15.22,1.57.28,3.14.48,1.58.09,3.15.32,1.55.31,3.11.56,1.58.14,3.14.43,1.55.31,3.1.62c1.15.25,1.44.35,2.14.53s1.09.23,1.64.32,1.56.29,1.84.06,0-.27-.31-.41c-.64-.16-.95-.27-2.05-.52-1.55-.35-1.57-.25-3.12-.58s-1.56-.33-3.12-.62-1.57-.25-3.13-.52-1.56-.36-3.13-.59-1.58-.21-3.15-.41-1.58-.19-3.16-.36l-2.09-.22,3.4-.33,9.16-.89,4.81-.44c.27.08.43.15.92.31a7.81,7.81,0,0,1,2.78,1.3,11.14,11.14,0,0,1,1.24.93c.3.26.45.42.61.56a1.84,1.84,0,0,0,.84.45,1.6,1.6,0,0,0,1-.13,1.13,1.13,0,0,0,.37-.28,1.07,1.07,0,0,0,.31-.63,1.23,1.23,0,0,0-.08-.65,1.5,1.5,0,0,0-.2-.38,2.33,2.33,0,0,0-.72-.61,13.38,13.38,0,0,0-1.47-.73,10,10,0,0,0-1.11-.36l-.64-.19.46,0c2.18-.25,4.38-.45,8.57-1,.39.08.69.13,1.44.25,1.26.19,1.26.2,2.53.36s1.27.08,2.53.22,1.26.23,2.53.33,1.28,0,2.55.06,1.27.13,2.54.16,1.28-.09,2.55-.1l2.55,0c.94,0,1.19,0,1.77,0s.89-.07,1.33-.13l.4-.06a1.61,1.61,0,0,0-.17.4,10.13,10.13,0,0,0-.07,1.34,10,10,0,0,0,.14,1.64,4.15,4.15,0,0,0,.2.79l.1.32.07.21.1.27a10.2,10.2,0,0,0,.67,1.51A7.57,7.57,0,0,0,428,316.4l.59.6.27.23a4.06,4.06,0,0,0,.44.27,2,2,0,0,0,.88.21h.37l.52-.09.38-.13a.85.85,0,0,0,.17-.06v-.15l0-.44c0-.21,0-.41,0-.82,0-.6,0-.76,0-1.14a5.31,5.31,0,0,0-.22-.83,2.58,2.58,0,0,0-.13-.31h.05c.57.2.87.27,1.16.36a5.21,5.21,0,0,0,1.21.17,7,7,0,0,0,.73,0,2,2,0,0,0,.56-.13.85.85,0,0,0,.52-.58,1.28,1.28,0,0,0-.19-.89c-.29-.53-.44-.79-.6-1.05a7,7,0,0,0-.72-1,4.22,4.22,0,0,0-.3-.3c.45-.15.56-.16,1.19-.39a7,7,0,0,0,.75-.31,6.23,6.23,0,0,0,.73-.42,3.25,3.25,0,0,0,.4-.32l.13-.15a1.57,1.57,0,0,0,.17-.21l.16-.21.08-.11,0,0,0,0-.05-.06-.49-.52c-.3-.28-.44-.44-.6-.58a3,3,0,0,0-.69-.48,6,6,0,0,0-1.59-.44l-.79-.16a3.85,3.85,0,0,0-.8-.1,14.06,14.06,0,0,0-1.59.18c-.78.08-.78.07-1.56.2-.57.11-.73.09-1.08.15a1.42,1.42,0,0,0-.25.07,1.36,1.36,0,0,0-.24.13,1.75,1.75,0,0,0-.34.32c-.05,0-.09.11-.14.17l-.11.08-.22.22c-.11.11-.07.14-.17.25s-.14.09-.23.22a.34.34,0,0,0-.07.19c-.39,0-.7,0-1.44.07-1.26.07-1.25.16-2.52.21l-2.52,0c-1.27,0-1.27,0-2.53,0s-1.26-.13-2.53-.19-1.26-.05-2.52-.14-1.26-.09-2.52-.21l-2.5-.31-1.4-.17c2.22-.29,3.82-.48,5.22-.65l2.59-.3,2.79-.38c3.18-.52,6.38-1,9.54-1.58,3.4-.66,9.09-1.74,10.19-2.52.59-.42-.57-.43-2.37-.25l-5,.82c-1.74.29-3.8.66-7,1.13-2.53.39-4.36.69-5.87.94.27-.18.54-.36,1.06-.74,1.1-.69,1.07-.73,2.2-1.37l1.13-.65a10.53,10.53,0,0,1,1.14-.62c1.18-.54,1.22-.45,2.43-.93.6-.24.9-.35,1.2-.49a9.39,9.39,0,0,1,1.22-.45c1.25-.37,1.27-.28,2.53-.59s1.24-.41,2.53-.59c.65-.1,1-.13,1.3-.16l1.29-.11a15.23,15.23,0,0,1,1.81,0l1.12,0c0,.06.08.1.15.21s.07.21.19.38.17.13.31.29a3.75,3.75,0,0,0,.26.33.92.92,0,0,0,.18.12c0,.05,0,.11.09.19a2.47,2.47,0,0,0,.55.44,15.78,15.78,0,0,0,1.71.69,13.73,13.73,0,0,0,2.17.53,8.21,8.21,0,0,0,1.12.12h.75l.39,0,1.12-.07a5.12,5.12,0,0,0,1.12-.16,11.06,11.06,0,0,0,2.09-.82c.26-.11.45-.22.61-.3a3.81,3.81,0,0,0,.41-.22l.41-.24a6.82,6.82,0,0,0,.53-.45,3.1,3.1,0,0,0,.67-1c0-.15.09-.29.15-.47s.08-.41.12-.7Zm-24,14.39h0a.38.38,0,0,1,.09.1Zm5.19-.69-.06,0-1-.69a9.36,9.36,0,0,0-1-.6c-.16-.08-.32-.16-.54-.25.17,0,.24,0,.51,0s.35-.09.7-.1l.71,0a3.91,3.91,0,0,1,.49,0l.37,0c.13,0,.35-.06.39-.21s0-.12-.09-.15h-.47c-.36,0-.35.07-.71.09l-.7,0c-.35,0-.35,0-.71.06s-.35,0-.71,0l-.65.05-.89-.28h0l.36-.06.36,0,.26,0c.15,0,.32,0,.47-.09a.18.18,0,0,0,0-.24.21.21,0,0,0-.12-.07h-.31l-.38,0c-.18,0-.18.06-.37.08s-.19,0-.38,0-.17.09-.36.13l-.24,0,.13-.07c.15-.06.16,0,.31-.07s.14-.11.3-.16l.32-.07a1.06,1.06,0,0,1,.23,0l.16-.05a.22.22,0,0,0,.16-.22.14.14,0,0,0,0-.06c.34,0,.49-.06,1-.12a12.87,12.87,0,0,1,1.51-.09,3.15,3.15,0,0,1,.75.11l.72.16a5.39,5.39,0,0,1,1.37.46,4.14,4.14,0,0,1,1.16.82l.11.13s0,0,0,0h0l-.1.09-.32.25a6.46,6.46,0,0,1-.9.5,10.67,10.67,0,0,0-1.82.77Zm-2.61,2.78a6.64,6.64,0,0,1-.94-.57,9.25,9.25,0,0,1-1.21-1,3.61,3.61,0,0,1-.25-.3l.1.07a.19.19,0,0,0,.25,0,.19.19,0,0,0,.08-.15l-.14-.15c-.11-.1-.14-.06-.25-.17l-.21-.22c-.11-.11-.12-.1-.22-.21s-.07-.15-.16-.26-.11-.11-.2-.23l-.12-.16.08.06c.1.08.07.12.18.2l.2.15.21.16.2.16.16.1c.09.06.15.18.3.15a.2.2,0,0,0,.16-.27l-.17-.13-.18-.14c.28.16.26.21.56.37s.33.12.64.29.28.21.59.38.33.11.64.28l.6.35a2.72,2.72,0,0,1,.41.26l.33.16c.13.05.33.14.44,0a.12.12,0,0,0,0-.18l-.39-.24c-.31-.17-.33-.13-.64-.3l-.6-.35-.62-.32c-.3-.17-.28-.21-.58-.38l-.62-.33-.61-.34L428,309l-.29-.16h0c.18,0,.17.08.35.13s.19,0,.37.08l.35.11.35.13.25.08c.15,0,.28.18.46.15s.18-.07.15-.18a.23.23,0,0,0-.06-.12l-.29-.15-.37-.15c-.18-.07-.19,0-.38-.09s-.17-.11-.35-.17-.2,0-.39-.05l-.08,0h0c.14,0,.14,0,.29,0s.14-.07.28-.06a2.58,2.58,0,0,1,.29,0,.43.43,0,0,1,.18.08h.15a.18.18,0,0,0,.22-.11,0,0,0,0,0,0,0l.28.09a8.91,8.91,0,0,1,2,1,10,10,0,0,1,.89.68,5.93,5.93,0,0,1,.81.78,4.6,4.6,0,0,1,.66.91l.55,1a.82.82,0,0,1,.12.37s0,0-.07,0a3.81,3.81,0,0,1-1,.08,8,8,0,0,1-1.09-.11,6.05,6.05,0,0,1-1.07-.27A5.21,5.21,0,0,1,430.57,312.64Zm-4-.7c0-.26-.08-.52-.1-.73a.64.64,0,0,1,0,.07l.09.35a1.49,1.49,0,0,1,0,.25l.08.18a.22.22,0,0,0,.24.14.18.18,0,0,0,.14-.09c0-.08,0-.11-.05-.23s-.1-.16-.15-.33l-.08-.34c0-.17-.06-.17-.1-.34a.73.73,0,0,1,0-.25l.07.23.08.28a.84.84,0,0,0,.09.19c.05.12,0,.27.18.34a.22.22,0,0,0,.24,0,.19.19,0,0,0,0-.11l-.07-.23-.1-.27c0-.14-.08-.12-.12-.26a.51.51,0,0,1,0-.2l0,.06.1.16c.18.3.14.33.32.63s.23.27.41.58.15.32.33.62.24.27.42.58.17.3.35.61a2.72,2.72,0,0,1,.23.44,3.21,3.21,0,0,0,.21.3c.08.11.22.29.36.25s.11-.08.1-.16-.1-.19-.23-.41-.22-.28-.4-.58l-.36-.61c-.18-.3-.2-.29-.38-.6a2.09,2.09,0,0,1-.17-.34c.19.16.41.34.78.62a4.76,4.76,0,0,0,1.06.6,2.57,2.57,0,0,0,.37.16l0,.08.23,1a7.42,7.42,0,0,1,.27,1.48c0,.38,0,.57,0,.77V317s0,0,0,0l-.09,0-.38.05h-.27a1.83,1.83,0,0,1-.66-.19,2.09,2.09,0,0,1-.58-.43l-.51-.54a7.14,7.14,0,0,1-.93-1.17,7.77,7.77,0,0,1-.7-1.34,1.93,1.93,0,0,1-.14-.4q0-.17-.06-.3C426.65,312.5,426.62,312.31,426.55,311.94Zm-31,8.36-.1,0c-.34-.11-.66-.23-1.34-.44a10.47,10.47,0,0,0-1.37-.33c-.25,0-.5-.07-.88-.1.35-.13.38-.1.76-.24s.37-.2.76-.35.39-.13.78-.28.38-.11.56-.16l.4-.17c.15-.07.39-.18.39-.34s-.07-.11-.16-.12l-.52.17c-.39.15-.38.19-.77.34l-.78.28c-.4.14-.39.15-.78.3s-.41.09-.8.24l-.78.29c-.57,0-.87,0-1.25,0l.19-.11.39-.19.39-.17a2.91,2.91,0,0,0,.28-.13c.16-.08.37-.1.5-.25s.08-.19,0-.24a.22.22,0,0,0-.16,0l-.34.12-.41.17c-.21.08-.19.12-.39.21s-.22,0-.42.15-.18.15-.37.26a3.62,3.62,0,0,0-.4.19.67.67,0,0,0-.17.13l-.11,0a.48.48,0,0,0,.11-.08c.13-.12.1-.16.24-.28s.16-.08.3-.19.1-.16.25-.26a3.14,3.14,0,0,1,.31-.18.84.84,0,0,1,.23-.1l.15-.1a.24.24,0,0,0,.1-.26.19.19,0,0,0,0-.09c.58-.28.67-.32,1.41-.63a14,14,0,0,1,1.68-.61,4.06,4.06,0,0,1,.88-.15l.87-.07a6.25,6.25,0,0,1,1.73,0,6,6,0,0,1,.83.2,5.72,5.72,0,0,1,.78.33l.23.14s0,0,0,0l-.12.21a3.83,3.83,0,0,1-.28.4,8.78,8.78,0,0,1-.85.89,15.82,15.82,0,0,0-1.82,1.47Zm-2,4a8.89,8.89,0,0,1-1.27-.33,9.83,9.83,0,0,1-1.72-.75,6.83,6.83,0,0,1-1.08-.73.51.51,0,0,1,.15.06l.32.18a1,1,0,0,1,.21.15l.19.06a.24.24,0,0,0,.27-.08.18.18,0,0,0,0-.17l-.21-.12c-.16-.07-.18,0-.34-.11l-.32-.18-.32-.16c-.15-.1-.12-.14-.27-.24l-.31-.19-.29-.21-.05,0h0l.29.09c.14.06.13.1.27.16l.29.1.28.1.28.12.21.06c.13,0,.24.14.39.08a.18.18,0,0,0,.12-.2.2.2,0,0,0-.06-.11l0,0,.25.06c.41.08.42,0,.83.11s.4.12.81.2.42,0,.83.1l.82.16c.3.06.37.1.56.15l.43.06c.16,0,.42,0,.51-.09s0-.13-.07-.18-.25-.07-.54-.12-.42,0-.83-.12l-.82-.16-.82-.15c-.41-.08-.4-.13-.81-.2l-.82-.16-.82-.15-.82-.17-.58-.09-.43-.09-.08,0-.15,0a.29.29,0,0,0-.15,0l-.08-.05h0c.21,0,.2-.07.42-.08l.43,0,.43,0c.22,0,.22,0,.43.06h.43l.43,0,.43.06.3,0c.18,0,.37.11.56,0s.17-.12.11-.22a.29.29,0,0,0-.12-.1l-.36-.08-.44-.06c-.22,0-.22,0-.44,0s-.22-.07-.44-.09-.22,0-.44,0-.22-.05-.45-.05h0l.39-.14h.14c.18,0,.17-.09.35-.09h.36c.13,0,.17,0,.25,0h.19a.23.23,0,0,0,.22-.17.14.14,0,0,0,0-.09h.34a10.85,10.85,0,0,1,1.32.13,8.54,8.54,0,0,1,1.29.3c.62.19.93.33,1.24.45a11.44,11.44,0,0,1,1.19.61,6.86,6.86,0,0,1,1.06.8c.25.22.49.45,1,.91.22.21.29.37.28.42s0,.06-.08.13a4.22,4.22,0,0,1-1.14.44,10.31,10.31,0,0,1-1.28.27,8.85,8.85,0,0,1-1.31.05A6.49,6.49,0,0,1,393.54,324.34Zm-5.33-.56v0l.18.32a1.16,1.16,0,0,1,.11.24l.13.15a.22.22,0,0,0,.27.06.17.17,0,0,0,.11-.13c0-.06,0-.1-.12-.21s-.14-.12-.24-.27l-.18-.31c-.09-.16-.1-.15-.18-.31s0-.18-.12-.34-.09-.16-.16-.33l-.15-.33,0-.06h0c.09.12.1.11.2.23s.05.15.15.27.1.12.19.24l.19.24.18.24a1.29,1.29,0,0,0,.15.16c.09.09.13.24.29.27a.2.2,0,0,0,.21-.11.17.17,0,0,0,0-.12c-.07-.08-.07-.1-.15-.2l-.19-.24,0,0s0,0,0,0c.31.28.28.32.59.6s.34.24.65.52.29.31.6.58.35.24.66.52l.61.56c.23.21.27.28.41.42s.22.19.34.27.33.26.47.19.07-.11,0-.2l-.4-.38c-.31-.28-.34-.24-.65-.52l-.62-.57c-.31-.28-.32-.26-.63-.54s-.28-.32-.53-.55l0,0a11.2,11.2,0,0,0,1.32.54,6.34,6.34,0,0,0,1.39.32l.51.06a.41.41,0,0,0,0,.11l.6,1.05.45.78a4.18,4.18,0,0,1,.37.82,8.48,8.48,0,0,1,.24.87l0,.15V329h0l0,0-.1.07a4.66,4.66,0,0,1-.43.2l-.32.09a2.77,2.77,0,0,1-.83,0,3.65,3.65,0,0,1-.49-.13l-.33-.15-.31-.17c-.12-.07-.26-.14-.45-.26a8.59,8.59,0,0,1-1.47-1c-.34-.29-.5-.45-.66-.61a8,8,0,0,1-.6-.66,2.28,2.28,0,0,1-.29-.41l-.18-.32c-.12-.2-.22-.4-.43-.81S388.29,324,388.21,323.78ZM319,319.07l-.09,0c-.32-.14-.64-.28-1.29-.53a10.59,10.59,0,0,0-1.33-.42c-.24-.05-.48-.11-.85-.17.34-.09.37-.06.75-.17s.38-.18.78-.29l.79-.22c.3-.08.38-.08.56-.12s.28-.09.41-.15.39-.15.4-.3-.05-.12-.14-.13-.25.05-.53.13-.38.16-.78.27l-.79.23c-.4.11-.4.13-.79.24s-.41.06-.81.18l-.78.23-1.22-.09.18-.08.39-.17.4-.13.28-.12c.17-.06.38-.06.52-.21s.09-.18,0-.24a.28.28,0,0,0-.15,0l-.35.09-.41.14c-.21.07-.2.11-.4.19s-.23,0-.43.11-.18.14-.38.23-.21.06-.41.16a.5.5,0,0,0-.17.12h-.09l.1-.07c.13-.11.1-.15.24-.25s.17-.07.31-.17.12-.15.27-.24a3.18,3.18,0,0,1,.32-.16,1.06,1.06,0,0,1,.23-.08,1.29,1.29,0,0,0,.16-.09.23.23,0,0,0,.12-.25.25.25,0,0,0,0-.09c.6-.24.68-.26,1.44-.52a14.3,14.3,0,0,1,1.7-.48,4.26,4.26,0,0,1,.87-.09h.87a6,6,0,0,1,1.7.16,5,5,0,0,1,.8.26,5.82,5.82,0,0,1,.75.38l.21.15s0,0,0,0l-.13.2c-.08.1-.17.22-.31.37a6.83,6.83,0,0,1-.9.81,15.33,15.33,0,0,0-1.89,1.33Zm-2.25,3.85a8.94,8.94,0,0,1-1.23-.42,10.89,10.89,0,0,1-1.64-.85,7.64,7.64,0,0,1-1-.79.3.3,0,0,1,.13.06l.3.2a1.58,1.58,0,0,1,.21.16,1,1,0,0,0,.18.08.23.23,0,0,0,.27-.07.17.17,0,0,0,0-.16l-.19-.13c-.16-.09-.18-.05-.34-.14l-.29-.19-.31-.19c-.14-.11-.11-.14-.26-.25l-.28-.21-.28-.23,0,0h0l.28.11c.13.06.11.11.25.17s.14.06.27.12l.28.13.27.13.2.08c.12,0,.22.15.38.1a.18.18,0,0,0,.13-.19.13.13,0,0,0-.05-.11h0l.21.07c.4.11.42.05.81.16s.39.15.79.25.41.05.81.16l.79.22c.3.08.37.12.55.18l.42.09c.16,0,.41.08.51-.05s0-.13-.06-.18a5.31,5.31,0,0,0-.52-.17c-.4-.1-.41-.06-.81-.16l-.8-.23-.8-.19c-.39-.11-.38-.16-.78-.27s-.4-.1-.8-.2l-.8-.22-.79-.22-.57-.13c-.14,0-.28-.08-.42-.12l-.07,0-.15-.05a.28.28,0,0,0-.15,0l-.06-.05c.2,0,.21-.06.42-.06s.21,0,.42,0h.43c.21,0,.21.07.42.09s.21,0,.42,0l.42.07.42.08.3.06c.18,0,.35.13.55.07s.17-.1.12-.2a.43.43,0,0,0-.11-.12l-.35-.1-.43-.09c-.21-.05-.22,0-.43-.05s-.21-.09-.43-.12-.22,0-.44,0-.22-.06-.43-.08l.37-.11h.15c.17,0,.17-.07.35-.07l.35,0a1,1,0,0,1,.24.05h.19a.22.22,0,0,0,.23-.15.28.28,0,0,0,0-.09l.33,0a8.4,8.4,0,0,1,1.3.22,8.31,8.31,0,0,1,1.24.38,12.37,12.37,0,0,1,1.2.54,8.26,8.26,0,0,1,1.12.68,6.92,6.92,0,0,1,1,.86c.22.24.45.48.88,1a.79.79,0,0,1,.25.43s0,.06-.09.12a4.38,4.38,0,0,1-1.15.35,9.31,9.31,0,0,1-1.29.17,7.4,7.4,0,0,1-1.29,0A7.82,7.82,0,0,1,316.76,322.92Zm-5.21-.89c.07.14.07.16.15.31a1.8,1.8,0,0,1,.1.24.91.91,0,0,0,.11.16.21.21,0,0,0,.26.08.15.15,0,0,0,.12-.12,1.78,1.78,0,0,0-.1-.21c-.09-.16-.13-.13-.21-.29l-.16-.32a3.18,3.18,0,0,1-.16-.32c-.07-.16,0-.18-.1-.34s-.07-.17-.13-.33l-.12-.34v-.05h0c.08.13.09.12.18.25s0,.15.12.27l.18.25c.08.12.09.12.17.25l.16.25.14.17c.08.09.11.24.27.28a.18.18,0,0,0,.21-.09.3.3,0,0,0,0-.12l-.14-.21c-.08-.13-.09-.13-.17-.25l0,0c.29.29.25.33.54.63s.32.26.61.55.26.33.54.63.33.25.62.55.28.3.56.6.25.29.37.43.21.21.32.3.32.27.46.21.08-.1,0-.18-.17-.2-.37-.41-.32-.27-.61-.56l-.56-.6c-.29-.3-.3-.29-.58-.59s-.26-.32-.47-.55h0c.32.16.61.35,1.27.63a7,7,0,0,0,1.34.41l.5.09a.45.45,0,0,0,0,.11c.16.34.24.51.52,1.08a9.38,9.38,0,0,1,.69,1.63c.11.43.14.65.18.88l0,.15v.07s0,.05,0,.05h0l-.1.07a4.67,4.67,0,0,1-.44.17l-.32.06a2.52,2.52,0,0,1-.81-.06,3,3,0,0,1-.48-.16l-.31-.17-.29-.19c-.12-.08-.26-.16-.44-.29a8.37,8.37,0,0,1-1.37-1.1c-.31-.32-.46-.48-.6-.65a8.27,8.27,0,0,1-.55-.7,2.42,2.42,0,0,1-.26-.42l-.16-.33-.36-.82C311.79,322.69,311.63,322.24,311.55,322Zm15.55-19.38a.36.36,0,0,1,.13.08l-.14-.08Zm-1.19-3.81.08-.2c0,.07,0,.11-.08.24l-.07.12Zm5.76-1.88-.09,0-1.27.35a9.68,9.68,0,0,0-1.23.45c-.2.09-.41.19-.69.34.18-.23.23-.24.43-.52s.18-.35.41-.66l.47-.62c.18-.23.24-.28.35-.41l.23-.34c.07-.13.2-.34.11-.47s-.11-.06-.19,0l-.32.4c-.23.32-.19.34-.42.66s-.24.3-.47.62-.22.32-.45.63-.27.28-.5.59-.23.33-.44.61c-.43.27-.66.42-.93.61,0,0,0-.07.06-.11l.2-.35.22-.33.15-.25c.08-.15.24-.26.25-.45s0-.2-.15-.19a.24.24,0,0,0-.14.05l-.21.27-.23.35c-.11.17-.08.19-.19.37s-.15.15-.25.33-.06.2-.15.38-.12.18-.19.3a.81.81,0,0,1,0-.24c.06-.17.1-.16.16-.32s0-.19.08-.36.09-.16.16-.32a1.7,1.7,0,0,1,.15-.21c0-.06.05-.11.07-.17a.23.23,0,0,0-.06-.28.12.12,0,0,0-.09,0c.19-.33.29-.46.63-1a11,11,0,0,1,1-1.34,3,3,0,0,1,.61-.56l.64-.5a5.53,5.53,0,0,1,1.36-.85,6.18,6.18,0,0,1,.74-.27,5.73,5.73,0,0,1,.78-.14h.22s0,0,0,0v.2a2.49,2.49,0,0,1,0,.45,6.88,6.88,0,0,1-.2,1.12,12.22,12.22,0,0,0-.64,2.08Zm1.6,3.61a6.27,6.27,0,0,1-1.08.56,7.92,7.92,0,0,1-1.16.39,9.59,9.59,0,0,1-1.71.3,5.77,5.77,0,0,1-1.1,0h0l.35,0a1,1,0,0,1,.24,0,.61.61,0,0,0,.18-.05.2.2,0,0,0,.16-.21.17.17,0,0,0-.07-.15h-.22c-.17,0-.16.07-.33.09l-.33,0-.33,0c-.17,0-.17,0-.34,0h-.65a1.42,1.42,0,0,1,.21-.06c.14,0,.15,0,.29,0l.27-.07.28-.06.28-.06a.59.59,0,0,0,.19-.06c.11,0,.25,0,.34-.14a.18.18,0,0,0,0-.23.18.18,0,0,0-.1-.06l-.23,0-.28.07c-.14,0-.13.07-.27.1h-.08a2.47,2.47,0,0,1,.34-.15c.36-.14.38-.09.73-.23s.34-.18.7-.32.37-.1.73-.23.34-.2.69-.34l.72-.27a5.23,5.23,0,0,1,.51-.16l.37-.17c.13-.07.34-.18.33-.34s-.06-.11-.15-.11l-.47.17c-.36.14-.34.19-.7.33l-.71.27-.71.29c-.36.13-.38.09-.73.22l-.72.28-.71.28-.72.27-.4.17.06-.05c.17-.13.2-.09.36-.21l.33-.25.34-.23c.17-.11.18-.1.35-.2l.25-.15c.15-.1.34-.12.45-.28a.16.16,0,0,0,0-.24.26.26,0,0,0-.15,0l-.33.14c-.19.09-.19.1-.38.2s-.16.14-.35.25-.2.07-.38.19-.15.17-.32.29l-.12.08a.25.25,0,0,1,0-.08c.09-.14.12-.11.21-.24s.05-.17.16-.29a2.4,2.4,0,0,1,.23-.21.48.48,0,0,1,.19-.11l.12-.11a.23.23,0,0,0,.06-.26s0,0,0-.05l.26-.17a9.68,9.68,0,0,1,1.1-.58,9.26,9.26,0,0,1,1.15-.43c.58-.16.89-.22,1.19-.28a8.07,8.07,0,0,1,1.24-.13,5.6,5.6,0,0,1,1.23.07l1.21.22a.79.79,0,0,1,.42.17s0,0,0,.12a4,4,0,0,1-.66.92,9.86,9.86,0,0,1-.85.86A7.29,7.29,0,0,1,333.27,300.57Zm-5.34,2.95a.75.75,0,0,1,.22.07l.36.17a1.46,1.46,0,0,1,.24.15l.2.06c.08,0,.2,0,.28-.09a.15.15,0,0,0,0-.17,1.25,1.25,0,0,0-.23-.11c-.18-.08-.19,0-.37-.12l-.35-.16-.36-.16c-.17-.09-.15-.14-.32-.23l-.13-.07.2.08.29.12.3.13c.09,0,.21.06.22.07s.25.14.41.08a.19.19,0,0,0,.12-.21.18.18,0,0,0-.07-.1l-.24-.1-.29-.11c-.15-.06-.16,0-.31-.08s-.13-.11-.25-.16l.36,0c.38.06.37.12.76.17s.39,0,.77.07.38.1.77.15.39,0,.77.06l.77.12c.28.05.35.08.53.12l.41,0c.14,0,.39,0,.46-.12s0-.13-.07-.17-.24-.06-.51-.1-.39,0-.77-.07l-.77-.12c-.38-.06-.38,0-.77-.1s-.36-.09-.55-.13c.3,0,.62-.12,1.21-.25a5.48,5.48,0,0,0,1.24-.46l.42-.21s0,.05.06.07l1,.51a8,8,0,0,1,1.45.82,6.77,6.77,0,0,1,.64.55l.1.1,0,0s0,0,0,.05l-.05.11a3.57,3.57,0,0,1-.22.38l-.2.22a2.36,2.36,0,0,1-.64.43l-.45.15-.33,0-.81.06a7.61,7.61,0,0,1-1.65,0,8.92,8.92,0,0,1-1.63-.35,1.7,1.7,0,0,1-.43-.16l-.31-.16a7.35,7.35,0,0,1-.74-.41C328.44,303.85,328.12,303.65,327.93,303.52Zm19.49,2.32h0l.08,0Zm1-5.13-.05,0-1,.71a9.69,9.69,0,0,0-.91.78l-.41.44a4.13,4.13,0,0,0,.17-.48c.1-.34,0-.36.13-.7l.2-.68a3.11,3.11,0,0,1,.17-.46c0-.12.06-.24.08-.37s0-.35-.07-.43-.13,0-.18,0a4.21,4.21,0,0,0-.15.44c-.09.34-.05.36-.14.7s-.11.33-.2.67-.08.35-.18.69-.14.33-.24.67-.08.34-.17.63l-.55.75h0l.06-.36c0-.18,0-.18.08-.36s0-.24,0-.25c0-.16.13-.3.07-.47s-.11-.16-.21-.12a.2.2,0,0,0-.11.09l-.09.3-.09.36c0,.19,0,.2,0,.38s-.08.18-.11.36,0,.2,0,.38a2.17,2.17,0,0,1-.05.25.31.31,0,0,1,0-.15c0-.16,0-.16,0-.32s-.06-.17,0-.33,0-.16,0-.33a1.29,1.29,0,0,1,.06-.22,1,1,0,0,0,0-.17.21.21,0,0,0-.15-.22h-.06c.06-.33.09-.48.22-1a15,15,0,0,1,.4-1.46,4.39,4.39,0,0,1,.34-.67c.11-.15.2-.31.39-.63a5.24,5.24,0,0,1,.88-1.15,4.12,4.12,0,0,1,1.15-.83l.15-.07a0,0,0,0,1,0,0v0l0,.12a4,4,0,0,1,.13.38,6.56,6.56,0,0,1,.19,1,10.21,10.21,0,0,0,.14,2A.14.14,0,0,0,348.44,300.71Zm2.53,2.55a6.13,6.13,0,0,1-.74.82,7.66,7.66,0,0,1-.85.7,8.2,8.2,0,0,1-1.35.81,3.88,3.88,0,0,1-.36.15l.1-.07a.22.22,0,0,0,.06-.25.18.18,0,0,0-.12-.12l-.18.08c-.13.07-.11.11-.25.19l-.27.12-.27.14c-.15.06-.16,0-.3.07s-.14.07-.29.12l-.18.06.08-.06c.11-.07.14,0,.25-.1l.21-.15.21-.15.22-.13.14-.12c.09-.07.22-.09.25-.23a.24.24,0,0,0-.1-.22.23.23,0,0,0-.11,0l-.18.11-.19.13c.24-.21.28-.19.53-.41s.23-.28.48-.51.29-.2.55-.44.21-.28.47-.51.27-.23.53-.46a2.28,2.28,0,0,1,.38-.3,3.2,3.2,0,0,0,.25-.27c.09-.1.24-.26.18-.4a.14.14,0,0,0-.18-.06c-.11.09-.17.13-.35.29s-.23.27-.49.51l-.52.46c-.26.23-.25.25-.51.48s-.29.2-.55.43l-.51.47-.51.48c-.26.23-.27.22-.52.46l-.25.23h0c.1-.16.14-.14.24-.29a3.45,3.45,0,0,1,.2-.32l.21-.3.24-.29.16-.21c.09-.13.25-.21.29-.39s0-.19-.12-.2a.22.22,0,0,0-.14,0l-.24.23-.26.29c-.12.15-.09.18-.21.33s-.16.13-.27.29-.06.19-.17.35a.15.15,0,0,1,0,.06v0c0-.14.07-.13.11-.27s0-.16,0-.29.07-.13.13-.26a.4.4,0,0,1,.13-.15l.06-.14a.19.19,0,0,0,0-.24l0,0a2.29,2.29,0,0,0,.17-.23,10.44,10.44,0,0,1,.74-.84,7.72,7.72,0,0,1,.84-.73c.44-.33.69-.48.92-.63a8.69,8.69,0,0,1,1-.51,4.46,4.46,0,0,1,1.08-.33l1.09-.2a.68.68,0,0,1,.39,0s0,0,0,.07a4,4,0,0,1-.25,1,10.68,10.68,0,0,1-.45,1A8.21,8.21,0,0,1,351,303.26Zm-3.43,4.26h.08l.36,0a1.09,1.09,0,0,1,.25.05l.19,0a.22.22,0,0,0,.21-.18.18.18,0,0,0,0-.16l-.23,0c-.18,0-.18,0-.36,0l-.35,0-.36,0a.62.62,0,0,1-.24-.07h.75c.12,0,.26,0,.38-.07a.2.2,0,0,0,0-.24.18.18,0,0,0-.09-.07h-.52c-.15,0-.15,0-.29,0a.43.43,0,0,1-.19,0l.07,0,.18,0c.34-.08.35,0,.7-.1s.33-.13.68-.2.35,0,.7-.11.33-.14.67-.21l.7-.14a2.85,2.85,0,0,1,.49-.07l.35-.1c.13-.05.34-.12.36-.27s0-.12-.12-.14l-.46.08c-.35.08-.34.12-.69.2l-.69.14c-.34.07-.34.09-.69.16a1.88,1.88,0,0,1-.38.06l.85-.54a5.39,5.39,0,0,0,.91-.81l.26-.3.07,0,1,.11a7.55,7.55,0,0,1,1.49.22c.37.12.54.19.72.26l.12.05,0,0s0,0,0,0v.09c0,.17-.05.29-.07.39l-.1.25a2.06,2.06,0,0,1-1,1l-.67.31a6.74,6.74,0,0,1-1.41.5,7.67,7.67,0,0,1-1.5.23,1.39,1.39,0,0,1-.41,0l-.31,0-.76-.11Zm61.81-9.65h0l.08,0Zm1-5.13-.06,0-1,.71a9.42,9.42,0,0,0-.91.79c-.12.12-.25.25-.41.43.06-.16.09-.22.17-.48s0-.36.13-.7.1-.34.2-.68.11-.31.16-.46.06-.24.08-.36.06-.36-.07-.44-.12,0-.18,0-.07.2-.14.44-.05.36-.15.7-.1.34-.19.68-.08.34-.18.68-.14.33-.24.67-.09.34-.17.63l-.55.75h0l.06-.36a3.59,3.59,0,0,1,.08-.35l0-.26c0-.15.12-.3.06-.47a.17.17,0,0,0-.21-.12.22.22,0,0,0-.1.09,2.82,2.82,0,0,0-.09.3l-.09.37c0,.18,0,.19,0,.37s-.08.18-.11.37,0,.19,0,.38a1.27,1.27,0,0,1,0,.18h0a.19.19,0,0,1,0-.08c0-.17,0-.17,0-.33s-.06-.17-.05-.33,0-.16,0-.33a.85.85,0,0,1,.06-.22,1,1,0,0,0,0-.17.22.22,0,0,0-.15-.22h-.07c.07-.34.1-.49.23-1a10.37,10.37,0,0,1,.4-1.45,2.86,2.86,0,0,1,.34-.67l.39-.63a5.86,5.86,0,0,1,.87-1.16,4.32,4.32,0,0,1,1.16-.83l.15-.07s0,0,0,0h0l.06.12c0,.1.08.22.13.39a7.55,7.55,0,0,1,.19,1,10.16,10.16,0,0,0,.14,2A.14.14,0,0,0,410.37,292.74Zm2.53,2.55a5.58,5.58,0,0,1-.74.82,7.49,7.49,0,0,1-.85.7,10.1,10.1,0,0,1-1.35.82l-.37.14.1-.07a.21.21,0,0,0-.05-.37l-.18.08c-.14.08-.11.12-.25.19l-.28.13-.27.14c-.14.05-.16,0-.3.06l-.28.12-.18.06.08-.06c.11-.07.14,0,.24-.1l.21-.15.22-.14.22-.14a1.71,1.71,0,0,0,.14-.11c.08-.08.22-.09.24-.24a.22.22,0,0,0-.1-.22.2.2,0,0,0-.1,0l-.19.11-.18.13c.24-.21.28-.18.53-.41s.22-.27.48-.51.29-.2.54-.44.22-.28.48-.51l.52-.46a3,3,0,0,1,.39-.3c.08-.09.17-.17.25-.27s.24-.26.17-.4a.13.13,0,0,0-.17-.06c-.11.09-.17.13-.36.3s-.22.26-.48.5l-.52.46c-.26.24-.25.25-.51.48s-.29.2-.55.43l-.51.48-.52.47-.52.46-.24.23h0c.09-.16.14-.13.24-.29l.19-.32.22-.3c.11-.15.12-.15.23-.29a1.62,1.62,0,0,0,.16-.21c.1-.12.26-.2.3-.38a.18.18,0,0,0-.13-.21.34.34,0,0,0-.14,0l-.23.23-.26.3c-.12.15-.09.17-.21.33s-.16.12-.27.28-.07.19-.17.35l-.05.07s0,0,0,0,.07-.13.11-.27,0-.16,0-.29a1.58,1.58,0,0,1,.13-.26.5.5,0,0,1,.13-.15l.06-.13a.21.21,0,0,0,0-.25l0,0,.17-.23a8.75,8.75,0,0,1,.74-.84,9,9,0,0,1,.84-.73c.44-.33.68-.48.92-.63a7.25,7.25,0,0,1,1-.51,5.1,5.1,0,0,1,1.07-.33l1.1-.2a.68.68,0,0,1,.39,0,.19.19,0,0,1,0,.08,4,4,0,0,1-.26,1,9.05,9.05,0,0,1-.45,1A6.11,6.11,0,0,1,412.9,295.29Zm-3.43,4.26h.08l.36,0a1.09,1.09,0,0,1,.25.05.62.62,0,0,0,.19,0,.21.21,0,0,0,.21-.18.19.19,0,0,0,0-.16l-.24,0c-.17,0-.18,0-.35,0l-.35,0h-.36a1.46,1.46,0,0,1-.24-.07h.24l.3,0,.21,0c.12,0,.26,0,.38-.07a.21.21,0,0,0,0-.23.22.22,0,0,0-.09-.08h-.52c-.15,0-.15,0-.29,0a.44.44,0,0,1-.2-.05l.08,0,.17,0c.35-.07.36,0,.7-.1s.34-.12.68-.2.36,0,.7-.11.34-.14.68-.21l.69-.14a3.13,3.13,0,0,1,.49-.07l.36-.1c.13,0,.34-.11.36-.26a.14.14,0,0,0-.12-.15l-.47.08c-.34.08-.33.13-.68.2l-.69.14-.69.17a2.63,2.63,0,0,1-.38.05l.84-.54a4.68,4.68,0,0,0,.91-.81l.27-.3.07,0,1,.11a6.86,6.86,0,0,1,1.49.21,7.42,7.42,0,0,1,.72.27l.11,0,0,0s0,0,0,0,0,0,0,.09-.05.28-.07.38l-.1.25a1.91,1.91,0,0,1-.4.56,2,2,0,0,1-.59.41l-.67.31a7,7,0,0,1-1.42.5,8.41,8.41,0,0,1-1.49.24,1.84,1.84,0,0,1-.42,0l-.31,0-.75-.11ZM389.05,297,389,297l-1.31-.53a11.14,11.14,0,0,0-1.34-.42c-.25-.05-.5-.11-.88-.16.36-.11.39-.08.78-.19s.38-.18.78-.29l.8-.23c.3-.08.38-.08.57-.12s.28-.09.41-.15.4-.15.41-.31-.06-.11-.15-.12-.25,0-.53.13-.39.16-.79.28l-.8.22c-.4.12-.4.14-.8.25s-.41.07-.81.19l-.8.23c-.57,0-.86-.07-1.25-.08l.2-.09.4-.17.4-.14.29-.11c.17-.07.37-.07.51-.22s.1-.18,0-.24a.28.28,0,0,0-.15,0l-.35.09-.43.15c-.21.07-.19.11-.4.18s-.22,0-.43.12-.18.14-.38.23-.22.06-.42.16a.67.67,0,0,0-.17.13h-.12a.25.25,0,0,0,.12-.08c.14-.11.11-.15.25-.25a2.48,2.48,0,0,1,.32-.17c.15-.1.11-.15.27-.24s.16-.08.32-.17a1.06,1.06,0,0,1,.23-.08l.16-.09a.23.23,0,0,0,.12-.25.13.13,0,0,0,0-.09c.61-.25.7-.28,1.45-.53a14.86,14.86,0,0,1,1.73-.5,3.71,3.71,0,0,1,.88-.09h.88a6.61,6.61,0,0,1,1.72.16,8,8,0,0,1,.81.26,5,5,0,0,1,.76.39l.22.15s0,0,0,0l-.14.2a2.16,2.16,0,0,1-.31.38,8.28,8.28,0,0,1-.91.83,15.39,15.39,0,0,0-1.91,1.35Zm2.88,3.49c0,.05,0,.07-.09.13a4.64,4.64,0,0,1-1.16.36,10.28,10.28,0,0,1-1.3.18,8.84,8.84,0,0,1-1.31,0,9.2,9.2,0,0,1-2.53-.66,11.9,11.9,0,0,1-1.67-.85,7.11,7.11,0,0,1-1-.81l.14.07.31.2a2.3,2.3,0,0,1,.2.16l.18.08a.22.22,0,0,0,.27-.07.15.15,0,0,0,0-.16,1.76,1.76,0,0,0-.2-.13c-.16-.09-.18-.05-.34-.14l-.3-.2c-.15-.09-.16-.08-.31-.18s-.11-.15-.26-.26l-.29-.21-.28-.23,0,0h0c.14.06.14,0,.28.11s.12.11.26.17.14.06.28.12l.28.13.27.13.2.08c.13,0,.23.15.39.1a.18.18,0,0,0,.13-.19.28.28,0,0,0-.05-.11l0,0,.25.08c.41.1.42,0,.82.16s.39.14.8.25.42.05.82.16l.8.22c.3.08.37.12.55.18l.43.09c.16,0,.42.07.51-.05s0-.13-.06-.19l-.53-.16c-.4-.1-.41-.06-.82-.17s-.4-.11-.8-.22-.41-.09-.81-.2-.39-.15-.79-.26l-.81-.21-.81-.21-.8-.22-.58-.14-.42-.11-.07-.06-.16,0a.2.2,0,0,0-.15,0,.18.18,0,0,0-.07-.05h0c.22,0,.22-.06.43-.06s.22,0,.43,0h.44c.21,0,.21.06.42.09s.22,0,.43,0l.42.06.43.09.3.05c.18,0,.36.14.55.08s.18-.1.12-.21a.27.27,0,0,0-.1-.11l-.36-.1-.43-.09c-.22-.05-.23,0-.44-.05s-.21-.09-.43-.12-.23,0-.45,0-.22-.06-.44-.08h0l.39-.12h.15c.18,0,.18-.07.35-.07l.36,0a1.09,1.09,0,0,1,.25.05h.18a.23.23,0,0,0,.24-.15.38.38,0,0,0,0-.1l.33,0a10.68,10.68,0,0,1,2.58.6,12.3,12.3,0,0,1,1.21.55,8.8,8.8,0,0,1,1.14.68,7,7,0,0,1,1,.87c.22.24.45.48.89,1A.79.79,0,0,1,391.93,300.53ZM388.48,303a5.83,5.83,0,0,0-.37-.7,4.23,4.23,0,0,0-.3-.42l.18,0c.71.08,1.06.07,1.42.1a7.23,7.23,0,0,0,.94-.06c-.4.22-.72.41-.77.45Zm-7-2.95v0c.08.16.07.17.16.33a.92.92,0,0,1,.09.24,1,1,0,0,0,.12.16.23.23,0,0,0,.26.09.17.17,0,0,0,.12-.13c0-.06,0-.1-.1-.21s-.13-.13-.22-.29l-.16-.33c-.08-.16-.09-.15-.16-.31s0-.19-.1-.36-.07-.16-.14-.33l-.12-.34,0-.06h0c.09.13.1.12.19.25s0,.15.13.28l.17.24.18.25.16.26.14.17c.08.1.11.25.27.29a.21.21,0,0,0,.22-.1.17.17,0,0,0,0-.12l-.14-.21c-.08-.13-.08-.12-.17-.25l0,0,.05,0c.29.3.25.34.54.64s.33.26.62.56.26.33.55.63.33.25.62.55.29.31.57.61a4.69,4.69,0,0,1,.38.44c.11.1.21.21.32.3s.32.28.47.22.07-.11,0-.19a4.78,4.78,0,0,0-.37-.41c-.29-.3-.32-.27-.61-.57l-.58-.6-.59-.59c-.27-.28-.26-.33-.49-.58l0,0a12.31,12.31,0,0,0,1.27.63,6,6,0,0,0,1.37.41l.5.1a.45.45,0,0,0,0,.11l.53,1.09.21.42a4.3,4.3,0,0,0-.6.5c-.24.25-.41.61,0,.55a2.56,2.56,0,0,0,.64-.22l.26-.16a3.37,3.37,0,0,1,.18.56c.11.44.15.66.19.89l0,.15v.11l0,0h0l-.11.07a4.67,4.67,0,0,1-.44.17l-.32.06a2.57,2.57,0,0,1-.83-.05,3.2,3.2,0,0,1-.48-.17l-.31-.17c-.1-.05-.19-.12-.3-.19s-.26-.16-.44-.29a8.68,8.68,0,0,1-1.39-1.11c-.32-.32-.47-.49-.62-.66a7.31,7.31,0,0,1-.55-.71,2.42,2.42,0,0,1-.26-.42l-.17-.33c-.09-.21-.19-.42-.36-.83S381.57,300.2,381.5,300Zm-16.85,18.28h0l-1-.28a6.86,6.86,0,0,0-1-.21l-.3,0,.22-.07c.27-.11.25-.17.52-.28l.56-.21a1.84,1.84,0,0,1,.39-.11l.28-.14c.1-.06.27-.15.25-.29a.14.14,0,0,0-.13-.13,3.45,3.45,0,0,0-.37.13c-.28.11-.26.15-.53.26l-.56.21-.54.23c-.28.11-.29.06-.57.17l-.47.2h-.64l.13-.07.27-.12.19-.11c.12-.06.27-.06.34-.2a.2.2,0,0,0,0-.24.19.19,0,0,0-.12,0l-.24.09-.29.14c-.15.06-.13.1-.27.17s-.16,0-.3.1a.22.22,0,0,1,.09-.11,1.88,1.88,0,0,1,.24-.14.6.6,0,0,1,.18-.07l.11-.09a.19.19,0,0,0,.05-.23c.25-.13.37-.18.79-.37a11.9,11.9,0,0,1,1.17-.47,2.26,2.26,0,0,1,.62-.1l.61-.05a4.32,4.32,0,0,1,1.19,0,3.47,3.47,0,0,1,.58.13,1.11,1.11,0,0,1,.22.07l.29.12c.08.05.12.07.09.08l0,.05a2,2,0,0,1-.19.28,4.81,4.81,0,0,1-.56.63c-.37.37-.93.62-1.23,1.11Zm-4.55-.6h0a.51.51,0,0,1,.13-.08l-.05,0Zm-.29,3.23,0,0Zm4.43.35a5.27,5.27,0,0,1-.91-.08,5.49,5.49,0,0,1-.89-.21,7.36,7.36,0,0,1-1.22-.48l-.12-.07a.22.22,0,0,0,.11-.11.2.2,0,0,0,0-.16.4.4,0,0,0-.15-.08c-.11-.05-.13,0-.25-.06l-.22-.12-.23-.11c-.1-.06-.09-.1-.18-.16l.08,0,.21.06.2.08a.47.47,0,0,0,.15,0c.09,0,.17.1.28,0a.25.25,0,0,0,.11-.21s0,0,0-.05l.16,0c.29.05.3,0,.59.06s.28.09.56.14.3,0,.59,0l.57.11a3.6,3.6,0,0,1,.39.11l.31,0c.11,0,.3,0,.36-.12a.14.14,0,0,0,0-.18l-.38-.09c-.28,0-.29,0-.58-.06l-.57-.11c-.29-.06-.29,0-.58-.09s-.28-.11-.56-.16l-.58-.1-.57-.1-.45-.09.23,0h.62a1.5,1.5,0,0,0,.22,0c.13,0,.26.07.4,0a.18.18,0,0,0,.09-.22.3.3,0,0,0-.09-.1l-.27,0-.33,0c-.17,0-.17,0-.33,0s-.16-.05-.33,0h0a.31.31,0,0,1,.12-.09l.24,0a.39.39,0,0,1,.16,0l.12,0a.23.23,0,0,0,.14-.15h.25a5.84,5.84,0,0,1,.93.07,6,6,0,0,1,.9.18c.44.13.66.22.88.3a4.82,4.82,0,0,1,.84.4,3.65,3.65,0,0,1,.76.55l.68.63a.8.8,0,0,1,.14.17l0,0a0,0,0,0,1,0,0,3.24,3.24,0,0,1-.76.31A5.44,5.44,0,0,1,364.24,321.27Zm-4.17.58a.17.17,0,0,0,.23,0,.25.25,0,0,0,.11-.12.82.82,0,0,0-.1-.17c-.09-.12-.13-.1-.21-.22l-.16-.25h0a.49.49,0,0,0,.09.1c.07.08.1.2.25.21a.21.21,0,0,0,.2-.12.12.12,0,0,0,0-.1l-.11-.16-.15-.19c-.06-.09-.1-.08-.15-.15l.19.14a3.05,3.05,0,0,0,.27.28c.22.19.26.15.48.34s.2.22.42.42.27.14.49.33l.45.4a3.9,3.9,0,0,1,.29.29,2.27,2.27,0,0,0,.25.18c.09.07.25.17.37.09a.15.15,0,0,0,.06-.18l-.29-.27c-.22-.19-.26-.15-.48-.35l-.45-.39-.45-.37-.08-.07.6.21a4.14,4.14,0,0,0,1,.2l.3,0s0,0,0,.05l.43.73a6.52,6.52,0,0,1,.62,1.09,5.23,5.23,0,0,1,.19.61.65.65,0,0,0,0,.1s0,0-.06.07l-.26.12-.21.07a1.81,1.81,0,0,1-.56,0,1.47,1.47,0,0,1-.56-.2l-.53-.29a5.31,5.31,0,0,1-1-.68,6.24,6.24,0,0,1-.91-.87,1.67,1.67,0,0,1-.2-.27l-.13-.22C360.24,322.16,360.17,322.05,360.07,321.85Zm-17.14-2.61-.07-.05c-.28-.17-.56-.35-1.12-.68a9.64,9.64,0,0,0-1.18-.59l-.71-.26c.28,0,.32,0,.66-.05s.38-.11.77-.15l.77-.09c.29,0,.36,0,.54,0l.4-.07c.15,0,.39-.09.42-.23s0-.13-.12-.16-.24,0-.51.05-.38.09-.76.14l-.78.09c-.38,0-.38.06-.77.1s-.39,0-.77.05-.39.05-.75.1c-.49-.13-.76-.2-1.07-.26l.12,0,.39-.1.39-.07.28-.06c.16,0,.35,0,.51-.13s.11-.16,0-.24a.35.35,0,0,0-.14-.06l-.34,0-.41.07c-.2,0-.19.08-.4.12s-.21,0-.41,0-.19.1-.39.16-.21,0-.4.08L337,317h0l0,0c.15-.08.12-.13.27-.2s.17,0,.31-.11.13-.13.29-.19.16,0,.31-.1a1.31,1.31,0,0,1,.23,0l.17-.07a.22.22,0,0,0,.14-.22.14.14,0,0,0,0-.07c.59-.13.68-.14,1.41-.27a13.42,13.42,0,0,1,1.66-.2,4,4,0,0,1,.82.06l.81.12a5.39,5.39,0,0,1,1.54.41,4.63,4.63,0,0,1,.71.35,5.68,5.68,0,0,1,.64.47l.16.15s0,0,0,0,0,0,0,0l-.11.12a4.09,4.09,0,0,1-.34.29,9.09,9.09,0,0,1-1,.63,13,13,0,0,0-1.95,1Zm-2.66,3.24a7.41,7.41,0,0,1-1.08-.57,9.45,9.45,0,0,1-1.4-1,6.1,6.1,0,0,1-.73-.79h0l.26.24a.79.79,0,0,1,.16.18.83.83,0,0,0,.16.09.2.2,0,0,0,.27,0,.17.17,0,0,0,.06-.15,1.23,1.23,0,0,0-.16-.15c-.13-.11-.16-.07-.29-.18l-.25-.22-.26-.22c-.12-.12-.08-.15-.2-.27l-.23-.24-.21-.24.19.11c.11.08.09.12.2.2l.24.15.24.16.23.17.18.09c.11.06.18.18.34.16a.2.2,0,0,0,.16-.18.19.19,0,0,0,0-.08l.17.08c.35.16.37.11.73.27s.33.19.69.35.38.1.73.26l.71.33c.26.12.32.17.48.25s.25.11.38.15.37.12.48,0,0-.12,0-.19L342,321c-.35-.16-.37-.12-.72-.28l-.71-.32-.72-.31c-.35-.16-.33-.2-.68-.36l-.72-.31-.71-.32c-.35-.15-.35-.16-.7-.32l-.51-.21-.37-.17-.06-.06a.52.52,0,0,0-.13-.06.22.22,0,0,0-.14,0h0l0,0c.16,0,.18,0,.36,0l.4.08c.2,0,.2,0,.39.06s.19.1.38.15l.39.1.38.12.37.15.27.09c.17.05.31.18.5.15a.16.16,0,0,0,.15-.19.2.2,0,0,0-.08-.12l-.31-.15-.38-.15c-.2-.07-.21,0-.4-.11s-.18-.11-.38-.17-.21,0-.41-.07-.2-.08-.34-.12l.31,0,.13,0c.17,0,.18,0,.34,0s.16,0,.32.07a1,1,0,0,1,.22.09l.17,0a.22.22,0,0,0,.24-.12s0,0,0-.06l.3.07a8.74,8.74,0,0,1,1.17.4,7.48,7.48,0,0,1,1.1.54,10.72,10.72,0,0,1,1,.68,8,8,0,0,1,.95.8,5.85,5.85,0,0,1,.79.94l.67,1a.86.86,0,0,1,.17.42s0,.05-.09.09a4.08,4.08,0,0,1-1.12.15,8.17,8.17,0,0,1-1.21,0,7.29,7.29,0,0,1-1.2-.22A7,7,0,0,1,340.27,322.48Zm-4.64-1.28v0a.85.85,0,0,1,0,.24,1.29,1.29,0,0,0,.09.16.21.21,0,0,0,.24.11.16.16,0,0,0,.14-.1c0-.06,0-.1-.07-.21s-.1-.14-.15-.3l-.1-.32c-.05-.16-.06-.16-.11-.32s0-.17,0-.33,0-.17-.07-.33l-.06-.31c0,.07.05.09.1.19s0,.15.08.28.06.12.12.25.07.13.12.26l.12.26a1.24,1.24,0,0,0,.1.17c.06.11.07.25.21.31a.2.2,0,0,0,.23-.07.14.14,0,0,0,0-.11l-.09-.21-.05-.1c.13.21.14.28.33.55s.26.29.48.61.19.34.41.66.28.28.5.6l.43.64a3.52,3.52,0,0,1,.28.47c.09.1.17.22.25.32s.26.3.41.26.09-.09.08-.18-.12-.2-.28-.43-.26-.29-.48-.61l-.44-.64c-.22-.32-.23-.31-.46-.63s-.18-.33-.29-.49c.24.19.52.37,1,.71a6.09,6.09,0,0,0,1.19.58l.44.16a.31.31,0,0,0,0,.1l.32,1.07a8.34,8.34,0,0,1,.4,1.62,7.59,7.59,0,0,1,0,.84v.2s0,.05,0,.05l-.11,0-.43.1h-.3a2,2,0,0,1-.75-.17,3.14,3.14,0,0,1-.42-.22l-.25-.21-.6-.54a7.62,7.62,0,0,1-1.11-1.23,8.4,8.4,0,0,1-.87-1.43,1.59,1.59,0,0,1-.18-.43l-.1-.32c-.06-.21-.11-.41-.21-.82S335.67,321.42,335.63,321.2Zm-13.58-12.07c-.32.37-.7.75-.75.8a2.6,2.6,0,0,1-.31.25c0-.06,0-.12,0-.18a3.41,3.41,0,0,1,.1-.78,4.28,4.28,0,0,1,.25-.7c.08-.18.16-.35.34-.69a7.13,7.13,0,0,1,.84-1.29,2.67,2.67,0,0,1,.56-.52l.24-.18a.7.7,0,0,1,.21-.11s.08,0,.09.14a1.38,1.38,0,0,1-.12.62,5.76,5.76,0,0,1-.26.72,6.31,6.31,0,0,1-.33.68A6.79,6.79,0,0,1,322.05,309.13Zm9.71,3.06.16.07,2.36.62c1.44.37,1.44.36,2.87.74s1.45.29,2.89.67c1,.26,1.29.39,1.87.57h-.21a14.21,14.21,0,0,0-1.73.3,16.27,16.27,0,0,0-1.69.33c-.62.16-.79.16-1.17.24-.06,0-.17,0-.26.1a1.13,1.13,0,0,0-.26.16,2.36,2.36,0,0,0-.35.36l-.12.17-.13.12-.23.25c-.11.13-.07.16-.17.29s-.14.11-.23.25,0,.17-.11.32a2.19,2.19,0,0,0-.17.29.37.37,0,0,0,0,.19l-.05,0c-.62-.3-1.07-.55-2.28-1.06-2-.85-2-.75-4-1.52-1-.38-1.51-.54-2-.73s-1-.36-2-.68c-2-.66-2.06-.59-4.12-1.18s-2-.65-4.13-1.1c-.68-.15-1.13-.24-1.52-.31,2.73.1,4.47.19,6.21.29,2.3.1,4.6.16,9.2.21Zm7.76-.14c2.16-.09,4.33-.11,8.4-.25a.24.24,0,0,0,.08.09l0,0,0,0c.22.3.21.3.45.6s.26.26.51.54.19.34.46.6a.73.73,0,0,0,.64.27.51.51,0,0,0,.24-.1.51.51,0,0,0,.17-.24.69.69,0,0,0,0-.47,1.05,1.05,0,0,0-.08-.18l-.05-.09c0-.05-.06-.1-.09-.14l-.24-.32a5.12,5.12,0,0,0-.56-.58l-.13-.09,2.13-.06,2.29.62c1.92.5,1.92.49,3.83,1s1.93.43,3.85.94c1.49.39,1.8.54,2.77.83h0l-.68.08a3.12,3.12,0,0,0-.67.13,12.25,12.25,0,0,0-1.21.58,13,13,0,0,0-1.19.57c-.43.24-.56.26-.82.39a1.15,1.15,0,0,0-.36.31,2.09,2.09,0,0,0-.19.36c0,.06-.05.13-.07.21l0,.06-.12.23c-.05.12,0,.13-.06.25a.36.36,0,0,1-.09.13l-1.28-.35c-1.44-.37-1.46-.28-2.89-.65s-1.43-.39-2.87-.76-1.44-.34-2.87-.71-1.41-.47-2.85-.85-1.43-.35-2.87-.72-1.43-.37-2.87-.74l-2.86-.76c-.92-.23-1.93-.46-2.05-.49l-.69-.18,1.16,0Zm52.5-3.17.34,0a.19.19,0,0,0,.06.07,1.53,1.53,0,0,0,.44.23,11.42,11.42,0,0,1,1.24.3,12.51,12.51,0,0,1,1.46.49,12.1,12.1,0,0,1,1.42.6,1,1,0,0,1,.46.45,1,1,0,0,1,.1.47.53.53,0,0,1-.21.33.67.67,0,0,1-.55.11,1.25,1.25,0,0,1-.57-.31l-.56-.51a12.31,12.31,0,0,0-1.36-.9,11.71,11.71,0,0,0-1.4-.83C392.43,309.11,392.27,309,392,308.88Zm15.75-3.11-.1,0c.07-.22.1-.3.23-.62a5.62,5.62,0,0,1,.38-.78,6.28,6.28,0,0,1,.44-.76.54.54,0,0,1,.31-.21.92.92,0,0,1,.26-.05l.21,0s.1,0,.13.12a.5.5,0,0,1-.07.29l-.2.34c-.22.36-.12.44-.4.78a4.55,4.55,0,0,1-.64.6,2.08,2.08,0,0,1-.54.29Zm31.36-10.72-.08.18-.12.23a1.55,1.55,0,0,0,0-.15Zm-1,3.17h0Zm.26-.6h0v.07c0,.05,0,.1,0,.14l0,.07a1.07,1.07,0,0,1-.12.19.61.61,0,0,0,.07-.14C438.31,297.8,438.34,297.71,438.36,297.62Zm-.28-.52a1.89,1.89,0,0,1,.06-.18l.06-.13h0a2.81,2.81,0,0,1-.08.31Zm4.9-6.58-.12.08c-.34.24-.67.46-1.33.95a11.27,11.27,0,0,0-1.24,1.08c-.23.24-.47.48-.82.9,0,0,0-.08,0-.13.13-.47.17-.46.3-.93s.07-.48.2-1,.14-.47.27-.94.15-.43.22-.65.09-.33.12-.49.09-.49,0-.59-.13,0-.19.07-.1.29-.19.62-.09.48-.22.95-.14.47-.27.94-.12.47-.25.94-.18.46-.31.93-.12.47-.26.94v0c-.44.59-.63.87-.93,1.32,0-.18,0-.22.05-.44s0-.25.09-.5,0-.25.11-.49l.06-.35a1.65,1.65,0,0,0,.11-.65c0-.09-.09-.2-.2-.13a.34.34,0,0,0-.12.12l-.12.41-.12.51c-.06.25,0,.26-.07.51s-.1.25-.14.51,0,.26,0,.52-.07.25-.09.51a.85.85,0,0,0,0,.3,2.44,2.44,0,0,0-.1.24v0a3.53,3.53,0,0,1,0-.46c0-.22-.07-.22-.08-.44s0-.23,0-.46-.06-.22,0-.45,0-.23,0-.45a1.31,1.31,0,0,1,.07-.31c0-.08,0-.16,0-.24s0-.23-.14-.29a.14.14,0,0,0-.17,0,1.94,1.94,0,0,0-.07.3c0,.24,0,.24,0,.48l0,.46c0,.23,0,.23,0,.47s-.05.23,0,.47,0,.23,0,.46,0,.18,0,.24c0-.11-.09-.22-.13-.35a1.73,1.73,0,0,1-.05-.24.72.72,0,0,1,0-.2c0-.17,0-.31,0-.44a9.87,9.87,0,0,1,.1-1.06c.18-1.05.18-1.05.42-2.08a17.26,17.26,0,0,1,.57-2,5.85,5.85,0,0,1,.46-.94c.13-.22.26-.45.53-.89a6.94,6.94,0,0,1,1.23-1.61A5.37,5.37,0,0,1,441,286a2.5,2.5,0,0,1,.34-.23c.14-.07.29-.18.52-.29l.35-.15s0,0,0,0,.09.19.15.31.12.32.18.56a8.71,8.71,0,0,1,.26,1.42,25.14,25.14,0,0,0,.14,2.74A.75.75,0,0,0,443,290.52Zm4,2.78a9.56,9.56,0,0,1-1.56,1.9,10.08,10.08,0,0,1-1.19,1,11.21,11.21,0,0,1-1.89,1.12,8.63,8.63,0,0,1-1.75.61l.06,0c.2-.09.18-.14.37-.24s.2-.08.39-.18.2-.07.29-.11l.19-.13A.25.25,0,0,0,442,297a.17.17,0,0,0-.13-.12,2.07,2.07,0,0,0-.25.13c-.19.1-.17.14-.35.24l-.39.18-.37.19c-.2.08-.22,0-.41.11l-.4.15-.39.14-.28.08.19-.12.29-.21c.15-.1.18-.06.32-.16l.3-.2.29-.2a3,3,0,0,0,.3-.19,1.74,1.74,0,0,0,.21-.15c.11-.1.28-.14.35-.31a.18.18,0,0,0-.09-.22.33.33,0,0,0-.14,0l-.25.15-.29.2c-.15.1-.13.13-.28.23s-.17.06-.29.13c.16-.16.21-.23.48-.47s.39-.29.75-.6.33-.36.69-.68.38-.29.74-.61.32-.37.68-.69l.72-.64c.27-.24.35-.29.52-.43l.36-.36c.12-.13.33-.36.27-.51s-.1-.07-.2,0-.23.19-.48.42-.32.37-.67.69l-.72.64-.71.65c-.36.32-.39.28-.75.6l-.71.65-.72.64-.72.64c-.23.21-.47.45-.5.48l-.09.08c.06-.11.08-.16.18-.33s.17-.2.31-.41l.28-.44c.15-.21.15-.22.3-.42a4.39,4.39,0,0,1,.33-.4l.22-.29c.14-.17.35-.3.43-.52s0-.22-.11-.22a.35.35,0,0,0-.17.06,3,3,0,0,0-.32.31l-.36.4c-.17.21-.13.23-.3.44s-.2.19-.35.41-.11.25-.25.47a2.58,2.58,0,0,1-.19.25.79.79,0,0,1,0-.25c.05-.2.08-.19.14-.39s0-.21.07-.4a2.37,2.37,0,0,1,.17-.36,1.21,1.21,0,0,1,.17-.22l.1-.18a.27.27,0,0,0,0-.3.16.16,0,0,0-.16-.07l0,0c.09-.13.18-.26.3-.41a11.54,11.54,0,0,1,1-1.17,10.6,10.6,0,0,1,1.17-1,14,14,0,0,1,1.29-.86,10.48,10.48,0,0,1,1.39-.71,8.52,8.52,0,0,1,1.49-.48c.38-.08.77-.17,1.53-.3a1,1,0,0,1,.64,0c.07,0,.09.09.1.23a5.36,5.36,0,0,1-.37,1.4,10.55,10.55,0,0,1-.63,1.41C447.24,292.93,447.13,293.09,447,293.3Zm4.34,3.05v.22a4.15,4.15,0,0,1-.1.56c-.06.14-.1.25-.14.36a3.22,3.22,0,0,1-.58.81,5.24,5.24,0,0,1-.47.38,3.65,3.65,0,0,1-.36.21,3.35,3.35,0,0,1-.38.19c-.14.07-.31.16-.55.26a9.79,9.79,0,0,1-2,.7,8.41,8.41,0,0,1-1,.2,7.12,7.12,0,0,1-1,.12l-.34,0-.26,0-.43-.05c-.27,0-.53-.06-1.06-.14s-1.39-.28-1.48-.31a4.11,4.11,0,0,1-.57-.17h.2c.24,0,.24.07.49.1s.25,0,.5,0l.5.05a1.92,1.92,0,0,1,.34.05,1.1,1.1,0,0,0,.26,0c.1,0,.25,0,.29-.17a.15.15,0,0,0-.06-.17,2.33,2.33,0,0,0-.32,0c-.25,0-.25,0-.49,0l-.49,0-.49,0c-.25,0-.24-.08-.48-.11s-.25,0-.49-.06l-.48-.08-.23-.05h.09c.2,0,.2,0,.4,0s.19.05.4.06h1.2a1.88,1.88,0,0,0,.29,0c.17,0,.36,0,.52-.07a.15.15,0,0,0,.05-.23.28.28,0,0,0-.12-.08h-.73c-.2,0-.2,0-.4,0s-.2-.06-.4-.07-.2.05-.4,0h-.07c.47-.1.47-.14.94-.24s.49-.05,1-.15.47-.15,1-.26.48-.06,1-.17.46-.16.94-.26l.95-.2c.36-.07.45-.07.68-.11l.49-.13c.18-.05.47-.14.51-.29s-.05-.13-.16-.14L447,297c-.48.1-.47.15-.95.25l-.95.2c-.48.1-.48.12-.95.22s-.49.05-1,.16l-.35.07.45-.21a14.47,14.47,0,0,0,1.4-.87,7.84,7.84,0,0,0,1.25-1.09c.14-.14.28-.29.43-.47a.59.59,0,0,0,.14.06l1.41.14,1.05.12a5.39,5.39,0,0,1,1,.22c.5.16.75.27,1,.37l.3.13S451.36,296.32,451.35,296.35Z" transform="translate(-45.32 -284.39)"/></svg>