<svg id="Capa_1" data-name="Capa 1" xmlns="http://www.w3.org/2000/svg" viewBox="0 0 320.61 323.16"><defs><style>.cls-1{fill:#fffcf5;}.cls-2{fill:#e7e6de;}.cls-3{fill:#758d75;}</style></defs><path class="cls-1" d="M266.35,463.21l-.55-4.9L544.46,427,513.17,148.46l4.78-.54,31.84,283.42L266.35,463.21m11.51-16.7a6.82,6.82,0,0,1,.3-13.52h.77a6.84,6.84,0,0,1,6.39,4.44,7.56,7.56,0,0,0-1.06-.08c-.26,0-.52,0-.77,0a6.85,6.85,0,0,0-5.62,9.16m-3.46-30.85a6.82,6.82,0,0,1,.3-13.51,6.49,6.49,0,0,1,.77,0,6.85,6.85,0,0,1,6.38,4.44,7.42,7.42,0,0,0-1.05-.08,6.9,6.9,0,0,0-6.83,7c0,.21,0,.41,0,.62a6.84,6.84,0,0,0,.39,1.62m-3.47-30.84a6.82,6.82,0,0,1,.3-13.52H272a6.86,6.86,0,0,1,6.39,4.44,7.56,7.56,0,0,0-1.06-.08c-.26,0-.51,0-.77,0a6.82,6.82,0,0,0-6,7.54,6.37,6.37,0,0,0,.38,1.62M267.49,354a6.82,6.82,0,0,1,.3-13.52h.77a6.81,6.81,0,0,1,6.38,4.44,6.2,6.2,0,0,0-1.05-.09,6.9,6.9,0,0,0-6.83,7c0,.21,0,.42,0,.63a7.51,7.51,0,0,0,.39,1.62M264,323.17a6.82,6.82,0,1,1,7.46-9.12,7.42,7.42,0,0,0-1.05-.08c-.26,0-.51,0-.77,0a6.82,6.82,0,0,0-6,7.54,6.37,6.37,0,0,0,.38,1.62m-3.5-30.79a6.82,6.82,0,0,1,.3-13.52h.77a6.81,6.81,0,0,1,6.38,4.44,6.19,6.19,0,0,0-1.05-.08h-.77a6.83,6.83,0,0,0-6,7.54,7.37,7.37,0,0,0,.39,1.62m-3.47-30.85a6.82,6.82,0,1,1,7.44-9.15,7.42,7.42,0,0,0-1-.08,6.49,6.49,0,0,0-.77.05,6.81,6.81,0,0,0-6,7.53,6.37,6.37,0,0,0,.38,1.62m-3.46-30.86a6.82,6.82,0,0,1,.3-13.52c.25,0,.51,0,.77,0a6.85,6.85,0,0,1,6.38,4.44,7.42,7.42,0,0,0-1.05-.08h-.77a6.81,6.81,0,0,0-5.61,9.16m-3.47-30.84a6.82,6.82,0,0,1,.3-13.52c.25,0,.51,0,.77,0a6.83,6.83,0,0,1,6.38,4.4,6.2,6.2,0,0,0-1.05-.09c-.26,0-.52,0-.77,0a6.85,6.85,0,0,0-6,7.58,6.62,6.62,0,0,0,.38,1.58" transform="translate(-229.18 -140.05)"/><path class="cls-2" d="M279.69,446.55a6.82,6.82,0,1,1,6-7.55h0a6.82,6.82,0,0,1-6,7.54m-11-36.86a6.82,6.82,0,1,1,7.55,6h0a6.82,6.82,0,0,1-7.54-6m-3.46-30.85a6.82,6.82,0,1,1,7.55,6h0a6.82,6.82,0,0,1-7.54-6M261.76,348a6.82,6.82,0,1,1,7.55,6h0a6.82,6.82,0,0,1-7.54-6m-3.46-30.85a6.82,6.82,0,1,1,7.55,6h0a6.8,6.8,0,0,1-7.54-6h0m-3.48-30.81a6.82,6.82,0,1,1,7.55,6h0a6.82,6.82,0,0,1-7.54-6m-3.46-30.84a6.82,6.82,0,1,1,7.55,6h0a6.8,6.8,0,0,1-7.54-6h0m-3.47-30.85a6.82,6.82,0,1,1,7.55,6h0a6.82,6.82,0,0,1-7.54-6m-3.46-30.84a6.82,6.82,0,1,1,7.55,6h0a6.82,6.82,0,0,1-7.54-6m268.2-50.24L229.18,175.41,261,458.85,544.46,427,512.63,143.57" transform="translate(-229.18 -140.05)"/><path class="cls-3" d="M262.79,171.63c-.41-1.91-.83-3.81-1.28-5.71-.3-1.32-.45-3.22-.93-4.68l112-21.19c-.18,1.82,1.3,4.27,1.62,6a6.68,6.68,0,0,1,.37,2.25,9.87,9.87,0,0,0-.13,1.53,5.28,5.28,0,0,0,.74,1.84,16.24,16.24,0,0,1,1.19,5c.1.74.21,1.47.33,2.2L262.79,171.63" transform="translate(-229.18 -140.05)"/><path class="cls-3" d="M266.28,190c-.73-4.19-1.47-8.39-2.29-12.57q-.57-2.93-1.2-5.83l113.84-12.79a89.87,89.87,0,0,0,2.18,9.89L266.24,190" transform="translate(-229.18 -140.05)"/><path class="cls-1" d="M426.19,365.62a3.7,3.7,0,0,0-.61-.64c1.15-1.53,2.31-3,3.46-4.56A57,57,0,0,1,426.19,365.62ZM420.5,374l.62-.54a4.21,4.21,0,0,0,0,.71l-.6-.17Zm-61.87-29.11a3.33,3.33,0,0,0,4-1.46c2.39-3.71,4.19-7.83,6.3-11.7.7-1.29,1.42-2.57,2.14-3.84l-2.64,5.6c-1,2.1-2,4.19-2.92,6.33-.34.8-.63,1.66-.93,2.52-.57,1.15-1.12,2.31-1.63,3.48a4,4,0,0,0-.35,1.78c-1.34-.89-2.68-1.79-4-2.71Zm-25.32-24.13c4.67-7.14,10.75-13.47,16.56-19.83-2.06,3.21-4.08,6.43-6,9.74q-1.8,3.15-3.65,6.24a32.45,32.45,0,0,0-1.79,3.17,6.9,6.9,0,0,0-.33.9c-.46.73-.9,1.48-1.3,2.26a4,4,0,0,0-.44,1.62q-1.59-2-3.06-4.1Zm-5.1-8.91a2.61,2.61,0,0,0,1.94-.39c.41-.28.82-.58,1.2-.9-.65,1.24-1.3,2.47-2,3.7-.41-.8-.8-1.6-1.18-2.41Zm.14-9.11a23.43,23.43,0,0,0-2.17,4,42.23,42.23,0,0,1-1.28-4.56,3.22,3.22,0,0,0,3.45.57Zm.06-11.67,2.92-3.12c-.67.88-1.34,1.76-2,2.66-1.92,2.66-4.09,5.28-5,8.47-.11-.78-.2-1.56-.27-2.35,1.5-1.82,2.76-4,4.35-5.66Zm-3.53-2-.7.84a8.67,8.67,0,0,1,.2-1.42,2.79,2.79,0,0,0,.5.58Zm14.31-24.32-.62.79c-2,2.55-4.77,5.17-5.8,8.31a2.74,2.74,0,0,0-.09.39,90.45,90.45,0,0,0-6.33,7.23,36.64,36.64,0,0,1,12.84-16.72Zm13.71-4.21a15.06,15.06,0,0,1,2.12.2l-.8.36a6.8,6.8,0,0,0-3.46,1.59l-.92.41a5.08,5.08,0,0,0,.18-1.23,3.22,3.22,0,0,0-.22-1.19,21.38,21.38,0,0,1,3.1-.14Zm60.56-4.35a42.77,42.77,0,0,1,6.77-8.23l-.86,1.3c-3.42,5-6.81,10-10.25,15a57.82,57.82,0,0,1,4.34-8.05Zm-3.83,82.15c-3.36,5.23-6.4,10.66-9.52,16,1.62-3.46,3-7.06,4.37-10.62l2-2.85c6.24-8.86,12.15-17.94,18.12-27s12.06-18.2,18.49-27c1.52-2.08,3.06-4.13,4.59-6.18q-1.53,2.6-3.11,5.17c-5.5,9-11.32,17.81-17.26,26.54s-12,17.1-17.69,25.9ZM394.94,363l-1,1.58a3.49,3.49,0,0,0-.39.74L393,365a17.7,17.7,0,0,0,2-2.06Zm-10.6-3.61c2.59-2.79,4.35-6.09,6.37-9.29,2.61-4.14,5.41-8.17,8.23-12.17.37-.53.76-1.06,1.14-1.59l-1.35,3.12a151.91,151.91,0,0,0-9.24,14.19c-1.25,2.26-3.07,5.1-3.65,7.89l-2.52-1.38a3.27,3.27,0,0,0,1-.77Zm-6.2-4c.05-.18.12-.35.17-.53a7.89,7.89,0,0,0-.13,2,.75.75,0,0,0,.07.39l-.72-.42a7,7,0,0,0,.61-1.47Zm2.64-25.64q-2.61,5.43-5.15,10.84c-1.85,4-4,8-4.79,12.29-1.16-.7-2.31-1.41-3.46-2.12a4,4,0,0,0,1.58-1.35,13.77,13.77,0,0,0,1.72-3.66A128.55,128.55,0,0,1,380.78,329.65ZM407.13,300q5-8.53,10.63-16.62C414.19,288.91,410.61,294.38,407.13,300Zm-2.65-12.73a3.07,3.07,0,0,0,1.5,1.18c-.56.88-1.1,1.77-1.65,2.65C404.42,289.83,404.46,288.55,404.48,287.27ZM458.1,258a20.07,20.07,0,0,0-2.29,1.33c.21-.31.42-.63.64-.94s.67-.88,1.06-1.35a11.49,11.49,0,0,1,.59,1ZM463,274.53a4.3,4.3,0,0,0-1.56.77c-2.92,2.31-4,6.25-5.85,9.37-2.34,4-5.06,7.81-7.77,11.59-4.72,6.58-9.64,13-14.67,19.35l.62-.91c6-8.94,11.81-18,17.31-27.19,2.66-4.47,5.25-9,7.69-13.59,1-1.87,2.11-3.74,3.13-5.65A60.73,60.73,0,0,1,463,274.53Zm-30-32.46a15.69,15.69,0,0,1,1.67.15,8.68,8.68,0,0,1-1,.27h-.24a4.28,4.28,0,0,0-.4-.45Zm.34,28.69c2.87-4.73,5.72-9.48,8.47-14.28a84.27,84.27,0,0,0,5-9.08c.12.08.25.15.38.22.83.48,1.64,1,2.41,1.51a40.91,40.91,0,0,0-6.89,7.45c-5.24,7-9.16,15.09-13.55,22.66q-6.17,10.63-11.92,21.49l-1,1.36c-4.21,5.76-8.52,11.45-12.8,17.17q5.86-10.14,12-20.11c5.9-9.49,12-18.84,17.84-28.39Zm-45.59,19.83a5,5,0,0,0-1.16-.13l.52-.89.64,1Zm-4.47-6.68a21.46,21.46,0,0,0-6.66,4.77,37.56,37.56,0,0,0,4.62-7.54c.69.91,1.37,1.84,2,2.77Zm-8-9,.44-.56.32.35c.06.06.11.13.16.19a7.77,7.77,0,0,0-2.07,2.46,24.14,24.14,0,0,1-3.81,5l-1,1.08c1.91-2.91,3.89-5.77,6-8.55Zm-18.82-7.85,1.12-.44.41-.17c-.59.95-1.19,1.85-1.62,2.6-.21.37-.44.74-.66,1.12l-.36.38v-.16a30.34,30.34,0,0,0,1.13-3.33Zm4.59,9.75q-3.64,4.47-7.31,8.9c2-3.23,4-6.47,5.91-9.72.32-.54.68-1.1,1.05-1.67,1.21-1.44,2.43-2.87,3.56-4.4a2.42,2.42,0,0,0,.41-2.29,20.81,20.81,0,0,0,1-2.44c1.19.82,2.33,1.71,3.44,2.65-3.13,2.57-5.51,5.85-8.06,9ZM342.93,332q-1.79-1.75-3.48-3.61a3.66,3.66,0,0,0,2.88-.9,7.7,7.7,0,0,0,1.91-3.06,119.86,119.86,0,0,1,7.57-9.71l1.43-1.82q-1.32,2.1-2.66,4.2c-2.66,4.17-5.93,8.25-7.66,12.91a2.76,2.76,0,0,0,0,2Zm8.89,5.14c.44,2.31,2.95,3,4.81,2.14-.13.48-.25,1-.34,1.46a3.63,3.63,0,0,0,.68,3,124.24,124.24,0,0,1-11.66-9.44,2.94,2.94,0,0,0,3.47-.84c5.86-7.5,10.84-15.58,17-22.88l.33-.38c-1.3,2-2.61,4.08-3.89,6.14a110.32,110.32,0,0,0-6.88,10.77c-1.76,3.14-4.23,6.3-3.51,10.07Zm66.81,9.57c-2.44,3.95-4.95,7.86-7.48,11.75-1.16,1.8-2.26,3.69-3.4,5.55a50.79,50.79,0,0,0-3.55,4.83c-1.29-.36-2.58-.73-3.86-1.13,7.41-9.68,15.18-19.1,22.94-28.51Zm-5.5,24.7-.18-.06-1.3-.4c.94-1.3,1.85-2.64,2.74-4,2.51-3,5.27-5.78,7.75-8.68l-2.95,3.83c-2.28,3-4.05,6.17-6.06,9.3ZM462.44,294a3.88,3.88,0,0,0-2.25,1.59q-4,5.65-8,11.26c.79-1.24,1.59-2.47,2.38-3.7,2.78-4.34,5.93-8.78,8.5-13.45-.16,1.44-.37,2.88-.63,4.3Zm-5.58-53.63c-6.83-4.78-15.92-10-24.49-9.77-8.25.21-16,5.06-21.63,10.82a64.54,64.54,0,0,0-14.21,23.51,65.8,65.8,0,0,0-3.09,14.28c-2.55-3.59-5.23-7.1-8.12-10.41-6.53-7.5-14.73-14.77-24.46-17.63-17.32-5.11-34.18,6.53-41.8,21.63-8.25,16.33-5.43,34.91,4.13,50.07,9.39,14.9,24,25.71,38.9,34.63,9,5.38,18.3,10.69,28.08,14.5a138.34,138.34,0,0,0,18.53,5.28c5.76,1.37,11.27,4.19,17.32,3.6a3.22,3.22,0,0,0,1.37-.45,5.58,5.58,0,0,0,4.17-1.84c6.56-6.77,9.6-15.75,14.23-23.81,4.39-7.64,9.27-15,13.7-22.59,8.66-14.91,15.37-31,15.47-48.49.08-16.08-4.29-33.67-18.1-43.33Z" transform="translate(-229.18 -140.05)"/></svg>